999
dxfrw 0.5.10
0
SECTION
2
HEADER
9
$ACADVER
1
AC1021
9
$HANDSEED
5
20000
9
$DWGCODEPAGE
3
ANSI_1252
9
$INSBASE
10
0
20
0
30
0
9
$EXTMIN
10
-22.0256350946
20
-13.1495190528
30
0
9
$EXTMAX
10
722.900635095
20
631.217782649
30
0
9
$LIMMIN
10
0
20
0
9
$LIMMAX
10
420
20
297
9
$ORTHOMODE
70
0
9
$LTSCALE
40
1
9
$TEXTSTYLE
7
STANDARD
9
$CLAYER
8
plateau triangle
9
$DIMASZ
40
2.5
9
$DIMLFAC
40
1
9
$DIMSCALE
40
1
9
$DIMEXO
40
0.625
9
$DIMEXE
40
1.25
9
$DIMTXT
40
10
9
$DIMTSZ
40
0
9
$DIMAUNIT
70
0
9
$DIMADEC
70
2
9
$DIMLUNIT
70
2
9
$DIMSTYLE
2
STANDARD
9
$DIMGAP
40
0.625
9
$DIMTIH
70
0
9
$LUNITS
70
2
9
$LUPREC
70
4
9
$AUNITS
70
0
9
$AUPREC
70
2
9
$SPLINESEGS
70
8
9
$GRIDMODE
70
1
9
$SNAPSTYLE
70
0
9
$GRIDUNIT
10
0
20
0
9
$PINSBASE
10
81.6536617085
20
49.3585766975
30
0
9
$PLIMMIN
10
0
20
0
9
$PLIMMAX
10
297
20
210
9
$INSUNITS
70
0
9
$PSVPSCALE
40
0.2
0
ENDSEC
0
SECTION
2
CLASSES
0
ENDSEC
0
SECTION
2
TABLES
0
TABLE
2
VPORT
5
8
330
0
100
AcDbSymbolTable
70
1
0
VPORT
5
31
330
2
100
AcDbSymbolTableRecord
100
AcDbViewportTableRecord
2
*ACTIVE
70
0
10
0
20
0
11
1
21
1
12
703.446582698
22
460.437763221
13
0
23
0
14
10
24
10
15
10
25
10
16
0
26
0
36
1
17
0
27
0
37
0
40
1290.93106207
41
1.62747688243
42
50
43
0
44
0
50
0
51
0
71
0
72
100
73
1
74
3
75
0
76
1
77
0
78
0
281
0
65
1
110
0
120
0
130
0
111
1
121
0
131
0
112
0
122
1
132
0
79
0
146
0
348
10020
60
7
61
5
292
1
282
1
141
0
142
0
63
250
421
3358443
0
ENDTAB
0
TABLE
2
LTYPE
5
5
330
0
100
AcDbSymbolTable
70
4
0
LTYPE
5
14
330
5
100
AcDbSymbolTableRecord
100
AcDbLinetypeTableRecord
2
ByBlock
70
0
3

72
65
73
0
40
0
0
LTYPE
5
15
330
5
100
AcDbSymbolTableRecord
100
AcDbLinetypeTableRecord
2
ByLayer
70
0
3

72
65
73
0
40
0
0
LTYPE
5
16
330
5
100
AcDbSymbolTableRecord
100
AcDbLinetypeTableRecord
2
Continuous
70
0
3
Solid line
72
65
73
0
40
0
0
LTYPE
5
32
330
5
100
AcDbSymbolTableRecord
100
AcDbLinetypeTableRecord
2
DOT
70
0
3
Dot . . . . . . . . . . . . . . . . . . . . . .
72
65
73
2
40
6.35
49
0
74
0
49
-6.35
74
0
0
LTYPE
5
33
330
5
100
AcDbSymbolTableRecord
100
AcDbLinetypeTableRecord
2
DOT2
70
0
3
Dot (.5x) .....................................
72
65
73
2
40
3.175
49
0
74
0
49
-3.175
74
0
0
LTYPE
5
34
330
5
100
AcDbSymbolTableRecord
100
AcDbLinetypeTableRecord
2
DOTX2
70
0
3
Dot (2x) .  .  .  .  .  .  .  .  .  .  .  .  .
72
65
73
2
40
12.7
49
0
74
0
49
-12.7
74
0
0
LTYPE
5
35
330
5
100
AcDbSymbolTableRecord
100
AcDbLinetypeTableRecord
2
DASHED
70
0
3
Dot . . . . . . . . . . . . . . . . . . . . . .
72
65
73
2
40
19.05
49
12.7
74
0
49
-6.35
74
0
0
LTYPE
5
36
330
5
100
AcDbSymbolTableRecord
100
AcDbLinetypeTableRecord
2
DASHED2
70
0
3
Dashed (.5x) _ _ _ _ _ _ _ _ _ _ _ _ _ _ _ _ _
72
65
73
2
40
9.525
49
6.35
74
0
49
-3.175
74
0
0
LTYPE
5
37
330
5
100
AcDbSymbolTableRecord
100
AcDbLinetypeTableRecord
2
DASHEDX2
70
0
3
Dashed (2x) ____  ____  ____  ____  ____  ___
72
65
73
2
40
38.1
49
25.4
74
0
49
-12.7
74
0
0
LTYPE
5
38
330
5
100
AcDbSymbolTableRecord
100
AcDbLinetypeTableRecord
2
DASHDOT
70
0
3
Dash dot __ . __ . __ . __ . __ . __ . __ . __
72
65
73
4
40
25.4
49
12.7
74
0
49
-6.35
74
0
49
0
74
0
49
-6.35
74
0
0
LTYPE
5
39
330
5
100
AcDbSymbolTableRecord
100
AcDbLinetypeTableRecord
2
DASHDOT2
70
0
3
Dash dot (.5x) _._._._._._._._._._._._._._._.
72
65
73
4
40
12.7
49
6.35
74
0
49
-3.175
74
0
49
0
74
0
49
-3.175
74
0
0
LTYPE
5
3A
330
5
100
AcDbSymbolTableRecord
100
AcDbLinetypeTableRecord
2
DASHDOTX2
70
0
3
Dash dot (2x) ____  .  ____  .  ____  .  ___
72
65
73
4
40
50.8
49
25.4
74
0
49
-12.7
74
0
49
0
74
0
49
-12.7
74
0
0
LTYPE
5
3B
330
5
100
AcDbSymbolTableRecord
100
AcDbLinetypeTableRecord
2
DIVIDE
70
0
3
Divide ____ . . ____ . . ____ . . ____ . . ____
72
65
73
6
40
31.75
49
12.7
74
0
49
-6.35
74
0
49
0
74
0
49
-6.35
74
0
49
0
74
0
49
-6.35
74
0
0
LTYPE
5
3C
330
5
100
AcDbSymbolTableRecord
100
AcDbLinetypeTableRecord
2
DIVIDE2
70
0
3
Divide (.5x) __..__..__..__..__..__..__..__.._
72
65
73
6
40
15.875
49
6.35
74
0
49
-3.175
74
0
49
0
74
0
49
-3.175
74
0
49
0
74
0
49
-3.175
74
0
0
LTYPE
5
3D
330
5
100
AcDbSymbolTableRecord
100
AcDbLinetypeTableRecord
2
DIVIDEX2
70
0
3
Divide (2x) ________  .  .  ________  .  .  _
72
65
73
6
40
63.5
49
25.4
74
0
49
-12.7
74
0
49
0
74
0
49
-12.7
74
0
49
0
74
0
49
-12.7
74
0
0
LTYPE
5
3E
330
5
100
AcDbSymbolTableRecord
100
AcDbLinetypeTableRecord
2
BORDER
70
0
3
Border __ __ . __ __ . __ __ . __ __ . __ __ .
72
65
73
6
40
44.45
49
12.7
74
0
49
-6.35
74
0
49
12.7
74
0
49
-6.35
74
0
49
0
74
0
49
-6.35
74
0
0
LTYPE
5
3F
330
5
100
AcDbSymbolTableRecord
100
AcDbLinetypeTableRecord
2
BORDER2
70
0
3
Border (.5x) __.__.__.__.__.__.__.__.__.__.__.
72
65
73
6
40
22.225
49
6.35
74
0
49
-3.175
74
0
49
6.35
74
0
49
-3.175
74
0
49
0
74
0
49
-3.175
74
0
0
LTYPE
5
40
330
5
100
AcDbSymbolTableRecord
100
AcDbLinetypeTableRecord
2
BORDERX2
70
0
3
Border (2x) ____  ____  .  ____  ____  .  ___
72
65
73
6
40
88.9
49
25.4
74
0
49
-12.7
74
0
49
25.4
74
0
49
-12.7
74
0
49
0
74
0
49
-12.7
74
0
0
LTYPE
5
41
330
5
100
AcDbSymbolTableRecord
100
AcDbLinetypeTableRecord
2
CENTER
70
0
3
Center ____ _ ____ _ ____ _ ____ _ ____ _ ____
72
65
73
4
40
50.8
49
31.75
74
0
49
-6.35
74
0
49
6.35
74
0
49
-6.35
74
0
0
LTYPE
5
42
330
5
100
AcDbSymbolTableRecord
100
AcDbLinetypeTableRecord
2
CENTER2
70
0
3
Center (.5x) ___ _ ___ _ ___ _ ___ _ ___ _ ___
72
65
73
4
40
28.575
49
19.05
74
0
49
-3.175
74
0
49
3.175
74
0
49
-3.175
74
0
0
LTYPE
5
43
330
5
100
AcDbSymbolTableRecord
100
AcDbLinetypeTableRecord
2
CENTERX2
70
0
3
Center (2x) ________  __  ________  __  _____
72
65
73
4
40
101.6
49
63.5
74
0
49
-12.7
74
0
49
12.7
74
0
49
-12.7
74
0
0
ENDTAB
0
TABLE
2
LAYER
5
2
330
0
100
AcDbSymbolTable
70
1
0
LAYER
5
10
330
2
100
AcDbSymbolTableRecord
100
AcDbLayerTableRecord
2
0
70
1
62
7
6
CONTINUOUS
370
0
390
F
0
LAYER
5
44
330
2
100
AcDbSymbolTableRecord
100
AcDbLayerTableRecord
2
Profils-T
70
0
62
7
6
CONTINUOUS
370
0
390
F
0
LAYER
5
45
330
2
100
AcDbSymbolTableRecord
100
AcDbLayerTableRecord
2
plateauRond
70
1
62
7
6
CONTINUOUS
370
0
390
F
0
LAYER
5
46
330
2
100
AcDbSymbolTableRecord
100
AcDbLayerTableRecord
2
cotes
70
1
62
8
6
CONTINUOUS
370
0
390
F
0
LAYER
5
47
330
2
100
AcDbSymbolTableRecord
100
AcDbLayerTableRecord
2
plateau triangle
70
0
62
7
6
CONTINUOUS
370
0
390
F
0
LAYER
5
48
330
2
100
AcDbSymbolTableRecord
100
AcDbLayerTableRecord
2
plateau triangle2 -cotes
70
1
62
7
6
CONTINUOUS
370
0
390
F
0
ENDTAB
0
TABLE
2
STYLE
5
3
330
0
100
AcDbSymbolTable
70
3
0
STYLE
5
49
330
2
100
AcDbSymbolTableRecord
100
AcDbTextStyleTableRecord
2
Standard
70
0
40
0
41
1
50
0
71
0
42
1
3
txt
4

0
ENDTAB
0
TABLE
2
VIEW
5
6
330
0
100
AcDbSymbolTable
70
0
0
ENDTAB
0
TABLE
2
UCS
5
7
330
0
100
AcDbSymbolTable
70
0
0
ENDTAB
0
TABLE
2
APPID
5
9
330
0
100
AcDbSymbolTable
70
1
0
APPID
5
12
330
9
100
AcDbSymbolTableRecord
100
AcDbRegAppTableRecord
2
ACAD
70
0
0
ENDTAB
0
TABLE
2
DIMSTYLE
5
A
330
0
100
AcDbSymbolTable
70
1
100
AcDbDimStyleTable
71
1
0
DIMSTYLE
105
4A
330
A
100
AcDbSymbolTableRecord
100
AcDbDimStyleTableRecord
2
Standard
70
0
40
1
41
2.5
42
0.625
43
0.38
44
1.25
45
0
46
0
47
0
48
0
140
10
141
0.09
142
0
143
25.4
144
1
145
0
146
1
147
0.625
148
0
71
0
72
0
73
0
74
1
75
0
76
0
77
0
78
0
79
0
170
0
171
2
172
0
173
0
174
0
175
0
176
0
177
0
178
0
179
0
271
4
272
4
273
2
274
2
275
0
276
0
277
2
278
46
279
0
280
0
281
0
282
0
283
1
284
0
285
0
286
0
288
0
289
3
340
Standard
341

371
-2
372
-2
0
ENDTAB
0
TABLE
2
BLOCK_RECORD
5
1
330
0
100
AcDbSymbolTable
70
2
0
BLOCK_RECORD
5
1F
330
1
100
AcDbSymbolTableRecord
100
AcDbBlockTableRecord
2
*Model_Space
70
0
280
1
281
0
0
BLOCK_RECORD
5
1E
330
1
100
AcDbSymbolTableRecord
100
AcDbBlockTableRecord
2
*Paper_Space
70
0
280
1
281
0
0
BLOCK_RECORD
5
4B
330
1
100
AcDbSymbolTableRecord
100
AcDbBlockTableRecord
2
*D3
70
0
280
1
281
0
0
BLOCK_RECORD
5
4E
330
1
100
AcDbSymbolTableRecord
100
AcDbBlockTableRecord
2
*D1
70
0
280
1
281
0
0
BLOCK_RECORD
5
51
330
1
100
AcDbSymbolTableRecord
100
AcDbBlockTableRecord
2
*D2
70
0
280
1
281
0
0
ENDTAB
0
ENDSEC
0
SECTION
2
BLOCKS
0
BLOCK
5
20
330
1F
100
AcDbEntity
8
0
100
AcDbBlockBegin
2
*Model_Space
70
0
10
0
20
0
30
0
3
*Model_Space
1

0
ENDBLK
5
21
330
1F
100
AcDbEntity
8
0
100
AcDbBlockEnd
0
BLOCK
5
1C
330
1B
100
AcDbEntity
8
0
100
AcDbBlockBegin
2
*Paper_Space
70
0
10
0
20
0
30
0
3
*Paper_Space
1

0
ENDBLK
5
1D
330
1F
100
AcDbEntity
8
0
100
AcDbBlockEnd
0
BLOCK
5
4C
330
4B
100
AcDbEntity
8
0
100
AcDbBlockBegin
2
*D3
70
1
10
0
20
0
3
*D3
1

0
LINE
5
54
100
AcDbEntity
8
plateau triangle
6
CONTINUOUS
62
7
370
0
100
AcDbLine
10
350.625
20
631.217782649
11
351.25
21
631.217782649
0
LINE
5
55
100
AcDbEntity
8
plateau triangle
6
CONTINUOUS
62
7
370
0
100
AcDbLine
10
722.275635095
20
-12.5
11
722.900635095
21
-12.5
0
LINE
5
56
100
AcDbEntity
8
plateau triangle
6
CONTINUOUS
62
7
370
0
100
AcDbLine
10
350
20
631.217782649
11
721.650635095
21
-12.5
0
SOLID
5
57
100
AcDbEntity
8
plateau triangle
6
CONTINUOUS
62
7
370
0
100
AcDbTrace
10
350
20
631.217782649
30
0
11
351.610513089
21
629.260861469
31
0
12
350.889486911
22
628.844576811
32
0
13
350.889486911
23
628.844576811
33
0
0
SOLID
5
58
100
AcDbEntity
8
plateau triangle
6
CONTINUOUS
62
7
370
0
100
AcDbTrace
10
721.650635095
20
-12.5
30
0
11
720.040122006
21
-10.5430788194
31
0
12
720.761148183
22
-10.1267941617
32
0
13
720.761148183
23
-10.1267941617
33
0
0
MTEXT
5
59
100
AcDbEntity
8
plateau triangle
6
CONTINUOUS
62
7
370
0
100
AcDbMText
10
540.696710444
20
312.171391325
30
0
40
10
41
53.3333333333
71
5
72
1
1
743.3013
7
standard
210
0
220
0
230
1
50
300
73
2
44
1
0
ENDBLK
5
4D
330
4B
100
AcDbEntity
8
0
100
AcDbBlockEnd
0
BLOCK
5
4F
330
4E
100
AcDbEntity
8
0
100
AcDbBlockBegin
2
*D1
70
1
10
0
20
0
3
*D1
1

0
LINE
5
5A
100
AcDbEntity
8
cotes
6
CONTINUOUS
62
7
370
0
100
AcDbLine
10
0.625
20
2.30926389122e-14
11
1.25
21
2.30926389122e-14
0
LINE
5
5B
100
AcDbEntity
8
cotes
6
CONTINUOUS
62
7
370
0
100
AcDbLine
10
350.625
20
606.217782649
11
351.25
21
606.217782649
0
LINE
5
5C
100
AcDbEntity
8
cotes
6
CONTINUOUS
62
7
370
0
100
AcDbLine
10
5.68434188608e-14
20
2.30926389122e-14
11
350
21
606.217782649
0
SOLID
5
5D
100
AcDbEntity
8
cotes
6
CONTINUOUS
62
7
370
0
100
AcDbTrace
10
5.68434188608e-14
20
2.30926389122e-14
30
0
11
0.889486911163
21
2.37320583835
31
0
12
1.61051308884
22
1.95692118057
32
0
13
1.61051308884
23
1.95692118057
33
0
0
SOLID
5
5E
100
AcDbEntity
8
cotes
6
CONTINUOUS
62
7
370
0
100
AcDbTrace
10
350
20
606.217782649
30
0
11
349.110513089
21
603.844576811
31
0
12
348.389486911
22
604.260861469
32
0
13
348.389486911
23
604.260861469
33
0
0
MTEXT
5
5F
100
AcDbEntity
8
cotes
6
CONTINUOUS
62
7
370
0
100
AcDbMText
10
170.128607104
20
305.921391325
30
0
40
10
41
20
71
5
72
1
1
700
7
standard
210
0
220
0
230
1
50
60
73
2
44
1
0
ENDBLK
5
50
330
4E
100
AcDbEntity
8
0
100
AcDbBlockEnd
0
BLOCK
5
52
330
51
100
AcDbEntity
8
0
100
AcDbBlockBegin
2
*D2
70
1
10
0
20
0
3
*D2
1

0
LINE
5
60
100
AcDbEntity
8
cotes
6
CONTINUOUS
62
7
370
0
100
AcDbLine
10
350
20
202.072594216
11
779.145177967
21
202.072594216
0
SOLID
5
61
100
AcDbEntity
8
cotes
6
CONTINUOUS
62
7
370
0
100
AcDbTrace
10
350
20
202.072594216
30
0
11
352.5
21
202.488878874
31
0
12
352.5
22
201.656309559
32
0
13
352.5
23
201.656309559
33
0
0
SOLID
5
62
100
AcDbEntity
8
cotes
6
CONTINUOUS
62
7
370
0
100
AcDbTrace
10
779.145177967
20
202.072594216
30
0
11
776.645177967
21
201.656309559
31
0
12
776.645177967
22
202.488878874
32
0
13
776.645177967
23
202.488878874
33
0
0
MTEXT
5
63
100
AcDbEntity
8
cotes
6
CONTINUOUS
62
7
370
0
100
AcDbMText
10
564.572588984
20
207.697594216
30
0
40
10
41
54.4444444444
71
5
72
1
1
429.1452
7
standard
210
0
220
0
230
1
50
0
73
2
44
1
0
LINE
5
64
100
AcDbEntity
8
cotes
6
CONTINUOUS
62
7
370
0
100
AcDbLine
10
350
20
202.697594216
11
350
21
203.322594216
0
LINE
5
65
100
AcDbEntity
8
cotes
6
CONTINUOUS
62
7
370
0
100
AcDbLine
10
779.145177967
20
202.697594216
11
779.145177967
21
203.322594216
0
ENDBLK
5
53
330
51
100
AcDbEntity
8
0
100
AcDbBlockEnd
0
ENDSEC
0
SECTION
2
ENTITIES
0
HATCH
5
66
100
AcDbEntity
8
Profils-T
6
ByLayer
62
256
370
-1
100
AcDbHatch
10
0
20
0
30
0
210
0
220
0
230
1
2
SOLID
70
1
71
0
91
1
92
0
93
8
72
1
10
350.75
20
626.217782649
11
349.25
21
626.217782649
72
1
10
349.25
20
626.217782649
11
349.25
21
607.717782649
72
1
10
349.25
20
607.717782649
11
340
21
607.717782649
72
1
10
340
20
607.717782649
11
340
21
606.217782649
72
1
10
340
20
606.217782649
11
360
21
606.217782649
72
1
10
360
20
606.217782649
11
360
21
607.717782649
72
1
10
360
20
607.717782649
11
350.75
21
607.717782649
72
1
10
350.75
20
607.717782649
11
350.75
21
626.217782649
97
0
75
0
76
1
98
0
0
HATCH
5
67
100
AcDbEntity
8
Profils-T
6
ByLayer
62
256
370
-1
100
AcDbHatch
10
0
20
0
30
0
210
0
220
0
230
1
2
SOLID
70
1
71
0
91
1
92
0
93
8
72
1
10
-16.9455080757
20
-10.6495190528
11
-17.6955080757
21
-9.35048094716
72
1
10
-17.6955080757
20
-9.35048094716
11
-1.67403810568
21
-0.100480947162
72
1
10
-1.67403810568
20
-0.100480947162
11
-6.29903810568
21
7.91025403784
72
1
10
-6.29903810568
20
7.91025403784
11
-5
21
8.66025403784
72
1
10
-5
20
8.66025403784
11
5
21
-8.66025403784
72
1
10
5
20
-8.66025403784
11
3.70096189432
21
-9.41025403784
72
1
10
3.70096189432
20
-9.41025403784
11
-0.924038105677
21
-1.39951905284
72
1
10
-0.924038105677
20
-1.39951905284
11
-16.9455080757
21
-10.6495190528
97
0
75
0
76
1
98
0
0
HATCH
5
68
100
AcDbEntity
8
Profils-T
6
ByLayer
62
256
370
-1
100
AcDbHatch
10
0
20
0
30
0
210
0
220
0
230
1
2
SOLID
70
1
71
0
91
1
92
0
93
8
72
1
10
716.945508076
20
-10.6495190528
11
717.695508076
21
-9.35048094716
72
1
10
717.695508076
20
-9.35048094716
11
701.674038106
21
-0.100480947162
72
1
10
701.674038106
20
-0.100480947162
11
706.299038106
21
7.91025403784
72
1
10
706.299038106
20
7.91025403784
11
705
21
8.66025403784
72
1
10
705
20
8.66025403784
11
695
21
-8.66025403784
72
1
10
695
20
-8.66025403784
11
696.299038106
21
-9.41025403784
72
1
10
696.299038106
20
-9.41025403784
11
700.924038106
21
-1.39951905284
72
1
10
700.924038106
20
-1.39951905284
11
716.945508076
21
-10.6495190528
97
0
75
0
76
1
98
0
0
LINE
5
69
100
AcDbEntity
8
Profils-T
6
ByLayer
62
256
370
-1
100
AcDbLine
10
716.945508076
20
-10.6495190528
11
717.695508076
21
-9.35048094716
0
LINE
5
6A
100
AcDbEntity
8
Profils-T
6
ByLayer
62
256
370
-1
100
AcDbLine
10
695
20
-8.66025403784
11
696.299038106
21
-9.41025403784
0
LINE
5
6B
100
AcDbEntity
8
Profils-T
6
ByLayer
62
256
370
-1
100
AcDbLine
10
695
20
-8.66025403784
11
705
21
8.66025403784
0
LINE
5
6C
100
AcDbEntity
8
Profils-T
6
ByLayer
62
256
370
-1
100
AcDbLine
10
705
20
8.66025403784
11
706.299038106
21
7.91025403784
0
LINE
5
6D
100
AcDbEntity
8
Profils-T
6
ByLayer
62
256
370
-1
100
AcDbLine
10
701.674038106
20
-0.100480947162
11
706.299038106
21
7.91025403784
0
LINE
5
6E
100
AcDbEntity
8
Profils-T
6
ByLayer
62
256
370
-1
100
AcDbLine
10
701.674038106
20
-0.100480947162
11
717.695508076
21
-9.35048094716
0
LINE
5
6F
100
AcDbEntity
8
Profils-T
6
ByLayer
62
256
370
-1
100
AcDbLine
10
696.299038106
20
-9.41025403784
11
700.924038106
21
-1.39951905284
0
LINE
5
70
100
AcDbEntity
8
Profils-T
6
ByLayer
62
256
370
-1
100
AcDbLine
10
700.924038106
20
-1.39951905284
11
716.945508076
21
-10.6495190528
0
LINE
5
71
100
AcDbEntity
8
Profils-T
6
ByLayer
62
256
370
-1
100
AcDbLine
10
-16.9455080757
20
-10.6495190528
11
-17.6955080757
21
-9.35048094716
0
LINE
5
72
100
AcDbEntity
8
Profils-T
6
ByLayer
62
256
370
-1
100
AcDbLine
10
5
20
-8.66025403784
11
3.70096189432
21
-9.41025403784
0
LINE
5
73
100
AcDbEntity
8
Profils-T
6
ByLayer
62
256
370
-1
100
AcDbLine
10
5
20
-8.66025403784
11
-5
21
8.66025403784
0
LINE
5
74
100
AcDbEntity
8
Profils-T
6
ByLayer
62
256
370
-1
100
AcDbLine
10
-5
20
8.66025403784
11
-6.29903810568
21
7.91025403784
0
LINE
5
75
100
AcDbEntity
8
Profils-T
6
ByLayer
62
256
370
-1
100
AcDbLine
10
-1.67403810568
20
-0.100480947162
11
-6.29903810568
21
7.91025403784
0
LINE
5
76
100
AcDbEntity
8
Profils-T
6
ByLayer
62
256
370
-1
100
AcDbLine
10
-1.67403810568
20
-0.100480947162
11
-17.6955080757
21
-9.35048094716
0
LINE
5
77
100
AcDbEntity
8
Profils-T
6
ByLayer
62
256
370
-1
100
AcDbLine
10
3.70096189432
20
-9.41025403784
11
-0.924038105677
21
-1.39951905284
0
LINE
5
78
100
AcDbEntity
8
Profils-T
6
ByLayer
62
256
370
-1
100
AcDbLine
10
-0.924038105677
20
-1.39951905284
11
-16.9455080757
21
-10.6495190528
0
LINE
5
79
100
AcDbEntity
8
Profils-T
6
ByLayer
62
256
370
-1
100
AcDbLine
10
350.75
20
626.217782649
11
349.25
21
626.217782649
0
LINE
5
7A
100
AcDbEntity
8
Profils-T
6
ByLayer
62
256
370
-1
100
AcDbLine
10
360
20
606.217782649
11
360
21
607.717782649
0
LINE
5
7B
100
AcDbEntity
8
Profils-T
6
ByLayer
62
256
370
-1
100
AcDbLine
10
360
20
606.217782649
11
340
21
606.217782649
0
LINE
5
7C
100
AcDbEntity
8
Profils-T
6
ByLayer
62
256
370
-1
100
AcDbLine
10
340
20
606.217782649
11
340
21
607.717782649
0
LINE
5
7D
100
AcDbEntity
8
Profils-T
6
ByLayer
62
256
370
-1
100
AcDbLine
10
349.25
20
607.717782649
11
340
21
607.717782649
0
LINE
5
7E
100
AcDbEntity
8
Profils-T
6
ByLayer
62
256
370
-1
100
AcDbLine
10
349.25
20
607.717782649
11
349.25
21
626.217782649
0
LINE
5
7F
100
AcDbEntity
8
Profils-T
6
ByLayer
62
256
370
-1
100
AcDbLine
10
360
20
607.717782649
11
350.75
21
607.717782649
0
LINE
5
80
100
AcDbEntity
8
Profils-T
6
ByLayer
62
256
370
-1
100
AcDbLine
10
350.75
20
607.717782649
11
350.75
21
626.217782649
0
LINE
5
81
100
AcDbEntity
8
plateauRond
6
ByLayer
62
256
370
-1
100
AcDbLine
10
721.275635095
20
-13.1495190528
11
722.025635095
21
-11.8504809472
0
CIRCLE
5
82
100
AcDbEntity
8
plateauRond
6
ByLayer
62
256
370
-1
100
AcDbCircle
10
350
20
202.072594216
40
429.145188433
0
DIMENSION
5
83
100
AcDbEntity
8
cotes
6
ByLayer
62
256
370
-1
100
AcDbDimension
2
*D1
10
350
20
606.217782649
30
0
11
170.128607104
21
305.921391325
31
0
70
33
71
5
3
Standard
53
0
210
0
220
0
230
1
100
AcDbAlignedDimension
13
5.68434188608e-14
23
2.30926389122e-14
33
0
14
350
24
606.217782649
34
0
0
DIMENSION
5
84
100
AcDbEntity
8
cotes
6
ByLayer
62
256
370
-1
100
AcDbDimension
2
*D2
10
779.145177967
20
202.072594216
30
0
11
564.572588984
21
207.697594216
31
0
70
32
71
5
3
Standard
53
0
210
0
220
0
230
1
100
AcDbAlignedDimension
13
350
23
202.072594216
33
0
14
779.145177967
24
202.072594216
34
0
100
AcDbRotatedDimension
0
LINE
5
85
100
AcDbEntity
8
plateau triangle
6
ByLayer
62
256
370
-1
100
AcDbLine
10
-21.2756350946
20
-13.1495190528
11
-22.0256350946
21
-11.8504809472
0
LINE
5
86
100
AcDbEntity
8
plateau triangle
6
ByLayer
62
256
370
-1
100
AcDbLine
10
721.275635095
20
-13.1495190528
11
722.025635095
21
-11.8504809472
0
LINE
5
87
100
AcDbEntity
8
plateau triangle
6
ByLayer
62
256
370
-1
100
AcDbLine
10
350.75
20
631.217782649
11
349.25
21
631.217782649
0
LINE
5
88
100
AcDbEntity
8
plateau triangle
6
ByLayer
62
256
370
-1
100
AcDbLine
10
350
20
631.217782649
11
-21.6506350946
21
-12.5
0
LINE
5
89
100
AcDbEntity
8
plateau triangle
6
ByLayer
62
256
370
-1
100
AcDbLine
10
-21.6506350946
20
-12.5
11
721.650635095
21
-12.5
0
LINE
5
8A
100
AcDbEntity
8
plateau triangle
6
ByLayer
62
256
370
-1
100
AcDbLine
10
721.650635095
20
-12.5
11
350
21
631.217782649
0
DIMENSION
5
8B
100
AcDbEntity
8
plateau triangle
6
ByLayer
62
256
370
-1
100
AcDbDimension
2
*D3
10
721.650635095
20
-12.5
30
0
11
540.696710444
21
312.171391325
31
0
70
33
71
5
3
Standard
53
0
210
0
220
0
230
1
100
AcDbAlignedDimension
13
350
23
631.217782649
33
0
14
721.650635095
24
-12.5
34
0
0
ENDSEC
0
SECTION
2
OBJECTS
0
DICTIONARY
5
C
330
0
100
AcDbDictionary
281
1
3
ACAD_GROUP
350
D
0
DICTIONARY
5
D
330
C
100
AcDbDictionary
281
1
0
ENDSEC
0
EOF
