999
dxfrw 0.5.10
0
SECTION
2
HEADER
9
$ACADVER
1
AC1021
9
$HANDSEED
5
20000
9
$DWGCODEPAGE
3
ANSI_1252
9
$INSBASE
10
0
20
0
30
0
9
$EXTMIN
10
10000000000
20
10000000000
30
0
9
$EXTMAX
10
-10000000000
20
-10000000000
30
0
9
$LIMMIN
10
0
20
0
9
$LIMMAX
10
420
20
297
9
$ORTHOMODE
70
0
9
$LTSCALE
40
1
9
$TEXTSTYLE
7
STANDARD
9
$CLAYER
8
Top-fix-mesures-ortho
9
$DIMASZ
40
0.3
9
$DIMLFAC
40
1
9
$DIMSCALE
40
1
9
$DIMEXO
40
2
9
$DIMEXE
40
0.3
9
$DIMTXT
40
0.8
9
$DIMTSZ
40
0
9
$DIMAUNIT
70
0
9
$DIMADEC
70
2
9
$DIMLUNIT
70
2
9
$DIMSTYLE
2
STANDARD
9
$DIMGAP
40
0.625
9
$DIMTIH
70
1
9
$LUNITS
70
2
9
$LUPREC
70
4
9
$AUNITS
70
0
9
$AUPREC
70
2
9
$SPLINESEGS
70
8
9
$GRIDMODE
70
1
9
$SNAPSTYLE
70
0
9
$GRIDUNIT
10
0
20
0
9
$PINSBASE
10
54.3008948546
20
149.948545861
30
0
9
$PLIMMIN
10
0
20
0
9
$PLIMMAX
10
210
20
297
9
$INSUNITS
70
0
9
$PSVPSCALE
40
1
0
ENDSEC
0
SECTION
2
CLASSES
0
ENDSEC
0
SECTION
2
TABLES
0
TABLE
2
VPORT
5
8
330
0
100
AcDbSymbolTable
70
1
0
VPORT
5
31
330
2
100
AcDbSymbolTableRecord
100
AcDbViewportTableRecord
2
*ACTIVE
70
0
10
0
20
0
11
1
21
1
12
10.2550492729
22
37.8154941938
13
0
23
0
14
10
24
10
15
10
25
10
16
0
26
0
36
1
17
0
27
0
37
0
40
148.911861317
41
1.77618364419
42
50
43
0
44
0
50
0
51
0
71
0
72
100
73
1
74
3
75
0
76
1
77
0
78
0
281
0
65
1
110
0
120
0
130
0
111
1
121
0
131
0
112
0
122
1
132
0
79
0
146
0
348
10020
60
7
61
5
292
1
282
1
141
0
142
0
63
250
421
3358443
0
ENDTAB
0
TABLE
2
LTYPE
5
5
330
0
100
AcDbSymbolTable
70
4
0
LTYPE
5
14
330
5
100
AcDbSymbolTableRecord
100
AcDbLinetypeTableRecord
2
ByBlock
70
0
3

72
65
73
0
40
0
0
LTYPE
5
15
330
5
100
AcDbSymbolTableRecord
100
AcDbLinetypeTableRecord
2
ByLayer
70
0
3

72
65
73
0
40
0
0
LTYPE
5
16
330
5
100
AcDbSymbolTableRecord
100
AcDbLinetypeTableRecord
2
Continuous
70
0
3
Solid line
72
65
73
0
40
0
0
LTYPE
5
32
330
5
100
AcDbSymbolTableRecord
100
AcDbLinetypeTableRecord
2
DOT
70
0
3
Dot . . . . . . . . . . . . . . . . . . . . . .
72
65
73
2
40
6.35
49
0
74
0
49
-6.35
74
0
0
LTYPE
5
33
330
5
100
AcDbSymbolTableRecord
100
AcDbLinetypeTableRecord
2
DOT2
70
0
3
Dot (.5x) .....................................
72
65
73
2
40
3.175
49
0
74
0
49
-3.175
74
0
0
LTYPE
5
34
330
5
100
AcDbSymbolTableRecord
100
AcDbLinetypeTableRecord
2
DOTX2
70
0
3
Dot (2x) .  .  .  .  .  .  .  .  .  .  .  .  .
72
65
73
2
40
12.7
49
0
74
0
49
-12.7
74
0
0
LTYPE
5
35
330
5
100
AcDbSymbolTableRecord
100
AcDbLinetypeTableRecord
2
DASHED
70
0
3
Dot . . . . . . . . . . . . . . . . . . . . . .
72
65
73
2
40
19.05
49
12.7
74
0
49
-6.35
74
0
0
LTYPE
5
36
330
5
100
AcDbSymbolTableRecord
100
AcDbLinetypeTableRecord
2
DASHED2
70
0
3
Dashed (.5x) _ _ _ _ _ _ _ _ _ _ _ _ _ _ _ _ _
72
65
73
2
40
9.525
49
6.35
74
0
49
-3.175
74
0
0
LTYPE
5
37
330
5
100
AcDbSymbolTableRecord
100
AcDbLinetypeTableRecord
2
DASHEDX2
70
0
3
Dashed (2x) ____  ____  ____  ____  ____  ___
72
65
73
2
40
38.1
49
25.4
74
0
49
-12.7
74
0
0
LTYPE
5
38
330
5
100
AcDbSymbolTableRecord
100
AcDbLinetypeTableRecord
2
DASHDOT
70
0
3
Dash dot __ . __ . __ . __ . __ . __ . __ . __
72
65
73
4
40
25.4
49
12.7
74
0
49
-6.35
74
0
49
0
74
0
49
-6.35
74
0
0
LTYPE
5
39
330
5
100
AcDbSymbolTableRecord
100
AcDbLinetypeTableRecord
2
DASHDOT2
70
0
3
Dash dot (.5x) _._._._._._._._._._._._._._._.
72
65
73
4
40
12.7
49
6.35
74
0
49
-3.175
74
0
49
0
74
0
49
-3.175
74
0
0
LTYPE
5
3A
330
5
100
AcDbSymbolTableRecord
100
AcDbLinetypeTableRecord
2
DASHDOTX2
70
0
3
Dash dot (2x) ____  .  ____  .  ____  .  ___
72
65
73
4
40
50.8
49
25.4
74
0
49
-12.7
74
0
49
0
74
0
49
-12.7
74
0
0
LTYPE
5
3B
330
5
100
AcDbSymbolTableRecord
100
AcDbLinetypeTableRecord
2
DIVIDE
70
0
3
Divide ____ . . ____ . . ____ . . ____ . . ____
72
65
73
6
40
31.75
49
12.7
74
0
49
-6.35
74
0
49
0
74
0
49
-6.35
74
0
49
0
74
0
49
-6.35
74
0
0
LTYPE
5
3C
330
5
100
AcDbSymbolTableRecord
100
AcDbLinetypeTableRecord
2
DIVIDE2
70
0
3
Divide (.5x) __..__..__..__..__..__..__..__.._
72
65
73
6
40
15.875
49
6.35
74
0
49
-3.175
74
0
49
0
74
0
49
-3.175
74
0
49
0
74
0
49
-3.175
74
0
0
LTYPE
5
3D
330
5
100
AcDbSymbolTableRecord
100
AcDbLinetypeTableRecord
2
DIVIDEX2
70
0
3
Divide (2x) ________  .  .  ________  .  .  _
72
65
73
6
40
63.5
49
25.4
74
0
49
-12.7
74
0
49
0
74
0
49
-12.7
74
0
49
0
74
0
49
-12.7
74
0
0
LTYPE
5
3E
330
5
100
AcDbSymbolTableRecord
100
AcDbLinetypeTableRecord
2
BORDER
70
0
3
Border __ __ . __ __ . __ __ . __ __ . __ __ .
72
65
73
6
40
44.45
49
12.7
74
0
49
-6.35
74
0
49
12.7
74
0
49
-6.35
74
0
49
0
74
0
49
-6.35
74
0
0
LTYPE
5
3F
330
5
100
AcDbSymbolTableRecord
100
AcDbLinetypeTableRecord
2
BORDER2
70
0
3
Border (.5x) __.__.__.__.__.__.__.__.__.__.__.
72
65
73
6
40
22.225
49
6.35
74
0
49
-3.175
74
0
49
6.35
74
0
49
-3.175
74
0
49
0
74
0
49
-3.175
74
0
0
LTYPE
5
40
330
5
100
AcDbSymbolTableRecord
100
AcDbLinetypeTableRecord
2
BORDERX2
70
0
3
Border (2x) ____  ____  .  ____  ____  .  ___
72
65
73
6
40
88.9
49
25.4
74
0
49
-12.7
74
0
49
25.4
74
0
49
-12.7
74
0
49
0
74
0
49
-12.7
74
0
0
LTYPE
5
41
330
5
100
AcDbSymbolTableRecord
100
AcDbLinetypeTableRecord
2
CENTER
70
0
3
Center ____ _ ____ _ ____ _ ____ _ ____ _ ____
72
65
73
4
40
50.8
49
31.75
74
0
49
-6.35
74
0
49
6.35
74
0
49
-6.35
74
0
0
LTYPE
5
42
330
5
100
AcDbSymbolTableRecord
100
AcDbLinetypeTableRecord
2
CENTER2
70
0
3
Center (.5x) ___ _ ___ _ ___ _ ___ _ ___ _ ___
72
65
73
4
40
28.575
49
19.05
74
0
49
-3.175
74
0
49
3.175
74
0
49
-3.175
74
0
0
LTYPE
5
43
330
5
100
AcDbSymbolTableRecord
100
AcDbLinetypeTableRecord
2
CENTERX2
70
0
3
Center (2x) ________  __  ________  __  _____
72
65
73
4
40
101.6
49
63.5
74
0
49
-12.7
74
0
49
12.7
74
0
49
-12.7
74
0
0
ENDTAB
0
TABLE
2
LAYER
5
2
330
0
100
AcDbSymbolTable
70
1
0
LAYER
5
10
330
2
100
AcDbSymbolTableRecord
100
AcDbLayerTableRecord
2
0
70
1
62
7
6
CONTINUOUS
370
0
390
F
0
LAYER
5
44
330
2
100
AcDbSymbolTableRecord
100
AcDbLayerTableRecord
2
profil T
70
1
62
4
6
CONTINUOUS
370
0
390
F
0
LAYER
5
45
330
2
100
AcDbSymbolTableRecord
100
AcDbLayerTableRecord
2
Roulements
70
1
62
4
6
CONTINUOUS
370
13
390
F
0
LAYER
5
46
330
2
100
AcDbSymbolTableRecord
100
AcDbLayerTableRecord
2
Glissement
70
1
62
7
6
CONTINUOUS
370
18
390
F
0
LAYER
5
47
330
2
100
AcDbSymbolTableRecord
100
AcDbLayerTableRecord
2
cotes
70
1
62
8
6
CONTINUOUS
370
0
390
F
0
LAYER
5
48
330
2
100
AcDbSymbolTableRecord
100
AcDbLayerTableRecord
2
profil-pour-3d
70
1
62
5
6
CONTINUOUS
370
0
390
F
0
LAYER
5
49
330
2
100
AcDbSymbolTableRecord
100
AcDbLayerTableRecord
2
default
70
1
62
7
6
CONTINUOUS
370
-3
390
F
0
LAYER
5
4A
330
2
100
AcDbSymbolTableRecord
100
AcDbLayerTableRecord
2
Top-fix-NEMA-et-GT2
70
1
62
4
6
CONTINUOUS
370
0
390
F
0
LAYER
5
4B
330
2
100
AcDbSymbolTableRecord
100
AcDbLayerTableRecord
2
Top-fix
70
0
62
7
6
CONTINUOUS
370
0
390
F
0
LAYER
5
4C
330
2
100
AcDbSymbolTableRecord
100
AcDbLayerTableRecord
2
Top-fix-vues-orthogonales
70
0
62
7
6
CONTINUOUS
370
0
390
F
0
LAYER
5
4D
330
2
100
AcDbSymbolTableRecord
100
AcDbLayerTableRecord
2
Top-fix-NEMA-et-GT2-vues-ortho
70
0
62
4
6
CONTINUOUS
370
0
390
F
0
LAYER
5
4E
330
2
100
AcDbSymbolTableRecord
100
AcDbLayerTableRecord
2
Top-fix-mesures-ortho
70
0
62
253
420
10526884
6
CONTINUOUS
370
0
390
F
0
LAYER
5
4F
330
2
100
AcDbSymbolTableRecord
100
AcDbLayerTableRecord
2
profil-pour-3d-2
70
1
62
7
6
CONTINUOUS
370
0
390
F
0
LAYER
5
50
330
2
100
AcDbSymbolTableRecord
100
AcDbLayerTableRecord
2
cadre-glissement
70
1
62
7
6
CONTINUOUS
370
0
390
F
0
ENDTAB
0
TABLE
2
STYLE
5
3
330
0
100
AcDbSymbolTable
70
3
0
STYLE
5
51
330
2
100
AcDbSymbolTableRecord
100
AcDbTextStyleTableRecord
2
standard
70
0
40
0
41
1
50
0
71
0
42
1
3
standard
4

0
ENDTAB
0
TABLE
2
VIEW
5
6
330
0
100
AcDbSymbolTable
70
0
0
ENDTAB
0
TABLE
2
UCS
5
7
330
0
100
AcDbSymbolTable
70
0
0
ENDTAB
0
TABLE
2
APPID
5
9
330
0
100
AcDbSymbolTable
70
1
0
APPID
5
12
330
9
100
AcDbSymbolTableRecord
100
AcDbRegAppTableRecord
2
ACAD
70
0
0
ENDTAB
0
TABLE
2
DIMSTYLE
5
A
330
0
100
AcDbSymbolTable
70
1
100
AcDbDimStyleTable
71
1
0
DIMSTYLE
105
52
330
A
100
AcDbSymbolTableRecord
100
AcDbDimStyleTableRecord
2
Standard
70
0
40
1
41
0.3
42
2
43
0.38
44
0.3
45
0
46
0
47
0
48
0
140
0.8
141
0.09
142
0
143
25.4
144
1
145
0
146
1
147
0.625
148
0
71
0
72
0
73
0
74
1
75
0
76
0
77
0
78
0
79
0
170
0
171
2
172
0
173
0
174
0
175
0
176
0
177
0
178
0
179
0
271
4
272
4
273
2
274
2
275
0
276
0
277
2
278
46
279
0
280
0
281
0
282
0
283
1
284
0
285
0
286
0
288
0
289
3
340
Standard
341

371
-2
372
-2
0
ENDTAB
0
TABLE
2
BLOCK_RECORD
5
1
330
0
100
AcDbSymbolTable
70
2
0
BLOCK_RECORD
5
1F
330
1
100
AcDbSymbolTableRecord
100
AcDbBlockTableRecord
2
*Model_Space
70
0
280
1
281
0
0
BLOCK_RECORD
5
1E
330
1
100
AcDbSymbolTableRecord
100
AcDbBlockTableRecord
2
*Paper_Space
70
0
280
1
281
0
0
BLOCK_RECORD
5
53
330
1
100
AcDbSymbolTableRecord
100
AcDbBlockTableRecord
2
*D14
70
0
280
1
281
0
0
BLOCK_RECORD
5
56
330
1
100
AcDbSymbolTableRecord
100
AcDbBlockTableRecord
2
*D9
70
0
280
1
281
0
0
BLOCK_RECORD
5
59
330
1
100
AcDbSymbolTableRecord
100
AcDbBlockTableRecord
2
*D29
70
0
280
1
281
0
0
BLOCK_RECORD
5
5C
330
1
100
AcDbSymbolTableRecord
100
AcDbBlockTableRecord
2
*D56
70
0
280
1
281
0
0
BLOCK_RECORD
5
5F
330
1
100
AcDbSymbolTableRecord
100
AcDbBlockTableRecord
2
*D30
70
0
280
1
281
0
0
BLOCK_RECORD
5
62
330
1
100
AcDbSymbolTableRecord
100
AcDbBlockTableRecord
2
*D41
70
0
280
1
281
0
0
BLOCK_RECORD
5
65
330
1
100
AcDbSymbolTableRecord
100
AcDbBlockTableRecord
2
*D46
70
0
280
1
281
0
0
BLOCK_RECORD
5
68
330
1
100
AcDbSymbolTableRecord
100
AcDbBlockTableRecord
2
*D55
70
0
280
1
281
0
0
BLOCK_RECORD
5
6B
330
1
100
AcDbSymbolTableRecord
100
AcDbBlockTableRecord
2
*D58
70
0
280
1
281
0
0
BLOCK_RECORD
5
6E
330
1
100
AcDbSymbolTableRecord
100
AcDbBlockTableRecord
2
*D27
70
0
280
1
281
0
0
BLOCK_RECORD
5
71
330
1
100
AcDbSymbolTableRecord
100
AcDbBlockTableRecord
2
*D37
70
0
280
1
281
0
0
BLOCK_RECORD
5
74
330
1
100
AcDbSymbolTableRecord
100
AcDbBlockTableRecord
2
*D10
70
0
280
1
281
0
0
BLOCK_RECORD
5
77
330
1
100
AcDbSymbolTableRecord
100
AcDbBlockTableRecord
2
*D3
70
0
280
1
281
0
0
BLOCK_RECORD
5
7A
330
1
100
AcDbSymbolTableRecord
100
AcDbBlockTableRecord
2
*D38
70
0
280
1
281
0
0
BLOCK_RECORD
5
7D
330
1
100
AcDbSymbolTableRecord
100
AcDbBlockTableRecord
2
*D48
70
0
280
1
281
0
0
BLOCK_RECORD
5
80
330
1
100
AcDbSymbolTableRecord
100
AcDbBlockTableRecord
2
*D23
70
0
280
1
281
0
0
BLOCK_RECORD
5
83
330
1
100
AcDbSymbolTableRecord
100
AcDbBlockTableRecord
2
*D24
70
0
280
1
281
0
0
BLOCK_RECORD
5
86
330
1
100
AcDbSymbolTableRecord
100
AcDbBlockTableRecord
2
*D60
70
0
280
1
281
0
0
BLOCK_RECORD
5
89
330
1
100
AcDbSymbolTableRecord
100
AcDbBlockTableRecord
2
*D12
70
0
280
1
281
0
0
BLOCK_RECORD
5
8C
330
1
100
AcDbSymbolTableRecord
100
AcDbBlockTableRecord
2
*D18
70
0
280
1
281
0
0
BLOCK_RECORD
5
8F
330
1
100
AcDbSymbolTableRecord
100
AcDbBlockTableRecord
2
*D13
70
0
280
1
281
0
0
BLOCK_RECORD
5
92
330
1
100
AcDbSymbolTableRecord
100
AcDbBlockTableRecord
2
*D51
70
0
280
1
281
0
0
BLOCK_RECORD
5
95
330
1
100
AcDbSymbolTableRecord
100
AcDbBlockTableRecord
2
*D34
70
0
280
1
281
0
0
BLOCK_RECORD
5
98
330
1
100
AcDbSymbolTableRecord
100
AcDbBlockTableRecord
2
*D11
70
0
280
1
281
0
0
BLOCK_RECORD
5
9B
330
1
100
AcDbSymbolTableRecord
100
AcDbBlockTableRecord
2
*D42
70
0
280
1
281
0
0
BLOCK_RECORD
5
9E
330
1
100
AcDbSymbolTableRecord
100
AcDbBlockTableRecord
2
*D47
70
0
280
1
281
0
0
BLOCK_RECORD
5
A1
330
1
100
AcDbSymbolTableRecord
100
AcDbBlockTableRecord
2
*D53
70
0
280
1
281
0
0
BLOCK_RECORD
5
A4
330
1
100
AcDbSymbolTableRecord
100
AcDbBlockTableRecord
2
*D39
70
0
280
1
281
0
0
BLOCK_RECORD
5
A7
330
1
100
AcDbSymbolTableRecord
100
AcDbBlockTableRecord
2
*D59
70
0
280
1
281
0
0
BLOCK_RECORD
5
AA
330
1
100
AcDbSymbolTableRecord
100
AcDbBlockTableRecord
2
*D28
70
0
280
1
281
0
0
BLOCK_RECORD
5
AD
330
1
100
AcDbSymbolTableRecord
100
AcDbBlockTableRecord
2
*D17
70
0
280
1
281
0
0
BLOCK_RECORD
5
B0
330
1
100
AcDbSymbolTableRecord
100
AcDbBlockTableRecord
2
*D44
70
0
280
1
281
0
0
BLOCK_RECORD
5
B3
330
1
100
AcDbSymbolTableRecord
100
AcDbBlockTableRecord
2
*D36
70
0
280
1
281
0
0
BLOCK_RECORD
5
B6
330
1
100
AcDbSymbolTableRecord
100
AcDbBlockTableRecord
2
*D52
70
0
280
1
281
0
0
BLOCK_RECORD
5
B9
330
1
100
AcDbSymbolTableRecord
100
AcDbBlockTableRecord
2
*D25
70
0
280
1
281
0
0
BLOCK_RECORD
5
BC
330
1
100
AcDbSymbolTableRecord
100
AcDbBlockTableRecord
2
*D19
70
0
280
1
281
0
0
BLOCK_RECORD
5
BF
330
1
100
AcDbSymbolTableRecord
100
AcDbBlockTableRecord
2
*D45
70
0
280
1
281
0
0
BLOCK_RECORD
5
C2
330
1
100
AcDbSymbolTableRecord
100
AcDbBlockTableRecord
2
*D1
70
0
280
1
281
0
0
BLOCK_RECORD
5
C5
330
1
100
AcDbSymbolTableRecord
100
AcDbBlockTableRecord
2
*D6
70
0
280
1
281
0
0
BLOCK_RECORD
5
C8
330
1
100
AcDbSymbolTableRecord
100
AcDbBlockTableRecord
2
*D33
70
0
280
1
281
0
0
BLOCK_RECORD
5
CB
330
1
100
AcDbSymbolTableRecord
100
AcDbBlockTableRecord
2
*D35
70
0
280
1
281
0
0
BLOCK_RECORD
5
CE
330
1
100
AcDbSymbolTableRecord
100
AcDbBlockTableRecord
2
*D4
70
0
280
1
281
0
0
BLOCK_RECORD
5
D1
330
1
100
AcDbSymbolTableRecord
100
AcDbBlockTableRecord
2
*D40
70
0
280
1
281
0
0
BLOCK_RECORD
5
D4
330
1
100
AcDbSymbolTableRecord
100
AcDbBlockTableRecord
2
*D49
70
0
280
1
281
0
0
BLOCK_RECORD
5
D7
330
1
100
AcDbSymbolTableRecord
100
AcDbBlockTableRecord
2
*D31
70
0
280
1
281
0
0
BLOCK_RECORD
5
DA
330
1
100
AcDbSymbolTableRecord
100
AcDbBlockTableRecord
2
*D16
70
0
280
1
281
0
0
BLOCK_RECORD
5
DD
330
1
100
AcDbSymbolTableRecord
100
AcDbBlockTableRecord
2
*D5
70
0
280
1
281
0
0
BLOCK_RECORD
5
E0
330
1
100
AcDbSymbolTableRecord
100
AcDbBlockTableRecord
2
*D43
70
0
280
1
281
0
0
BLOCK_RECORD
5
E3
330
1
100
AcDbSymbolTableRecord
100
AcDbBlockTableRecord
2
*D32
70
0
280
1
281
0
0
BLOCK_RECORD
5
E6
330
1
100
AcDbSymbolTableRecord
100
AcDbBlockTableRecord
2
*D21
70
0
280
1
281
0
0
BLOCK_RECORD
5
E9
330
1
100
AcDbSymbolTableRecord
100
AcDbBlockTableRecord
2
*D2
70
0
280
1
281
0
0
BLOCK_RECORD
5
EC
330
1
100
AcDbSymbolTableRecord
100
AcDbBlockTableRecord
2
*D54
70
0
280
1
281
0
0
BLOCK_RECORD
5
EF
330
1
100
AcDbSymbolTableRecord
100
AcDbBlockTableRecord
2
*D7
70
0
280
1
281
0
0
BLOCK_RECORD
5
F2
330
1
100
AcDbSymbolTableRecord
100
AcDbBlockTableRecord
2
*D50
70
0
280
1
281
0
0
BLOCK_RECORD
5
F5
330
1
100
AcDbSymbolTableRecord
100
AcDbBlockTableRecord
2
*D57
70
0
280
1
281
0
0
BLOCK_RECORD
5
F8
330
1
100
AcDbSymbolTableRecord
100
AcDbBlockTableRecord
2
*D15
70
0
280
1
281
0
0
BLOCK_RECORD
5
FB
330
1
100
AcDbSymbolTableRecord
100
AcDbBlockTableRecord
2
*D20
70
0
280
1
281
0
0
BLOCK_RECORD
5
FE
330
1
100
AcDbSymbolTableRecord
100
AcDbBlockTableRecord
2
*D22
70
0
280
1
281
0
0
BLOCK_RECORD
5
101
330
1
100
AcDbSymbolTableRecord
100
AcDbBlockTableRecord
2
*D26
70
0
280
1
281
0
0
BLOCK_RECORD
5
104
330
1
100
AcDbSymbolTableRecord
100
AcDbBlockTableRecord
2
*D8
70
0
280
1
281
0
0
BLOCK_RECORD
5
107
330
1
100
AcDbSymbolTableRecord
100
AcDbBlockTableRecord
2
a3
70
0
280
1
281
0
0
BLOCK_RECORD
5
10A
330
1
100
AcDbSymbolTableRecord
100
AcDbBlockTableRecord
2
a3-0
70
0
280
1
281
0
0
ENDTAB
0
ENDSEC
0
SECTION
2
BLOCKS
0
BLOCK
5
20
330
1F
100
AcDbEntity
8
0
100
AcDbBlockBegin
2
*Model_Space
70
0
10
0
20
0
30
0
3
*Model_Space
1

0
ENDBLK
5
21
330
1F
100
AcDbEntity
8
0
100
AcDbBlockEnd
0
BLOCK
5
1C
330
1B
100
AcDbEntity
8
0
100
AcDbBlockBegin
2
*Paper_Space
70
0
10
0
20
0
30
0
3
*Paper_Space
1

0
ENDBLK
5
1D
330
1F
100
AcDbEntity
8
0
100
AcDbBlockEnd
0
BLOCK
5
54
330
53
100
AcDbEntity
8
0
100
AcDbBlockBegin
2
*D14
70
1
10
0
20
0
3
*D14
1

0
LINE
5
10D
100
AcDbEntity
8
cotes
6
CONTINUOUS
62
7
370
0
100
AcDbLine
10
-1.7763568394e-15
20
13.3725
11
1.15277777778
21
13.3725
0
SOLID
5
10E
100
AcDbEntity
8
cotes
6
CONTINUOUS
62
7
370
0
100
AcDbTrace
10
-1.7763568394e-15
20
13.3725
30
0
11
0.3
21
13.4224541589
31
0
12
0.3
22
13.3225458411
32
0
13
0.3
23
13.3225458411
33
0
0
SOLID
5
10F
100
AcDbEntity
8
cotes
6
CONTINUOUS
62
7
370
0
100
AcDbTrace
10
4
20
13.3725
30
0
11
3.7
21
13.3225458411
31
0
12
3.7
22
13.4224541589
32
0
13
3.7
23
13.4224541589
33
0
0
LINE
5
110
100
AcDbEntity
8
cotes
6
CONTINUOUS
62
7
370
0
100
AcDbLine
10
2.84722222222
20
13.3725
11
4
21
13.3725
0
MTEXT
5
111
100
AcDbEntity
8
cotes
6
CONTINUOUS
62
7
370
0
100
AcDbMText
10
2
20
13.3725
30
0
40
0.8
41
0.444444444444
71
5
72
1
1
4
7
standard
210
0
220
0
230
1
50
0
73
2
44
1
0
LINE
5
112
100
AcDbEntity
8
cotes
6
CONTINUOUS
62
7
370
0
100
AcDbLine
10
-1.07753532009e-15
20
15.3725
11
-1.75798713741e-15
21
13.6725
0
LINE
5
113
100
AcDbEntity
8
cotes
6
CONTINUOUS
62
7
370
0
100
AcDbLine
10
4
20
15.3725
11
4
21
13.6725
0
ENDBLK
5
55
330
53
100
AcDbEntity
8
0
100
AcDbBlockEnd
0
BLOCK
5
57
330
56
100
AcDbEntity
8
0
100
AcDbBlockBegin
2
*D9
70
1
10
0
20
0
3
*D9
1

0
LINE
5
114
100
AcDbEntity
8
cotes
6
CONTINUOUS
62
7
370
0
100
AcDbLine
10
-25.5
20
49.3256232224
11
8.9750001549
21
49.3256232224
0
SOLID
5
115
100
AcDbEntity
8
cotes
6
CONTINUOUS
62
7
370
0
100
AcDbTrace
10
-25.5
20
49.3256232224
30
0
11
-25.2
21
49.3755773813
31
0
12
-25.2
22
49.2756690635
32
0
13
-25.2
23
49.2756690635
33
0
0
SOLID
5
116
100
AcDbEntity
8
cotes
6
CONTINUOUS
62
7
370
0
100
AcDbTrace
10
45.5000003098
20
49.3256232224
30
0
11
45.2000003098
21
49.2756690635
31
0
12
45.2000003098
22
49.3755773813
32
0
13
45.2000003098
23
49.3755773813
33
0
0
LINE
5
117
100
AcDbEntity
8
cotes
6
CONTINUOUS
62
7
370
0
100
AcDbLine
10
11.0250001549
20
49.3256232224
11
45.5000003098
21
49.3256232224
0
MTEXT
5
118
100
AcDbEntity
8
cotes
6
CONTINUOUS
62
7
370
0
100
AcDbMText
10
10.0000001549
20
49.3256232224
30
0
40
0.8
41
0.8
71
5
72
1
1
71
7
standard
210
0
220
0
230
1
50
0
73
2
44
1
0
LINE
5
119
100
AcDbEntity
8
cotes
6
CONTINUOUS
62
7
370
0
100
AcDbLine
10
-25.5
20
43.1
11
-25.5
21
49.6256232224
0
LINE
5
11A
100
AcDbEntity
8
cotes
6
CONTINUOUS
62
7
370
0
100
AcDbLine
10
45.5000003098
20
43.0999997047
11
45.5000003098
21
49.6256232224
0
ENDBLK
5
58
330
56
100
AcDbEntity
8
0
100
AcDbBlockEnd
0
BLOCK
5
5A
330
59
100
AcDbEntity
8
0
100
AcDbBlockBegin
2
*D29
70
1
10
0
20
0
3
*D29
1

0
LINE
5
11B
100
AcDbEntity
8
cotes
6
CONTINUOUS
62
7
370
0
100
AcDbLine
10
121.702603419
20
25.0637498916
11
121.702603419
21
20.2431249458
0
SOLID
5
11C
100
AcDbEntity
8
cotes
6
CONTINUOUS
62
7
370
0
100
AcDbTrace
10
121.702603419
20
25.0637498916
30
0
11
121.752557578
21
24.7637498916
31
0
12
121.65264926
22
24.7637498916
32
0
13
121.65264926
23
24.7637498916
33
0
0
SOLID
5
11D
100
AcDbEntity
8
cotes
6
CONTINUOUS
62
7
370
0
100
AcDbTrace
10
121.702603419
20
13.3725
30
0
11
121.65264926
21
13.6725
31
0
12
121.752557578
22
13.6725
32
0
13
121.752557578
23
13.6725
33
0
0
LINE
5
11E
100
AcDbEntity
8
cotes
6
CONTINUOUS
62
7
370
0
100
AcDbLine
10
121.702603419
20
18.1931249458
11
121.702603419
21
13.3725
0
MTEXT
5
11F
100
AcDbEntity
8
cotes
6
CONTINUOUS
62
7
370
0
100
AcDbMText
10
121.702603419
20
19.2181249458
30
0
40
0.8
41
3.2
71
5
72
1
1
11.6912
7
standard
210
0
220
0
230
1
50
0
73
2
44
1
0
LINE
5
120
100
AcDbEntity
8
cotes
6
CONTINUOUS
62
7
370
0
100
AcDbLine
10
104.500000241
20
25.0637498916
11
122.002603419
21
25.0637498916
0
LINE
5
121
100
AcDbEntity
8
cotes
6
CONTINUOUS
62
7
370
0
100
AcDbLine
10
94.5000001944
20
13.3725
11
122.002603419
21
13.3725
0
ENDBLK
5
5B
330
59
100
AcDbEntity
8
0
100
AcDbBlockEnd
0
BLOCK
5
5D
330
5C
100
AcDbEntity
8
0
100
AcDbBlockBegin
2
*D56
70
1
10
0
20
0
3
*D56
1

0
LINE
5
122
100
AcDbEntity
8
cotes
6
CONTINUOUS
62
7
370
0
100
AcDbLine
10
50.0719282636
20
82.4462495497
11
50.0719282636
21
86.4212495497
0
SOLID
5
123
100
AcDbEntity
8
cotes
6
CONTINUOUS
62
7
370
0
100
AcDbTrace
10
50.0719282636
20
82.4462495497
30
0
11
50.0219741047
21
82.7462495497
31
0
12
50.1218824225
22
82.7462495497
32
0
13
50.1218824225
23
82.7462495497
33
0
0
SOLID
5
124
100
AcDbEntity
8
cotes
6
CONTINUOUS
62
7
370
0
100
AcDbTrace
10
50.0719282636
20
92.4462495497
30
0
11
50.1218824225
21
92.1462495497
31
0
12
50.0219741047
22
92.1462495497
32
0
13
50.0219741047
23
92.1462495497
33
0
0
LINE
5
125
100
AcDbEntity
8
cotes
6
CONTINUOUS
62
7
370
0
100
AcDbLine
10
50.0719282636
20
88.4712495497
11
50.0719282636
21
92.4462495497
0
MTEXT
5
126
100
AcDbEntity
8
cotes
6
CONTINUOUS
62
7
370
0
100
AcDbMText
10
49.0469282636
20
87.4462495497
30
0
40
0.8
41
0.8
71
5
72
1
1
10
7
standard
210
0
220
0
230
1
50
0
73
2
44
1
0
LINE
5
127
100
AcDbEntity
8
cotes
6
CONTINUOUS
62
7
370
0
100
AcDbLine
10
47.5000005039
20
82.4462495497
11
50.3719282636
21
82.4462495497
0
LINE
5
128
100
AcDbEntity
8
cotes
6
CONTINUOUS
62
7
370
0
100
AcDbLine
10
47.5000005039
20
92.4462495497
11
50.3719282636
21
92.4462495497
0
ENDBLK
5
5E
330
5C
100
AcDbEntity
8
0
100
AcDbBlockEnd
0
BLOCK
5
60
330
5F
100
AcDbEntity
8
0
100
AcDbBlockBegin
2
*D30
70
1
10
0
20
0
3
*D30
1

0
LINE
5
129
100
AcDbEntity
8
cotes
6
CONTINUOUS
62
7
370
0
100
AcDbLine
10
121.702603419
20
13.3725
11
121.702603419
21
2.1980222528
0
SOLID
5
12A
100
AcDbEntity
8
cotes
6
CONTINUOUS
62
7
370
0
100
AcDbTrace
10
121.702603419
20
13.3725
30
0
11
121.752557578
21
13.0725
31
0
12
121.65264926
22
13.0725
32
0
13
121.65264926
23
13.0725
33
0
0
SOLID
5
12B
100
AcDbEntity
8
cotes
6
CONTINUOUS
62
7
370
0
100
AcDbTrace
10
121.702603419
20
-11.0264554944
30
0
11
121.65264926
21
-10.7264554944
31
0
12
121.752557578
22
-10.7264554944
32
0
13
121.752557578
23
-10.7264554944
33
0
0
LINE
5
12C
100
AcDbEntity
8
cotes
6
CONTINUOUS
62
7
370
0
100
AcDbLine
10
121.702603419
20
0.1480222528
11
121.702603419
21
-11.0264554944
0
MTEXT
5
12D
100
AcDbEntity
8
cotes
6
CONTINUOUS
62
7
370
0
100
AcDbMText
10
121.702603419
20
1.1730222528
30
0
40
0.8
41
3.2
71
5
72
1
1
24.399
7
standard
210
0
220
0
230
1
50
0
73
2
44
1
0
LINE
5
12E
100
AcDbEntity
8
cotes
6
CONTINUOUS
62
7
370
0
100
AcDbLine
10
94.5000001944
20
13.3725
11
122.002603419
21
13.3725
0
LINE
5
12F
100
AcDbEntity
8
cotes
6
CONTINUOUS
62
7
370
0
100
AcDbLine
10
94.5000001003
20
-11.0264554944
11
122.002603419
21
-11.0264554944
0
ENDBLK
5
61
330
5F
100
AcDbEntity
8
0
100
AcDbBlockEnd
0
BLOCK
5
63
330
62
100
AcDbEntity
8
0
100
AcDbBlockBegin
2
*D41
70
1
10
0
20
0
3
*D41
1

0
LINE
5
130
100
AcDbEntity
8
cotes
6
CONTINUOUS
62
7
370
0
100
AcDbLine
10
-26.2473817511
20
-68.8175675676
11
-26.2473817511
21
-71.7925675676
0
SOLID
5
131
100
AcDbEntity
8
cotes
6
CONTINUOUS
62
7
370
0
100
AcDbTrace
10
-26.2473817511
20
-68.8175675676
30
0
11
-26.1974275922
21
-69.1175675676
31
0
12
-26.29733591
22
-69.1175675676
32
0
13
-26.29733591
23
-69.1175675676
33
0
0
SOLID
5
132
100
AcDbEntity
8
cotes
6
CONTINUOUS
62
7
370
0
100
AcDbTrace
10
-26.2473817511
20
-76.8175675676
30
0
11
-26.29733591
21
-76.5175675676
31
0
12
-26.1974275922
22
-76.5175675676
32
0
13
-26.1974275922
23
-76.5175675676
33
0
0
LINE
5
133
100
AcDbEntity
8
cotes
6
CONTINUOUS
62
7
370
0
100
AcDbLine
10
-26.2473817511
20
-73.8425675676
11
-26.2473817511
21
-76.8175675676
0
MTEXT
5
134
100
AcDbEntity
8
cotes
6
CONTINUOUS
62
7
370
0
100
AcDbMText
10
-26.2473817511
20
-72.8175675676
30
0
40
0.8
41
0.355555555556
71
5
72
1
1
8
7
standard
210
0
220
0
230
1
50
0
73
2
44
1
0
LINE
5
135
100
AcDbEntity
8
cotes
6
CONTINUOUS
62
7
370
0
100
AcDbLine
10
-22.4594594595
20
-68.8175675676
11
-26.5473817511
21
-68.8175675676
0
LINE
5
136
100
AcDbEntity
8
cotes
6
CONTINUOUS
62
7
370
0
100
AcDbLine
10
-22.4594594595
20
-76.8175675676
11
-26.5473817511
21
-76.8175675676
0
ENDBLK
5
64
330
62
100
AcDbEntity
8
0
100
AcDbBlockEnd
0
BLOCK
5
66
330
65
100
AcDbEntity
8
0
100
AcDbBlockBegin
2
*D46
70
1
10
0
20
0
3
*D46
1

0
LINE
5
137
100
AcDbEntity
8
cotes
6
CONTINUOUS
62
7
370
0
100
AcDbLine
10
-5
20
41.1
11
-2.30277777778
21
41.1
0
SOLID
5
138
100
AcDbEntity
8
cotes
6
CONTINUOUS
62
7
370
0
100
AcDbTrace
10
-5
20
41.1
30
0
11
-4.7
21
41.1499541589
31
0
12
-4.7
22
41.0500458411
32
0
13
-4.7
23
41.0500458411
33
0
0
SOLID
5
139
100
AcDbEntity
8
cotes
6
CONTINUOUS
62
7
370
0
100
AcDbTrace
10
2
20
41.1
30
0
11
1.7
21
41.0500458411
31
0
12
1.7
22
41.1499541589
32
0
13
1.7
23
41.1499541589
33
0
0
LINE
5
13A
100
AcDbEntity
8
cotes
6
CONTINUOUS
62
7
370
0
100
AcDbLine
10
-0.697222222222
20
41.1
11
2
21
41.1
0
MTEXT
5
13B
100
AcDbEntity
8
cotes
6
CONTINUOUS
62
7
370
0
100
AcDbMText
10
-1.5
20
42.125
30
0
40
0.8
41
0.355555555556
71
5
72
1
1
7
7
standard
210
0
220
0
230
1
50
0
73
2
44
1
0
LINE
5
13C
100
AcDbEntity
8
cotes
6
CONTINUOUS
62
7
370
0
100
AcDbLine
10
-5
20
43.1
11
-5
21
41.4
0
LINE
5
13D
100
AcDbEntity
8
cotes
6
CONTINUOUS
62
7
370
0
100
AcDbLine
10
2
20
36.9999999652
11
2
21
41.4
0
ENDBLK
5
67
330
65
100
AcDbEntity
8
0
100
AcDbBlockEnd
0
BLOCK
5
69
330
68
100
AcDbEntity
8
0
100
AcDbBlockBegin
2
*D55
70
1
10
0
20
0
3
*D55
1

0
LINE
5
13E
100
AcDbEntity
8
cotes
6
CONTINUOUS
62
7
370
0
100
AcDbLine
10
50.0719282636
20
73.4462495497
11
50.0719282636
21
82.4462495497
0
SOLID
5
13F
100
AcDbEntity
8
cotes
6
CONTINUOUS
62
7
370
0
100
AcDbTrace
10
50.0719282636
20
73.4462495497
30
0
11
50.0219741047
21
73.7462495497
31
0
12
50.1218824225
22
73.7462495497
32
0
13
50.1218824225
23
73.7462495497
33
0
0
SOLID
5
140
100
AcDbEntity
8
cotes
6
CONTINUOUS
62
7
370
0
100
AcDbTrace
10
50.0719282636
20
82.4462495497
30
0
11
50.1218824225
21
82.1462495497
31
0
12
50.0219741047
22
82.1462495497
32
0
13
50.0219741047
23
82.1462495497
33
0
0
MTEXT
5
141
100
AcDbEntity
8
cotes
6
CONTINUOUS
62
7
370
0
100
AcDbMText
10
49.0469282636
20
77.9462495497
30
0
40
0.8
41
0.355555555556
71
5
72
1
1
9
7
standard
210
0
220
0
230
1
50
0
73
2
44
1
0
LINE
5
142
100
AcDbEntity
8
cotes
6
CONTINUOUS
62
7
370
0
100
AcDbLine
10
20
20
73.4462495497
11
50.3719282636
21
73.4462495497
0
LINE
5
143
100
AcDbEntity
8
cotes
6
CONTINUOUS
62
7
370
0
100
AcDbLine
10
47.5000005039
20
82.4462495497
11
50.3719282636
21
82.4462495497
0
ENDBLK
5
6A
330
68
100
AcDbEntity
8
0
100
AcDbBlockEnd
0
BLOCK
5
6C
330
6B
100
AcDbEntity
8
0
100
AcDbBlockBegin
2
*D58
70
1
10
0
20
0
3
*D58
1

0
LINE
5
144
100
AcDbEntity
8
Top-fix-mesures-ortho
6
CONTINUOUS
62
7
370
0
100
AcDbLine
10
-125.925000146
20
18.375
11
-123.675
21
18.375
0
SOLID
5
145
100
AcDbEntity
8
Top-fix-mesures-ortho
6
CONTINUOUS
62
7
370
0
100
AcDbTrace
10
-125.925000146
20
18.375
30
0
11
-125.625000146
21
18.4249541589
31
0
12
-125.625000146
22
18.3250458411
32
0
13
-125.625000146
23
18.3250458411
33
0
0
SOLID
5
146
100
AcDbEntity
8
Top-fix-mesures-ortho
6
CONTINUOUS
62
7
370
0
100
AcDbTrace
10
-123.675
20
18.375
30
0
11
-123.975
21
18.3250458411
31
0
12
-123.975
22
18.4249541589
32
0
13
-123.975
23
18.4249541589
33
0
0
MTEXT
5
147
100
AcDbEntity
8
Top-fix-mesures-ortho
6
CONTINUOUS
62
7
370
0
100
AcDbMText
10
-124.800000073
20
18.375
30
0
40
0.8
41
1.86666666667
71
5
72
1
1
2.25
7
standard
210
0
220
0
230
1
50
0
73
2
44
1
0
LINE
5
148
100
AcDbEntity
8
Top-fix-mesures-ortho
6
CONTINUOUS
62
7
370
0
100
AcDbLine
10
-125.925000146
20
23.125
11
-125.925000146
21
18.075
0
LINE
5
149
100
AcDbEntity
8
Top-fix-mesures-ortho
6
CONTINUOUS
62
7
370
0
100
AcDbLine
10
-123.675
20
-7.125
11
-123.675
21
18.075
0
ENDBLK
5
6D
330
6B
100
AcDbEntity
8
0
100
AcDbBlockEnd
0
BLOCK
5
6F
330
6E
100
AcDbEntity
8
0
100
AcDbBlockBegin
2
*D27
70
1
10
0
20
0
3
*D27
1

0
LINE
5
14A
100
AcDbEntity
8
cotes
6
CONTINUOUS
62
7
370
0
100
AcDbLine
10
121.702603419
20
41.0999994219
11
121.702603419
21
40.3749995633
0
SOLID
5
14B
100
AcDbEntity
8
cotes
6
CONTINUOUS
62
7
370
0
100
AcDbTrace
10
121.702603419
20
41.0999994219
30
0
11
121.752557578
21
40.7999994219
31
0
12
121.65264926
22
40.7999994219
32
0
13
121.65264926
23
40.7999994219
33
0
0
SOLID
5
14C
100
AcDbEntity
8
cotes
6
CONTINUOUS
62
7
370
0
100
AcDbTrace
10
121.702603419
20
37.5999997047
30
0
11
121.65264926
21
37.8999997047
31
0
12
121.752557578
22
37.8999997047
32
0
13
121.752557578
23
37.8999997047
33
0
0
LINE
5
14D
100
AcDbEntity
8
cotes
6
CONTINUOUS
62
7
370
0
100
AcDbLine
10
121.702603419
20
38.3249995633
11
121.702603419
21
37.5999997047
0
MTEXT
5
14E
100
AcDbEntity
8
cotes
6
CONTINUOUS
62
7
370
0
100
AcDbMText
10
121.702603419
20
39.3499995633
30
0
40
0.8
41
1.24444444444
71
5
72
1
1
3.5
7
standard
210
0
220
0
230
1
50
0
73
2
44
1
0
LINE
5
14F
100
AcDbEntity
8
cotes
6
CONTINUOUS
62
7
370
0
100
AcDbLine
10
99.5000003098
20
41.0999994219
11
122.002603419
21
41.0999994219
0
LINE
5
150
100
AcDbEntity
8
cotes
6
CONTINUOUS
62
7
370
0
100
AcDbLine
10
94.5000003098
20
37.5999997047
11
122.002603419
21
37.5999997047
0
ENDBLK
5
70
330
6E
100
AcDbEntity
8
0
100
AcDbBlockEnd
0
BLOCK
5
72
330
71
100
AcDbEntity
8
0
100
AcDbBlockBegin
2
*D37
70
1
10
0
20
0
3
*D37
1

0
LINE
5
151
100
AcDbEntity
8
cotes
6
CONTINUOUS
62
7
370
0
100
AcDbLine
10
132.54882917
20
41.0999994219
11
132.54882917
21
14.9295549756
0
SOLID
5
152
100
AcDbEntity
8
cotes
6
CONTINUOUS
62
7
370
0
100
AcDbTrace
10
132.54882917
20
41.0999994219
30
0
11
132.598783329
21
40.7999994219
31
0
12
132.498875011
22
40.7999994219
32
0
13
132.498875011
23
40.7999994219
33
0
0
SOLID
5
153
100
AcDbEntity
8
cotes
6
CONTINUOUS
62
7
370
0
100
AcDbTrace
10
132.54882917
20
-13.2908894707
30
0
11
132.498875011
21
-12.9908894707
31
0
12
132.598783329
22
-12.9908894707
32
0
13
132.598783329
23
-12.9908894707
33
0
0
LINE
5
154
100
AcDbEntity
8
cotes
6
CONTINUOUS
62
7
370
0
100
AcDbLine
10
132.54882917
20
12.8795549756
11
132.54882917
21
-13.2908894707
0
MTEXT
5
155
100
AcDbEntity
8
cotes
6
CONTINUOUS
62
7
370
0
100
AcDbMText
10
132.54882917
20
13.9045549756
30
0
40
0.8
41
3.82222222222
71
5
72
1
1
54.3909
7
standard
210
0
220
0
230
1
50
0
73
2
44
1
0
LINE
5
156
100
AcDbEntity
8
cotes
6
CONTINUOUS
62
7
370
0
100
AcDbLine
10
99.5000003098
20
41.0999994219
11
132.84882917
21
41.0999994219
0
LINE
5
157
100
AcDbEntity
8
cotes
6
CONTINUOUS
62
7
370
0
100
AcDbLine
10
99.4999998574
20
-13.2908894707
11
132.84882917
21
-13.2908894707
0
ENDBLK
5
73
330
71
100
AcDbEntity
8
0
100
AcDbBlockEnd
0
BLOCK
5
75
330
74
100
AcDbEntity
8
0
100
AcDbBlockBegin
2
*D10
70
1
10
0
20
0
3
*D10
1

0
LINE
5
158
100
AcDbEntity
8
cotes
6
CONTINUOUS
62
7
370
0
100
AcDbLine
10
-29.110203869
20
41.1
11
-29.110203869
21
14.9295553062
0
SOLID
5
159
100
AcDbEntity
8
cotes
6
CONTINUOUS
62
7
370
0
100
AcDbTrace
10
-29.110203869
20
41.1
30
0
11
-29.0602497101
21
40.8
31
0
12
-29.1601580279
22
40.8
32
0
13
-29.1601580279
23
40.8
33
0
0
SOLID
5
15A
100
AcDbEntity
8
cotes
6
CONTINUOUS
62
7
370
0
100
AcDbTrace
10
-29.110203869
20
-13.2908893876
30
0
11
-29.1601580279
21
-12.9908893876
31
0
12
-29.0602497101
22
-12.9908893876
32
0
13
-29.0602497101
23
-12.9908893876
33
0
0
LINE
5
15B
100
AcDbEntity
8
cotes
6
CONTINUOUS
62
7
370
0
100
AcDbLine
10
-29.110203869
20
12.8795553062
11
-29.110203869
21
-13.2908893876
0
MTEXT
5
15C
100
AcDbEntity
8
cotes
6
CONTINUOUS
62
7
370
0
100
AcDbMText
10
-29.110203869
20
13.9045553062
30
0
40
0.8
41
3.82222222222
71
5
72
1
1
54.3909
7
standard
210
0
220
0
230
1
50
0
73
2
44
1
0
LINE
5
15D
100
AcDbEntity
8
cotes
6
CONTINUOUS
62
7
370
0
100
AcDbLine
10
-27.5
20
41.1
11
-29.410203869
21
41.1
0
LINE
5
15E
100
AcDbEntity
8
cotes
6
CONTINUOUS
62
7
370
0
100
AcDbLine
10
7.99999992888
20
-13.2908893876
11
-29.410203869
21
-13.2908893876
0
ENDBLK
5
76
330
74
100
AcDbEntity
8
0
100
AcDbBlockEnd
0
BLOCK
5
78
330
77
100
AcDbEntity
8
0
100
AcDbBlockBegin
2
*D3
70
1
10
0
20
0
3
*D3
1

0
LINE
5
15F
100
AcDbEntity
8
cotes
6
CONTINUOUS
62
7
370
0
100
AcDbLine
10
-22.5
20
46.1646667417
11
-16.025
21
46.1646667417
0
SOLID
5
160
100
AcDbEntity
8
cotes
6
CONTINUOUS
62
7
370
0
100
AcDbTrace
10
-22.5
20
46.1646667417
30
0
11
-22.2
21
46.2146209006
31
0
12
-22.2
22
46.1147125828
32
0
13
-22.2
23
46.1147125828
33
0
0
SOLID
5
161
100
AcDbEntity
8
cotes
6
CONTINUOUS
62
7
370
0
100
AcDbTrace
10
-7.5
20
46.1646667417
30
0
11
-7.8
21
46.1147125828
31
0
12
-7.8
22
46.2146209006
32
0
13
-7.8
23
46.2146209006
33
0
0
LINE
5
162
100
AcDbEntity
8
cotes
6
CONTINUOUS
62
7
370
0
100
AcDbLine
10
-13.975
20
46.1646667417
11
-7.5
21
46.1646667417
0
MTEXT
5
163
100
AcDbEntity
8
cotes
6
CONTINUOUS
62
7
370
0
100
AcDbMText
10
-15
20
46.1646667417
30
0
40
0.8
41
0.8
71
5
72
1
1
15
7
standard
210
0
220
0
230
1
50
0
73
2
44
1
0
LINE
5
164
100
AcDbEntity
8
cotes
6
CONTINUOUS
62
7
370
0
100
AcDbLine
10
-22.5
20
43.1
11
-22.5
21
46.4646667417
0
LINE
5
165
100
AcDbEntity
8
cotes
6
CONTINUOUS
62
7
370
0
100
AcDbLine
10
-7.5
20
43.1
11
-7.5
21
46.4646667417
0
ENDBLK
5
79
330
77
100
AcDbEntity
8
0
100
AcDbBlockEnd
0
BLOCK
5
7B
330
7A
100
AcDbEntity
8
0
100
AcDbBlockBegin
2
*D38
70
1
10
0
20
0
3
*D38
1

0
LINE
5
166
100
AcDbEntity
8
cotes
6
CONTINUOUS
62
7
370
0
100
AcDbLine
10
97.5000003098
20
45.4281607231
11
93.5250003098
21
45.4281607231
0
SOLID
5
167
100
AcDbEntity
8
cotes
6
CONTINUOUS
62
7
370
0
100
AcDbTrace
10
97.5000003098
20
45.4281607231
30
0
11
97.2000003098
21
45.3782065642
31
0
12
97.2000003098
22
45.478114882
32
0
13
97.2000003098
23
45.478114882
33
0
0
SOLID
5
168
100
AcDbEntity
8
cotes
6
CONTINUOUS
62
7
370
0
100
AcDbTrace
10
87.5000003098
20
45.4281607231
30
0
11
87.8000003098
21
45.478114882
31
0
12
87.8000003098
22
45.3782065642
32
0
13
87.8000003098
23
45.3782065642
33
0
0
LINE
5
169
100
AcDbEntity
8
cotes
6
CONTINUOUS
62
7
370
0
100
AcDbLine
10
91.4750003098
20
45.4281607231
11
87.5000003098
21
45.4281607231
0
MTEXT
5
16A
100
AcDbEntity
8
cotes
6
CONTINUOUS
62
7
370
0
100
AcDbMText
10
92.5000003098
20
45.4281607231
30
0
40
0.8
41
0.8
71
5
72
1
1
10
7
standard
210
0
220
0
230
1
50
0
73
2
44
1
0
LINE
5
16B
100
AcDbEntity
8
cotes
6
CONTINUOUS
62
7
370
0
100
AcDbLine
10
97.5000003098
20
43.0999994219
11
97.5000003098
21
45.7281607231
0
LINE
5
16C
100
AcDbEntity
8
cotes
6
CONTINUOUS
62
7
370
0
100
AcDbLine
10
87.5000003098
20
43.0999995051
11
87.5000003098
21
45.7281607231
0
ENDBLK
5
7C
330
7A
100
AcDbEntity
8
0
100
AcDbBlockEnd
0
BLOCK
5
7E
330
7D
100
AcDbEntity
8
0
100
AcDbBlockBegin
2
*D48
70
1
10
0
20
0
3
*D48
1

0
LINE
5
16D
100
AcDbEntity
8
cotes
6
CONTINUOUS
62
7
370
0
100
AcDbLine
10
18
20
41.1
11
20.6972223771
21
41.1
0
SOLID
5
16E
100
AcDbEntity
8
cotes
6
CONTINUOUS
62
7
370
0
100
AcDbTrace
10
18
20
41.1
30
0
11
18.3
21
41.1499541589
31
0
12
18.3
22
41.0500458411
32
0
13
18.3
23
41.0500458411
33
0
0
SOLID
5
16F
100
AcDbEntity
8
cotes
6
CONTINUOUS
62
7
370
0
100
AcDbTrace
10
25.0000003098
20
41.1
30
0
11
24.7000003098
21
41.0500458411
31
0
12
24.7000003098
22
41.1499541589
32
0
13
24.7000003098
23
41.1499541589
33
0
0
LINE
5
170
100
AcDbEntity
8
cotes
6
CONTINUOUS
62
7
370
0
100
AcDbLine
10
22.3027779327
20
41.1
11
25.0000003098
21
41.1
0
MTEXT
5
171
100
AcDbEntity
8
cotes
6
CONTINUOUS
62
7
370
0
100
AcDbMText
10
21.5000001549
20
42.125
30
0
40
0.8
41
0.355555555556
71
5
72
1
1
7
7
standard
210
0
220
0
230
1
50
0
73
2
44
1
0
LINE
5
172
100
AcDbEntity
8
cotes
6
CONTINUOUS
62
7
370
0
100
AcDbLine
10
18
20
36.9999999147
11
18
21
41.4
0
LINE
5
173
100
AcDbEntity
8
cotes
6
CONTINUOUS
62
7
370
0
100
AcDbLine
10
25.0000003098
20
43.0999998752
11
25.0000003098
21
41.4
0
ENDBLK
5
7F
330
7D
100
AcDbEntity
8
0
100
AcDbBlockEnd
0
BLOCK
5
81
330
80
100
AcDbEntity
8
0
100
AcDbBlockBegin
2
*D23
70
1
10
0
20
0
3
*D23
1

0
LINE
5
174
100
AcDbEntity
8
cotes
6
CONTINUOUS
62
7
370
0
100
AcDbLine
10
23
20
11.8725
11
23
21
10.8725
0
SOLID
5
175
100
AcDbEntity
8
cotes
6
CONTINUOUS
62
7
370
0
100
AcDbTrace
10
23
20
11.8725
30
0
11
23.0499541589
21
11.5725
31
0
12
22.9500458411
22
11.5725
32
0
13
22.9500458411
23
11.5725
33
0
0
SOLID
5
176
100
AcDbEntity
8
cotes
6
CONTINUOUS
62
7
370
0
100
AcDbTrace
10
23
20
10.8725
30
0
11
22.9500458411
21
11.1725
31
0
12
23.0499541589
22
11.1725
32
0
13
23.0499541589
23
11.1725
33
0
0
MTEXT
5
177
100
AcDbEntity
8
cotes
6
CONTINUOUS
62
7
370
0
100
AcDbMText
10
23
20
11.3725
30
0
40
0.8
41
0.177777777778
71
5
72
1
1
1
7
standard
210
0
220
0
230
1
50
0
73
2
44
1
0
LINE
5
178
100
AcDbEntity
8
cotes
6
CONTINUOUS
62
7
370
0
100
AcDbLine
10
22
20
11.8725
11
23.3
21
11.8725
0
LINE
5
179
100
AcDbEntity
8
cotes
6
CONTINUOUS
62
7
370
0
100
AcDbLine
10
23
20
10.8725
11
23.3
21
10.8725
0
ENDBLK
5
82
330
80
100
AcDbEntity
8
0
100
AcDbBlockEnd
0
BLOCK
5
84
330
83
100
AcDbEntity
8
0
100
AcDbBlockBegin
2
*D24
70
1
10
0
20
0
3
*D24
1

0
LINE
5
17A
100
AcDbEntity
8
cotes
6
CONTINUOUS
62
7
370
0
100
AcDbLine
10
23
20
10.8725
11
23
21
10.1475
0
SOLID
5
17B
100
AcDbEntity
8
cotes
6
CONTINUOUS
62
7
370
0
100
AcDbTrace
10
23
20
10.8725
30
0
11
23.0499541589
21
10.5725
31
0
12
22.9500458411
22
10.5725
32
0
13
22.9500458411
23
10.5725
33
0
0
SOLID
5
17C
100
AcDbEntity
8
cotes
6
CONTINUOUS
62
7
370
0
100
AcDbTrace
10
23
20
7.3725
30
0
11
22.9500458411
21
7.6725
31
0
12
23.0499541589
22
7.6725
32
0
13
23.0499541589
23
7.6725
33
0
0
LINE
5
17D
100
AcDbEntity
8
cotes
6
CONTINUOUS
62
7
370
0
100
AcDbLine
10
23
20
8.0975
11
23
21
7.3725
0
MTEXT
5
17E
100
AcDbEntity
8
cotes
6
CONTINUOUS
62
7
370
0
100
AcDbMText
10
23
20
9.1225
30
0
40
0.8
41
1.24444444444
71
5
72
1
1
3.5
7
standard
210
0
220
0
230
1
50
0
73
2
44
1
0
LINE
5
17F
100
AcDbEntity
8
cotes
6
CONTINUOUS
62
7
370
0
100
AcDbLine
10
23
20
10.8725
11
23.3
21
10.8725
0
LINE
5
180
100
AcDbEntity
8
cotes
6
CONTINUOUS
62
7
370
0
100
AcDbLine
10
23
20
7.3725
11
23.3
21
7.3725
0
ENDBLK
5
85
330
83
100
AcDbEntity
8
0
100
AcDbBlockEnd
0
BLOCK
5
87
330
86
100
AcDbEntity
8
0
100
AcDbBlockBegin
2
*D60
70
1
10
0
20
0
3
*D60
1

0
LINE
5
181
100
AcDbEntity
8
Top-fix-mesures-ortho
6
CONTINUOUS
62
7
370
0
100
AcDbLine
10
-71.9
20
25.125
11
-73.1666666667
21
25.125
0
SOLID
5
182
100
AcDbEntity
8
Top-fix-mesures-ortho
6
CONTINUOUS
62
7
370
0
100
AcDbTrace
10
-71.9
20
25.125
30
0
11
-72.2
21
25.0750458411
31
0
12
-72.2
22
25.1749541589
32
0
13
-72.2
23
25.1749541589
33
0
0
SOLID
5
183
100
AcDbEntity
8
Top-fix-mesures-ortho
6
CONTINUOUS
62
7
370
0
100
AcDbTrace
10
-77.55
20
25.125
30
0
11
-77.25
21
25.1749541589
31
0
12
-77.25
22
25.0750458411
32
0
13
-77.25
23
25.0750458411
33
0
0
LINE
5
184
100
AcDbEntity
8
Top-fix-mesures-ortho
6
CONTINUOUS
62
7
370
0
100
AcDbLine
10
-76.2833333333
20
25.125
11
-77.55
21
25.125
0
MTEXT
5
185
100
AcDbEntity
8
Top-fix-mesures-ortho
6
CONTINUOUS
62
7
370
0
100
AcDbMText
10
-74.725
20
25.125
30
0
40
0.8
41
1.86666666667
71
5
72
1
1
5.65
7
standard
210
0
220
0
230
1
50
0
73
2
44
1
0
LINE
5
186
100
AcDbEntity
8
Top-fix-mesures-ortho
6
CONTINUOUS
62
7
370
0
100
AcDbLine
10
-71.9
20
52.3599999008
11
-71.9
21
24.825
0
LINE
5
187
100
AcDbEntity
8
Top-fix-mesures-ortho
6
CONTINUOUS
62
7
370
0
100
AcDbLine
10
-77.55
20
52.3599999008
11
-77.55
21
24.825
0
ENDBLK
5
88
330
86
100
AcDbEntity
8
0
100
AcDbBlockEnd
0
BLOCK
5
8A
330
89
100
AcDbEntity
8
0
100
AcDbBlockBegin
2
*D12
70
1
10
0
20
0
3
*D12
1

0
LINE
5
188
100
AcDbEntity
8
cotes
6
CONTINUOUS
62
7
370
0
100
AcDbLine
10
27.5000003098
20
38.0499998752
11
27.497222532
21
38.0499998752
0
SOLID
5
189
100
AcDbEntity
8
cotes
6
CONTINUOUS
62
7
370
0
100
AcDbTrace
10
27.5000003098
20
38.0499998752
30
0
11
27.2000003098
21
38.0000457163
31
0
12
27.2000003098
22
38.0999540341
32
0
13
27.2000003098
23
38.0999540341
33
0
0
SOLID
5
18A
100
AcDbEntity
8
cotes
6
CONTINUOUS
62
7
370
0
100
AcDbTrace
10
25.0000003098
20
38.0499998752
30
0
11
25.3000003098
21
38.0999540341
31
0
12
25.3000003098
22
38.0000457163
32
0
13
25.3000003098
23
38.0000457163
33
0
0
LINE
5
18B
100
AcDbEntity
8
cotes
6
CONTINUOUS
62
7
370
0
100
AcDbLine
10
25.0027780876
20
38.0499998752
11
25.0000003098
21
38.0499998752
0
MTEXT
5
18C
100
AcDbEntity
8
cotes
6
CONTINUOUS
62
7
370
0
100
AcDbMText
10
26.2500003098
20
38.0499998752
30
0
40
0.8
41
1.24444444444
71
5
72
1
1
2.5
7
standard
210
0
220
0
230
1
50
0
73
2
44
1
0
LINE
5
18D
100
AcDbEntity
8
cotes
6
CONTINUOUS
62
7
370
0
100
AcDbLine
10
27.5000003098
20
39.0999998544
11
27.5000003098
21
37.7499998752
0
LINE
5
18E
100
AcDbEntity
8
cotes
6
CONTINUOUS
62
7
370
0
100
AcDbLine
10
25.0000003098
20
39.0999998752
11
25.0000003098
21
37.7499998752
0
ENDBLK
5
8B
330
89
100
AcDbEntity
8
0
100
AcDbBlockEnd
0
BLOCK
5
8D
330
8C
100
AcDbEntity
8
0
100
AcDbBlockBegin
2
*D18
70
1
10
0
20
0
3
*D18
1

0
LINE
5
18F
100
AcDbEntity
8
cotes
6
CONTINUOUS
62
7
370
0
100
AcDbLine
10
13.3775
20
2
11
10.75
21
2
0
SOLID
5
190
100
AcDbEntity
8
cotes
6
CONTINUOUS
62
7
370
0
100
AcDbTrace
10
13.3775
20
2
30
0
11
13.0775
21
1.95004584107
31
0
12
13.0775
22
2.04995415893
32
0
13
13.0775
23
2.04995415893
33
0
0
SOLID
5
191
100
AcDbEntity
8
cotes
6
CONTINUOUS
62
7
370
0
100
AcDbTrace
10
10.75
20
2
30
0
11
11.05
21
2.04995415893
31
0
12
11.05
22
1.95004584107
32
0
13
11.05
23
1.95004584107
33
0
0
MTEXT
5
192
100
AcDbEntity
8
cotes
6
CONTINUOUS
62
7
370
0
100
AcDbMText
10
15.5580555556
20
2
30
0
40
0.8
41
3.11111111111
71
5
72
1
1
2.6275
7
standard
210
0
220
0
230
1
50
0
73
2
44
1
0
LINE
5
193
100
AcDbEntity
8
cotes
6
CONTINUOUS
62
7
370
0
100
AcDbLine
10
13.3775
20
4.18625
11
13.3775
21
1.7
0
LINE
5
194
100
AcDbEntity
8
cotes
6
CONTINUOUS
62
7
370
0
100
AcDbLine
10
10.75
20
7.25
11
10.75
21
1.7
0
ENDBLK
5
8E
330
8C
100
AcDbEntity
8
0
100
AcDbBlockEnd
0
BLOCK
5
90
330
8F
100
AcDbEntity
8
0
100
AcDbBlockBegin
2
*D13
70
1
10
0
20
0
3
*D13
1

0
LINE
5
195
100
AcDbEntity
8
cotes
6
CONTINUOUS
62
7
370
0
100
AcDbLine
10
-5
20
38.05
11
-5.00277777778
21
38.05
0
SOLID
5
196
100
AcDbEntity
8
cotes
6
CONTINUOUS
62
7
370
0
100
AcDbTrace
10
-5
20
38.05
30
0
11
-5.3
21
38.0000458411
31
0
12
-5.3
22
38.0999541589
32
0
13
-5.3
23
38.0999541589
33
0
0
SOLID
5
197
100
AcDbEntity
8
cotes
6
CONTINUOUS
62
7
370
0
100
AcDbTrace
10
-7.5
20
38.05
30
0
11
-7.2
21
38.0999541589
31
0
12
-7.2
22
38.0000458411
32
0
13
-7.2
23
38.0000458411
33
0
0
LINE
5
198
100
AcDbEntity
8
cotes
6
CONTINUOUS
62
7
370
0
100
AcDbLine
10
-7.49722222222
20
38.05
11
-7.5
21
38.05
0
MTEXT
5
199
100
AcDbEntity
8
cotes
6
CONTINUOUS
62
7
370
0
100
AcDbMText
10
-6.25
20
38.05
30
0
40
0.8
41
1.24444444444
71
5
72
1
1
2.5
7
standard
210
0
220
0
230
1
50
0
73
2
44
1
0
LINE
5
19A
100
AcDbEntity
8
cotes
6
CONTINUOUS
62
7
370
0
100
AcDbLine
10
-5
20
39.1
11
-5
21
37.75
0
LINE
5
19B
100
AcDbEntity
8
cotes
6
CONTINUOUS
62
7
370
0
100
AcDbLine
10
-7.5
20
39.1
11
-7.5
21
37.75
0
ENDBLK
5
91
330
8F
100
AcDbEntity
8
0
100
AcDbBlockEnd
0
BLOCK
5
93
330
92
100
AcDbEntity
8
0
100
AcDbBlockBegin
2
*D51
70
1
10
0
20
0
3
*D51
1

0
LINE
5
19C
100
AcDbEntity
8
cotes
6
CONTINUOUS
62
7
370
0
100
AcDbLine
10
19.5
20
25.5
11
19.5
21
22.5
0
SOLID
5
19D
100
AcDbEntity
8
cotes
6
CONTINUOUS
62
7
370
0
100
AcDbTrace
10
19.5
20
25.5
30
0
11
19.5499541589
21
25.2
31
0
12
19.4500458411
22
25.2
32
0
13
19.4500458411
23
25.2
33
0
0
SOLID
5
19E
100
AcDbEntity
8
cotes
6
CONTINUOUS
62
7
370
0
100
AcDbTrace
10
19.5
20
22.5
30
0
11
19.4500458411
21
22.8
31
0
12
19.5499541589
22
22.8
32
0
13
19.5499541589
23
22.8
33
0
0
MTEXT
5
19F
100
AcDbEntity
8
cotes
6
CONTINUOUS
62
7
370
0
100
AcDbMText
10
18.475
20
24
30
0
40
0.8
41
0.355555555556
71
5
72
1
1
3
7
standard
210
0
220
0
230
1
50
0
73
2
44
1
0
LINE
5
1A0
100
AcDbEntity
8
cotes
6
CONTINUOUS
62
7
370
0
100
AcDbLine
10
20
20
25.5
11
19.8
21
25.5
0
LINE
5
1A1
100
AcDbEntity
8
cotes
6
CONTINUOUS
62
7
370
0
100
AcDbLine
10
20
20
22.5
11
19.8
21
22.5
0
ENDBLK
5
94
330
92
100
AcDbEntity
8
0
100
AcDbBlockEnd
0
BLOCK
5
96
330
95
100
AcDbEntity
8
0
100
AcDbBlockBegin
2
*D34
70
1
10
0
20
0
3
*D34
1

0
LINE
5
1A2
100
AcDbEntity
8
cotes
6
CONTINUOUS
62
7
370
0
100
AcDbLine
10
127.380113994
20
28.4999998087
11
127.380113994
21
28.0249998087
0
SOLID
5
1A3
100
AcDbEntity
8
cotes
6
CONTINUOUS
62
7
370
0
100
AcDbTrace
10
127.380113994
20
28.4999998087
30
0
11
127.430068153
21
28.1999998087
31
0
12
127.330159835
22
28.1999998087
32
0
13
127.330159835
23
28.1999998087
33
0
0
SOLID
5
1A4
100
AcDbEntity
8
cotes
6
CONTINUOUS
62
7
370
0
100
AcDbTrace
10
127.380113994
20
25.4999998087
30
0
11
127.330159835
21
25.7999998087
31
0
12
127.430068153
22
25.7999998087
32
0
13
127.430068153
23
25.7999998087
33
0
0
LINE
5
1A5
100
AcDbEntity
8
cotes
6
CONTINUOUS
62
7
370
0
100
AcDbLine
10
127.380113994
20
25.9749998087
11
127.380113994
21
25.4999998087
0
MTEXT
5
1A6
100
AcDbEntity
8
cotes
6
CONTINUOUS
62
7
370
0
100
AcDbMText
10
127.380113994
20
26.9999998087
30
0
40
0.8
41
0.355555555556
71
5
72
1
1
3
7
standard
210
0
220
0
230
1
50
0
73
2
44
1
0
LINE
5
1A7
100
AcDbEntity
8
cotes
6
CONTINUOUS
62
7
370
0
100
AcDbLine
10
117.50000031
20
28.4999998087
11
127.680113994
21
28.4999998087
0
LINE
5
1A8
100
AcDbEntity
8
cotes
6
CONTINUOUS
62
7
370
0
100
AcDbLine
10
117.50000031
20
25.4999998087
11
127.680113994
21
25.4999998087
0
ENDBLK
5
97
330
95
100
AcDbEntity
8
0
100
AcDbBlockEnd
0
BLOCK
5
99
330
98
100
AcDbEntity
8
0
100
AcDbBlockBegin
2
*D11
70
1
10
0
20
0
3
*D11
1

0
LINE
5
1A9
100
AcDbEntity
8
cotes
6
CONTINUOUS
62
7
370
0
100
AcDbLine
10
-1
20
41.1
11
-1
21
39.075
0
SOLID
5
1AA
100
AcDbEntity
8
cotes
6
CONTINUOUS
62
7
370
0
100
AcDbTrace
10
-1
20
41.1
30
0
11
-0.950045841067
21
40.8
31
0
12
-1.04995415893
22
40.8
32
0
13
-1.04995415893
23
40.8
33
0
0
SOLID
5
1AB
100
AcDbEntity
8
cotes
6
CONTINUOUS
62
7
370
0
100
AcDbTrace
10
-1
20
35
30
0
11
-1.04995415893
21
35.3
31
0
12
-0.950045841067
22
35.3
32
0
13
-0.950045841067
23
35.3
33
0
0
LINE
5
1AC
100
AcDbEntity
8
cotes
6
CONTINUOUS
62
7
370
0
100
AcDbLine
10
-1
20
37.025
11
-1
21
35
0
MTEXT
5
1AD
100
AcDbEntity
8
cotes
6
CONTINUOUS
62
7
370
0
100
AcDbMText
10
-1
20
38.05
30
0
40
0.8
41
1.06666666667
71
5
72
1
1
6.1
7
standard
210
0
220
0
230
1
50
0
73
2
44
1
0
LINE
5
1AE
100
AcDbEntity
8
cotes
6
CONTINUOUS
62
7
370
0
100
AcDbLine
10
-3
20
41.1
11
-0.7
21
41.1
0
LINE
5
1AF
100
AcDbEntity
8
cotes
6
CONTINUOUS
62
7
370
0
100
AcDbLine
10
-3
20
35
11
-0.7
21
35
0
ENDBLK
5
9A
330
98
100
AcDbEntity
8
0
100
AcDbBlockEnd
0
BLOCK
5
9C
330
9B
100
AcDbEntity
8
0
100
AcDbBlockBegin
2
*D42
70
1
10
0
20
0
3
*D42
1

0
LINE
5
1B0
100
AcDbEntity
8
cotes
6
CONTINUOUS
62
7
370
0
100
AcDbLine
10
-26.2473817511
20
-68.8175675676
11
-26.2473817511
21
-66.3425675676
0
SOLID
5
1B1
100
AcDbEntity
8
cotes
6
CONTINUOUS
62
7
370
0
100
AcDbTrace
10
-26.2473817511
20
-68.8175675676
30
0
11
-26.29733591
21
-68.5175675676
31
0
12
-26.1974275922
22
-68.5175675676
32
0
13
-26.1974275922
23
-68.5175675676
33
0
0
SOLID
5
1B2
100
AcDbEntity
8
cotes
6
CONTINUOUS
62
7
370
0
100
AcDbTrace
10
-26.2473817511
20
-61.8175675676
30
0
11
-26.1974275922
21
-62.1175675676
31
0
12
-26.29733591
22
-62.1175675676
32
0
13
-26.29733591
23
-62.1175675676
33
0
0
LINE
5
1B3
100
AcDbEntity
8
cotes
6
CONTINUOUS
62
7
370
0
100
AcDbLine
10
-26.2473817511
20
-64.2925675676
11
-26.2473817511
21
-61.8175675676
0
MTEXT
5
1B4
100
AcDbEntity
8
cotes
6
CONTINUOUS
62
7
370
0
100
AcDbMText
10
-26.2473817511
20
-65.3175675676
30
0
40
0.8
41
0.355555555556
71
5
72
1
1
7
7
standard
210
0
220
0
230
1
50
0
73
2
44
1
0
LINE
5
1B5
100
AcDbEntity
8
cotes
6
CONTINUOUS
62
7
370
0
100
AcDbLine
10
-15.4594594595
20
-68.8175675676
11
-26.5473817511
21
-68.8175675676
0
LINE
5
1B6
100
AcDbEntity
8
cotes
6
CONTINUOUS
62
7
370
0
100
AcDbLine
10
-15.4594594595
20
-61.8175675676
11
-26.5473817511
21
-61.8175675676
0
ENDBLK
5
9D
330
9B
100
AcDbEntity
8
0
100
AcDbBlockEnd
0
BLOCK
5
9F
330
9E
100
AcDbEntity
8
0
100
AcDbBlockBegin
2
*D47
70
1
10
0
20
0
3
*D47
1

0
LINE
5
1B7
100
AcDbEntity
8
cotes
6
CONTINUOUS
62
7
370
0
100
AcDbLine
10
2
20
41.1
11
8.975
21
41.1
0
SOLID
5
1B8
100
AcDbEntity
8
cotes
6
CONTINUOUS
62
7
370
0
100
AcDbTrace
10
2
20
41.1
30
0
11
2.3
21
41.1499541589
31
0
12
2.3
22
41.0500458411
32
0
13
2.3
23
41.0500458411
33
0
0
SOLID
5
1B9
100
AcDbEntity
8
cotes
6
CONTINUOUS
62
7
370
0
100
AcDbTrace
10
18
20
41.1
30
0
11
17.7
21
41.0500458411
31
0
12
17.7
22
41.1499541589
32
0
13
17.7
23
41.1499541589
33
0
0
LINE
5
1BA
100
AcDbEntity
8
cotes
6
CONTINUOUS
62
7
370
0
100
AcDbLine
10
11.025
20
41.1
11
18
21
41.1
0
MTEXT
5
1BB
100
AcDbEntity
8
cotes
6
CONTINUOUS
62
7
370
0
100
AcDbMText
10
10
20
42.125
30
0
40
0.8
41
0.8
71
5
72
1
1
16
7
standard
210
0
220
0
230
1
50
0
73
2
44
1
0
LINE
5
1BC
100
AcDbEntity
8
cotes
6
CONTINUOUS
62
7
370
0
100
AcDbLine
10
2
20
36.9999999652
11
2
21
41.4
0
LINE
5
1BD
100
AcDbEntity
8
cotes
6
CONTINUOUS
62
7
370
0
100
AcDbLine
10
18
20
36.9999999147
11
18
21
41.4
0
ENDBLK
5
A0
330
9E
100
AcDbEntity
8
0
100
AcDbBlockEnd
0
BLOCK
5
A2
330
A1
100
AcDbEntity
8
0
100
AcDbBlockBegin
2
*D53
70
1
10
0
20
0
3
*D53
1

0
LINE
5
1BE
100
AcDbEntity
8
cotes
6
CONTINUOUS
62
7
370
0
100
AcDbLine
10
78.5000002591
20
45.4281607231
11
76.3027780099
21
45.4281607231
0
SOLID
5
1BF
100
AcDbEntity
8
cotes
6
CONTINUOUS
62
7
370
0
100
AcDbTrace
10
78.5000002591
20
45.4281607231
30
0
11
78.2000002591
21
45.3782065642
31
0
12
78.2000002591
22
45.478114882
32
0
13
78.2000002591
23
45.478114882
33
0
0
SOLID
5
1C0
100
AcDbEntity
8
cotes
6
CONTINUOUS
62
7
370
0
100
AcDbTrace
10
72.500000205
20
45.4281607231
30
0
11
72.800000205
21
45.478114882
31
0
12
72.800000205
22
45.3782065642
32
0
13
72.800000205
23
45.3782065642
33
0
0
LINE
5
1C1
100
AcDbEntity
8
cotes
6
CONTINUOUS
62
7
370
0
100
AcDbLine
10
74.6972224543
20
45.4281607231
11
72.500000205
21
45.4281607231
0
MTEXT
5
1C2
100
AcDbEntity
8
cotes
6
CONTINUOUS
62
7
370
0
100
AcDbMText
10
75.5000002321
20
46.4531607231
30
0
40
0.8
41
0.355555555556
71
5
72
1
1
6
7
standard
210
0
220
0
230
1
50
0
73
2
44
1
0
LINE
5
1C3
100
AcDbEntity
8
cotes
6
CONTINUOUS
62
7
370
0
100
AcDbLine
10
78.5000002591
20
36.9999997275
11
78.5000002591
21
45.7281607231
0
LINE
5
1C4
100
AcDbEntity
8
cotes
6
CONTINUOUS
62
7
370
0
100
AcDbLine
10
72.500000205
20
30.5
11
72.500000205
21
45.7281607231
0
ENDBLK
5
A3
330
A1
100
AcDbEntity
8
0
100
AcDbBlockEnd
0
BLOCK
5
A5
330
A4
100
AcDbEntity
8
0
100
AcDbBlockBegin
2
*D39
70
1
10
0
20
0
3
*D39
1

0
LINE
5
1C5
100
AcDbEntity
8
cotes
6
CONTINUOUS
62
7
370
0
100
AcDbLine
10
87.5000003098
20
45.4281607231
11
83.8027780622
21
45.4281607231
0
SOLID
5
1C6
100
AcDbEntity
8
cotes
6
CONTINUOUS
62
7
370
0
100
AcDbTrace
10
87.5000003098
20
45.4281607231
30
0
11
87.2000003098
21
45.3782065642
31
0
12
87.2000003098
22
45.478114882
32
0
13
87.2000003098
23
45.478114882
33
0
0
SOLID
5
1C7
100
AcDbEntity
8
cotes
6
CONTINUOUS
62
7
370
0
100
AcDbTrace
10
78.5000002591
20
45.4281607231
30
0
11
78.8000002591
21
45.478114882
31
0
12
78.8000002591
22
45.3782065642
32
0
13
78.8000002591
23
45.3782065642
33
0
0
LINE
5
1C8
100
AcDbEntity
8
cotes
6
CONTINUOUS
62
7
370
0
100
AcDbLine
10
82.1972225066
20
45.4281607231
11
78.5000002591
21
45.4281607231
0
MTEXT
5
1C9
100
AcDbEntity
8
cotes
6
CONTINUOUS
62
7
370
0
100
AcDbMText
10
83.0000002844
20
45.4281607231
30
0
40
0.8
41
0.355555555556
71
5
72
1
1
9
7
standard
210
0
220
0
230
1
50
0
73
2
44
1
0
LINE
5
1CA
100
AcDbEntity
8
cotes
6
CONTINUOUS
62
7
370
0
100
AcDbLine
10
87.5000003098
20
43.0999995051
11
87.5000003098
21
45.7281607231
0
LINE
5
1CB
100
AcDbEntity
8
cotes
6
CONTINUOUS
62
7
370
0
100
AcDbLine
10
78.5000002591
20
36.9999997275
11
78.5000002591
21
45.7281607231
0
ENDBLK
5
A6
330
A4
100
AcDbEntity
8
0
100
AcDbBlockEnd
0
BLOCK
5
A8
330
A7
100
AcDbEntity
8
0
100
AcDbBlockBegin
2
*D59
70
1
10
0
20
0
3
*D59
1

0
LINE
5
1CC
100
AcDbEntity
8
Top-fix-mesures-ortho
6
CONTINUOUS
62
7
370
0
100
AcDbLine
10
-77.675
20
54.3599999008
11
-77.675
21
25.6424999504
0
SOLID
5
1CD
100
AcDbEntity
8
Top-fix-mesures-ortho
6
CONTINUOUS
62
7
370
0
100
AcDbTrace
10
-77.675
20
54.3599999008
30
0
11
-77.6250458411
21
54.0599999008
31
0
12
-77.7249541589
22
54.0599999008
32
0
13
-77.7249541589
23
54.0599999008
33
0
0
SOLID
5
1CE
100
AcDbEntity
8
Top-fix-mesures-ortho
6
CONTINUOUS
62
7
370
0
100
AcDbTrace
10
-77.675
20
-5.125
30
0
11
-77.7249541589
21
-4.825
31
0
12
-77.6250458411
22
-4.825
32
0
13
-77.6250458411
23
-4.825
33
0
0
LINE
5
1CF
100
AcDbEntity
8
Top-fix-mesures-ortho
6
CONTINUOUS
62
7
370
0
100
AcDbLine
10
-77.675
20
23.5924999504
11
-77.675
21
-5.125
0
MTEXT
5
1D0
100
AcDbEntity
8
Top-fix-mesures-ortho
6
CONTINUOUS
62
7
370
0
100
AcDbMText
10
-77.675
20
24.6174999504
30
0
40
0.8
41
3.2
71
5
72
1
1
59.485
7
standard
210
0
220
0
230
1
50
0
73
2
44
1
0
LINE
5
1D1
100
AcDbEntity
8
Top-fix-mesures-ortho
6
CONTINUOUS
62
7
370
0
100
AcDbLine
10
-42.9
20
54.3599999008
11
-77.975
21
54.3599999008
0
LINE
5
1D2
100
AcDbEntity
8
Top-fix-mesures-ortho
6
CONTINUOUS
62
7
370
0
100
AcDbLine
10
-37.125
20
-5.125
11
-77.975
21
-5.125
0
ENDBLK
5
A9
330
A7
100
AcDbEntity
8
0
100
AcDbBlockEnd
0
BLOCK
5
AB
330
AA
100
AcDbEntity
8
0
100
AcDbBlockBegin
2
*D28
70
1
10
0
20
0
3
*D28
1

0
LINE
5
1D3
100
AcDbEntity
8
cotes
6
CONTINUOUS
62
7
370
0
100
AcDbLine
10
121.702603419
20
37.5999997047
11
121.702603419
21
32.3568747981
0
SOLID
5
1D4
100
AcDbEntity
8
cotes
6
CONTINUOUS
62
7
370
0
100
AcDbTrace
10
121.702603419
20
37.5999997047
30
0
11
121.752557578
21
37.2999997047
31
0
12
121.65264926
22
37.2999997047
32
0
13
121.65264926
23
37.2999997047
33
0
0
SOLID
5
1D5
100
AcDbEntity
8
cotes
6
CONTINUOUS
62
7
370
0
100
AcDbTrace
10
121.702603419
20
25.0637498916
30
0
11
121.65264926
21
25.3637498916
31
0
12
121.752557578
22
25.3637498916
32
0
13
121.752557578
23
25.3637498916
33
0
0
LINE
5
1D6
100
AcDbEntity
8
cotes
6
CONTINUOUS
62
7
370
0
100
AcDbLine
10
121.702603419
20
30.3068747981
11
121.702603419
21
25.0637498916
0
MTEXT
5
1D7
100
AcDbEntity
8
cotes
6
CONTINUOUS
62
7
370
0
100
AcDbMText
10
121.702603419
20
31.3318747981
30
0
40
0.8
41
3.55555555556
71
5
72
1
1
12.5362
7
standard
210
0
220
0
230
1
50
0
73
2
44
1
0
LINE
5
1D8
100
AcDbEntity
8
cotes
6
CONTINUOUS
62
7
370
0
100
AcDbLine
10
94.5000003098
20
37.5999997047
11
122.002603419
21
37.5999997047
0
LINE
5
1D9
100
AcDbEntity
8
cotes
6
CONTINUOUS
62
7
370
0
100
AcDbLine
10
104.500000241
20
25.0637498916
11
122.002603419
21
25.0637498916
0
ENDBLK
5
AC
330
AA
100
AcDbEntity
8
0
100
AcDbBlockEnd
0
BLOCK
5
AE
330
AD
100
AcDbEntity
8
0
100
AcDbBlockBegin
2
*D17
70
1
10
0
20
0
3
*D17
1

0
LINE
5
1DA
100
AcDbEntity
8
cotes
6
CONTINUOUS
62
7
370
0
100
AcDbLine
10
15
20
6.18625
11
13.3775
21
6.18625
0
SOLID
5
1DB
100
AcDbEntity
8
cotes
6
CONTINUOUS
62
7
370
0
100
AcDbTrace
10
15
20
6.18625
30
0
11
14.7
21
6.13629584107
31
0
12
14.7
22
6.23620415893
32
0
13
14.7
23
6.23620415893
33
0
0
SOLID
5
1DC
100
AcDbEntity
8
cotes
6
CONTINUOUS
62
7
370
0
100
AcDbTrace
10
13.3775
20
6.18625
30
0
11
13.6775
21
6.23620415893
31
0
12
13.6775
22
6.13629584107
32
0
13
13.6775
23
6.13629584107
33
0
0
MTEXT
5
1DD
100
AcDbEntity
8
cotes
6
CONTINUOUS
62
7
370
0
100
AcDbMText
10
17.0916666667
20
6.18625
30
0
40
0.8
41
2.93333333333
71
5
72
1
1
1.6225
7
standard
210
0
220
0
230
1
50
0
73
2
44
1
0
LINE
5
1DE
100
AcDbEntity
8
cotes
6
CONTINUOUS
62
7
370
0
100
AcDbLine
10
15
20
7.6225
11
15
21
5.88625
0
LINE
5
1DF
100
AcDbEntity
8
cotes
6
CONTINUOUS
62
7
370
0
100
AcDbLine
10
13.3775
20
9.6225
11
13.3775
21
5.88625
0
ENDBLK
5
AF
330
AD
100
AcDbEntity
8
0
100
AcDbBlockEnd
0
BLOCK
5
B1
330
B0
100
AcDbEntity
8
0
100
AcDbBlockBegin
2
*D44
70
1
10
0
20
0
3
*D44
1

0
LINE
5
1E0
100
AcDbEntity
8
cotes
6
CONTINUOUS
62
7
370
0
100
AcDbLine
10
-6.45945945946
20
-48.4567047713
11
-12.3900150151
21
-48.4567047713
0
SOLID
5
1E1
100
AcDbEntity
8
cotes
6
CONTINUOUS
62
7
370
0
100
AcDbTrace
10
-6.45945945946
20
-48.4567047713
30
0
11
-6.75945945946
21
-48.5066589302
31
0
12
-6.75945945946
22
-48.4067506124
32
0
13
-6.75945945946
23
-48.4067506124
33
0
0
SOLID
5
1E2
100
AcDbEntity
8
cotes
6
CONTINUOUS
62
7
370
0
100
AcDbTrace
10
-20.4594594595
20
-48.4567047713
30
0
11
-20.1594594595
21
-48.4067506124
31
0
12
-20.1594594595
22
-48.5066589302
32
0
13
-20.1594594595
23
-48.5066589302
33
0
0
LINE
5
1E3
100
AcDbEntity
8
cotes
6
CONTINUOUS
62
7
370
0
100
AcDbLine
10
-14.5289039039
20
-48.4567047713
11
-20.4594594595
21
-48.4567047713
0
MTEXT
5
1E4
100
AcDbEntity
8
cotes
6
CONTINUOUS
62
7
370
0
100
AcDbMText
10
-13.4594594595
20
-48.4567047713
30
0
40
0.8
41
0.888888888889
71
5
72
1
1
14
7
standard
210
0
220
0
230
1
50
0
73
2
44
1
0
LINE
5
1E5
100
AcDbEntity
8
cotes
6
CONTINUOUS
62
7
370
0
100
AcDbLine
10
-6.45945945946
20
-66.8175675676
11
-6.45945945946
21
-48.1567047713
0
LINE
5
1E6
100
AcDbEntity
8
cotes
6
CONTINUOUS
62
7
370
0
100
AcDbLine
10
-20.4594594595
20
-66.8175675676
11
-20.4594594595
21
-48.1567047713
0
ENDBLK
5
B2
330
B0
100
AcDbEntity
8
0
100
AcDbBlockEnd
0
BLOCK
5
B4
330
B3
100
AcDbEntity
8
0
100
AcDbBlockBegin
2
*D36
70
1
10
0
20
0
3
*D36
1

0
LINE
5
1E7
100
AcDbEntity
8
cotes
6
CONTINUOUS
62
7
370
0
100
AcDbLine
10
127.380113994
20
22.5
11
127.380113994
21
5.62955526465
0
SOLID
5
1E8
100
AcDbEntity
8
cotes
6
CONTINUOUS
62
7
370
0
100
AcDbTrace
10
127.380113994
20
22.5
30
0
11
127.430068153
21
22.2
31
0
12
127.330159835
22
22.2
32
0
13
127.330159835
23
22.2
33
0
0
SOLID
5
1E9
100
AcDbEntity
8
cotes
6
CONTINUOUS
62
7
370
0
100
AcDbTrace
10
127.380113994
20
-13.2908894707
30
0
11
127.330159835
21
-12.9908894707
31
0
12
127.430068153
22
-12.9908894707
32
0
13
127.430068153
23
-12.9908894707
33
0
0
LINE
5
1EA
100
AcDbEntity
8
cotes
6
CONTINUOUS
62
7
370
0
100
AcDbLine
10
127.380113994
20
3.57955526465
11
127.380113994
21
-13.2908894707
0
MTEXT
5
1EB
100
AcDbEntity
8
cotes
6
CONTINUOUS
62
7
370
0
100
AcDbMText
10
127.380113994
20
4.60455526465
30
0
40
0.8
41
3.73333333333
71
5
72
1
1
35.7909
7
standard
210
0
220
0
230
1
50
0
73
2
44
1
0
LINE
5
1EC
100
AcDbEntity
8
cotes
6
CONTINUOUS
62
7
370
0
100
AcDbLine
10
108.500000155
20
22.5
11
127.680113994
21
22.5
0
LINE
5
1ED
100
AcDbEntity
8
cotes
6
CONTINUOUS
62
7
370
0
100
AcDbLine
10
99.4999998574
20
-13.2908894707
11
127.680113994
21
-13.2908894707
0
ENDBLK
5
B5
330
B3
100
AcDbEntity
8
0
100
AcDbBlockEnd
0
BLOCK
5
B7
330
B6
100
AcDbEntity
8
0
100
AcDbBlockBegin
2
*D52
70
1
10
0
20
0
3
*D52
1

0
LINE
5
1EE
100
AcDbEntity
8
cotes
6
CONTINUOUS
62
7
370
0
100
AcDbLine
10
19.5
20
28.5
11
19.5
21
28.725
0
SOLID
5
1EF
100
AcDbEntity
8
cotes
6
CONTINUOUS
62
7
370
0
100
AcDbTrace
10
19.5
20
28.5
30
0
11
19.4500458411
21
28.8
31
0
12
19.5499541589
22
28.8
32
0
13
19.5499541589
23
28.8
33
0
0
SOLID
5
1F0
100
AcDbEntity
8
cotes
6
CONTINUOUS
62
7
370
0
100
AcDbTrace
10
19.5
20
31
30
0
11
19.5499541589
21
30.7
31
0
12
19.4500458411
22
30.7
32
0
13
19.4500458411
23
30.7
33
0
0
LINE
5
1F1
100
AcDbEntity
8
cotes
6
CONTINUOUS
62
7
370
0
100
AcDbLine
10
19.5
20
30.775
11
19.5
21
31
0
MTEXT
5
1F2
100
AcDbEntity
8
cotes
6
CONTINUOUS
62
7
370
0
100
AcDbMText
10
18.475
20
29.75
30
0
40
0.8
41
1.24444444444
71
5
72
1
1
2.5
7
standard
210
0
220
0
230
1
50
0
73
2
44
1
0
LINE
5
1F3
100
AcDbEntity
8
cotes
6
CONTINUOUS
62
7
370
0
100
AcDbLine
10
20
20
28.5
11
19.8
21
28.5
0
LINE
5
1F4
100
AcDbEntity
8
cotes
6
CONTINUOUS
62
7
370
0
100
AcDbLine
10
20
20
31
11
19.8
21
31
0
ENDBLK
5
B8
330
B6
100
AcDbEntity
8
0
100
AcDbBlockEnd
0
BLOCK
5
BA
330
B9
100
AcDbEntity
8
0
100
AcDbBlockBegin
2
*D25
70
1
10
0
20
0
3
*D25
1

0
LINE
5
1F5
100
AcDbEntity
8
cotes
6
CONTINUOUS
62
7
370
0
100
AcDbLine
10
23
20
7.3725
11
23
21
7.21125
0
SOLID
5
1F6
100
AcDbEntity
8
cotes
6
CONTINUOUS
62
7
370
0
100
AcDbTrace
10
23
20
7.3725
30
0
11
23.0499541589
21
7.0725
31
0
12
22.9500458411
22
7.0725
32
0
13
22.9500458411
23
7.0725
33
0
0
SOLID
5
1F7
100
AcDbEntity
8
cotes
6
CONTINUOUS
62
7
370
0
100
AcDbTrace
10
23
20
5
30
0
11
22.9500458411
21
5.3
31
0
12
23.0499541589
22
5.3
32
0
13
23.0499541589
23
5.3
33
0
0
LINE
5
1F8
100
AcDbEntity
8
cotes
6
CONTINUOUS
62
7
370
0
100
AcDbLine
10
23
20
5.16125
11
23
21
5
0
MTEXT
5
1F9
100
AcDbEntity
8
cotes
6
CONTINUOUS
62
7
370
0
100
AcDbMText
10
26.3668055556
20
6.18625
30
0
40
0.8
41
3.11111111111
71
5
72
1
1
2.3725
7
standard
210
0
220
0
230
1
50
0
73
2
44
1
0
LINE
5
1FA
100
AcDbEntity
8
cotes
6
CONTINUOUS
62
7
370
0
100
AcDbLine
10
23
20
7.3725
11
23.3
21
7.3725
0
LINE
5
1FB
100
AcDbEntity
8
cotes
6
CONTINUOUS
62
7
370
0
100
AcDbLine
10
23.8775
20
5
11
23.3
21
5
0
ENDBLK
5
BB
330
B9
100
AcDbEntity
8
0
100
AcDbBlockEnd
0
BLOCK
5
BD
330
BC
100
AcDbEntity
8
0
100
AcDbBlockBegin
2
*D19
70
1
10
0
20
0
3
*D19
1

0
LINE
5
1FC
100
AcDbEntity
8
cotes
6
CONTINUOUS
62
7
370
0
100
AcDbLine
10
23
20
31
11
23
21
31.9749999376
0
SOLID
5
1FD
100
AcDbEntity
8
cotes
6
CONTINUOUS
62
7
370
0
100
AcDbTrace
10
23
20
31
30
0
11
22.9500458411
21
31.3
31
0
12
23.0499541589
22
31.3
32
0
13
23.0499541589
23
31.3
33
0
0
SOLID
5
1FE
100
AcDbEntity
8
cotes
6
CONTINUOUS
62
7
370
0
100
AcDbTrace
10
23
20
34.9999998752
30
0
11
23.0499541589
21
34.6999998752
31
0
12
22.9500458411
22
34.6999998752
32
0
13
22.9500458411
23
34.6999998752
33
0
0
LINE
5
1FF
100
AcDbEntity
8
cotes
6
CONTINUOUS
62
7
370
0
100
AcDbLine
10
23
20
34.0249999376
11
23
21
34.9999998752
0
MTEXT
5
200
100
AcDbEntity
8
cotes
6
CONTINUOUS
62
7
370
0
100
AcDbMText
10
23
20
32.9999999376
30
0
40
0.8
41
0.444444444444
71
5
72
1
1
4
7
standard
210
0
220
0
230
1
50
0
73
2
44
1
0
LINE
5
201
100
AcDbEntity
8
cotes
6
CONTINUOUS
62
7
370
0
100
AcDbLine
10
23
20
31
11
23.3
21
31
0
LINE
5
202
100
AcDbEntity
8
cotes
6
CONTINUOUS
62
7
370
0
100
AcDbLine
10
27.000000259
20
34.9999998752
11
23.3
21
34.9999998752
0
ENDBLK
5
BE
330
BC
100
AcDbEntity
8
0
100
AcDbBlockEnd
0
BLOCK
5
C0
330
BF
100
AcDbEntity
8
0
100
AcDbBlockBegin
2
*D45
70
1
10
0
20
0
3
*D45
1

0
LINE
5
203
100
AcDbEntity
8
profil-pour-3d-2
6
CONTINUOUS
62
7
370
0
100
AcDbLine
10
97.5000003098
20
22.5
11
91.0250002765
21
22.5
0
SOLID
5
204
100
AcDbEntity
8
profil-pour-3d-2
6
CONTINUOUS
62
7
370
0
100
AcDbTrace
10
97.5000003098
20
22.5
30
0
11
97.2000003098
21
22.4500458411
31
0
12
97.2000003098
22
22.5499541589
32
0
13
97.2000003098
23
22.5499541589
33
0
0
SOLID
5
205
100
AcDbEntity
8
profil-pour-3d-2
6
CONTINUOUS
62
7
370
0
100
AcDbTrace
10
82.5000002431
20
22.5
30
0
11
82.8000002431
21
22.5499541589
31
0
12
82.8000002431
22
22.4500458411
32
0
13
82.8000002431
23
22.4500458411
33
0
0
LINE
5
206
100
AcDbEntity
8
profil-pour-3d-2
6
CONTINUOUS
62
7
370
0
100
AcDbLine
10
88.9750002765
20
22.5
11
82.5000002431
21
22.5
0
MTEXT
5
207
100
AcDbEntity
8
profil-pour-3d-2
6
CONTINUOUS
62
7
370
0
100
AcDbMText
10
90.0000002765
20
22.5
30
0
40
0.8
41
0.8
71
5
72
1
1
15
7
standard
210
0
220
0
230
1
50
0
73
2
44
1
0
LINE
5
208
100
AcDbEntity
8
profil-pour-3d-2
6
CONTINUOUS
62
7
370
0
100
AcDbLine
10
97.5000003098
20
39.0999994219
11
97.5000003098
21
22.2
0
LINE
5
209
100
AcDbEntity
8
profil-pour-3d-2
6
CONTINUOUS
62
7
370
0
100
AcDbLine
10
82.5000002431
20
23.06375
11
82.5000002431
21
22.2
0
ENDBLK
5
C1
330
BF
100
AcDbEntity
8
0
100
AcDbBlockEnd
0
BLOCK
5
C3
330
C2
100
AcDbEntity
8
0
100
AcDbBlockBegin
2
*D1
70
1
10
0
20
0
3
*D1
1

0
LINE
5
20A
100
AcDbEntity
8
cotes
6
CONTINUOUS
62
7
370
0
100
AcDbLine
10
-15
20
43.9593482668
11
8.88611125141
21
43.9593482668
0
SOLID
5
20B
100
AcDbEntity
8
cotes
6
CONTINUOUS
62
7
370
0
100
AcDbTrace
10
-15
20
43.9593482668
30
0
11
-14.7
21
44.0093024257
31
0
12
-14.7
22
43.9093941079
32
0
13
-14.7
23
43.9093941079
33
0
0
SOLID
5
20C
100
AcDbEntity
8
cotes
6
CONTINUOUS
62
7
370
0
100
AcDbTrace
10
35.0000002806
20
43.9593482668
30
0
11
34.7000002806
21
43.9093941079
31
0
12
34.7000002806
22
44.0093024257
32
0
13
34.7000002806
23
44.0093024257
33
0
0
LINE
5
20D
100
AcDbEntity
8
cotes
6
CONTINUOUS
62
7
370
0
100
AcDbLine
10
11.1138890292
20
43.9593482668
11
35.0000002806
21
43.9593482668
0
MTEXT
5
20E
100
AcDbEntity
8
cotes
6
CONTINUOUS
62
7
370
0
100
AcDbMText
10
10.0000001403
20
43.9593482668
30
0
40
0.8
41
0.977777777778
71
5
72
1
1
50
7
standard
210
0
220
0
230
1
50
0
73
2
44
1
0
LINE
5
20F
100
AcDbEntity
8
cotes
6
CONTINUOUS
62
7
370
0
100
AcDbLine
10
-15
20
39.6
11
-15
21
44.2593482668
0
LINE
5
210
100
AcDbEntity
8
cotes
6
CONTINUOUS
62
7
370
0
100
AcDbLine
10
35.0000002806
20
39.5999997921
11
35.0000002806
21
44.2593482668
0
ENDBLK
5
C4
330
C2
100
AcDbEntity
8
0
100
AcDbBlockEnd
0
BLOCK
5
C6
330
C5
100
AcDbEntity
8
0
100
AcDbBlockBegin
2
*D6
70
1
10
0
20
0
3
*D6
1

0
LINE
5
211
100
AcDbEntity
8
cotes
6
CONTINUOUS
62
7
370
0
100
AcDbLine
10
25.0000003098
20
46.1646667417
11
25.0027780876
21
46.1646667417
0
SOLID
5
212
100
AcDbEntity
8
cotes
6
CONTINUOUS
62
7
370
0
100
AcDbTrace
10
25.0000003098
20
46.1646667417
30
0
11
25.3000003098
21
46.2146209006
31
0
12
25.3000003098
22
46.1147125828
32
0
13
25.3000003098
23
46.1147125828
33
0
0
SOLID
5
213
100
AcDbEntity
8
cotes
6
CONTINUOUS
62
7
370
0
100
AcDbTrace
10
27.5000003098
20
46.1646667417
30
0
11
27.2000003098
21
46.1147125828
31
0
12
27.2000003098
22
46.2146209006
32
0
13
27.2000003098
23
46.2146209006
33
0
0
LINE
5
214
100
AcDbEntity
8
cotes
6
CONTINUOUS
62
7
370
0
100
AcDbLine
10
27.497222532
20
46.1646667417
11
27.5000003098
21
46.1646667417
0
MTEXT
5
215
100
AcDbEntity
8
cotes
6
CONTINUOUS
62
7
370
0
100
AcDbMText
10
26.2500003098
20
46.1646667417
30
0
40
0.8
41
1.24444444444
71
5
72
1
1
2.5
7
standard
210
0
220
0
230
1
50
0
73
2
44
1
0
LINE
5
216
100
AcDbEntity
8
cotes
6
CONTINUOUS
62
7
370
0
100
AcDbLine
10
25.0000003098
20
43.0999998752
11
25.0000003098
21
46.4646667417
0
LINE
5
217
100
AcDbEntity
8
cotes
6
CONTINUOUS
62
7
370
0
100
AcDbLine
10
27.5000003098
20
43.0999998544
11
27.5000003098
21
46.4646667417
0
ENDBLK
5
C7
330
C5
100
AcDbEntity
8
0
100
AcDbBlockEnd
0
BLOCK
5
C9
330
C8
100
AcDbEntity
8
0
100
AcDbBlockBegin
2
*D33
70
1
10
0
20
0
3
*D33
1

0
LINE
5
218
100
AcDbEntity
8
cotes
6
CONTINUOUS
62
7
370
0
100
AcDbLine
10
127.380113994
20
34.999999611
11
127.380113994
21
32.7749997098
0
SOLID
5
219
100
AcDbEntity
8
cotes
6
CONTINUOUS
62
7
370
0
100
AcDbTrace
10
127.380113994
20
34.999999611
30
0
11
127.430068153
21
34.699999611
31
0
12
127.330159835
22
34.699999611
32
0
13
127.330159835
23
34.699999611
33
0
0
SOLID
5
21A
100
AcDbEntity
8
cotes
6
CONTINUOUS
62
7
370
0
100
AcDbTrace
10
127.380113994
20
28.4999998087
30
0
11
127.330159835
21
28.7999998087
31
0
12
127.430068153
22
28.7999998087
32
0
13
127.430068153
23
28.7999998087
33
0
0
LINE
5
21B
100
AcDbEntity
8
cotes
6
CONTINUOUS
62
7
370
0
100
AcDbLine
10
127.380113994
20
30.7249997098
11
127.380113994
21
28.4999998087
0
MTEXT
5
21C
100
AcDbEntity
8
cotes
6
CONTINUOUS
62
7
370
0
100
AcDbMText
10
127.380113994
20
31.7499997098
30
0
40
0.8
41
1.24444444444
71
5
72
1
1
6.5
7
standard
210
0
220
0
230
1
50
0
73
2
44
1
0
LINE
5
21D
100
AcDbEntity
8
cotes
6
CONTINUOUS
62
7
370
0
100
AcDbLine
10
108.500000259
20
34.999999611
11
127.680113994
21
34.999999611
0
LINE
5
21E
100
AcDbEntity
8
cotes
6
CONTINUOUS
62
7
370
0
100
AcDbLine
10
117.50000031
20
28.4999998087
11
127.680113994
21
28.4999998087
0
ENDBLK
5
CA
330
C8
100
AcDbEntity
8
0
100
AcDbBlockEnd
0
BLOCK
5
CC
330
CB
100
AcDbEntity
8
0
100
AcDbBlockBegin
2
*D35
70
1
10
0
20
0
3
*D35
1

0
LINE
5
21F
100
AcDbEntity
8
cotes
6
CONTINUOUS
62
7
370
0
100
AcDbLine
10
127.380113994
20
25.4999998087
11
127.380113994
21
25.0249999043
0
SOLID
5
220
100
AcDbEntity
8
cotes
6
CONTINUOUS
62
7
370
0
100
AcDbTrace
10
127.380113994
20
25.4999998087
30
0
11
127.430068153
21
25.1999998087
31
0
12
127.330159835
22
25.1999998087
32
0
13
127.330159835
23
25.1999998087
33
0
0
SOLID
5
221
100
AcDbEntity
8
cotes
6
CONTINUOUS
62
7
370
0
100
AcDbTrace
10
127.380113994
20
22.5
30
0
11
127.330159835
21
22.8
31
0
12
127.430068153
22
22.8
32
0
13
127.430068153
23
22.8
33
0
0
LINE
5
222
100
AcDbEntity
8
cotes
6
CONTINUOUS
62
7
370
0
100
AcDbLine
10
127.380113994
20
22.9749999043
11
127.380113994
21
22.5
0
MTEXT
5
223
100
AcDbEntity
8
cotes
6
CONTINUOUS
62
7
370
0
100
AcDbMText
10
127.380113994
20
23.9999999043
30
0
40
0.8
41
0.355555555556
71
5
72
1
1
3
7
standard
210
0
220
0
230
1
50
0
73
2
44
1
0
LINE
5
224
100
AcDbEntity
8
cotes
6
CONTINUOUS
62
7
370
0
100
AcDbLine
10
117.50000031
20
25.4999998087
11
127.680113994
21
25.4999998087
0
LINE
5
225
100
AcDbEntity
8
cotes
6
CONTINUOUS
62
7
370
0
100
AcDbLine
10
108.500000155
20
22.5
11
127.680113994
21
22.5
0
ENDBLK
5
CD
330
CB
100
AcDbEntity
8
0
100
AcDbBlockEnd
0
BLOCK
5
CF
330
CE
100
AcDbEntity
8
0
100
AcDbBlockBegin
2
*D4
70
1
10
0
20
0
3
*D4
1

0
LINE
5
226
100
AcDbEntity
8
cotes
6
CONTINUOUS
62
7
370
0
100
AcDbLine
10
-7.5
20
46.1646667417
11
-7.49722222222
21
46.1646667417
0
SOLID
5
227
100
AcDbEntity
8
cotes
6
CONTINUOUS
62
7
370
0
100
AcDbTrace
10
-7.5
20
46.1646667417
30
0
11
-7.2
21
46.2146209006
31
0
12
-7.2
22
46.1147125828
32
0
13
-7.2
23
46.1147125828
33
0
0
SOLID
5
228
100
AcDbEntity
8
cotes
6
CONTINUOUS
62
7
370
0
100
AcDbTrace
10
-5
20
46.1646667417
30
0
11
-5.3
21
46.1147125828
31
0
12
-5.3
22
46.2146209006
32
0
13
-5.3
23
46.2146209006
33
0
0
LINE
5
229
100
AcDbEntity
8
cotes
6
CONTINUOUS
62
7
370
0
100
AcDbLine
10
-5.00277777778
20
46.1646667417
11
-5
21
46.1646667417
0
MTEXT
5
22A
100
AcDbEntity
8
cotes
6
CONTINUOUS
62
7
370
0
100
AcDbMText
10
-6.25
20
46.1646667417
30
0
40
0.8
41
1.24444444444
71
5
72
1
1
2.5
7
standard
210
0
220
0
230
1
50
0
73
2
44
1
0
LINE
5
22B
100
AcDbEntity
8
cotes
6
CONTINUOUS
62
7
370
0
100
AcDbLine
10
-7.5
20
43.1
11
-7.5
21
46.4646667417
0
LINE
5
22C
100
AcDbEntity
8
cotes
6
CONTINUOUS
62
7
370
0
100
AcDbLine
10
-5
20
43.1
11
-5
21
46.4646667417
0
ENDBLK
5
D0
330
CE
100
AcDbEntity
8
0
100
AcDbBlockEnd
0
BLOCK
5
D2
330
D1
100
AcDbEntity
8
0
100
AcDbBlockBegin
2
*D40
70
1
10
0
20
0
3
*D40
1

0
LINE
5
22D
100
AcDbEntity
8
cotes
6
CONTINUOUS
62
7
370
0
100
AcDbLine
10
-20.4594594595
20
-54.2894562715
11
-17.7622372373
21
-54.2894562715
0
SOLID
5
22E
100
AcDbEntity
8
cotes
6
CONTINUOUS
62
7
370
0
100
AcDbTrace
10
-20.4594594595
20
-54.2894562715
30
0
11
-20.1594594595
21
-54.2395021126
31
0
12
-20.1594594595
22
-54.3394104304
32
0
13
-20.1594594595
23
-54.3394104304
33
0
0
SOLID
5
22F
100
AcDbEntity
8
cotes
6
CONTINUOUS
62
7
370
0
100
AcDbTrace
10
-13.4594594595
20
-54.2894562715
30
0
11
-13.7594594595
21
-54.3394104304
31
0
12
-13.7594594595
22
-54.2395021126
32
0
13
-13.7594594595
23
-54.2395021126
33
0
0
LINE
5
230
100
AcDbEntity
8
cotes
6
CONTINUOUS
62
7
370
0
100
AcDbLine
10
-16.1566816817
20
-54.2894562715
11
-13.4594594595
21
-54.2894562715
0
MTEXT
5
231
100
AcDbEntity
8
cotes
6
CONTINUOUS
62
7
370
0
100
AcDbMText
10
-16.9594594595
20
-54.2894562715
30
0
40
0.8
41
0.355555555556
71
5
72
1
1
7
7
standard
210
0
220
0
230
1
50
0
73
2
44
1
0
LINE
5
232
100
AcDbEntity
8
cotes
6
CONTINUOUS
62
7
370
0
100
AcDbLine
10
-20.4594594595
20
-66.8175675676
11
-20.4594594595
21
-53.9894562715
0
LINE
5
233
100
AcDbEntity
8
cotes
6
CONTINUOUS
62
7
370
0
100
AcDbLine
10
-13.4594594595
20
-66.8175675676
11
-13.4594594595
21
-53.9894562715
0
ENDBLK
5
D3
330
D1
100
AcDbEntity
8
0
100
AcDbBlockEnd
0
BLOCK
5
D5
330
D4
100
AcDbEntity
8
0
100
AcDbBlockBegin
2
*D49
70
1
10
0
20
0
3
*D49
1

0
LINE
5
234
100
AcDbEntity
8
cotes
6
CONTINUOUS
62
7
370
0
100
AcDbLine
10
19.5
20
34.9999999147
11
19.5
21
31
0
SOLID
5
235
100
AcDbEntity
8
cotes
6
CONTINUOUS
62
7
370
0
100
AcDbTrace
10
19.5
20
34.9999999147
30
0
11
19.5499541589
21
34.6999999147
31
0
12
19.4500458411
22
34.6999999147
32
0
13
19.4500458411
23
34.6999999147
33
0
0
SOLID
5
236
100
AcDbEntity
8
cotes
6
CONTINUOUS
62
7
370
0
100
AcDbTrace
10
19.5
20
31
30
0
11
19.4500458411
21
31.3
31
0
12
19.5499541589
22
31.3
32
0
13
19.5499541589
23
31.3
33
0
0
MTEXT
5
237
100
AcDbEntity
8
cotes
6
CONTINUOUS
62
7
370
0
100
AcDbMText
10
18.475
20
32.9999999573
30
0
40
0.8
41
0.444444444444
71
5
72
1
1
4
7
standard
210
0
220
0
230
1
50
0
73
2
44
1
0
LINE
5
238
100
AcDbEntity
8
cotes
6
CONTINUOUS
62
7
370
0
100
AcDbLine
10
20
20
34.9999999147
11
19.8
21
34.9999999147
0
LINE
5
239
100
AcDbEntity
8
cotes
6
CONTINUOUS
62
7
370
0
100
AcDbLine
10
20
20
31
11
19.8
21
31
0
ENDBLK
5
D6
330
D4
100
AcDbEntity
8
0
100
AcDbBlockEnd
0
BLOCK
5
D8
330
D7
100
AcDbEntity
8
0
100
AcDbBlockBegin
2
*D31
70
1
10
0
20
0
3
*D31
1

0
LINE
5
23A
100
AcDbEntity
8
cotes
6
CONTINUOUS
62
7
370
0
100
AcDbLine
10
121.702603419
20
-11.0264554944
11
121.702603419
21
-11.1336724825
0
SOLID
5
23B
100
AcDbEntity
8
cotes
6
CONTINUOUS
62
7
370
0
100
AcDbTrace
10
121.702603419
20
-11.0264554944
30
0
11
121.752557578
21
-11.3264554944
31
0
12
121.65264926
22
-11.3264554944
32
0
13
121.65264926
23
-11.3264554944
33
0
0
SOLID
5
23C
100
AcDbEntity
8
cotes
6
CONTINUOUS
62
7
370
0
100
AcDbTrace
10
121.702603419
20
-13.2908894707
30
0
11
121.65264926
21
-12.9908894707
31
0
12
121.752557578
22
-12.9908894707
32
0
13
121.752557578
23
-12.9908894707
33
0
0
LINE
5
23D
100
AcDbEntity
8
cotes
6
CONTINUOUS
62
7
370
0
100
AcDbLine
10
121.702603419
20
-13.1836724825
11
121.702603419
21
-13.2908894707
0
MTEXT
5
23E
100
AcDbEntity
8
cotes
6
CONTINUOUS
62
7
370
0
100
AcDbMText
10
125.104264852
20
-12.1586724825
30
0
40
0.8
41
3.28888888889
71
5
72
1
1
2.2644
7
standard
210
0
220
0
230
1
50
0
73
2
44
1
0
LINE
5
23F
100
AcDbEntity
8
cotes
6
CONTINUOUS
62
7
370
0
100
AcDbLine
10
94.5000001003
20
-11.0264554944
11
122.002603419
21
-11.0264554944
0
LINE
5
240
100
AcDbEntity
8
cotes
6
CONTINUOUS
62
7
370
0
100
AcDbLine
10
99.4999998574
20
-13.2908894707
11
122.002603419
21
-13.2908894707
0
ENDBLK
5
D9
330
D7
100
AcDbEntity
8
0
100
AcDbBlockEnd
0
BLOCK
5
DB
330
DA
100
AcDbEntity
8
0
100
AcDbBlockBegin
2
*D16
70
1
10
0
20
0
3
*D16
1

0
LINE
5
241
100
AcDbEntity
8
cotes
6
CONTINUOUS
62
7
370
0
100
AcDbLine
10
15
20
9.6225
11
17.1972222222
21
9.6225
0
SOLID
5
242
100
AcDbEntity
8
cotes
6
CONTINUOUS
62
7
370
0
100
AcDbTrace
10
15
20
9.6225
30
0
11
15.3
21
9.67245415893
31
0
12
15.3
22
9.57254584107
32
0
13
15.3
23
9.57254584107
33
0
0
SOLID
5
243
100
AcDbEntity
8
cotes
6
CONTINUOUS
62
7
370
0
100
AcDbTrace
10
21
20
9.6225
30
0
11
20.7
21
9.57254584107
31
0
12
20.7
22
9.67245415893
32
0
13
20.7
23
9.67245415893
33
0
0
LINE
5
244
100
AcDbEntity
8
cotes
6
CONTINUOUS
62
7
370
0
100
AcDbLine
10
18.8027777778
20
9.6225
11
21
21
9.6225
0
MTEXT
5
245
100
AcDbEntity
8
cotes
6
CONTINUOUS
62
7
370
0
100
AcDbMText
10
18
20
9.6225
30
0
40
0.8
41
0.355555555556
71
5
72
1
1
6
7
standard
210
0
220
0
230
1
50
0
73
2
44
1
0
LINE
5
246
100
AcDbEntity
8
cotes
6
CONTINUOUS
62
7
370
0
100
AcDbLine
10
15
20
7.6225
11
15
21
9.3225
0
LINE
5
247
100
AcDbEntity
8
cotes
6
CONTINUOUS
62
7
370
0
100
AcDbLine
10
21
20
8.8725
11
21
21
9.3225
0
ENDBLK
5
DC
330
DA
100
AcDbEntity
8
0
100
AcDbBlockEnd
0
BLOCK
5
DE
330
DD
100
AcDbEntity
8
0
100
AcDbBlockBegin
2
*D5
70
1
10
0
20
0
3
*D5
1

0
LINE
5
248
100
AcDbEntity
8
cotes
6
CONTINUOUS
62
7
370
0
100
AcDbLine
10
-5
20
46.1646667417
11
8.88611126601
21
46.1646667417
0
SOLID
5
249
100
AcDbEntity
8
cotes
6
CONTINUOUS
62
7
370
0
100
AcDbTrace
10
-5
20
46.1646667417
30
0
11
-4.7
21
46.2146209006
31
0
12
-4.7
22
46.1147125828
32
0
13
-4.7
23
46.1147125828
33
0
0
SOLID
5
24A
100
AcDbEntity
8
cotes
6
CONTINUOUS
62
7
370
0
100
AcDbTrace
10
25.0000003098
20
46.1646667417
30
0
11
24.7000003098
21
46.1147125828
31
0
12
24.7000003098
22
46.2146209006
32
0
13
24.7000003098
23
46.2146209006
33
0
0
LINE
5
24B
100
AcDbEntity
8
cotes
6
CONTINUOUS
62
7
370
0
100
AcDbLine
10
11.1138890438
20
46.1646667417
11
25.0000003098
21
46.1646667417
0
MTEXT
5
24C
100
AcDbEntity
8
cotes
6
CONTINUOUS
62
7
370
0
100
AcDbMText
10
10.0000001549
20
46.1646667417
30
0
40
0.8
41
0.977777777778
71
5
72
1
1
30
7
standard
210
0
220
0
230
1
50
0
73
2
44
1
0
LINE
5
24D
100
AcDbEntity
8
cotes
6
CONTINUOUS
62
7
370
0
100
AcDbLine
10
-5
20
43.1
11
-5
21
46.4646667417
0
LINE
5
24E
100
AcDbEntity
8
cotes
6
CONTINUOUS
62
7
370
0
100
AcDbLine
10
25.0000003098
20
43.0999998752
11
25.0000003098
21
46.4646667417
0
ENDBLK
5
DF
330
DD
100
AcDbEntity
8
0
100
AcDbBlockEnd
0
BLOCK
5
E1
330
E0
100
AcDbEntity
8
0
100
AcDbBlockBegin
2
*D43
70
1
10
0
20
0
3
*D43
1

0
LINE
5
24F
100
AcDbEntity
8
cotes
6
CONTINUOUS
62
7
370
0
100
AcDbLine
10
-26.2473817511
20
-76.8175675676
11
-26.2473817511
21
-77.7925675676
0
SOLID
5
250
100
AcDbEntity
8
cotes
6
CONTINUOUS
62
7
370
0
100
AcDbTrace
10
-26.2473817511
20
-76.8175675676
30
0
11
-26.1974275922
21
-77.1175675676
31
0
12
-26.29733591
22
-77.1175675676
32
0
13
-26.29733591
23
-77.1175675676
33
0
0
SOLID
5
251
100
AcDbEntity
8
cotes
6
CONTINUOUS
62
7
370
0
100
AcDbTrace
10
-26.2473817511
20
-80.8175675676
30
0
11
-26.29733591
21
-80.5175675676
31
0
12
-26.1974275922
22
-80.5175675676
32
0
13
-26.1974275922
23
-80.5175675676
33
0
0
LINE
5
252
100
AcDbEntity
8
cotes
6
CONTINUOUS
62
7
370
0
100
AcDbLine
10
-26.2473817511
20
-79.8425675676
11
-26.2473817511
21
-80.8175675676
0
MTEXT
5
253
100
AcDbEntity
8
cotes
6
CONTINUOUS
62
7
370
0
100
AcDbMText
10
-26.2473817511
20
-78.8175675676
30
0
40
0.8
41
0.444444444444
71
5
72
1
1
4
7
standard
210
0
220
0
230
1
50
0
73
2
44
1
0
LINE
5
254
100
AcDbEntity
8
cotes
6
CONTINUOUS
62
7
370
0
100
AcDbLine
10
-22.4594594595
20
-76.8175675676
11
-26.5473817511
21
-76.8175675676
0
LINE
5
255
100
AcDbEntity
8
cotes
6
CONTINUOUS
62
7
370
0
100
AcDbLine
10
-21.204022106
20
-80.8175675676
11
-26.5473817511
21
-80.8175675676
0
ENDBLK
5
E2
330
E0
100
AcDbEntity
8
0
100
AcDbBlockEnd
0
BLOCK
5
E4
330
E3
100
AcDbEntity
8
0
100
AcDbBlockBegin
2
*D32
70
1
10
0
20
0
3
*D32
1

0
LINE
5
256
100
AcDbEntity
8
cotes
6
CONTINUOUS
62
7
370
0
100
AcDbLine
10
127.380113994
20
41.0999994219
11
127.380113994
21
39.0749995165
0
SOLID
5
257
100
AcDbEntity
8
cotes
6
CONTINUOUS
62
7
370
0
100
AcDbTrace
10
127.380113994
20
41.0999994219
30
0
11
127.430068153
21
40.7999994219
31
0
12
127.330159835
22
40.7999994219
32
0
13
127.330159835
23
40.7999994219
33
0
0
SOLID
5
258
100
AcDbEntity
8
cotes
6
CONTINUOUS
62
7
370
0
100
AcDbTrace
10
127.380113994
20
34.999999611
30
0
11
127.330159835
21
35.299999611
31
0
12
127.430068153
22
35.299999611
32
0
13
127.430068153
23
35.299999611
33
0
0
LINE
5
259
100
AcDbEntity
8
cotes
6
CONTINUOUS
62
7
370
0
100
AcDbLine
10
127.380113994
20
37.0249995165
11
127.380113994
21
34.999999611
0
MTEXT
5
25A
100
AcDbEntity
8
cotes
6
CONTINUOUS
62
7
370
0
100
AcDbMText
10
127.380113994
20
38.0499995165
30
0
40
0.8
41
1.06666666667
71
5
72
1
1
6.1
7
standard
210
0
220
0
230
1
50
0
73
2
44
1
0
LINE
5
25B
100
AcDbEntity
8
cotes
6
CONTINUOUS
62
7
370
0
100
AcDbLine
10
99.5000003098
20
41.0999994219
11
127.680113994
21
41.0999994219
0
LINE
5
25C
100
AcDbEntity
8
cotes
6
CONTINUOUS
62
7
370
0
100
AcDbLine
10
108.500000259
20
34.999999611
11
127.680113994
21
34.999999611
0
ENDBLK
5
E5
330
E3
100
AcDbEntity
8
0
100
AcDbBlockEnd
0
BLOCK
5
E7
330
E6
100
AcDbEntity
8
0
100
AcDbBlockBegin
2
*D21
70
1
10
0
20
0
3
*D21
1

0
LINE
5
25D
100
AcDbEntity
8
cotes
6
CONTINUOUS
62
7
370
0
100
AcDbLine
10
23
20
15.8725
11
23
21
14.8725
0
SOLID
5
25E
100
AcDbEntity
8
cotes
6
CONTINUOUS
62
7
370
0
100
AcDbTrace
10
23
20
15.8725
30
0
11
23.0499541589
21
15.5725
31
0
12
22.9500458411
22
15.5725
32
0
13
22.9500458411
23
15.5725
33
0
0
SOLID
5
25F
100
AcDbEntity
8
cotes
6
CONTINUOUS
62
7
370
0
100
AcDbTrace
10
23
20
14.8725
30
0
11
22.9500458411
21
15.1725
31
0
12
23.0499541589
22
15.1725
32
0
13
23.0499541589
23
15.1725
33
0
0
MTEXT
5
260
100
AcDbEntity
8
cotes
6
CONTINUOUS
62
7
370
0
100
AcDbMText
10
23
20
15.3725
30
0
40
0.8
41
0.177777777778
71
5
72
1
1
1
7
standard
210
0
220
0
230
1
50
0
73
2
44
1
0
LINE
5
261
100
AcDbEntity
8
cotes
6
CONTINUOUS
62
7
370
0
100
AcDbLine
10
23
20
15.8725
11
23.3
21
15.8725
0
LINE
5
262
100
AcDbEntity
8
cotes
6
CONTINUOUS
62
7
370
0
100
AcDbLine
10
22
20
14.8725
11
23.3
21
14.8725
0
ENDBLK
5
E8
330
E6
100
AcDbEntity
8
0
100
AcDbBlockEnd
0
BLOCK
5
EA
330
E9
100
AcDbEntity
8
0
100
AcDbBlockBegin
2
*D2
70
1
10
0
20
0
3
*D2
1

0
LINE
5
263
100
AcDbEntity
8
cotes
6
CONTINUOUS
62
7
370
0
100
AcDbLine
10
-25.5
20
46.1646667417
11
-24.8027777778
21
46.1646667417
0
SOLID
5
264
100
AcDbEntity
8
cotes
6
CONTINUOUS
62
7
370
0
100
AcDbTrace
10
-25.5
20
46.1646667417
30
0
11
-25.2
21
46.2146209006
31
0
12
-25.2
22
46.1147125828
32
0
13
-25.2
23
46.1147125828
33
0
0
SOLID
5
265
100
AcDbEntity
8
cotes
6
CONTINUOUS
62
7
370
0
100
AcDbTrace
10
-22.5
20
46.1646667417
30
0
11
-22.8
21
46.1147125828
31
0
12
-22.8
22
46.2146209006
32
0
13
-22.8
23
46.2146209006
33
0
0
LINE
5
266
100
AcDbEntity
8
cotes
6
CONTINUOUS
62
7
370
0
100
AcDbLine
10
-23.1972222222
20
46.1646667417
11
-22.5
21
46.1646667417
0
MTEXT
5
267
100
AcDbEntity
8
cotes
6
CONTINUOUS
62
7
370
0
100
AcDbMText
10
-24
20
46.1646667417
30
0
40
0.8
41
0.355555555556
71
5
72
1
1
3
7
standard
210
0
220
0
230
1
50
0
73
2
44
1
0
LINE
5
268
100
AcDbEntity
8
cotes
6
CONTINUOUS
62
7
370
0
100
AcDbLine
10
-25.5
20
43.1
11
-25.5
21
46.4646667417
0
LINE
5
269
100
AcDbEntity
8
cotes
6
CONTINUOUS
62
7
370
0
100
AcDbLine
10
-22.5
20
43.1
11
-22.5
21
46.4646667417
0
ENDBLK
5
EB
330
E9
100
AcDbEntity
8
0
100
AcDbBlockEnd
0
BLOCK
5
ED
330
EC
100
AcDbEntity
8
0
100
AcDbBlockBegin
2
*D54
70
1
10
0
20
0
3
*D54
1

0
LINE
5
26A
100
AcDbEntity
8
cotes
6
CONTINUOUS
62
7
370
0
100
AcDbLine
10
50.0719282636
20
70.4462495497
11
50.0719282636
21
73.4462495497
0
SOLID
5
26B
100
AcDbEntity
8
cotes
6
CONTINUOUS
62
7
370
0
100
AcDbTrace
10
50.0719282636
20
70.4462495497
30
0
11
50.0219741047
21
70.7462495497
31
0
12
50.1218824225
22
70.7462495497
32
0
13
50.1218824225
23
70.7462495497
33
0
0
SOLID
5
26C
100
AcDbEntity
8
cotes
6
CONTINUOUS
62
7
370
0
100
AcDbTrace
10
50.0719282636
20
73.4462495497
30
0
11
50.1218824225
21
73.1462495497
31
0
12
50.0219741047
22
73.1462495497
32
0
13
50.0219741047
23
73.1462495497
33
0
0
MTEXT
5
26D
100
AcDbEntity
8
cotes
6
CONTINUOUS
62
7
370
0
100
AcDbMText
10
49.0469282636
20
71.9462495497
30
0
40
0.8
41
0.355555555556
71
5
72
1
1
3
7
standard
210
0
220
0
230
1
50
0
73
2
44
1
0
LINE
5
26E
100
AcDbEntity
8
cotes
6
CONTINUOUS
62
7
370
0
100
AcDbLine
10
18
20
70.4462495497
11
50.3719282636
21
70.4462495497
0
LINE
5
26F
100
AcDbEntity
8
cotes
6
CONTINUOUS
62
7
370
0
100
AcDbLine
10
18
20
73.4462495497
11
50.3719282636
21
73.4462495497
0
ENDBLK
5
EE
330
EC
100
AcDbEntity
8
0
100
AcDbBlockEnd
0
BLOCK
5
F0
330
EF
100
AcDbEntity
8
0
100
AcDbBlockBegin
2
*D7
70
1
10
0
20
0
3
*D7
1

0
LINE
5
270
100
AcDbEntity
8
cotes
6
CONTINUOUS
62
7
370
0
100
AcDbLine
10
27.5000003098
20
46.1646667417
11
33.9750003098
21
46.1646667417
0
SOLID
5
271
100
AcDbEntity
8
cotes
6
CONTINUOUS
62
7
370
0
100
AcDbTrace
10
27.5000003098
20
46.1646667417
30
0
11
27.8000003098
21
46.2146209006
31
0
12
27.8000003098
22
46.1147125828
32
0
13
27.8000003098
23
46.1147125828
33
0
0
SOLID
5
272
100
AcDbEntity
8
cotes
6
CONTINUOUS
62
7
370
0
100
AcDbTrace
10
42.5000003098
20
46.1646667417
30
0
11
42.2000003098
21
46.1147125828
31
0
12
42.2000003098
22
46.2146209006
32
0
13
42.2000003098
23
46.2146209006
33
0
0
LINE
5
273
100
AcDbEntity
8
cotes
6
CONTINUOUS
62
7
370
0
100
AcDbLine
10
36.0250003098
20
46.1646667417
11
42.5000003098
21
46.1646667417
0
MTEXT
5
274
100
AcDbEntity
8
cotes
6
CONTINUOUS
62
7
370
0
100
AcDbMText
10
35.0000003098
20
46.1646667417
30
0
40
0.8
41
0.8
71
5
72
1
1
15
7
standard
210
0
220
0
230
1
50
0
73
2
44
1
0
LINE
5
275
100
AcDbEntity
8
cotes
6
CONTINUOUS
62
7
370
0
100
AcDbLine
10
27.5000003098
20
43.0999998544
11
27.5000003098
21
46.4646667417
0
LINE
5
276
100
AcDbEntity
8
cotes
6
CONTINUOUS
62
7
370
0
100
AcDbLine
10
42.5000003098
20
43.0999997297
11
42.5000003098
21
46.4646667417
0
ENDBLK
5
F1
330
EF
100
AcDbEntity
8
0
100
AcDbBlockEnd
0
BLOCK
5
F3
330
F2
100
AcDbEntity
8
0
100
AcDbBlockBegin
2
*D50
70
1
10
0
20
0
3
*D50
1

0
LINE
5
277
100
AcDbEntity
8
cotes
6
CONTINUOUS
62
7
370
0
100
AcDbLine
10
19.5
20
28.5
11
19.5
21
25.5
0
SOLID
5
278
100
AcDbEntity
8
cotes
6
CONTINUOUS
62
7
370
0
100
AcDbTrace
10
19.5
20
28.5
30
0
11
19.5499541589
21
28.2
31
0
12
19.4500458411
22
28.2
32
0
13
19.4500458411
23
28.2
33
0
0
SOLID
5
279
100
AcDbEntity
8
cotes
6
CONTINUOUS
62
7
370
0
100
AcDbTrace
10
19.5
20
25.5
30
0
11
19.4500458411
21
25.8
31
0
12
19.5499541589
22
25.8
32
0
13
19.5499541589
23
25.8
33
0
0
MTEXT
5
27A
100
AcDbEntity
8
cotes
6
CONTINUOUS
62
7
370
0
100
AcDbMText
10
18.475
20
27
30
0
40
0.8
41
0.355555555556
71
5
72
1
1
3
7
standard
210
0
220
0
230
1
50
0
73
2
44
1
0
LINE
5
27B
100
AcDbEntity
8
cotes
6
CONTINUOUS
62
7
370
0
100
AcDbLine
10
20
20
28.5
11
19.8
21
28.5
0
LINE
5
27C
100
AcDbEntity
8
cotes
6
CONTINUOUS
62
7
370
0
100
AcDbLine
10
20
20
25.5
11
19.8
21
25.5
0
ENDBLK
5
F4
330
F2
100
AcDbEntity
8
0
100
AcDbBlockEnd
0
BLOCK
5
F6
330
F5
100
AcDbEntity
8
0
100
AcDbBlockBegin
2
*D57
70
1
10
0
20
0
3
*D57
1

0
LINE
5
27D
100
AcDbEntity
8
cotes
6
CONTINUOUS
62
7
370
0
100
AcDbLine
10
50.0719282636
20
70.4462495497
11
50.0719282636
21
67.4462495497
0
SOLID
5
27E
100
AcDbEntity
8
cotes
6
CONTINUOUS
62
7
370
0
100
AcDbTrace
10
50.0719282636
20
70.4462495497
30
0
11
50.1218824225
21
70.1462495497
31
0
12
50.0219741047
22
70.1462495497
32
0
13
50.0219741047
23
70.1462495497
33
0
0
SOLID
5
27F
100
AcDbEntity
8
cotes
6
CONTINUOUS
62
7
370
0
100
AcDbTrace
10
50.0719282636
20
67.4462495497
30
0
11
50.0219741047
21
67.7462495497
31
0
12
50.1218824225
22
67.7462495497
32
0
13
50.1218824225
23
67.7462495497
33
0
0
MTEXT
5
280
100
AcDbEntity
8
cotes
6
CONTINUOUS
62
7
370
0
100
AcDbMText
10
49.0469282636
20
68.9462495497
30
0
40
0.8
41
0.355555555556
71
5
72
1
1
3
7
standard
210
0
220
0
230
1
50
0
73
2
44
1
0
LINE
5
281
100
AcDbEntity
8
cotes
6
CONTINUOUS
62
7
370
0
100
AcDbLine
10
20
20
70.4462495497
11
50.3719282636
21
70.4462495497
0
LINE
5
282
100
AcDbEntity
8
cotes
6
CONTINUOUS
62
7
370
0
100
AcDbLine
10
20
20
67.4462495497
11
50.3719282636
21
67.4462495497
0
ENDBLK
5
F7
330
F5
100
AcDbEntity
8
0
100
AcDbBlockEnd
0
BLOCK
5
F9
330
F8
100
AcDbEntity
8
0
100
AcDbBlockBegin
2
*D15
70
1
10
0
20
0
3
*D15
1

0
LINE
5
283
100
AcDbEntity
8
cotes
6
CONTINUOUS
62
7
370
0
100
AcDbLine
10
16
20
13.3725
11
17.1527777778
21
13.3725
0
SOLID
5
284
100
AcDbEntity
8
cotes
6
CONTINUOUS
62
7
370
0
100
AcDbTrace
10
16
20
13.3725
30
0
11
16.3
21
13.4224541589
31
0
12
16.3
22
13.3225458411
32
0
13
16.3
23
13.3225458411
33
0
0
SOLID
5
285
100
AcDbEntity
8
cotes
6
CONTINUOUS
62
7
370
0
100
AcDbTrace
10
20
20
13.3725
30
0
11
19.7
21
13.3225458411
31
0
12
19.7
22
13.4224541589
32
0
13
19.7
23
13.4224541589
33
0
0
LINE
5
286
100
AcDbEntity
8
cotes
6
CONTINUOUS
62
7
370
0
100
AcDbLine
10
18.8472222222
20
13.3725
11
20
21
13.3725
0
MTEXT
5
287
100
AcDbEntity
8
cotes
6
CONTINUOUS
62
7
370
0
100
AcDbMText
10
18
20
13.3725
30
0
40
0.8
41
0.444444444444
71
5
72
1
1
4
7
standard
210
0
220
0
230
1
50
0
73
2
44
1
0
LINE
5
288
100
AcDbEntity
8
cotes
6
CONTINUOUS
62
7
370
0
100
AcDbLine
10
16
20
15.3725
11
16
21
13.6725
0
LINE
5
289
100
AcDbEntity
8
cotes
6
CONTINUOUS
62
7
370
0
100
AcDbLine
10
20
20
15.3725
11
20
21
13.6725
0
ENDBLK
5
FA
330
F8
100
AcDbEntity
8
0
100
AcDbBlockEnd
0
BLOCK
5
FC
330
FB
100
AcDbEntity
8
0
100
AcDbBlockBegin
2
*D20
70
1
10
0
20
0
3
*D20
1

0
LINE
5
28A
100
AcDbEntity
8
cotes
6
CONTINUOUS
62
7
370
0
100
AcDbLine
10
23
20
31
11
23
21
24.46125
0
SOLID
5
28B
100
AcDbEntity
8
cotes
6
CONTINUOUS
62
7
370
0
100
AcDbTrace
10
23
20
31
30
0
11
23.0499541589
21
30.7
31
0
12
22.9500458411
22
30.7
32
0
13
22.9500458411
23
30.7
33
0
0
SOLID
5
28C
100
AcDbEntity
8
cotes
6
CONTINUOUS
62
7
370
0
100
AcDbTrace
10
23
20
15.8725
30
0
11
22.9500458411
21
16.1725
31
0
12
23.0499541589
22
16.1725
32
0
13
23.0499541589
23
16.1725
33
0
0
LINE
5
28D
100
AcDbEntity
8
cotes
6
CONTINUOUS
62
7
370
0
100
AcDbLine
10
23
20
22.41125
11
23
21
15.8725
0
MTEXT
5
28E
100
AcDbEntity
8
cotes
6
CONTINUOUS
62
7
370
0
100
AcDbMText
10
23
20
23.43625
30
0
40
0.8
41
3.37777777778
71
5
72
1
1
15.1275
7
standard
210
0
220
0
230
1
50
0
73
2
44
1
0
LINE
5
28F
100
AcDbEntity
8
cotes
6
CONTINUOUS
62
7
370
0
100
AcDbLine
10
23
20
31
11
23.3
21
31
0
LINE
5
290
100
AcDbEntity
8
cotes
6
CONTINUOUS
62
7
370
0
100
AcDbLine
10
23
20
15.8725
11
23.3
21
15.8725
0
ENDBLK
5
FD
330
FB
100
AcDbEntity
8
0
100
AcDbBlockEnd
0
BLOCK
5
FF
330
FE
100
AcDbEntity
8
0
100
AcDbBlockBegin
2
*D22
70
1
10
0
20
0
3
*D22
1

0
LINE
5
291
100
AcDbEntity
8
cotes
6
CONTINUOUS
62
7
370
0
100
AcDbLine
10
23
20
14.8725
11
23
21
14.3975
0
SOLID
5
292
100
AcDbEntity
8
cotes
6
CONTINUOUS
62
7
370
0
100
AcDbTrace
10
23
20
14.8725
30
0
11
23.0499541589
21
14.5725
31
0
12
22.9500458411
22
14.5725
32
0
13
22.9500458411
23
14.5725
33
0
0
SOLID
5
293
100
AcDbEntity
8
cotes
6
CONTINUOUS
62
7
370
0
100
AcDbTrace
10
23
20
11.8725
30
0
11
22.9500458411
21
12.1725
31
0
12
23.0499541589
22
12.1725
32
0
13
23.0499541589
23
12.1725
33
0
0
LINE
5
294
100
AcDbEntity
8
cotes
6
CONTINUOUS
62
7
370
0
100
AcDbLine
10
23
20
12.3475
11
23
21
11.8725
0
MTEXT
5
295
100
AcDbEntity
8
cotes
6
CONTINUOUS
62
7
370
0
100
AcDbMText
10
23
20
13.3725
30
0
40
0.8
41
0.355555555556
71
5
72
1
1
3
7
standard
210
0
220
0
230
1
50
0
73
2
44
1
0
LINE
5
296
100
AcDbEntity
8
cotes
6
CONTINUOUS
62
7
370
0
100
AcDbLine
10
22
20
14.8725
11
23.3
21
14.8725
0
LINE
5
297
100
AcDbEntity
8
cotes
6
CONTINUOUS
62
7
370
0
100
AcDbLine
10
22
20
11.8725
11
23.3
21
11.8725
0
ENDBLK
5
100
330
FE
100
AcDbEntity
8
0
100
AcDbBlockEnd
0
BLOCK
5
102
330
101
100
AcDbEntity
8
0
100
AcDbBlockBegin
2
*D26
70
1
10
0
20
0
3
*D26
1

0
LINE
5
298
100
AcDbEntity
8
cotes
6
CONTINUOUS
62
7
370
0
100
AcDbLine
10
23
20
5
11
23
21
3.025
0
SOLID
5
299
100
AcDbEntity
8
cotes
6
CONTINUOUS
62
7
370
0
100
AcDbTrace
10
23
20
5
30
0
11
23.0499541589
21
4.7
31
0
12
22.9500458411
22
4.7
32
0
13
22.9500458411
23
4.7
33
0
0
SOLID
5
29A
100
AcDbEntity
8
cotes
6
CONTINUOUS
62
7
370
0
100
AcDbTrace
10
23
20
-1
30
0
11
22.9500458411
21
-0.7
31
0
12
23.0499541589
22
-0.7
32
0
13
23.0499541589
23
-0.7
33
0
0
LINE
5
29B
100
AcDbEntity
8
cotes
6
CONTINUOUS
62
7
370
0
100
AcDbLine
10
23
20
0.975
11
23
21
-1
0
MTEXT
5
29C
100
AcDbEntity
8
cotes
6
CONTINUOUS
62
7
370
0
100
AcDbMText
10
23
20
2
30
0
40
0.8
41
0.355555555556
71
5
72
1
1
6
7
standard
210
0
220
0
230
1
50
0
73
2
44
1
0
LINE
5
29D
100
AcDbEntity
8
cotes
6
CONTINUOUS
62
7
370
0
100
AcDbLine
10
23.8775
20
5
11
23.3
21
5
0
LINE
5
29E
100
AcDbEntity
8
cotes
6
CONTINUOUS
62
7
370
0
100
AcDbLine
10
23.8775
20
-1
11
23.3
21
-1
0
ENDBLK
5
103
330
101
100
AcDbEntity
8
0
100
AcDbBlockEnd
0
BLOCK
5
105
330
104
100
AcDbEntity
8
0
100
AcDbBlockBegin
2
*D8
70
1
10
0
20
0
3
*D8
1

0
LINE
5
29F
100
AcDbEntity
8
cotes
6
CONTINUOUS
62
7
370
0
100
AcDbLine
10
42.5000003098
20
46.1646667417
11
43.197222532
21
46.1646667417
0
SOLID
5
2A0
100
AcDbEntity
8
cotes
6
CONTINUOUS
62
7
370
0
100
AcDbTrace
10
42.5000003098
20
46.1646667417
30
0
11
42.8000003098
21
46.2146209006
31
0
12
42.8000003098
22
46.1147125828
32
0
13
42.8000003098
23
46.1147125828
33
0
0
SOLID
5
2A1
100
AcDbEntity
8
cotes
6
CONTINUOUS
62
7
370
0
100
AcDbTrace
10
45.5000003098
20
46.1646667417
30
0
11
45.2000003098
21
46.1147125828
31
0
12
45.2000003098
22
46.2146209006
32
0
13
45.2000003098
23
46.2146209006
33
0
0
LINE
5
2A2
100
AcDbEntity
8
cotes
6
CONTINUOUS
62
7
370
0
100
AcDbLine
10
44.8027780876
20
46.1646667417
11
45.5000003098
21
46.1646667417
0
MTEXT
5
2A3
100
AcDbEntity
8
cotes
6
CONTINUOUS
62
7
370
0
100
AcDbMText
10
44.0000003098
20
46.1646667417
30
0
40
0.8
41
0.355555555556
71
5
72
1
1
3
7
standard
210
0
220
0
230
1
50
0
73
2
44
1
0
LINE
5
2A4
100
AcDbEntity
8
cotes
6
CONTINUOUS
62
7
370
0
100
AcDbLine
10
42.5000003098
20
43.0999997297
11
42.5000003098
21
46.4646667417
0
LINE
5
2A5
100
AcDbEntity
8
cotes
6
CONTINUOUS
62
7
370
0
100
AcDbLine
10
45.5000003098
20
43.0999997047
11
45.5000003098
21
46.4646667417
0
ENDBLK
5
106
330
104
100
AcDbEntity
8
0
100
AcDbBlockEnd
0
BLOCK
5
108
330
107
100
AcDbEntity
8
0
100
AcDbBlockBegin
2
a3
70
0
10
0
20
0
3
a3
1

0
LINE
5
2A6
100
AcDbEntity
8
default
6
DASHDOT
62
7
370
0
100
AcDbLine
10
280.271142
20
57.242876
11
300.271142
21
57.242876
0
CIRCLE
5
2A7
100
AcDbEntity
8
default
6
CONTINUOUS
62
7
370
0
100
AcDbCircle
10
295.471142
20
57.242876
40
2.8
0
CIRCLE
5
2A8
100
AcDbEntity
8
default
6
CONTINUOUS
62
7
370
0
100
AcDbCircle
10
295.471142
20
57.242876
40
1.6
0
LINE
5
2A9
100
AcDbEntity
8
default
6
CONTINUOUS
62
7
370
0
100
AcDbLine
10
282.671142
20
58.842876
11
282.671142
21
55.642876
0
LINE
5
2AA
100
AcDbEntity
8
default
6
CONTINUOUS
62
7
370
0
100
AcDbLine
10
282.671142
20
55.642876
11
289.071142
21
54.442876
0
LINE
5
2AB
100
AcDbEntity
8
default
6
CONTINUOUS
62
7
370
0
100
AcDbLine
10
289.071142
20
60.042876
11
289.071142
21
54.442876
0
LINE
5
2AC
100
AcDbEntity
8
default
6
CONTINUOUS
62
7
370
0
100
AcDbLine
10
282.671142
20
58.842876
11
289.071142
21
60.042876
0
LINE
5
2AD
100
AcDbEntity
8
default
6
DASHDOT
62
7
370
0
100
AcDbLine
10
295.471142
20
52.442876
11
295.471142
21
62.042876
0
ENDBLK
5
109
330
107
100
AcDbEntity
8
0
100
AcDbBlockEnd
0
BLOCK
5
10B
330
10A
100
AcDbEntity
8
0
100
AcDbBlockBegin
2
a3-0
70
0
10
0
20
0
3
a3-0
1

0
LINE
5
2AE
100
AcDbEntity
8
default
6
ByLayer
62
256
370
-1
100
AcDbLine
10
280.271142
20
57.242876
11
300.271142
21
57.242876
0
CIRCLE
5
2AF
100
AcDbEntity
8
default
6
ByLayer
62
256
370
-1
100
AcDbCircle
10
295.471142
20
57.242876
40
2.8
0
CIRCLE
5
2B0
100
AcDbEntity
8
default
6
ByLayer
62
256
370
-1
100
AcDbCircle
10
295.471142
20
57.242876
40
1.6
0
LINE
5
2B1
100
AcDbEntity
8
default
6
ByLayer
62
256
370
-1
100
AcDbLine
10
282.671142
20
58.842876
11
282.671142
21
55.642876
0
LINE
5
2B2
100
AcDbEntity
8
default
6
ByLayer
62
256
370
-1
100
AcDbLine
10
282.671142
20
55.642876
11
289.071142
21
54.442876
0
LINE
5
2B3
100
AcDbEntity
8
default
6
ByLayer
62
256
370
-1
100
AcDbLine
10
289.071142
20
60.042876
11
289.071142
21
54.442876
0
LINE
5
2B4
100
AcDbEntity
8
default
6
ByLayer
62
256
370
-1
100
AcDbLine
10
282.671142
20
58.842876
11
289.071142
21
60.042876
0
LINE
5
2B5
100
AcDbEntity
8
default
6
ByLayer
62
256
370
-1
100
AcDbLine
10
295.471142
20
52.442876
11
295.471142
21
62.042876
0
ENDBLK
5
10C
330
10A
100
AcDbEntity
8
0
100
AcDbBlockEnd
0
ENDSEC
0
SECTION
2
ENTITIES
0
HATCH
5
2B6
100
AcDbEntity
8
profil T
6
ByLayer
62
256
370
-1
100
AcDbHatch
10
0
20
0
30
0
210
0
220
0
230
1
2
SOLID
70
1
71
0
91
1
92
0
93
8
72
1
10
20
20
20
11
0
21
20
72
1
10
0
20
20
11
-3e-16
21
18.5
72
1
10
-3e-16
20
18.5
11
9.25
21
18.5
72
1
10
9.25
20
18.5
11
9.25
21
1e-16
72
1
10
9.25
20
1e-16
11
10.75
21
-2e-16
72
1
10
10.75
20
-2e-16
11
10.75
21
18.5
72
1
10
10.75
20
18.5
11
20
21
18.5
72
1
10
20
20
18.5
11
20
21
20
97
0
75
0
76
1
98
0
0
HATCH
5
2B7
100
AcDbEntity
8
profil T
6
ByLayer
62
256
370
-1
100
AcDbHatch
10
0
20
0
30
0
210
0
220
0
230
1
2
SOLID
70
1
71
0
91
1
92
0
93
8
72
1
10
20
20
20
11
0
21
20
72
1
10
0
20
20
11
-3e-16
21
18.5
72
1
10
-3e-16
20
18.5
11
9.25
21
18.5
72
1
10
9.25
20
18.5
11
9.25
21
1e-16
72
1
10
9.25
20
1e-16
11
10.75
21
-2e-16
72
1
10
10.75
20
-2e-16
11
10.75
21
18.5
72
1
10
10.75
20
18.5
11
20
21
18.5
72
1
10
20
20
18.5
11
20
21
20
97
0
75
0
76
1
98
0
0
HATCH
5
2B8
100
AcDbEntity
8
profil T
6
ByLayer
62
256
370
-1
100
AcDbHatch
10
0
20
0
30
0
210
0
220
0
230
1
2
SOLID
70
1
71
0
91
1
92
0
93
8
72
1
10
20
20
20
11
0
21
20
72
1
10
0
20
20
11
-3e-16
21
18.5
72
1
10
-3e-16
20
18.5
11
9.25
21
18.5
72
1
10
9.25
20
18.5
11
9.25
21
1e-16
72
1
10
9.25
20
1e-16
11
10.75
21
-2e-16
72
1
10
10.75
20
-2e-16
11
10.75
21
18.5
72
1
10
10.75
20
18.5
11
20
21
18.5
72
1
10
20
20
18.5
11
20
21
20
97
0
75
0
76
1
98
0
0
HATCH
5
2B9
100
AcDbEntity
8
profil T
6
ByLayer
62
256
370
-1
100
AcDbHatch
10
0
20
0
30
0
210
0
220
0
230
1
2
SOLID
70
1
71
0
91
1
92
0
93
8
72
1
10
20
20
20
11
0
21
20
72
1
10
0
20
20
11
-3e-16
21
18.5
72
1
10
-3e-16
20
18.5
11
9.25
21
18.5
72
1
10
9.25
20
18.5
11
9.25
21
1e-16
72
1
10
9.25
20
1e-16
11
10.75
21
-2e-16
72
1
10
10.75
20
-2e-16
11
10.75
21
18.5
72
1
10
10.75
20
18.5
11
20
21
18.5
72
1
10
20
20
18.5
11
20
21
20
97
0
75
0
76
1
98
0
0
HATCH
5
2BA
100
AcDbEntity
8
cotes
6
ByLayer
62
256
370
-1
100
AcDbHatch
10
0
20
0
30
0
210
0
220
0
230
1
2
SOLID
70
1
71
0
91
1
92
0
93
8
72
1
10
20
20
20
11
0
21
20
72
1
10
0
20
20
11
-3e-16
21
18.5
72
1
10
-3e-16
20
18.5
11
9.25
21
18.5
72
1
10
9.25
20
18.5
11
9.25
21
1e-16
72
1
10
9.25
20
1e-16
11
10.75
21
-2e-16
72
1
10
10.75
20
-2e-16
11
10.75
21
18.5
72
1
10
10.75
20
18.5
11
20
21
18.5
72
1
10
20
20
18.5
11
20
21
20
97
0
75
0
76
1
98
0
0
HATCH
5
2BB
100
AcDbEntity
8
profil T
6
ByLayer
62
256
370
-1
100
AcDbHatch
10
0
20
0
30
0
210
0
220
0
230
1
2
SOLID
70
1
71
0
91
1
92
0
93
8
72
1
10
20
20
20
11
0
21
20
72
1
10
0
20
20
11
-3e-16
21
18.5
72
1
10
-3e-16
20
18.5
11
9.25
21
18.5
72
1
10
9.25
20
18.5
11
9.25
21
1e-16
72
1
10
9.25
20
1e-16
11
10.75
21
-2e-16
72
1
10
10.75
20
-2e-16
11
10.75
21
18.5
72
1
10
10.75
20
18.5
11
20
21
18.5
72
1
10
20
20
18.5
11
20
21
20
97
0
75
0
76
1
98
0
0
LINE
5
2BC
100
AcDbEntity
8
profil T
6
ByLayer
62
256
370
-1
100
AcDbLine
10
20
20
20
11
0
21
20
0
LINE
5
2BD
100
AcDbEntity
8
profil T
6
ByLayer
62
256
370
-1
100
AcDbLine
10
9.25
20
1e-16
11
9.25
21
18.5
0
LINE
5
2BE
100
AcDbEntity
8
profil T
6
ByLayer
62
256
370
-1
100
AcDbLine
10
10.75
20
-2e-16
11
10.75
21
18.5
0
LINE
5
2BF
100
AcDbEntity
8
profil T
6
ByLayer
62
256
370
-1
100
AcDbLine
10
9.25
20
18.5
11
-3e-16
21
18.5
0
LINE
5
2C0
100
AcDbEntity
8
profil T
6
ByLayer
62
256
370
-1
100
AcDbLine
10
20
20
18.5
11
10.75
21
18.5
0
LINE
5
2C1
100
AcDbEntity
8
profil T
6
ByLayer
62
256
370
-1
100
AcDbLine
10
9.25
20
1e-16
11
10.75
21
-2e-16
0
LINE
5
2C2
100
AcDbEntity
8
profil T
6
ByLayer
62
256
370
-1
100
AcDbLine
10
0
20
20
11
-3e-16
21
18.5
0
LINE
5
2C3
100
AcDbEntity
8
profil T
6
ByLayer
62
256
370
-1
100
AcDbLine
10
20
20
18.5
11
20
21
20
0
LINE
5
2C4
100
AcDbEntity
8
Roulements
6
ByLayer
62
256
370
-1
100
AcDbLine
10
-3e-16
20
18.3725
11
-2.1e-15
21
8.3725
0
LINE
5
2C5
100
AcDbEntity
8
Roulements
6
ByLayer
62
256
370
-1
100
AcDbLine
10
4
20
18.3725
11
4
21
8.3725
0
LINE
5
2C6
100
AcDbEntity
8
Roulements
6
ByLayer
62
256
370
-1
100
AcDbLine
10
-3e-16
20
18.3725
11
4
21
18.3725
0
LINE
5
2C7
100
AcDbEntity
8
Roulements
6
ByLayer
62
256
370
-1
100
AcDbLine
10
-2.1e-15
20
8.3725
11
4
21
8.3725
0
LINE
5
2C8
100
AcDbEntity
8
Roulements
6
ByLayer
62
256
370
-1
100
AcDbLine
10
-9e-16
20
14.8725
11
4
21
14.8725
0
LINE
5
2C9
100
AcDbEntity
8
Roulements
6
ByLayer
62
256
370
-1
100
AcDbLine
10
-1.5e-15
20
11.8725
11
4
21
11.8725
0
LINE
5
2CA
100
AcDbEntity
8
Roulements
6
ByLayer
62
256
370
-1
100
AcDbLine
10
9.1225
20
1e-16
11
-0.8775
21
1.3e-15
0
LINE
5
2CB
100
AcDbEntity
8
Roulements
6
ByLayer
62
256
370
-1
100
AcDbLine
10
9.1225
20
4
11
-0.8775
21
4
0
LINE
5
2CC
100
AcDbEntity
8
Roulements
6
ByLayer
62
256
370
-1
100
AcDbLine
10
-0.8775
20
4
11
-0.8775
21
1.3e-15
0
LINE
5
2CD
100
AcDbEntity
8
Roulements
6
ByLayer
62
256
370
-1
100
AcDbLine
10
9.1225
20
4
11
9.1225
21
1e-16
0
LINE
5
2CE
100
AcDbEntity
8
Roulements
6
ByLayer
62
256
370
-1
100
AcDbLine
10
5.6225
20
4
11
5.6225
21
5e-16
0
LINE
5
2CF
100
AcDbEntity
8
Roulements
6
ByLayer
62
256
370
-1
100
AcDbLine
10
2.6225
20
4
11
2.6225
21
9e-16
0
LINE
5
2D0
100
AcDbEntity
8
Glissement
6
ByLayer
62
256
370
-1
100
AcDbLine
10
5
20
15.8725
11
4
21
14.8725
0
LINE
5
2D1
100
AcDbEntity
8
Glissement
6
ByLayer
62
256
370
-1
100
AcDbLine
10
4
20
14.8725
11
4
21
11.8725
0
LINE
5
2D2
100
AcDbEntity
8
Glissement
6
ByLayer
62
256
370
-1
100
AcDbLine
10
4
20
11.8725
11
5
21
10.8725
0
LINE
5
2D3
100
AcDbEntity
8
Glissement
6
ByLayer
62
256
370
-1
100
AcDbLine
10
-1
20
15.8725
11
-9e-16
21
14.8725
0
LINE
5
2D4
100
AcDbEntity
8
Glissement
6
ByLayer
62
256
370
-1
100
AcDbLine
10
-9e-16
20
14.8725
11
-1.5e-15
21
11.8725
0
LINE
5
2D5
100
AcDbEntity
8
Glissement
6
ByLayer
62
256
370
-1
100
AcDbLine
10
-1.5e-15
20
11.8725
11
-1
21
10.8725
0
LINE
5
2D6
100
AcDbEntity
8
Glissement
6
ByLayer
62
256
370
-1
100
AcDbLine
10
1.6225
20
5
11
2.6225
21
4
0
LINE
5
2D7
100
AcDbEntity
8
Glissement
6
ByLayer
62
256
370
-1
100
AcDbLine
10
2.6225
20
4
11
5.6225
21
4
0
LINE
5
2D8
100
AcDbEntity
8
Glissement
6
ByLayer
62
256
370
-1
100
AcDbLine
10
5.6225
20
4
11
6.6225
21
5
0
LINE
5
2D9
100
AcDbEntity
8
Glissement
6
ByLayer
62
256
370
-1
100
AcDbLine
10
1.6225
20
-1
11
2.6225
21
9e-16
0
LINE
5
2DA
100
AcDbEntity
8
Glissement
6
ByLayer
62
256
370
-1
100
AcDbLine
10
2.6225
20
9e-16
11
5.6225
21
5e-16
0
LINE
5
2DB
100
AcDbEntity
8
Glissement
6
ByLayer
62
256
370
-1
100
AcDbLine
10
5.6225
20
5e-16
11
6.6225
21
-1
0
LINE
5
2DC
100
AcDbEntity
8
Glissement
6
ByLayer
62
256
370
-1
100
AcDbLine
10
-1
20
10.8725
11
-1
21
7.3725
0
LINE
5
2DD
100
AcDbEntity
8
Glissement
6
ByLayer
62
256
370
-1
100
AcDbLine
10
6.6225
20
5
11
6.6225
21
7.3725
0
LINE
5
2DE
100
AcDbEntity
8
Glissement
6
ByLayer
62
256
370
-1
100
AcDbLine
10
1.6225
20
-1
11
-1.8775
21
-1
0
LINE
5
2DF
100
AcDbEntity
8
Glissement
6
ByLayer
62
256
370
-1
100
AcDbLine
10
-1.8775
20
5
11
-1.8775
21
-1
0
LINE
5
2E0
100
AcDbEntity
8
Glissement
6
ByLayer
62
256
370
-1
100
AcDbLine
10
1.6225
20
5
11
-1.8775
21
5
0
LINE
5
2E1
100
AcDbEntity
8
Glissement
6
ByLayer
62
256
370
-1
100
AcDbLine
10
6.6225
20
-1
11
10
21
-1
0
LINE
5
2E2
100
AcDbEntity
8
Glissement
6
ByLayer
62
256
370
-1
100
AcDbLine
10
6.6225
20
7.3725
11
6.6225
21
15.8725
0
LINE
5
2E3
100
AcDbEntity
8
Glissement
6
ByLayer
62
256
370
-1
100
AcDbLine
10
6.6225
20
15.8725
11
5
21
15.8725
0
LINE
5
2E4
100
AcDbEntity
8
Glissement
6
ByLayer
62
256
370
-1
100
AcDbLine
10
-1
20
7.3725
11
5
21
7.3725
0
LINE
5
2E5
100
AcDbEntity
8
Glissement
6
ByLayer
62
256
370
-1
100
AcDbLine
10
5
20
10.8725
11
5
21
8.3725
0
LINE
5
2E6
100
AcDbEntity
8
Glissement
6
ByLayer
62
256
370
-1
100
AcDbLine
10
5
20
8.3725
11
5
21
7.3725
0
LINE
5
2E7
100
AcDbEntity
8
Roulements
6
ByLayer
62
256
370
-1
100
AcDbLine
10
20
20
18.3725
11
20
21
8.3725
0
LINE
5
2E8
100
AcDbEntity
8
Roulements
6
ByLayer
62
256
370
-1
100
AcDbLine
10
16
20
18.3725
11
16
21
8.3725
0
LINE
5
2E9
100
AcDbEntity
8
Roulements
6
ByLayer
62
256
370
-1
100
AcDbLine
10
20
20
18.3725
11
16
21
18.3725
0
LINE
5
2EA
100
AcDbEntity
8
Roulements
6
ByLayer
62
256
370
-1
100
AcDbLine
10
20
20
8.3725
11
16
21
8.3725
0
LINE
5
2EB
100
AcDbEntity
8
Roulements
6
ByLayer
62
256
370
-1
100
AcDbLine
10
20
20
14.8725
11
16
21
14.8725
0
LINE
5
2EC
100
AcDbEntity
8
Roulements
6
ByLayer
62
256
370
-1
100
AcDbLine
10
20
20
11.8725
11
16
21
11.8725
0
LINE
5
2ED
100
AcDbEntity
8
Roulements
6
ByLayer
62
256
370
-1
100
AcDbLine
10
10.8775
20
-1e-16
11
20.8775
21
-1.3e-15
0
LINE
5
2EE
100
AcDbEntity
8
Roulements
6
ByLayer
62
256
370
-1
100
AcDbLine
10
10.8775
20
4
11
20.8775
21
4
0
LINE
5
2EF
100
AcDbEntity
8
Roulements
6
ByLayer
62
256
370
-1
100
AcDbLine
10
20.8775
20
4
11
20.8775
21
-1.3e-15
0
LINE
5
2F0
100
AcDbEntity
8
Roulements
6
ByLayer
62
256
370
-1
100
AcDbLine
10
10.8775
20
4
11
10.8775
21
-1e-16
0
LINE
5
2F1
100
AcDbEntity
8
Roulements
6
ByLayer
62
256
370
-1
100
AcDbLine
10
14.3775
20
4
11
14.3775
21
-5e-16
0
LINE
5
2F2
100
AcDbEntity
8
Roulements
6
ByLayer
62
256
370
-1
100
AcDbLine
10
17.3775
20
4
11
17.3775
21
-9e-16
0
LINE
5
2F3
100
AcDbEntity
8
Glissement
6
ByLayer
62
256
370
-1
100
AcDbLine
10
15
20
15.8725
11
16
21
14.8725
0
LINE
5
2F4
100
AcDbEntity
8
Glissement
6
ByLayer
62
256
370
-1
100
AcDbLine
10
16
20
14.8725
11
16
21
11.8725
0
LINE
5
2F5
100
AcDbEntity
8
Glissement
6
ByLayer
62
256
370
-1
100
AcDbLine
10
16
20
11.8725
11
15
21
10.8725
0
LINE
5
2F6
100
AcDbEntity
8
Glissement
6
ByLayer
62
256
370
-1
100
AcDbLine
10
21
20
15.8725
11
20
21
14.8725
0
LINE
5
2F7
100
AcDbEntity
8
Glissement
6
ByLayer
62
256
370
-1
100
AcDbLine
10
20
20
14.8725
11
20
21
11.8725
0
LINE
5
2F8
100
AcDbEntity
8
Glissement
6
ByLayer
62
256
370
-1
100
AcDbLine
10
20
20
11.8725
11
21
21
10.8725
0
LINE
5
2F9
100
AcDbEntity
8
Glissement
6
ByLayer
62
256
370
-1
100
AcDbLine
10
18.3775
20
5
11
17.3775
21
4
0
LINE
5
2FA
100
AcDbEntity
8
Glissement
6
ByLayer
62
256
370
-1
100
AcDbLine
10
17.3775
20
4
11
14.3775
21
4
0
LINE
5
2FB
100
AcDbEntity
8
Glissement
6
ByLayer
62
256
370
-1
100
AcDbLine
10
14.3775
20
4
11
13.3775
21
5
0
LINE
5
2FC
100
AcDbEntity
8
Glissement
6
ByLayer
62
256
370
-1
100
AcDbLine
10
18.3775
20
-1
11
17.3775
21
-9e-16
0
LINE
5
2FD
100
AcDbEntity
8
Glissement
6
ByLayer
62
256
370
-1
100
AcDbLine
10
17.3775
20
-9e-16
11
14.3775
21
-5e-16
0
LINE
5
2FE
100
AcDbEntity
8
Glissement
6
ByLayer
62
256
370
-1
100
AcDbLine
10
14.3775
20
-5e-16
11
13.3775
21
-1
0
LINE
5
2FF
100
AcDbEntity
8
Glissement
6
ByLayer
62
256
370
-1
100
AcDbLine
10
21
20
10.8725
11
21
21
7.3725
0
LINE
5
300
100
AcDbEntity
8
Glissement
6
ByLayer
62
256
370
-1
100
AcDbLine
10
13.3775
20
5
11
13.3775
21
7.3725
0
LINE
5
301
100
AcDbEntity
8
Glissement
6
ByLayer
62
256
370
-1
100
AcDbLine
10
18.3775
20
-1
11
21.8775
21
-1
0
LINE
5
302
100
AcDbEntity
8
Glissement
6
ByLayer
62
256
370
-1
100
AcDbLine
10
21.8775
20
5
11
21.8775
21
-1
0
LINE
5
303
100
AcDbEntity
8
Glissement
6
ByLayer
62
256
370
-1
100
AcDbLine
10
18.3775
20
5
11
21.8775
21
5
0
LINE
5
304
100
AcDbEntity
8
Glissement
6
ByLayer
62
256
370
-1
100
AcDbLine
10
13.3775
20
-1
11
10
21
-1
0
LINE
5
305
100
AcDbEntity
8
Glissement
6
ByLayer
62
256
370
-1
100
AcDbLine
10
13.3775
20
7.3725
11
13.3775
21
15.8725
0
LINE
5
306
100
AcDbEntity
8
Glissement
6
ByLayer
62
256
370
-1
100
AcDbLine
10
13.3775
20
15.8725
11
15
21
15.8725
0
LINE
5
307
100
AcDbEntity
8
Glissement
6
ByLayer
62
256
370
-1
100
AcDbLine
10
21
20
7.3725
11
15
21
7.3725
0
LINE
5
308
100
AcDbEntity
8
Glissement
6
ByLayer
62
256
370
-1
100
AcDbLine
10
15
20
10.8725
11
15
21
8.3725
0
LINE
5
309
100
AcDbEntity
8
Glissement
6
ByLayer
62
256
370
-1
100
AcDbLine
10
15
20
8.3725
11
15
21
7.3725
0
LINE
5
30A
100
AcDbEntity
8
profil-pour-3d
6
ByLayer
62
256
370
-1
100
AcDbLine
10
-1
20
31
11
-1
21
7.3725
0
LINE
5
30B
100
AcDbEntity
8
profil-pour-3d
6
ByLayer
62
256
370
-1
100
AcDbLine
10
-1
20
7.3725
11
5
21
7.3725
0
LINE
5
30C
100
AcDbEntity
8
profil-pour-3d
6
ByLayer
62
256
370
-1
100
AcDbLine
10
5
20
7.3725
11
5
21
15.8725
0
LINE
5
30D
100
AcDbEntity
8
profil-pour-3d
6
ByLayer
62
256
370
-1
100
AcDbLine
10
5
20
15.8725
11
6.6225
21
15.8725
0
LINE
5
30E
100
AcDbEntity
8
profil-pour-3d
6
ByLayer
62
256
370
-1
100
AcDbLine
10
6.6225
20
15.8725
11
6.6225
21
5
0
LINE
5
30F
100
AcDbEntity
8
profil-pour-3d
6
ByLayer
62
256
370
-1
100
AcDbLine
10
6.6225
20
5
11
-1.8775
21
5
0
LINE
5
310
100
AcDbEntity
8
profil-pour-3d
6
ByLayer
62
256
370
-1
100
AcDbLine
10
-1.8775
20
5
11
-1.8775
21
-1
0
LINE
5
311
100
AcDbEntity
8
profil-pour-3d
6
ByLayer
62
256
370
-1
100
AcDbLine
10
-1.8775
20
-1
11
21.8775
21
-1
0
LINE
5
312
100
AcDbEntity
8
profil-pour-3d
6
ByLayer
62
256
370
-1
100
AcDbLine
10
21.8775
20
-1
11
21.8775
21
5
0
LINE
5
313
100
AcDbEntity
8
profil-pour-3d
6
ByLayer
62
256
370
-1
100
AcDbLine
10
21.8775
20
5
11
13.3775
21
5
0
LINE
5
314
100
AcDbEntity
8
profil-pour-3d
6
ByLayer
62
256
370
-1
100
AcDbLine
10
13.3775
20
5
11
13.3775
21
15.8725
0
LINE
5
315
100
AcDbEntity
8
profil-pour-3d
6
ByLayer
62
256
370
-1
100
AcDbLine
10
13.3775
20
15.8725
11
15
21
15.8725
0
LINE
5
316
100
AcDbEntity
8
profil-pour-3d
6
ByLayer
62
256
370
-1
100
AcDbLine
10
15
20
15.8725
11
15
21
7.3725
0
LINE
5
317
100
AcDbEntity
8
profil-pour-3d
6
ByLayer
62
256
370
-1
100
AcDbLine
10
15
20
7.3725
11
21
21
7.3725
0
LINE
5
318
100
AcDbEntity
8
profil-pour-3d
6
ByLayer
62
256
370
-1
100
AcDbLine
10
21
20
7.3725
11
21
21
31
0
LINE
5
319
100
AcDbEntity
8
Glissement
6
ByLayer
62
256
370
-1
100
AcDbLine
10
-5
20
29.8857142857
11
-15
21
27.1
0
ARC
5
31A
100
AcDbEntity
8
Glissement
6
ByLayer
62
256
370
-1
100
AcDbCircle
10
-15
20
37.6
40
10.5
100
AcDbArc
50
225.842525666
51
270
0
LINE
5
31B
100
AcDbEntity
8
Glissement
6
ByLayer
62
256
370
-1
100
AcDbLine
10
-5
20
35
11
-5
21
41.1
0
ARC
5
31C
100
AcDbEntity
8
Glissement
6
ByLayer
62
256
370
-1
100
AcDbCircle
10
-15
20
37.6
40
7.5
100
AcDbArc
50
180
51
360
0
LINE
5
31D
100
AcDbEntity
8
Glissement
6
ByLayer
62
256
370
-1
100
AcDbLine
10
-25.5
20
41.1
11
-22.5
21
41.1
0
LINE
5
31E
100
AcDbEntity
8
Glissement
6
ByLayer
62
256
370
-1
100
AcDbLine
10
-7.5
20
41.1
11
-5
21
41.1
0
LINE
5
31F
100
AcDbEntity
8
Glissement
6
ByLayer
62
256
370
-1
100
AcDbLine
10
-7.5
20
37.6
11
-7.5
21
41.1
0
LINE
5
320
100
AcDbEntity
8
Glissement
6
ByLayer
62
256
370
-1
100
AcDbLine
10
-22.5
20
37.6
11
-22.5
21
41.1
0
LINE
5
321
100
AcDbEntity
8
Glissement
6
ByLayer
62
256
370
-1
100
AcDbLine
10
-25.5
20
37.6
11
-25.5
21
41.1
0
ARC
5
322
100
AcDbEntity
8
Glissement
6
ByLayer
62
256
370
-1
100
AcDbCircle
10
25
20
35
40
50.5668863981
100
AcDbArc
50
177.052720582
51
252.744286114
0
LINE
5
323
100
AcDbEntity
8
profil-pour-3d
6
ByLayer
62
256
370
-1
100
AcDbLine
10
-5
20
29.8857142857
11
-15
21
27.1
0
ARC
5
324
100
AcDbEntity
8
profil-pour-3d
6
ByLayer
62
256
370
-1
100
AcDbCircle
10
-15
20
37.6
40
10.5
100
AcDbArc
50
225.842525666
51
270
0
LINE
5
325
100
AcDbEntity
8
profil-pour-3d
6
ByLayer
62
256
370
-1
100
AcDbLine
10
-5
20
35
11
-5
21
41.1
0
LINE
5
326
100
AcDbEntity
8
profil-pour-3d
6
ByLayer
62
256
370
-1
100
AcDbLine
10
25
20
35
11
25
21
41.1
0
ARC
5
327
100
AcDbEntity
8
profil-pour-3d
6
ByLayer
62
256
370
-1
100
AcDbCircle
10
35
20
37.6
40
7.5
100
AcDbArc
50
180
51
0
0
ARC
5
328
100
AcDbEntity
8
profil-pour-3d
6
ByLayer
62
256
370
-1
100
AcDbCircle
10
-15
20
37.6
40
7.5
100
AcDbArc
50
180
51
360
0
LINE
5
329
100
AcDbEntity
8
profil-pour-3d
6
ByLayer
62
256
370
-1
100
AcDbLine
10
-25.5
20
41.1
11
-22.5
21
41.1
0
LINE
5
32A
100
AcDbEntity
8
profil-pour-3d
6
ByLayer
62
256
370
-1
100
AcDbLine
10
-7.5
20
41.1
11
-5
21
41.1
0
LINE
5
32B
100
AcDbEntity
8
profil-pour-3d
6
ByLayer
62
256
370
-1
100
AcDbLine
10
25
20
41.1
11
27.5
21
41.1
0
LINE
5
32C
100
AcDbEntity
8
profil-pour-3d
6
ByLayer
62
256
370
-1
100
AcDbLine
10
42.5
20
41.1
11
45.5
21
41.1
0
LINE
5
32D
100
AcDbEntity
8
profil-pour-3d
6
ByLayer
62
256
370
-1
100
AcDbLine
10
42.5
20
37.5999993257
11
42.5
21
41.1
0
LINE
5
32E
100
AcDbEntity
8
profil-pour-3d
6
ByLayer
62
256
370
-1
100
AcDbLine
10
27.5
20
37.5999995232
11
27.5
21
41.1
0
LINE
5
32F
100
AcDbEntity
8
profil-pour-3d
6
ByLayer
62
256
370
-1
100
AcDbLine
10
-7.5
20
37.6
11
-7.5
21
41.1
0
LINE
5
330
100
AcDbEntity
8
profil-pour-3d
6
ByLayer
62
256
370
-1
100
AcDbLine
10
-22.5
20
37.6
11
-22.5
21
41.1
0
LINE
5
331
100
AcDbEntity
8
profil-pour-3d
6
ByLayer
62
256
370
-1
100
AcDbLine
10
45.5
20
37.5999993257
11
45.5
21
41.1
0
LINE
5
332
100
AcDbEntity
8
profil-pour-3d
6
ByLayer
62
256
370
-1
100
AcDbLine
10
-25.5
20
37.6
11
-25.5
21
41.1
0
ARC
5
333
100
AcDbEntity
8
profil-pour-3d
6
ByLayer
62
256
370
-1
100
AcDbCircle
10
-5
20
35
40
50.5668863557
100
AcDbArc
50
287.255713731
51
2.94727848313
0
ARC
5
334
100
AcDbEntity
8
profil-pour-3d
6
ByLayer
62
256
370
-1
100
AcDbCircle
10
25
20
35
40
50.5668863981
100
AcDbArc
50
177.052720582
51
252.744286114
0
ARC
5
335
100
AcDbEntity
8
profil-pour-3d
6
ByLayer
62
256
370
-1
100
AcDbCircle
10
35
20
37.6
40
10.5
100
AcDbArc
50
270
51
314.15747402
0
LINE
5
336
100
AcDbEntity
8
profil-pour-3d
6
ByLayer
62
256
370
-1
100
AcDbLine
10
25
20
29.8857142857
11
29.5712800061
21
28.612286284
0
LINE
5
337
100
AcDbEntity
8
profil-pour-3d
6
ByLayer
62
256
370
-1
100
AcDbLine
10
29.5712800061
20
28.612286284
11
35
21
27.1
0
ARC
5
338
100
AcDbEntity
8
profil-pour-3d
6
ByLayer
62
256
370
-1
100
AcDbCircle
10
25
20
35
40
47.571104675
100
AcDbArc
50
237.229623142
51
251.620020171
0
ARC
5
339
100
AcDbEntity
8
profil-pour-3d
6
ByLayer
62
256
370
-1
100
AcDbCircle
10
25
20
35
40
47.571104675
100
AcDbArc
50
185.952114443
51
230.903018345
0
LINE
5
33A
100
AcDbEntity
8
profil-pour-3d
6
ByLayer
62
256
370
-1
100
AcDbLine
10
20.7489804943
20
-5
11
-0.748980562345
21
-5
0
ARC
5
33B
100
AcDbEntity
8
profil-pour-3d
6
ByLayer
62
256
370
-1
100
AcDbCircle
10
-5
20
35
40
47.5711046381
100
AcDbArc
50
288.379979696
51
302.770376789
0
ARC
5
33C
100
AcDbEntity
8
profil-pour-3d
6
ByLayer
62
256
370
-1
100
AcDbCircle
10
-5
20
35
40
47.5711046381
100
AcDbArc
50
309.096981692
51
354.047885503
0
LINE
5
33D
100
AcDbEntity
8
profil-pour-3d
6
ByLayer
62
256
370
-1
100
AcDbLine
10
25
20
29.8857142857
11
25
21
-1.91896526845
0
LINE
5
33E
100
AcDbEntity
8
profil-pour-3d
6
ByLayer
62
256
370
-1
100
AcDbLine
10
-5
20
29.8857142857
11
-5
21
-1.91896531595
0
ARC
5
33F
100
AcDbEntity
8
Glissement
6
ByLayer
62
256
370
-1
100
AcDbCircle
10
35.0000002806
20
37.5999997921
40
10.5
100
AcDbArc
50
269.999999523
51
314.157473857
0
LINE
5
340
100
AcDbEntity
8
Glissement
6
ByLayer
62
256
370
-1
100
AcDbLine
10
25.000000259
20
34.9999998752
11
25.0000003098
21
41.0999998752
0
ARC
5
341
100
AcDbEntity
8
Glissement
6
ByLayer
62
256
370
-1
100
AcDbCircle
10
35.0000002806
20
37.5999997921
40
7.5
100
AcDbArc
50
179.999999523
51
359.999999523
0
LINE
5
342
100
AcDbEntity
8
Glissement
6
ByLayer
62
256
370
-1
100
AcDbLine
10
45.5000003098
20
41.0999997047
11
42.5000003098
21
41.0999997297
0
LINE
5
343
100
AcDbEntity
8
Glissement
6
ByLayer
62
256
370
-1
100
AcDbLine
10
27.5000003098
20
41.0999998544
11
25.0000003098
21
41.0999998752
0
LINE
5
344
100
AcDbEntity
8
Glissement
6
ByLayer
62
256
370
-1
100
AcDbLine
10
27.5000002806
20
37.5999998544
11
27.5000003098
21
41.0999998544
0
LINE
5
345
100
AcDbEntity
8
Glissement
6
ByLayer
62
256
370
-1
100
AcDbLine
10
42.5000002806
20
37.5999997297
11
42.5000003098
21
41.0999997297
0
LINE
5
346
100
AcDbEntity
8
Glissement
6
ByLayer
62
256
370
-1
100
AcDbLine
10
45.5000002806
20
37.5999997047
11
45.5000003098
21
41.0999997047
0
ARC
5
347
100
AcDbEntity
8
Glissement
6
ByLayer
62
256
370
-1
100
AcDbCircle
10
-4.99999974099
20
35.0000001248
40
50.5668863981
100
AcDbArc
50
287.255713409
51
2.94727894145
0
LINE
5
348
100
AcDbEntity
8
Glissement
6
ByLayer
62
256
370
-1
100
AcDbLine
10
-0.748980562341
20
-5
11
20.7489806275
21
-5
0
LINE
5
349
100
AcDbEntity
8
Glissement
6
ByLayer
62
256
370
-1
100
AcDbLine
10
-5
20
29.8857142857
11
-5
21
-1.91896531594
0
ARC
5
34A
100
AcDbEntity
8
Glissement
6
ByLayer
62
256
370
-1
100
AcDbCircle
10
25
20
35
40
47.571104675
100
AcDbArc
50
237.229623142
51
251.620020171
0
ARC
5
34B
100
AcDbEntity
8
Glissement
6
ByLayer
62
256
370
-1
100
AcDbCircle
10
25
20
35
40
47.571104675
100
AcDbArc
50
185.952114443
51
230.903018345
0
ARC
5
34C
100
AcDbEntity
8
Glissement
6
ByLayer
62
256
370
-1
100
AcDbCircle
10
-4.99999974099
20
35.0000001248
40
47.571104675
100
AcDbArc
50
288.379979352
51
302.77037658
0
ARC
5
34D
100
AcDbEntity
8
Glissement
6
ByLayer
62
256
370
-1
100
AcDbCircle
10
-4.99999974099
20
35.0000001248
40
47.571104675
100
AcDbArc
50
309.096981254
51
354.04788508
0
LINE
5
34E
100
AcDbEntity
8
Glissement
6
CONTINUOUS
62
256
370
-1
100
AcDbLine
10
-6.45945945946
20
-68.8175675676
11
-6.45945945946
21
-76.8175675676
0
LINE
5
34F
100
AcDbEntity
8
Glissement
6
CONTINUOUS
62
256
370
-1
100
AcDbLine
10
-20.4594594595
20
-68.8175675676
11
-20.4594594595
21
-76.8175675676
0
ARC
5
350
100
AcDbEntity
8
Glissement
6
CONTINUOUS
62
256
370
-1
100
AcDbCircle
10
-13.4594594595
20
-76.8175675676
40
7
100
AcDbArc
50
180
51
214.849904579
0
ARC
5
351
100
AcDbEntity
8
Glissement
6
CONTINUOUS
62
256
370
-1
100
AcDbCircle
10
-13.4594594595
20
-68.8175675676
40
7
100
AcDbArc
50
0
51
180
0
ARC
5
352
100
AcDbEntity
8
Glissement
6
CONTINUOUS
62
256
370
-1
100
AcDbCircle
10
-13.4594594595
20
-76.8175675676
40
7
100
AcDbArc
50
325.150095421
51
0
0
LINE
5
353
100
AcDbEntity
8
Glissement
6
CONTINUOUS
62
256
370
-1
100
AcDbLine
10
-19.204022106
20
-80.8175675676
11
-7.71489681292
21
-80.8175675676
0
CIRCLE
5
354
100
AcDbEntity
8
Glissement
6
CONTINUOUS
62
256
370
-1
100
AcDbCircle
10
-13.4594594595
20
-68.8175675676
40
1.8
0
LINE
5
355
100
AcDbEntity
8
Glissement
6
ByLayer
62
256
370
-1
100
AcDbLine
10
18.5405405405
20
-68.8175675676
11
18.5405405405
21
-76.8175675676
0
LINE
5
356
100
AcDbEntity
8
Glissement
6
ByLayer
62
256
370
-1
100
AcDbLine
10
32.5405405405
20
-68.8175675676
11
32.5405405405
21
-76.8175675676
0
LINE
5
357
100
AcDbEntity
8
Glissement
6
CONTINUOUS
62
256
370
-1
100
AcDbLine
10
32.5405405405
20
-68.8175675676
11
32.5405405405
21
-76.8175675676
0
LINE
5
358
100
AcDbEntity
8
Glissement
6
CONTINUOUS
62
256
370
-1
100
AcDbLine
10
18.5405405405
20
-68.8175675676
11
18.5405405405
21
-76.8175675676
0
ARC
5
359
100
AcDbEntity
8
Glissement
6
CONTINUOUS
62
256
370
-1
100
AcDbCircle
10
25.5405405405
20
-76.8175675676
40
7
100
AcDbArc
50
180
51
214.849904579
0
ARC
5
35A
100
AcDbEntity
8
Glissement
6
CONTINUOUS
62
256
370
-1
100
AcDbCircle
10
25.5405405405
20
-68.8175675676
40
7
100
AcDbArc
50
0
51
180
0
ARC
5
35B
100
AcDbEntity
8
Glissement
6
CONTINUOUS
62
256
370
-1
100
AcDbCircle
10
25.5405405405
20
-76.8175675676
40
7
100
AcDbArc
50
325.150095421
51
0
0
LINE
5
35C
100
AcDbEntity
8
Glissement
6
CONTINUOUS
62
256
370
-1
100
AcDbLine
10
19.795977894
20
-80.8175675676
11
31.2851031871
21
-80.8175675676
0
CIRCLE
5
35D
100
AcDbEntity
8
Glissement
6
ByLayer
62
256
370
-1
100
AcDbCircle
10
25.5405405405
20
-76.8175675676
40
1.8
0
CIRCLE
5
35E
100
AcDbEntity
8
Glissement
6
ByLayer
62
256
370
-1
100
AcDbCircle
10
-13.4594594595
20
-112.817567568
40
5.74456264654
0
CIRCLE
5
35F
100
AcDbEntity
8
Glissement
6
ByLayer
62
256
370
-1
100
AcDbCircle
10
-13.4594594595
20
-112.817567568
40
7
0
MTEXT
5
360
100
AcDbEntity
8
Glissement
6
ByLayer
62
256
370
-1
100
AcDbMText
10
55.6841194471
20
-43.503218318
30
0
40
5
41
58.0555555556
71
1
72
5
1
Fixation \PRotule / Bielette
7
standard
210
0
220
0
230
1
50
0
73
1
44
0.884736
0
LINE
5
361
100
AcDbEntity
8
Glissement
6
ByLayer
62
256
370
-1
100
AcDbLine
10
113.466712767
20
-63.877784531
11
113.466712767
21
-87.1343751763
0
LINE
5
362
100
AcDbEntity
8
Glissement
6
ByLayer
62
256
370
-1
100
AcDbLine
10
123.466712767
20
-63.877784531
11
123.466712767
21
-87.1343751763
0
LINE
5
363
100
AcDbEntity
8
Glissement
6
ByLayer
62
256
370
-1
100
AcDbLine
10
113.466712767
20
-63.877784531
11
123.466712767
21
-63.877784531
0
LINE
5
364
100
AcDbEntity
8
Glissement
6
ByLayer
62
256
370
-1
100
AcDbLine
10
113.466712767
20
-87.1343751763
11
123.466712767
21
-87.1343751763
0
LINE
5
365
100
AcDbEntity
8
Glissement
6
ByLayer
62
256
370
-1
100
AcDbLine
10
113.466712767
20
-77.6037676937
11
123.466712767
21
-77.6037676937
0
CIRCLE
5
366
100
AcDbEntity
8
Glissement
6
ByLayer
62
256
370
-1
100
AcDbCircle
10
118.466712767
20
-67.127784531
40
1.5
0
LINE
5
367
100
AcDbEntity
8
Glissement
6
ByLayer
62
256
370
-1
100
AcDbLine
10
88.4667127669
20
-63.877784531
11
88.4667127669
21
-67.377784531
0
LINE
5
368
100
AcDbEntity
8
Glissement
6
ByLayer
62
256
370
-1
100
AcDbLine
10
85.4667127669
20
-63.877784531
11
85.4667127669
21
-67.377784531
0
LINE
5
369
100
AcDbEntity
8
Glissement
6
ByLayer
62
256
370
-1
100
AcDbLine
10
70.4667127669
20
-63.877784531
11
70.4667127669
21
-67.377784531
0
LINE
5
36A
100
AcDbEntity
8
Glissement
6
ByLayer
62
256
370
-1
100
AcDbLine
10
67.4667127669
20
-63.877784531
11
67.4667127669
21
-67.377784531
0
LINE
5
36B
100
AcDbEntity
8
Glissement
6
ByLayer
62
256
370
-1
100
AcDbLine
10
67.4667127669
20
-63.877784531
11
70.4667127669
21
-63.877784531
0
LINE
5
36C
100
AcDbEntity
8
Glissement
6
ByLayer
62
256
370
-1
100
AcDbLine
10
85.4667127669
20
-63.877784531
11
88.4667127669
21
-63.877784531
0
ARC
5
36D
100
AcDbEntity
8
Glissement
6
ByLayer
62
256
370
-1
100
AcDbCircle
10
77.9667127669
20
-67.377784531
40
7.5
100
AcDbArc
50
180
51
0
0
LINE
5
36E
100
AcDbEntity
8
Glissement
6
ByLayer
62
256
370
-1
100
AcDbLine
10
72.9667127669
20
-86.377784531
11
82.9667127669
21
-86.377784531
0
LINE
5
36F
100
AcDbEntity
8
Glissement
6
ByLayer
62
256
370
-1
100
AcDbLine
10
72.9667127669
20
-76.6108771873
11
72.9667127669
21
-86.377784531
0
ARC
5
370
100
AcDbEntity
8
Glissement
6
ByLayer
62
256
370
-1
100
AcDbCircle
10
77.9667127669
20
-67.377784531
40
10.5
100
AcDbArc
50
180
51
241.563109851
0
LINE
5
371
100
AcDbEntity
8
Glissement
6
ByLayer
62
256
370
-1
100
AcDbLine
10
82.9667127669
20
-76.6108771873
11
82.9667127669
21
-86.377784531
0
ARC
5
372
100
AcDbEntity
8
Glissement
6
ByLayer
62
256
370
-1
100
AcDbCircle
10
77.9667127669
20
-67.377784531
40
10.5
100
AcDbArc
50
298.436890149
51
0
0
LINE
5
373
100
AcDbEntity
8
Glissement
6
ByLayer
62
256
370
-1
100
AcDbLine
10
72.9667127669
20
-111.377784531
11
72.9667127669
21
-121.377784531
0
LINE
5
374
100
AcDbEntity
8
Glissement
6
ByLayer
62
256
370
-1
100
AcDbLine
10
82.9667127669
20
-111.377784531
11
82.9667127669
21
-121.377784531
0
LINE
5
375
100
AcDbEntity
8
Glissement
6
ByLayer
62
256
370
-1
100
AcDbLine
10
67.4667127669
20
-121.377784531
11
88.4667127669
21
-121.377784531
0
LINE
5
376
100
AcDbEntity
8
Glissement
6
ByLayer
62
256
370
-1
100
AcDbLine
10
88.4667127669
20
-111.377784531
11
88.4667127669
21
-121.377784531
0
LINE
5
377
100
AcDbEntity
8
Glissement
6
ByLayer
62
256
370
-1
100
AcDbLine
10
67.4667127669
20
-111.377784531
11
67.4667127669
21
-121.377784531
0
LINE
5
378
100
AcDbEntity
8
Glissement
6
ByLayer
62
256
370
-1
100
AcDbLine
10
67.4667127669
20
-111.377784531
11
88.4667127669
21
-111.377784531
0
LINE
5
379
100
AcDbEntity
8
Top-fix
6
ByLayer
62
256
370
-1
100
AcDbLine
10
18.1250001461
20
25.125
11
-5.125
21
25.125
0
LINE
5
37A
100
AcDbEntity
8
Top-fix
6
ByLayer
62
256
370
-1
100
AcDbLine
10
4.125
20
-5.125
11
15.875
21
-5.125
0
LINE
5
37B
100
AcDbEntity
8
Top-fix
6
ByLayer
62
256
370
-1
100
AcDbLine
10
-5.125
20
25.125
11
-5.125
21
13.375
0
LINE
5
37C
100
AcDbEntity
8
Top-fix
6
ByLayer
62
256
370
-1
100
AcDbLine
10
-5.125
20
13.375
11
4.125
21
-5.125
0
LINE
5
37D
100
AcDbEntity
8
Top-fix
6
DOT
62
256
370
-1
100
AcDbLine
10
20.125
20
18.375
11
20.125
21
20.125
0
LINE
5
37E
100
AcDbEntity
8
Top-fix
6
DOT
62
256
370
-1
100
AcDbLine
10
-0.125
20
20.125
11
-0.125
21
18.375
0
LINE
5
37F
100
AcDbEntity
8
Top-fix
6
DOT
62
256
370
-1
100
AcDbLine
10
9.125
20
-0.125
11
10.875
21
-0.125
0
CIRCLE
5
380
100
AcDbEntity
8
Top-fix
6
ByLayer
62
256
370
-1
100
AcDbCircle
10
1.26869176962
20
7.29582039325
40
2
0
CIRCLE
5
381
100
AcDbEntity
8
Top-fix
6
ByLayer
62
256
370
-1
100
AcDbCircle
10
18.7313082304
20
7.29582039325
40
2
0
MTEXT
5
382
100
AcDbEntity
8
Top-fix
6
ByLayer
62
256
370
-1
100
AcDbMText
10
-157.019428617
20
-49.620858394
30
0
40
4
41
38.5555555556
71
1
72
5
1
Reprap Jeanne
7
standard
210
0
220
0
230
1
50
0
73
2
44
0.9216
0
MTEXT
5
383
100
AcDbEntity
8
Top-fix
6
ByLayer
62
256
370
-1
100
AcDbMText
10
-157.227216287
20
-62.650764464
30
0
40
1.5
41
41.2916674381
71
1
72
5
1
@Gnieark https://blog-du-grouik.tinad.fr\P@trankilloman\PHackerspace @jeannedhack
7
standard
210
0
220
0
230
1
50
0
73
2
44
0.9216
0
MTEXT
5
384
100
AcDbEntity
8
Top-fix
6
ByLayer
62
256
370
-1
100
AcDbMText
10
-124.510440381
20
-38.87939957
30
0
40
1.5
41
9.58333333333
71
1
72
5
1
env 100 g
7
standard
210
0
220
0
230
1
50
0
73
2
44
0.9216
0
MTEXT
5
385
100
AcDbEntity
8
Top-fix
6
ByLayer
62
256
370
-1
100
AcDbMText
10
-157.978675675
20
-43.622928982
30
0
40
1.5
41
18.7083333333
71
1
72
5
1
Impression en PLA\P2.5 mm par couche
7
standard
210
0
220
0
230
1
50
0
73
2
44
0.9216
0
MTEXT
5
386
100
AcDbEntity
8
Top-fix
6
ByLayer
62
256
370
-1
100
AcDbMText
10
-110.469593322
20
-62.944905453
30
0
40
1.5
41
4.16666666667
71
1
72
5
1
page \P1/1
7
standard
210
0
220
0
230
1
50
0
73
2
44
0.9216
0
MTEXT
5
387
100
AcDbEntity
8
Top-fix
6
ByLayer
62
256
370
-1
100
AcDbMText
10
-157.519237092
20
-56.1652302391
30
0
40
1.5
41
36.0000007714
71
1
72
5
1
Fixation en haut de l'axe entre:\Pplateau suprieur, profil T, moteur
7
standard
210
0
220
0
230
1
50
0
73
1
44
0.96
0
MTEXT
5
388
100
AcDbEntity
8
Top-fix
6
ByLayer
62
256
370
-1
100
AcDbMText
10
-157.697426274
20
-38.7561471352
30
0
40
1.5
41
13.4172381247
71
1
72
5
1
scale 1.25 A4
7
standard
210
0
220
0
230
1
50
0
73
1
44
0.96
0
LINE
5
389
100
AcDbEntity
8
Roulements
6
ByLayer
62
256
370
-1
100
AcDbLine
10
10
20
20
11
10
21
20.1275
0
LINE
5
38A
100
AcDbEntity
8
Roulements
6
ByLayer
62
256
370
-1
100
AcDbLine
10
8
20
30
11
12
21
30
0
LINE
5
38B
100
AcDbEntity
8
Roulements
6
ByLayer
62
256
370
-1
100
AcDbLine
10
8
20
20.1275
11
12
21
20.1275
0
LINE
5
38C
100
AcDbEntity
8
Roulements
6
ByLayer
62
256
370
-1
100
AcDbLine
10
8
20
23.5
11
12
21
23.5
0
LINE
5
38D
100
AcDbEntity
8
Glissement
6
ByLayer
62
256
370
-1
100
AcDbLine
10
12
20
23.5
11
13
21
22.5
0
LINE
5
38E
100
AcDbEntity
8
Glissement
6
ByLayer
62
256
370
-1
100
AcDbLine
10
8
20
23.5
11
7
21
22.5
0
LINE
5
38F
100
AcDbEntity
8
Glissement
6
ByLayer
62
256
370
-1
100
AcDbLine
10
7
20
31
11
13
21
31
0
LINE
5
390
100
AcDbEntity
8
Glissement
6
ByLayer
62
256
370
-1
100
AcDbLine
10
21
20
31
11
21
21
15.8725
0
LINE
5
391
100
AcDbEntity
8
Glissement
6
ByLayer
62
256
370
-1
100
AcDbLine
10
25
20
29.8857142857
11
35.0000001933
21
27.0999997921
0
LINE
5
392
100
AcDbEntity
8
Glissement
6
ByLayer
62
256
370
-1
100
AcDbLine
10
25
20
29.8857142857
11
25
21
-1.91896540166
0
LINE
5
393
100
AcDbEntity
8
Glissement
6
ByLayer
62
256
370
-1
100
AcDbLine
10
-1
20
31
11
-1
21
15.8725
0
LINE
5
394
100
AcDbEntity
8
Glissement
6
ByLayer
62
256
370
-1
100
AcDbLine
10
-5
20
35
11
25.000000259
21
34.9999998752
0
LINE
5
395
100
AcDbEntity
8
Roulements
6
ByLayer
62
256
370
-1
100
AcDbLine
10
8
20
25.5
11
8
21
20.1275
0
LINE
5
396
100
AcDbEntity
8
Roulements
6
ByLayer
62
256
370
-1
100
AcDbLine
10
12
20
20.1275
11
12
21
25.5
0
LINE
5
397
100
AcDbEntity
8
Roulements
6
ByLayer
62
256
370
-1
100
AcDbLine
10
12
20
28.5
11
12
21
30
0
LINE
5
398
100
AcDbEntity
8
Roulements
6
ByLayer
62
256
370
-1
100
AcDbLine
10
8
20
30
11
8
21
28.5
0
LINE
5
399
100
AcDbEntity
8
Glissement
6
ByLayer
62
256
370
-1
100
AcDbLine
10
87.4999998574
20
-13.2908893876
11
87.5000003098
21
41.0999995051
0
LINE
5
39A
100
AcDbEntity
8
Glissement
6
ByLayer
62
256
370
-1
100
AcDbLine
10
97.4999998574
20
-13.2908894707
11
97.5000003098
21
41.0999994219
0
LINE
5
39B
100
AcDbEntity
8
Glissement
6
ByLayer
62
256
370
-1
100
AcDbLine
10
87.5000003098
20
-13.2908893876
11
97.4999998574
21
-13.2908894707
0
LINE
5
39C
100
AcDbEntity
8
Glissement
6
ByLayer
62
256
370
-1
100
AcDbLine
10
87.5000003098
20
41.0999995051
11
97.5000003098
21
41.0999994219
0
CIRCLE
5
39D
100
AcDbEntity
8
Glissement
6
ByLayer
62
256
370
-1
100
AcDbCircle
10
92.5000003098
20
37.5999997047
40
1.5
0
ELLIPSE
5
39E
100
AcDbEntity
8
Glissement
6
ByLayer
62
256
370
-1
100
AcDbEllipse
10
92.5000001944
20
13.3725
30
0
11
-4
21
0
31
0
40
0.920129294467
41
0
42
6.28318530718
0
ELLIPSE
5
39F
100
AcDbEntity
8
Glissement
6
ByLayer
62
256
370
-1
100
AcDbEllipse
10
92.5000001003
20
-11.0264554944
30
0
11
-4.00000000737
21
0
31
0
40
0.442808951933
41
0
42
6.28318530718
0
LINE
5
3A0
100
AcDbEntity
8
Glissement
6
ByLayer
62
256
370
-1
100
AcDbLine
10
78.5000001551
20
22.5
11
78.5000002591
21
34.9999997275
0
LINE
5
3A1
100
AcDbEntity
8
Glissement
6
ByLayer
62
256
370
-1
100
AcDbLine
10
106.500000155
20
22.5
11
106.500000259
21
34.999999611
0
LINE
5
3A2
100
AcDbEntity
8
Glissement
6
ByLayer
62
256
370
-1
100
AcDbLine
10
78.5000002591
20
34.9999997275
11
87.5000002575
21
34.9999997275
0
LINE
5
3A3
100
AcDbEntity
8
Glissement
6
ByLayer
62
256
370
-1
100
AcDbLine
10
106.500000259
20
34.999999611
11
97.500000265
21
34.999999611
0
LINE
5
3A4
100
AcDbEntity
8
Glissement
6
ByLayer
62
256
370
-1
100
AcDbLine
10
78.5000001551
20
22.5
11
87.5000001489
21
22.5
0
LINE
5
3A5
100
AcDbEntity
8
Glissement
6
ByLayer
62
256
370
-1
100
AcDbLine
10
106.500000155
20
22.5
11
97.5000001527
21
22.5
0
CIRCLE
5
3A6
100
AcDbEntity
8
Glissement
6
ByLayer
62
256
370
-1
100
AcDbCircle
10
82.5000002431
20
25.06375
40
1.5
0
CIRCLE
5
3A7
100
AcDbEntity
8
Glissement
6
ByLayer
62
256
370
-1
100
AcDbCircle
10
102.500000241
20
25.0637498916
40
1.5
0
ARC
5
3A8
100
AcDbEntity
8
Roulements
6
ByLayer
62
256
370
-1
100
AcDbCircle
10
82.5000002431
20
25.06375
40
5
100
AcDbArc
50
174.994578806
51
329.152819905
0
ARC
5
3A9
100
AcDbEntity
8
Roulements
6
ByLayer
62
256
370
-1
100
AcDbCircle
10
102.500000241
20
25.0637498916
40
5
100
AcDbArc
50
210.847179474
51
5.00542100834
0
LINE
5
3AA
100
AcDbEntity
8
Glissement
6
ByLayer
62
256
370
-1
100
AcDbLine
10
-25.5
20
92.4462495497
11
-25.5
21
82.4462495497
0
LINE
5
3AB
100
AcDbEntity
8
Glissement
6
ByLayer
62
256
370
-1
100
AcDbLine
10
45.5000005039
20
92.4462495497
11
45.5000005039
21
82.4462495497
0
LINE
5
3AC
100
AcDbEntity
8
Glissement
6
ByLayer
62
256
370
-1
100
AcDbLine
10
-22.5
20
82.4462495497
11
-22.5
21
92.4462495497
0
LINE
5
3AD
100
AcDbEntity
8
Glissement
6
ByLayer
62
256
370
-1
100
AcDbLine
10
-7.5
20
82.4462495497
11
-7.5
21
92.4462495497
0
LINE
5
3AE
100
AcDbEntity
8
Glissement
6
ByLayer
62
256
370
-1
100
AcDbLine
10
25.0000003098
20
82.4462495497
11
25.0000003098
21
92.4462495497
0
LINE
5
3AF
100
AcDbEntity
8
Glissement
6
ByLayer
62
256
370
-1
100
AcDbLine
10
27.5000003098
20
82.4462495497
11
27.5000003098
21
92.4462495497
0
LINE
5
3B0
100
AcDbEntity
8
Glissement
6
ByLayer
62
256
370
-1
100
AcDbLine
10
42.5000003098
20
82.4462495497
11
42.5000003098
21
92.4462495497
0
LINE
5
3B1
100
AcDbEntity
8
Glissement
6
ByLayer
62
256
370
-1
100
AcDbLine
10
-5
20
82.4462495497
11
-5
21
92.4462495497
0
MTEXT
5
3B2
100
AcDbEntity
8
Glissement
6
ByLayer
62
256
370
-1
100
AcDbMText
10
-38.2269559862
20
118.861733635
30
0
40
5
41
79.166673321
71
1
72
5
1
Systme de glissement:
7
standard
210
0
220
0
230
1
50
0
73
1
44
0.884736
0
LINE
5
3B3
100
AcDbEntity
8
Roulements
6
ByLayer
62
256
370
-1
100
AcDbLine
10
8
20
72.4462495497
11
12
21
72.4462495497
0
LINE
5
3B4
100
AcDbEntity
8
Roulements
6
ByLayer
62
256
370
-1
100
AcDbLine
10
8
20
72.4462495497
11
8
21
73.4462495497
0
LINE
5
3B5
100
AcDbEntity
8
Roulements
6
ByLayer
62
256
370
-1
100
AcDbLine
10
12
20
72.4462495497
11
12
21
73.4462495497
0
LINE
5
3B6
100
AcDbEntity
8
Roulements
6
ByLayer
62
256
370
-1
100
AcDbLine
10
8
20
102.44624955
11
12
21
102.44624955
0
LINE
5
3B7
100
AcDbEntity
8
Roulements
6
ByLayer
62
256
370
-1
100
AcDbLine
10
8
20
102.44624955
11
8
21
101.44624955
0
LINE
5
3B8
100
AcDbEntity
8
Roulements
6
ByLayer
62
256
370
-1
100
AcDbLine
10
12
20
102.44624955
11
12
21
101.44624955
0
LINE
5
3B9
100
AcDbEntity
8
profil-pour-3d
6
ByLayer
62
256
370
-1
100
AcDbLine
10
-5
20
35
11
25
21
35
0
LINE
5
3BA
100
AcDbEntity
8
profil-pour-3d
6
ByLayer
62
256
370
-1
100
AcDbLine
10
7
20
31
11
13
21
31
0
LINE
5
3BB
100
AcDbEntity
8
profil-pour-3d
6
ByLayer
62
256
370
-1
100
AcDbLine
10
4
20
31
11
-1
21
31
0
LINE
5
3BC
100
AcDbEntity
8
profil-pour-3d
6
ByLayer
62
256
370
-1
100
AcDbLine
10
4
20
22.5
11
4
21
31
0
LINE
5
3BD
100
AcDbEntity
8
profil-pour-3d
6
ByLayer
62
256
370
-1
100
AcDbLine
10
21
20
31
11
16
21
31
0
LINE
5
3BE
100
AcDbEntity
8
profil-pour-3d
6
ByLayer
62
256
370
-1
100
AcDbLine
10
16
20
31
11
16
21
22.5
0
POINT
5
3BF
100
AcDbEntity
8
cotes
6
ByLayer
62
256
370
-1
100
AcDbPoint
10
-29.110203869
20
43.9593482668
0
POINT
5
3C0
100
AcDbEntity
8
cotes
6
ByLayer
62
256
370
-1
100
AcDbPoint
10
-29.110203869
20
46.1646667417
0
POINT
5
3C1
100
AcDbEntity
8
cotes
6
ByLayer
62
256
370
-1
100
AcDbPoint
10
-29.110203869
20
47.5613684425
0
POINT
5
3C2
100
AcDbEntity
8
cotes
6
ByLayer
62
256
370
-1
100
AcDbPoint
10
-29.1837144848
20
49.3256232224
0
DIMENSION
5
3C3
100
AcDbEntity
8
cotes
6
ByLayer
62
256
370
-1
100
AcDbDimension
2
*D1
10
35.0000002806
20
43.9593482668
30
0
11
10.0000001403
21
43.9593482668
31
0
70
32
71
5
3
Standard
53
0
210
0
220
0
230
1
100
AcDbAlignedDimension
13
-15
23
37.6
33
0
14
35.0000002806
24
37.5999997921
34
0
100
AcDbRotatedDimension
0
DIMENSION
5
3C4
100
AcDbEntity
8
cotes
6
ByLayer
62
256
370
-1
100
AcDbDimension
2
*D2
10
-22.5
20
46.1646667417
30
0
11
-24
21
46.1646667417
31
0
70
32
71
5
3
Standard
53
0
210
0
220
0
230
1
100
AcDbAlignedDimension
13
-25.5
23
41.1
33
0
14
-22.5
24
41.1
34
0
100
AcDbRotatedDimension
0
DIMENSION
5
3C5
100
AcDbEntity
8
cotes
6
ByLayer
62
256
370
-1
100
AcDbDimension
2
*D3
10
-7.5
20
46.1646667417
30
0
11
-15
21
46.1646667417
31
0
70
32
71
5
3
Standard
53
0
210
0
220
0
230
1
100
AcDbAlignedDimension
13
-22.5
23
41.1
33
0
14
-7.5
24
41.1
34
0
100
AcDbRotatedDimension
0
DIMENSION
5
3C6
100
AcDbEntity
8
cotes
6
ByLayer
62
256
370
-1
100
AcDbDimension
2
*D4
10
-5
20
46.1646667417
30
0
11
-6.25
21
46.1646667417
31
0
70
32
71
5
3
Standard
53
0
210
0
220
0
230
1
100
AcDbAlignedDimension
13
-7.5
23
41.1
33
0
14
-5
24
41.1
34
0
100
AcDbRotatedDimension
0
DIMENSION
5
3C7
100
AcDbEntity
8
cotes
6
ByLayer
62
256
370
-1
100
AcDbDimension
2
*D5
10
25.0000003098
20
46.1646667417
30
0
11
10.0000001549
21
46.1646667417
31
0
70
32
71
5
3
Standard
53
0
210
0
220
0
230
1
100
AcDbAlignedDimension
13
-5
23
41.1
33
0
14
25.0000003098
24
41.0999998752
34
0
100
AcDbRotatedDimension
0
DIMENSION
5
3C8
100
AcDbEntity
8
cotes
6
ByLayer
62
256
370
-1
100
AcDbDimension
2
*D6
10
27.5000003098
20
46.1646667417
30
0
11
26.2500003098
21
46.1646667417
31
0
70
32
71
5
3
Standard
53
0
210
0
220
0
230
1
100
AcDbAlignedDimension
13
25.0000003098
23
41.0999998752
33
0
14
27.5000003098
24
41.0999998544
34
0
100
AcDbRotatedDimension
0
DIMENSION
5
3C9
100
AcDbEntity
8
cotes
6
ByLayer
62
256
370
-1
100
AcDbDimension
2
*D7
10
42.5000003098
20
46.1646667417
30
0
11
35.0000003098
21
46.1646667417
31
0
70
32
71
5
3
Standard
53
0
210
0
220
0
230
1
100
AcDbAlignedDimension
13
27.5000003098
23
41.0999998544
33
0
14
42.5000003098
24
41.0999997297
34
0
100
AcDbRotatedDimension
0
DIMENSION
5
3CA
100
AcDbEntity
8
cotes
6
ByLayer
62
256
370
-1
100
AcDbDimension
2
*D8
10
45.5000003098
20
46.1646667417
30
0
11
44.0000003098
21
46.1646667417
31
0
70
32
71
5
3
Standard
53
0
210
0
220
0
230
1
100
AcDbAlignedDimension
13
42.5000003098
23
41.0999997297
33
0
14
45.5000003098
24
41.0999997047
34
0
100
AcDbRotatedDimension
0
DIMENSION
5
3CB
100
AcDbEntity
8
cotes
6
ByLayer
62
256
370
-1
100
AcDbDimension
2
*D9
10
45.5000003098
20
49.3256232224
30
0
11
10.0000001549
21
49.3256232224
31
0
70
32
71
5
3
Standard
53
0
210
0
220
0
230
1
100
AcDbAlignedDimension
13
-25.5
23
41.1
33
0
14
45.5000003098
24
41.0999997047
34
0
100
AcDbRotatedDimension
0
DIMENSION
5
3CC
100
AcDbEntity
8
cotes
6
ByLayer
62
256
370
-1
100
AcDbDimension
2
*D10
10
-29.110203869
20
-13.2908893876
30
0
11
-29.110203869
21
13.9045553062
31
0
70
32
71
5
3
Standard
53
0
210
0
220
0
230
1
100
AcDbAlignedDimension
13
-25.5
23
41.1
33
0
14
9.99999992888
24
-13.2908893876
34
0
50
90
100
AcDbRotatedDimension
0
DIMENSION
5
3CD
100
AcDbEntity
8
cotes
6
ByLayer
62
256
370
-1
100
AcDbDimension
2
*D11
10
-1
20
35
30
0
11
-1
21
38.05
31
0
70
32
71
5
3
Standard
53
0
210
0
220
0
230
1
100
AcDbAlignedDimension
13
-5
23
41.1
33
0
14
-5
24
35
34
0
50
90
100
AcDbRotatedDimension
0
DIMENSION
5
3CE
100
AcDbEntity
8
cotes
6
ByLayer
62
256
370
-1
100
AcDbDimension
2
*D12
10
25.0000003098
20
38.0499998752
30
0
11
26.2500003098
21
38.0499998752
31
0
70
32
71
5
3
Standard
53
0
210
0
220
0
230
1
100
AcDbAlignedDimension
13
27.5000003098
23
41.0999998544
33
0
14
25.0000003098
24
41.0999998752
34
0
100
AcDbRotatedDimension
0
DIMENSION
5
3CF
100
AcDbEntity
8
cotes
6
ByLayer
62
256
370
-1
100
AcDbDimension
2
*D13
10
-7.5
20
38.05
30
0
11
-6.25
21
38.05
31
0
70
32
71
5
3
Standard
53
0
210
0
220
0
230
1
100
AcDbAlignedDimension
13
-5
23
41.1
33
0
14
-7.5
24
41.1
34
0
100
AcDbRotatedDimension
0
DIMENSION
5
3D0
100
AcDbEntity
8
cotes
6
ByLayer
62
256
370
-1
100
AcDbDimension
2
*D14
10
4
20
13.3725
30
0
11
2
21
13.3725
31
0
70
32
71
5
3
Standard
53
0
210
0
220
0
230
1
100
AcDbAlignedDimension
13
-1.2e-15
23
13.3725
33
0
14
4
24
13.3725
34
0
100
AcDbRotatedDimension
0
DIMENSION
5
3D1
100
AcDbEntity
8
cotes
6
ByLayer
62
256
370
-1
100
AcDbDimension
2
*D15
10
20
20
13.3725
30
0
11
18
21
13.3725
31
0
70
32
71
5
3
Standard
53
0
210
0
220
0
230
1
100
AcDbAlignedDimension
13
16
23
13.3725
33
0
14
20
24
13.3725
34
0
100
AcDbRotatedDimension
0
DIMENSION
5
3D2
100
AcDbEntity
8
cotes
6
ByLayer
62
256
370
-1
100
AcDbDimension
2
*D16
10
21
20
9.6225
30
0
11
18
21
9.6225
31
0
70
32
71
5
3
Standard
53
0
210
0
220
0
230
1
100
AcDbAlignedDimension
13
15
23
9.6225
33
0
14
21
24
10.8725
34
0
100
AcDbRotatedDimension
0
DIMENSION
5
3D3
100
AcDbEntity
8
cotes
6
ByLayer
62
256
370
-1
100
AcDbDimension
2
*D17
10
13.3775
20
6.18625
30
0
11
14.18875
21
6.18625
31
0
70
32
71
5
3
Standard
53
0
210
0
220
0
230
1
100
AcDbAlignedDimension
13
15
23
9.6225
33
0
14
13.3775
24
11.6225
34
0
100
AcDbRotatedDimension
0
DIMENSION
5
3D4
100
AcDbEntity
8
cotes
6
ByLayer
62
256
370
-1
100
AcDbDimension
2
*D18
10
10.75
20
2
30
0
11
12.06375
21
2
31
0
70
32
71
5
3
Standard
53
0
210
0
220
0
230
1
100
AcDbAlignedDimension
13
13.3775
23
6.18625
33
0
14
10.75
24
9.25
34
0
100
AcDbRotatedDimension
0
DIMENSION
5
3D5
100
AcDbEntity
8
cotes
6
ByLayer
62
256
370
-1
100
AcDbDimension
2
*D19
10
23
20
34.9999998752
30
0
11
23
21
32.9999999376
31
0
70
32
71
5
3
Standard
53
0
210
0
220
0
230
1
100
AcDbAlignedDimension
13
21
23
31
33
0
14
25.000000259
24
34.9999998752
34
0
50
90
100
AcDbRotatedDimension
0
DIMENSION
5
3D6
100
AcDbEntity
8
cotes
6
ByLayer
62
256
370
-1
100
AcDbDimension
2
*D20
10
23
20
15.8725
30
0
11
23
21
23.43625
31
0
70
32
71
5
3
Standard
53
0
210
0
220
0
230
1
100
AcDbAlignedDimension
13
21
23
31
33
0
14
21
24
15.8725
34
0
50
90
100
AcDbRotatedDimension
0
DIMENSION
5
3D7
100
AcDbEntity
8
cotes
6
ByLayer
62
256
370
-1
100
AcDbDimension
2
*D21
10
23
20
14.8725
30
0
11
23
21
15.3725
31
0
70
32
71
5
3
Standard
53
0
210
0
220
0
230
1
100
AcDbAlignedDimension
13
21
23
15.8725
33
0
14
20
24
14.8725
34
0
50
90
100
AcDbRotatedDimension
0
DIMENSION
5
3D8
100
AcDbEntity
8
cotes
6
ByLayer
62
256
370
-1
100
AcDbDimension
2
*D22
10
23
20
11.8725
30
0
11
23
21
13.3725
31
0
70
32
71
5
3
Standard
53
0
210
0
220
0
230
1
100
AcDbAlignedDimension
13
20
23
14.8725
33
0
14
20
24
11.8725
34
0
50
90
100
AcDbRotatedDimension
0
DIMENSION
5
3D9
100
AcDbEntity
8
cotes
6
ByLayer
62
256
370
-1
100
AcDbDimension
2
*D23
10
23
20
10.8725
30
0
11
23
21
11.3725
31
0
70
32
71
5
3
Standard
53
0
210
0
220
0
230
1
100
AcDbAlignedDimension
13
20
23
11.8725
33
0
14
21
24
10.8725
34
0
50
90
100
AcDbRotatedDimension
0
DIMENSION
5
3DA
100
AcDbEntity
8
cotes
6
ByLayer
62
256
370
-1
100
AcDbDimension
2
*D24
10
23
20
7.3725
30
0
11
23
21
9.1225
31
0
70
32
71
5
3
Standard
53
0
210
0
220
0
230
1
100
AcDbAlignedDimension
13
21
23
10.8725
33
0
14
21
24
7.3725
34
0
50
90
100
AcDbRotatedDimension
0
DIMENSION
5
3DB
100
AcDbEntity
8
cotes
6
ByLayer
62
256
370
-1
100
AcDbDimension
2
*D25
10
23
20
5
30
0
11
23
21
6.18625
31
0
70
32
71
5
3
Standard
53
0
210
0
220
0
230
1
100
AcDbAlignedDimension
13
21
23
7.3725
33
0
14
21.8775
24
5
34
0
50
90
100
AcDbRotatedDimension
0
DIMENSION
5
3DC
100
AcDbEntity
8
cotes
6
ByLayer
62
256
370
-1
100
AcDbDimension
2
*D26
10
23
20
-1
30
0
11
23
21
2
31
0
70
32
71
5
3
Standard
53
0
210
0
220
0
230
1
100
AcDbAlignedDimension
13
21.8775
23
5
33
0
14
21.8775
24
-1
34
0
50
90
100
AcDbRotatedDimension
0
POINT
5
3DD
100
AcDbEntity
8
cotes
6
ByLayer
62
256
370
-1
100
AcDbPoint
10
-29.7245989916
20
61.1317224545
0
POINT
5
3DE
100
AcDbEntity
8
cotes
6
ByLayer
62
256
370
-1
100
AcDbPoint
10
50.0719282636
20
61.1990234333
0
POINT
5
3DF
100
AcDbEntity
8
cotes
6
ByLayer
62
256
370
-1
100
AcDbPoint
10
55.592403222
20
61.1056994093
0
POINT
5
3E0
100
AcDbEntity
8
cotes
6
ByLayer
62
256
370
-1
100
AcDbPoint
10
121.702603419
20
45.4281607231
0
DIMENSION
5
3E1
100
AcDbEntity
8
cotes
6
ByLayer
62
256
370
-1
100
AcDbDimension
2
*D27
10
121.702603419
20
37.5999997047
30
0
11
121.702603419
21
39.3499995633
31
0
70
32
71
5
3
Standard
53
0
210
0
220
0
230
1
100
AcDbAlignedDimension
13
97.5000003098
23
41.0999994219
33
0
14
92.5000003098
24
37.5999997047
34
0
50
90
100
AcDbRotatedDimension
0
DIMENSION
5
3E2
100
AcDbEntity
8
cotes
6
ByLayer
62
256
370
-1
100
AcDbDimension
2
*D28
10
121.702603419
20
25.0637498916
30
0
11
121.702603419
21
31.3318747981
31
0
70
32
71
5
3
Standard
53
0
210
0
220
0
230
1
100
AcDbAlignedDimension
13
92.5000003098
23
37.5999997047
33
0
14
102.500000241
24
25.0637498916
34
0
50
90
100
AcDbRotatedDimension
0
DIMENSION
5
3E3
100
AcDbEntity
8
cotes
6
ByLayer
62
256
370
-1
100
AcDbDimension
2
*D29
10
121.702603419
20
13.3725
30
0
11
121.702603419
21
19.2181249458
31
0
70
32
71
5
3
Standard
53
0
210
0
220
0
230
1
100
AcDbAlignedDimension
13
102.500000241
23
25.0637498916
33
0
14
92.5000001944
24
13.3725
34
0
50
90
100
AcDbRotatedDimension
0
DIMENSION
5
3E4
100
AcDbEntity
8
cotes
6
ByLayer
62
256
370
-1
100
AcDbDimension
2
*D30
10
121.702603419
20
-11.0264554944
30
0
11
121.702603419
21
1.1730222528
31
0
70
32
71
5
3
Standard
53
0
210
0
220
0
230
1
100
AcDbAlignedDimension
13
92.5000001944
23
13.3725
33
0
14
92.5000001003
24
-11.0264554944
34
0
50
90
100
AcDbRotatedDimension
0
DIMENSION
5
3E5
100
AcDbEntity
8
cotes
6
ByLayer
62
256
370
-1
100
AcDbDimension
2
*D31
10
121.702603419
20
-13.2908894707
30
0
11
121.702603419
21
-12.1586724825
31
0
70
32
71
5
3
Standard
53
0
210
0
220
0
230
1
100
AcDbAlignedDimension
13
92.5000001003
23
-11.0264554944
33
0
14
97.4999998574
24
-13.2908894707
34
0
50
90
100
AcDbRotatedDimension
0
POINT
5
3E6
100
AcDbEntity
8
cotes
6
ByLayer
62
256
370
-1
100
AcDbPoint
10
127.380113994
20
45.5995538825
0
DIMENSION
5
3E7
100
AcDbEntity
8
cotes
6
ByLayer
62
256
370
-1
100
AcDbDimension
2
*D32
10
127.380113994
20
34.999999611
30
0
11
127.380113994
21
38.0499995165
31
0
70
32
71
5
3
Standard
53
0
210
0
220
0
230
1
100
AcDbAlignedDimension
13
97.5000003098
23
41.0999994219
33
0
14
106.500000259
24
34.999999611
34
0
50
90
100
AcDbRotatedDimension
0
DIMENSION
5
3E8
100
AcDbEntity
8
cotes
6
ByLayer
62
256
370
-1
100
AcDbDimension
2
*D33
10
127.380113994
20
28.4999998087
30
0
11
127.380113994
21
31.7499997098
31
0
70
32
71
5
3
Standard
53
0
210
0
220
0
230
1
100
AcDbAlignedDimension
13
106.500000259
23
34.999999611
33
0
14
115.50000031
24
28.4999998087
34
0
50
90
100
AcDbRotatedDimension
0
DIMENSION
5
3E9
100
AcDbEntity
8
cotes
6
ByLayer
62
256
370
-1
100
AcDbDimension
2
*D34
10
127.380113994
20
25.4999998087
30
0
11
127.380113994
21
26.9999998087
31
0
70
32
71
5
3
Standard
53
0
210
0
220
0
230
1
100
AcDbAlignedDimension
13
115.50000031
23
28.4999998087
33
0
14
115.50000031
24
25.4999998087
34
0
50
90
100
AcDbRotatedDimension
0
DIMENSION
5
3EA
100
AcDbEntity
8
cotes
6
ByLayer
62
256
370
-1
100
AcDbDimension
2
*D35
10
127.380113994
20
22.5
30
0
11
127.380113994
21
23.9999999043
31
0
70
32
71
5
3
Standard
53
0
210
0
220
0
230
1
100
AcDbAlignedDimension
13
115.50000031
23
25.4999998087
33
0
14
106.500000155
24
22.5
34
0
50
90
100
AcDbRotatedDimension
0
DIMENSION
5
3EB
100
AcDbEntity
8
cotes
6
ByLayer
62
256
370
-1
100
AcDbDimension
2
*D36
10
127.380113994
20
-13.2908894707
30
0
11
127.380113994
21
4.60455526465
31
0
70
32
71
5
3
Standard
53
0
210
0
220
0
230
1
100
AcDbAlignedDimension
13
106.500000155
23
22.5
33
0
14
97.4999998574
24
-13.2908894707
34
0
50
90
100
AcDbRotatedDimension
0
POINT
5
3EC
100
AcDbEntity
8
cotes
6
ByLayer
62
256
370
-1
100
AcDbPoint
10
132.54882917
20
45.5995538825
0
DIMENSION
5
3ED
100
AcDbEntity
8
cotes
6
ByLayer
62
256
370
-1
100
AcDbDimension
2
*D37
10
132.54882917
20
-13.2908894707
30
0
11
132.54882917
21
13.9045549756
31
0
70
32
71
5
3
Standard
53
0
210
0
220
0
230
1
100
AcDbAlignedDimension
13
97.5000003098
23
41.0999994219
33
0
14
97.4999998574
24
-13.2908894707
34
0
50
90
100
AcDbRotatedDimension
0
DIMENSION
5
3EE
100
AcDbEntity
8
cotes
6
ByLayer
62
256
370
-1
100
AcDbDimension
2
*D38
10
87.5000003098
20
45.4281607231
30
0
11
92.5000003098
21
45.4281607231
31
0
70
32
71
5
3
Standard
53
0
210
0
220
0
230
1
100
AcDbAlignedDimension
13
97.5000003098
23
41.0999994219
33
0
14
87.5000003098
24
41.0999995051
34
0
100
AcDbRotatedDimension
0
DIMENSION
5
3EF
100
AcDbEntity
8
cotes
6
ByLayer
62
256
370
-1
100
AcDbDimension
2
*D39
10
78.5000002591
20
45.4281607231
30
0
11
83.0000002844
21
45.4281607231
31
0
70
32
71
5
3
Standard
53
0
210
0
220
0
230
1
100
AcDbAlignedDimension
13
87.5000003098
23
41.0999995051
33
0
14
78.5000002591
24
34.9999997275
34
0
100
AcDbRotatedDimension
0
POINT
5
3F0
100
AcDbEntity
8
cotes
6
ByLayer
62
256
370
-1
100
AcDbPoint
10
-26.2473817511
20
-54.2894562715
0
POINT
5
3F1
100
AcDbEntity
8
cotes
6
ByLayer
62
256
370
-1
100
AcDbPoint
10
-32.5288064437
20
-48.4567047713
0
DIMENSION
5
3F2
100
AcDbEntity
8
cotes
6
ByLayer
62
256
370
-1
100
AcDbDimension
2
*D40
10
-13.4594594595
20
-54.2894562715
30
0
11
-16.9594594595
21
-54.2894562715
31
0
70
32
71
5
3
Standard
53
0
210
0
220
0
230
1
100
AcDbAlignedDimension
13
-20.4594594595
23
-68.8175675676
33
0
14
-13.4594594595
24
-68.8175675676
34
0
100
AcDbRotatedDimension
0
DIMENSION
5
3F3
100
AcDbEntity
8
cotes
6
ByLayer
62
256
370
-1
100
AcDbDimension
2
*D41
10
-26.2473817511
20
-76.8175675676
30
0
11
-26.2473817511
21
-72.8175675676
31
0
70
32
71
5
3
Standard
53
0
210
0
220
0
230
1
100
AcDbAlignedDimension
13
-20.4594594595
23
-68.8175675676
33
0
14
-20.4594594595
24
-76.8175675676
34
0
50
90
100
AcDbRotatedDimension
0
DIMENSION
5
3F4
100
AcDbEntity
8
cotes
6
ByLayer
62
256
370
-1
100
AcDbDimension
2
*D42
10
-26.2473817511
20
-61.8175675676
30
0
11
-26.2473817511
21
-65.3175675676
31
0
70
32
71
5
3
Standard
53
0
210
0
220
0
230
1
100
AcDbAlignedDimension
13
-13.4594594595
23
-68.8175675676
33
0
14
-13.4594594595
24
-61.8175675676
34
0
50
90
100
AcDbRotatedDimension
0
DIMENSION
5
3F5
100
AcDbEntity
8
cotes
6
ByLayer
62
256
370
-1
100
AcDbDimension
2
*D43
10
-26.2473817511
20
-80.8175675676
30
0
11
-26.2473817511
21
-78.8175675676
31
0
70
32
71
5
3
Standard
53
0
210
0
220
0
230
1
100
AcDbAlignedDimension
13
-20.4594594595
23
-76.8175675676
33
0
14
-19.204022106
24
-80.8175675676
34
0
50
90
100
AcDbRotatedDimension
0
DIMENSION
5
3F6
100
AcDbEntity
8
cotes
6
ByLayer
62
256
370
-1
100
AcDbDimension
2
*D44
10
-20.4594594595
20
-48.4567047713
30
0
11
-13.4594594595
21
-48.4567047713
31
0
70
32
71
5
3
Standard
53
0
210
0
220
0
230
1
100
AcDbAlignedDimension
13
-6.45945945946
23
-68.8175675676
33
0
14
-20.4594594595
24
-68.8175675676
34
0
100
AcDbRotatedDimension
0
MTEXT
5
3F7
100
AcDbEntity
8
Glissement
6
CONTINUOUS
62
256
370
-1
100
AcDbMText
10
-29.4441782464
20
-42.0631117806
30
0
40
5
41
21.6666666667
71
1
72
5
1
Rotule:
7
standard
210
0
220
0
230
1
50
0
73
1
44
0.884736
0
MTEXT
5
3F8
100
AcDbEntity
8
default
6
ByLayer
62
256
370
-1
100
AcDbMText
10
195.028471374
20
-4.1951629069
30
0
40
4
41
38.5555555556
71
1
72
5
1
Reprap Jeanne
7
standard
210
0
220
0
230
1
50
0
73
2
44
0.9216
0
MTEXT
5
3F9
100
AcDbEntity
8
default
6
ByLayer
62
256
370
-1
100
AcDbMText
10
195.095934904
20
-9.4910499659
30
0
40
1.5
41
36.8750021476
71
1
72
5
1
Systme de glissement\Pet de fixation des biellettes\Ple long des trois axes (profil en T)
7
standard
210
0
220
0
230
1
50
0
73
2
44
0.9216
0
MTEXT
5
3FA
100
AcDbEntity
8
default
6
ByLayer
62
256
370
-1
100
AcDbMText
10
194.820683704
20
-17.2250689769
30
0
40
1.5
41
41.2916674381
71
1
72
5
1
@Gnieark https://blog-du-grouik.tinad.fr\P@trankilloman\PHackerspace @jeannedhack
7
standard
210
0
220
0
230
1
50
0
73
2
44
0.9216
0
MTEXT
5
3FB
100
AcDbEntity
8
default
6
ByLayer
62
256
370
-1
100
AcDbMText
10
194.069224316
20
6.2827665051
30
0
40
1.5
41
14.1672381247
71
1
72
5
1
scale 1:1   A4
7
standard
210
0
220
0
230
1
50
0
73
2
44
0.9216
0
MTEXT
5
3FC
100
AcDbEntity
8
default
6
ByLayer
62
256
370
-1
100
AcDbMText
10
227.53745961
20
6.5462959171
30
0
40
1.5
41
9.58333333333
71
1
72
5
1
env 100 g
7
standard
210
0
220
0
230
1
50
0
73
2
44
0.9216
0
MTEXT
5
3FD
100
AcDbEntity
8
default
6
ByLayer
62
256
370
-1
100
AcDbMText
10
194.069224316
20
1.8027665051
30
0
40
1.5
41
18.7083333333
71
1
72
5
1
Impression en PLA\P2.5 mm par couche
7
standard
210
0
220
0
230
1
50
0
73
2
44
0.9216
0
MTEXT
5
3FE
100
AcDbEntity
8
default
6
ByLayer
62
256
370
-1
100
AcDbMText
10
131.931289528
20
-24.9802877289
30
0
40
1
41
3.33333333333
71
1
72
5
1
Indice\P
7
standard
210
0
220
0
230
1
50
0
73
2
44
0.9216
0
MTEXT
5
3FF
100
AcDbEntity
8
default
6
ByLayer
62
256
370
-1
100
AcDbMText
10
137.050314198
20
-25.0616325539
30
0
40
1
41
7.1111116254
71
1
72
5
1
Description
7
standard
210
0
220
0
230
1
50
0
73
2
44
0.9216
0
MTEXT
5
400
100
AcDbEntity
8
default
6
ByLayer
62
256
370
-1
100
AcDbMText
10
131.761173492
20
-22.1472080829
30
0
40
1.5
41
1
71
1
72
5
1
A
7
standard
210
0
220
0
230
1
50
0
73
2
44
0.9216
0
MTEXT
5
401
100
AcDbEntity
8
default
6
ByLayer
62
256
370
-1
100
AcDbMText
10
136.726489257
20
-22.1472080829
30
0
40
1.5
41
14.9583341048
71
1
72
5
1
Version initiale
7
standard
210
0
220
0
230
1
50
0
73
2
44
0.9216
0
MTEXT
5
402
100
AcDbEntity
8
default
6
ByLayer
62
256
370
-1
100
AcDbMText
10
153.025677963
20
-22.1472080829
30
0
40
1.5
41
7
71
1
72
5
1
Gnieark
7
standard
210
0
220
0
230
1
50
0
73
2
44
0.9216
0
MTEXT
5
403
100
AcDbEntity
8
default
6
ByLayer
62
256
370
-1
100
AcDbMText
10
161.768951375
20
-22.4440476129
30
0
40
0.5
41
2.72222222222
71
1
72
5
1
20/01/15
7
standard
210
0
220
0
230
1
50
0
73
2
44
0.9216
0
MTEXT
5
404
100
AcDbEntity
8
default
6
ByLayer
62
256
370
-1
100
AcDbMText
10
131.680217257
20
-19.2057982009
30
0
40
1.5
41
0.833333333333
71
1
72
5
1
B
7
standard
210
0
220
0
230
1
50
0
73
2
44
0.9216
0
MTEXT
5
405
100
AcDbEntity
8
default
6
ByLayer
62
256
370
-1
100
AcDbMText
10
136.537591375
20
-18.8010170249
30
0
40
1
41
9.41666718095
71
1
72
5
1
Encoches pour \Pcourroies GT2
7
standard
210
0
220
0
230
1
50
0
73
2
44
0.9216
0
MTEXT
5
406
100
AcDbEntity
8
default
6
ByLayer
62
256
370
-1
100
AcDbMText
10
152.863765492
20
-19.3407252599
30
0
40
1.5
41
7
71
1
72
5
1
Gnieark
7
standard
210
0
220
0
230
1
50
0
73
2
44
0.9216
0
MTEXT
5
407
100
AcDbEntity
8
default
6
ByLayer
62
256
370
-1
100
AcDbMText
10
161.634024316
20
-19.8804334949
30
0
40
0.5
41
2.72222222222
71
1
72
5
1
25/01/15
7
standard
210
0
220
0
230
1
50
0
73
2
44
0.9216
0
MTEXT
5
408
100
AcDbEntity
8
default
6
ByLayer
62
256
370
-1
100
AcDbMText
10
161.661009727
20
-24.8457492599
30
0
40
1
41
2.66666666667
71
1
72
5
1
date
7
standard
210
0
220
0
230
1
50
0
73
2
44
0.9216
0
MTEXT
5
409
100
AcDbEntity
8
default
6
ByLayer
62
256
370
-1
100
AcDbMText
10
153.13361961
20
-25.0616325539
30
0
40
1
41
4.33333333333
71
1
72
5
1
Auteur
7
standard
210
0
220
0
230
1
50
0
73
2
44
0.9216
0
MTEXT
5
40A
100
AcDbEntity
8
default
6
ByLayer
62
256
370
-1
100
AcDbMText
10
241.578306669
20
-17.5192099659
30
0
40
1.5
41
4.16666666667
71
1
72
5
1
page \P1/1
7
standard
210
0
220
0
230
1
50
0
73
2
44
0.9216
0
MTEXT
5
40B
100
AcDbEntity
8
default
6
ByLayer
62
256
370
-1
100
AcDbMText
10
101.627482353
20
26.6797176468
30
0
40
4
41
38.5555555556
71
1
72
5
1
Reprap Jeanne
7
standard
210
0
220
0
230
1
50
0
73
2
44
0.9216
0
MTEXT
5
40C
100
AcDbEntity
8
default
6
ByLayer
62
256
370
-1
100
AcDbMText
10
101.694945882
20
21.3838305878
30
0
40
1.5
41
36.8750021476
71
1
72
5
1
Systme de glissement\Pet de fixation des biellettes\Ple long des trois axes (profil en T)
7
standard
210
0
220
0
230
1
50
0
73
2
44
0.9216
0
MTEXT
5
40D
100
AcDbEntity
8
default
6
ByLayer
62
256
370
-1
100
AcDbMText
10
101.419694682
20
13.6498115768
30
0
40
1.5
41
41.2916674381
71
1
72
5
1
@Gnieark https://blog-du-grouik.tinad.fr\P@trankilloman\PHackerspace @jeannedhack
7
standard
210
0
220
0
230
1
50
0
73
2
44
0.9216
0
MTEXT
5
40E
100
AcDbEntity
8
default
6
ByLayer
62
256
370
-1
100
AcDbMText
10
100.668235294
20
37.1576470588
30
0
40
1.5
41
14.1672381247
71
1
72
5
1
scale 1:1   A4
7
standard
210
0
220
0
230
1
50
0
73
2
44
0.9216
0
MTEXT
5
40F
100
AcDbEntity
8
default
6
ByLayer
62
256
370
-1
100
AcDbMText
10
134.136470588
20
37.4211764708
30
0
40
1.5
41
9.58333333333
71
1
72
5
1
env 100 g
7
standard
210
0
220
0
230
1
50
0
73
2
44
0.9216
0
MTEXT
5
410
100
AcDbEntity
8
default
6
ByLayer
62
256
370
-1
100
AcDbMText
10
100.668235294
20
32.6776470588
30
0
40
1.5
41
18.7083333333
71
1
72
5
1
Impression en PLA\P2.5 mm par couche
7
standard
210
0
220
0
230
1
50
0
73
2
44
0.9216
0
MTEXT
5
411
100
AcDbEntity
8
default
6
ByLayer
62
256
370
-1
100
AcDbMText
10
38.5303005063
20
5.8945928248
30
0
40
1
41
3.33333333333
71
1
72
5
1
Indice\P
7
standard
210
0
220
0
230
1
50
0
73
2
44
0.9216
0
MTEXT
5
412
100
AcDbEntity
8
default
6
ByLayer
62
256
370
-1
100
AcDbMText
10
43.6493251764
20
5.8132479998
30
0
40
1
41
7.1111116254
71
1
72
5
1
Description
7
standard
210
0
220
0
230
1
50
0
73
2
44
0.9216
0
MTEXT
5
413
100
AcDbEntity
8
default
6
ByLayer
62
256
370
-1
100
AcDbMText
10
38.3601844705
20
8.7276724708
30
0
40
1.5
41
1
71
1
72
5
1
A
7
standard
210
0
220
0
230
1
50
0
73
2
44
0.9216
0
MTEXT
5
414
100
AcDbEntity
8
default
6
ByLayer
62
256
370
-1
100
AcDbMText
10
43.3255002352
20
8.7276724708
30
0
40
1.5
41
14.9583341048
71
1
72
5
1
Version initiale
7
standard
210
0
220
0
230
1
50
0
73
2
44
0.9216
0
MTEXT
5
415
100
AcDbEntity
8
default
6
ByLayer
62
256
370
-1
100
AcDbMText
10
59.6246889411
20
8.7276724708
30
0
40
1.5
41
7
71
1
72
5
1
Gnieark
7
standard
210
0
220
0
230
1
50
0
73
2
44
0.9216
0
MTEXT
5
416
100
AcDbEntity
8
default
6
ByLayer
62
256
370
-1
100
AcDbMText
10
68.3679623529
20
8.4308329408
30
0
40
0.5
41
2.72222222222
71
1
72
5
1
20/01/15
7
standard
210
0
220
0
230
1
50
0
73
2
44
0.9216
0
MTEXT
5
417
100
AcDbEntity
8
default
6
ByLayer
62
256
370
-1
100
AcDbMText
10
38.2792282352
20
11.6690823528
30
0
40
1.5
41
0.833333333333
71
1
72
5
1
B
7
standard
210
0
220
0
230
1
50
0
73
2
44
0.9216
0
MTEXT
5
418
100
AcDbEntity
8
default
6
ByLayer
62
256
370
-1
100
AcDbMText
10
43.1366023528
20
12.0738635288
30
0
40
1
41
9.41666718095
71
1
72
5
1
Encoches pour \Pcourroies GT2
7
standard
210
0
220
0
230
1
50
0
73
2
44
0.9216
0
MTEXT
5
419
100
AcDbEntity
8
default
6
ByLayer
62
256
370
-1
100
AcDbMText
10
59.4627764705
20
11.5341552938
30
0
40
1.5
41
7
71
1
72
5
1
Gnieark
7
standard
210
0
220
0
230
1
50
0
73
2
44
0.9216
0
MTEXT
5
41A
100
AcDbEntity
8
default
6
ByLayer
62
256
370
-1
100
AcDbMText
10
68.233035294
20
10.9944470588
30
0
40
0.5
41
2.72222222222
71
1
72
5
1
25/01/15
7
standard
210
0
220
0
230
1
50
0
73
2
44
0.9216
0
MTEXT
5
41B
100
AcDbEntity
8
default
6
ByLayer
62
256
370
-1
100
AcDbMText
10
68.2600207058
20
6.0291312938
30
0
40
1
41
2.66666666667
71
1
72
5
1
date
7
standard
210
0
220
0
230
1
50
0
73
2
44
0.9216
0
MTEXT
5
41C
100
AcDbEntity
8
default
6
ByLayer
62
256
370
-1
100
AcDbMText
10
59.7326305881
20
5.8132479998
30
0
40
1
41
4.33333333333
71
1
72
5
1
Auteur
7
standard
210
0
220
0
230
1
50
0
73
2
44
0.9216
0
MTEXT
5
41D
100
AcDbEntity
8
default
6
ByLayer
62
256
370
-1
100
AcDbMText
10
148.177317647
20
13.3556705878
30
0
40
1.5
41
4.16666666667
71
1
72
5
1
page \P1/1
7
standard
210
0
220
0
230
1
50
0
73
2
44
0.9216
0
LINE
5
41E
100
AcDbEntity
8
profil-pour-3d
6
ByLayer
62
256
370
-1
100
AcDbLine
10
7
20
31
11
7
21
22.5
0
LINE
5
41F
100
AcDbEntity
8
profil-pour-3d
6
ByLayer
62
256
370
-1
100
AcDbLine
10
13
20
31
11
13
21
22.5
0
LINE
5
420
100
AcDbEntity
8
profil-pour-3d
6
ByLayer
62
256
370
-1
100
AcDbLine
10
4
20
22.5
11
7
21
22.5
0
LINE
5
421
100
AcDbEntity
8
profil-pour-3d
6
ByLayer
62
256
370
-1
100
AcDbLine
10
13
20
22.5
11
16
21
22.5
0
DIMENSION
5
422
100
AcDbEntity
8
profil-pour-3d-2
6
ByLayer
62
256
370
-1
100
AcDbDimension
2
*D45
10
82.5000002431
20
22.5
30
0
11
90.0000002765
21
22.5
31
0
70
32
71
5
72
0
3
Standard
53
0
210
0
220
0
230
1
100
AcDbAlignedDimension
13
97.5000003098
23
41.0999994219
33
0
14
82.5000002431
24
25.06375
34
0
100
AcDbRotatedDimension
0
LINE
5
423
100
AcDbEntity
8
Glissement
6
ByLayer
62
256
370
-1
100
AcDbLine
10
2
20
22.5
11
2
21
34.9999999652
0
LINE
5
424
100
AcDbEntity
8
Glissement
6
ByLayer
62
256
370
-1
100
AcDbLine
10
18
20
22.5
11
18
21
34.9999999147
0
LINE
5
425
100
AcDbEntity
8
Glissement
6
ByLayer
62
256
370
-1
100
AcDbLine
10
18
20
31
11
21
21
31
0
LINE
5
426
100
AcDbEntity
8
Glissement
6
ByLayer
62
256
370
-1
100
AcDbLine
10
13
20
22.5
11
18
21
22.5
0
LINE
5
427
100
AcDbEntity
8
Glissement
6
ByLayer
62
256
370
-1
100
AcDbLine
10
2
20
22.5
11
7
21
22.5
0
LINE
5
428
100
AcDbEntity
8
Glissement
6
ByLayer
62
256
370
-1
100
AcDbLine
10
-1
20
31
11
2
21
31
0
LINE
5
429
100
AcDbEntity
8
profil-pour-3d-2
6
ByLayer
62
256
370
-1
100
AcDbLine
10
2
20
34.9999999652
11
18
21
34.9999999147
0
LINE
5
42A
100
AcDbEntity
8
profil-pour-3d-2
6
ByLayer
62
256
370
-1
100
AcDbLine
10
18
20
34.9999999147
11
18
21
22.5
0
LINE
5
42B
100
AcDbEntity
8
profil-pour-3d-2
6
ByLayer
62
256
370
-1
100
AcDbLine
10
18
20
22.5
11
13
21
22.5
0
LINE
5
42C
100
AcDbEntity
8
profil-pour-3d-2
6
ByLayer
62
256
370
-1
100
AcDbLine
10
13
20
22.5
11
13
21
31
0
LINE
5
42D
100
AcDbEntity
8
profil-pour-3d-2
6
ByLayer
62
256
370
-1
100
AcDbLine
10
13
20
31
11
7
21
31
0
LINE
5
42E
100
AcDbEntity
8
profil-pour-3d-2
6
ByLayer
62
256
370
-1
100
AcDbLine
10
7
20
31
11
7
21
22.5
0
LINE
5
42F
100
AcDbEntity
8
profil-pour-3d-2
6
ByLayer
62
256
370
-1
100
AcDbLine
10
7
20
22.5
11
2
21
22.5
0
LINE
5
430
100
AcDbEntity
8
profil-pour-3d-2
6
ByLayer
62
256
370
-1
100
AcDbLine
10
2
20
22.5
11
2
21
34.9999999652
0
LINE
5
431
100
AcDbEntity
8
Glissement
6
ByLayer
62
256
370
-1
100
AcDbLine
10
2
20
82.4462495497
11
-25.5
21
82.4462495497
0
LINE
5
432
100
AcDbEntity
8
Glissement
6
ByLayer
62
256
370
-1
100
AcDbLine
10
2
20
92.4462495497
11
-25.5
21
92.4462495497
0
LINE
5
433
100
AcDbEntity
8
Glissement
6
ByLayer
62
256
370
-1
100
AcDbLine
10
2
20
107.44624955
11
18
21
107.44624955
0
LINE
5
434
100
AcDbEntity
8
Glissement
6
ByLayer
62
256
370
-1
100
AcDbLine
10
2
20
67.4462495497
11
18
21
67.4462495497
0
LINE
5
435
100
AcDbEntity
8
Glissement
6
ByLayer
62
256
370
-1
100
AcDbLine
10
18
20
92.4462495497
11
45.5000005039
21
92.4462495497
0
LINE
5
436
100
AcDbEntity
8
Glissement
6
ByLayer
62
256
370
-1
100
AcDbLine
10
18
20
82.4462495497
11
45.5000005039
21
82.4462495497
0
LINE
5
437
100
AcDbEntity
8
Glissement
6
ByLayer
62
256
370
-1
100
AcDbLine
10
2
20
107.44624955
11
2
21
92.4462495497
0
LINE
5
438
100
AcDbEntity
8
Glissement
6
ByLayer
62
256
370
-1
100
AcDbLine
10
2
20
82.4462495497
11
2
21
67.4462495497
0
LINE
5
439
100
AcDbEntity
8
Glissement
6
ByLayer
62
256
370
-1
100
AcDbLine
10
18
20
107.44624955
11
18
21
92.4462495497
0
LINE
5
43A
100
AcDbEntity
8
Glissement
6
ByLayer
62
256
370
-1
100
AcDbLine
10
18
20
82.4462495497
11
18
21
67.4462495497
0
LINE
5
43B
100
AcDbEntity
8
Glissement
6
ByLayer
62
256
370
-1
100
AcDbLine
10
4
20
104.44624955
11
16
21
104.44624955
0
LINE
5
43C
100
AcDbEntity
8
Glissement
6
ByLayer
62
256
370
-1
100
AcDbLine
10
4
20
70.4462495497
11
16
21
70.4462495497
0
DIMENSION
5
43D
100
AcDbEntity
8
cotes
6
ByLayer
62
256
370
-1
100
AcDbDimension
2
*D46
10
2
20
41.1
30
0
11
-1.5
21
42.125
31
0
70
32
71
5
3
Standard
53
0
210
0
220
0
230
1
100
AcDbAlignedDimension
13
-5
23
41.1
33
0
14
2
24
34.9999999652
34
0
100
AcDbRotatedDimension
0
DIMENSION
5
43E
100
AcDbEntity
8
cotes
6
ByLayer
62
256
370
-1
100
AcDbDimension
2
*D47
10
18
20
41.1
30
0
11
10
21
42.125
31
0
70
32
71
5
3
Standard
53
0
210
0
220
0
230
1
100
AcDbAlignedDimension
13
2
23
34.9999999652
33
0
14
18
24
34.9999999147
34
0
100
AcDbRotatedDimension
0
DIMENSION
5
43F
100
AcDbEntity
8
cotes
6
ByLayer
62
256
370
-1
100
AcDbDimension
2
*D48
10
25.0000003098
20
41.1
30
0
11
21.5000001549
21
42.125
31
0
70
32
71
5
3
Standard
53
0
210
0
220
0
230
1
100
AcDbAlignedDimension
13
18
23
34.9999999147
33
0
14
25.0000003098
24
41.0999998752
34
0
100
AcDbRotatedDimension
0
DIMENSION
5
440
100
AcDbEntity
8
cotes
6
ByLayer
62
256
370
-1
100
AcDbDimension
2
*D49
10
19.5
20
31
30
0
11
18.475
21
32.9999999573
31
0
70
32
71
5
3
Standard
53
0
210
0
220
0
230
1
100
AcDbAlignedDimension
13
18
23
34.9999999147
33
0
14
18
24
31
34
0
50
90
100
AcDbRotatedDimension
0
DIMENSION
5
441
100
AcDbEntity
8
cotes
6
ByLayer
62
256
370
-1
100
AcDbDimension
2
*D50
10
19.5
20
25.5
30
0
11
18.475
21
27
31
0
70
32
71
5
3
Standard
53
0
210
0
220
0
230
1
100
AcDbAlignedDimension
13
18
23
28.5
33
0
14
18
24
25.5
34
0
50
90
100
AcDbRotatedDimension
0
DIMENSION
5
442
100
AcDbEntity
8
cotes
6
ByLayer
62
256
370
-1
100
AcDbDimension
2
*D51
10
19.5
20
22.5
30
0
11
18.475
21
24
31
0
70
32
71
5
3
Standard
53
0
210
0
220
0
230
1
100
AcDbAlignedDimension
13
18
23
25.5
33
0
14
18
24
22.5
34
0
50
90
100
AcDbRotatedDimension
0
DIMENSION
5
443
100
AcDbEntity
8
cotes
6
ByLayer
62
256
370
-1
100
AcDbDimension
2
*D52
10
19.5
20
31
30
0
11
18.475
21
29.75
31
0
70
32
71
5
3
Standard
53
0
210
0
220
0
230
1
100
AcDbAlignedDimension
13
18
23
28.5
33
0
14
18
24
31
34
0
50
90
100
AcDbRotatedDimension
0
DIMENSION
5
444
100
AcDbEntity
8
cotes
6
ByLayer
62
256
370
-1
100
AcDbDimension
2
*D53
10
72.500000205
20
45.4281607231
30
0
11
75.5000002321
21
46.4531607231
31
0
70
32
71
5
3
Standard
53
0
210
0
220
0
230
1
100
AcDbAlignedDimension
13
78.5000002591
23
34.9999997275
33
0
14
72.500000205
24
28.5
34
0
100
AcDbRotatedDimension
0
LINE
5
445
100
AcDbEntity
8
cadre-glissement
6
ByLayer
62
256
370
-1
100
AcDbLine
10
-42.0675501767
20
124.120098541
11
144.112597635
21
124.120098541
0
LINE
5
446
100
AcDbEntity
8
cadre-glissement
6
ByLayer
62
256
370
-1
100
AcDbLine
10
144.112597635
20
124.120098541
11
144.112597635
21
-127.035671326
0
LINE
5
447
100
AcDbEntity
8
cadre-glissement
6
ByLayer
62
256
370
-1
100
AcDbLine
10
144.112597635
20
-127.035671326
11
-42.0675501767
21
-127.035671326
0
LINE
5
448
100
AcDbEntity
8
cadre-glissement
6
ByLayer
62
256
370
-1
100
AcDbLine
10
-42.0675501767
20
-127.035671326
11
-42.0675501767
21
124.120098541
0
LINE
5
449
100
AcDbEntity
8
cadre-glissement
6
ByLayer
62
256
370
-1
100
AcDbLine
10
-40.4015085855
20
-22.4915614806
11
142.446556044
21
-22.4915614806
0
LINE
5
44A
100
AcDbEntity
8
cadre-glissement
6
ByLayer
62
256
370
-1
100
AcDbLine
10
142.446556044
20
-22.4915614806
11
142.446556044
21
121.621036154
0
LINE
5
44B
100
AcDbEntity
8
cadre-glissement
6
ByLayer
62
256
370
-1
100
AcDbLine
10
142.446556044
20
121.621036154
11
-40.4015085855
21
121.621036154
0
LINE
5
44C
100
AcDbEntity
8
cadre-glissement
6
ByLayer
62
256
370
-1
100
AcDbLine
10
-40.4015085855
20
121.621036154
11
-40.4015085855
21
-22.4915614806
0
LINE
5
44D
100
AcDbEntity
8
cadre-glissement
6
ByLayer
62
256
370
-1
100
AcDbLine
10
-40.4328301674
20
-24.7373855455
11
43.2129537706
21
-24.7373855455
0
LINE
5
44E
100
AcDbEntity
8
cadre-glissement
6
ByLayer
62
256
370
-1
100
AcDbLine
10
43.2129537706
20
-24.7373855455
11
43.2129537706
21
-123.911843342
0
LINE
5
44F
100
AcDbEntity
8
cadre-glissement
6
ByLayer
62
256
370
-1
100
AcDbLine
10
43.2129537706
20
-123.911843342
11
-40.4328301674
21
-123.911843342
0
LINE
5
450
100
AcDbEntity
8
cadre-glissement
6
ByLayer
62
256
370
-1
100
AcDbLine
10
-40.4328301674
20
-123.911843342
11
-40.4328301674
21
-24.7373855455
0
LINE
5
451
100
AcDbEntity
8
cadre-glissement
6
ByLayer
62
256
370
-1
100
AcDbLine
10
45.3163312794
20
-24.7906988764
11
142.524651743
21
-24.7906988764
0
LINE
5
452
100
AcDbEntity
8
cadre-glissement
6
ByLayer
62
256
370
-1
100
AcDbLine
10
142.524651743
20
-24.7906988764
11
142.524651743
21
-123.651524344
0
LINE
5
453
100
AcDbEntity
8
cadre-glissement
6
ByLayer
62
256
370
-1
100
AcDbLine
10
142.524651743
20
-123.651524344
11
45.3163312794
21
-123.651524344
0
LINE
5
454
100
AcDbEntity
8
cadre-glissement
6
ByLayer
62
256
370
-1
100
AcDbLine
10
45.3163312794
20
-123.651524344
11
45.3163312794
21
-24.7906988764
0
DIMENSION
5
455
100
AcDbEntity
8
cotes
6
ByLayer
62
256
370
-1
100
AcDbDimension
2
*D54
10
50.0719282636
20
73.4462495497
30
0
11
49.0469282636
21
71.9462495497
31
0
70
32
71
5
3
Standard
53
0
210
0
220
0
230
1
100
AcDbAlignedDimension
13
16
23
70.4462495497
33
0
14
16
24
73.4462495497
34
0
50
90
100
AcDbRotatedDimension
0
DIMENSION
5
456
100
AcDbEntity
8
cotes
6
ByLayer
62
256
370
-1
100
AcDbDimension
2
*D55
10
50.0719282636
20
82.4462495497
30
0
11
49.0469282636
21
77.9462495497
31
0
70
32
71
5
3
Standard
53
0
210
0
220
0
230
1
100
AcDbAlignedDimension
13
18
23
73.4462495497
33
0
14
45.5000005039
24
82.4462495497
34
0
50
90
100
AcDbRotatedDimension
0
DIMENSION
5
457
100
AcDbEntity
8
cotes
6
ByLayer
62
256
370
-1
100
AcDbDimension
2
*D56
10
50.0719282636
20
92.4462495497
30
0
11
49.0469282636
21
87.4462495497
31
0
70
32
71
5
3
Standard
53
0
210
0
220
0
230
1
100
AcDbAlignedDimension
13
45.5000005039
23
82.4462495497
33
0
14
45.5000005039
24
92.4462495497
34
0
50
90
100
AcDbRotatedDimension
0
DIMENSION
5
458
100
AcDbEntity
8
cotes
6
ByLayer
62
256
370
-1
100
AcDbDimension
2
*D57
10
50.0719282636
20
67.4462495497
30
0
11
49.0469282636
21
68.9462495497
31
0
70
32
71
5
3
Standard
53
0
210
0
220
0
230
1
100
AcDbAlignedDimension
13
18
23
70.4462495497
33
0
14
18
24
67.4462495497
34
0
50
90
100
AcDbRotatedDimension
0
LINE
5
459
100
AcDbEntity
8
cadre-glissement
6
ByLayer
62
256
370
-1
100
AcDbLine
10
64.7756970641
20
120.221561218
11
141.28032693
21
120.221561218
0
LINE
5
45A
100
AcDbEntity
8
cadre-glissement
6
ByLayer
62
256
370
-1
100
AcDbLine
10
141.28032693
20
120.221561218
11
141.28032693
21
47.9819978253
0
LINE
5
45B
100
AcDbEntity
8
cadre-glissement
6
ByLayer
62
256
370
-1
100
AcDbLine
10
141.28032693
20
47.9819978253
11
64.7756970641
21
47.9819978253
0
LINE
5
45C
100
AcDbEntity
8
cadre-glissement
6
ByLayer
62
256
370
-1
100
AcDbLine
10
64.7756970641
20
47.9819978253
11
64.7756970641
21
120.221561218
0
MTEXT
5
45D
100
AcDbEntity
8
cadre-glissement
6
ByLayer
62
256
370
-1
100
AcDbMText
10
67.1747969554
20
118.62216129
30
0
40
3
41
57.7500046286
71
1
72
5
1
Reprap Jeanne\P\PPice servant de glissement \Ple long des axes \P"profil T carr 20X20"\P\PBy Gnieark & tranKilloman
7
standard
210
0
220
0
230
1
50
0
73
1
44
0.96
0
LINE
5
45E
100
AcDbEntity
8
Glissement
6
ByLayer
62
256
370
-1
100
AcDbLine
10
13
20
31
11
13
21
27.5
0
LINE
5
45F
100
AcDbEntity
8
Glissement
6
ByLayer
62
256
370
-1
100
AcDbLine
10
7
20
27.5
11
7
21
31
0
LINE
5
460
100
AcDbEntity
8
Glissement
6
ByLayer
62
256
370
-1
100
AcDbLine
10
7
20
27.5
11
8
21
26.5
0
LINE
5
461
100
AcDbEntity
8
Glissement
6
ByLayer
62
256
370
-1
100
AcDbLine
10
13
20
27.5
11
12
21
26.5
0
LINE
5
462
100
AcDbEntity
8
Glissement
6
ByLayer
62
256
370
-1
100
AcDbLine
10
8
20
26.5
11
8
21
23.5
0
LINE
5
463
100
AcDbEntity
8
Glissement
6
ByLayer
62
256
370
-1
100
AcDbLine
10
12
20
26.5
11
12
21
23.5
0
LINE
5
464
100
AcDbEntity
8
Glissement
6
ByLayer
62
256
370
-1
100
AcDbLine
10
2
20
31.9999999709
11
18
21
31.9999999043
0
LINE
5
465
100
AcDbEntity
8
Glissement
6
ByLayer
62
256
370
-1
100
AcDbLine
10
16
20
73.4462495497
11
16
21
70.4462495497
0
LINE
5
466
100
AcDbEntity
8
Glissement
6
ByLayer
62
256
370
-1
100
AcDbLine
10
4
20
73.4462495497
11
16
21
73.4462495497
0
LINE
5
467
100
AcDbEntity
8
Glissement
6
ByLayer
62
256
370
-1
100
AcDbLine
10
4
20
73.4462495497
11
4
21
70.4462495497
0
LINE
5
468
100
AcDbEntity
8
Glissement
6
ByLayer
62
256
370
-1
100
AcDbLine
10
16
20
104.44624955
11
16
21
101.44624955
0
LINE
5
469
100
AcDbEntity
8
Glissement
6
ByLayer
62
256
370
-1
100
AcDbLine
10
4
20
101.44624955
11
16
21
101.44624955
0
LINE
5
46A
100
AcDbEntity
8
Glissement
6
ByLayer
62
256
370
-1
100
AcDbLine
10
4
20
104.44624955
11
4
21
101.44624955
0
LINE
5
46B
100
AcDbEntity
8
Glissement
6
ByLayer
62
256
370
-1
100
AcDbLine
10
112.500000259
20
34.9999995612
11
106.500000364
21
34.9999996111
0
LINE
5
46C
100
AcDbEntity
8
Glissement
6
ByLayer
62
256
370
-1
100
AcDbLine
10
112.500000234
20
31.9999995612
11
112.500000259
21
34.9999995612
0
LINE
5
46D
100
AcDbEntity
8
Glissement
6
ByLayer
62
256
370
-1
100
AcDbLine
10
112.500000234
20
31.9999995612
11
106.500000364
21
31.9999996111
0
LINE
5
46E
100
AcDbEntity
8
Glissement
6
ByLayer
62
256
370
-1
100
AcDbLine
10
72.5000002591
20
34.9999997275
11
78.5000002591
21
34.9999997275
0
LINE
5
46F
100
AcDbEntity
8
Glissement
6
ByLayer
62
256
370
-1
100
AcDbLine
10
72.5000002342
20
31.9999997275
11
78.5000002341
21
31.9999997275
0
LINE
5
470
100
AcDbEntity
8
Glissement
6
ByLayer
62
256
370
-1
100
AcDbLine
10
72.5000002342
20
31.9999997275
11
72.5000002591
21
34.9999997275
0
LINE
5
471
100
AcDbEntity
8
Top-fix-NEMA-et-GT2
6
ByLayer
62
256
370
-1
100
AcDbLine
10
6.25000000002
20
31.9999999376
11
13.75
21
31.9999999376
0
LINE
5
472
100
AcDbEntity
8
Top-fix-NEMA-et-GT2
6
ByLayer
62
256
370
-1
100
AcDbLine
10
6.25000000002
20
45.7199999304
11
13.75
21
45.7199998992
0
LINE
5
473
100
AcDbEntity
8
Top-fix-NEMA-et-GT2
6
ByLayer
62
256
370
-1
100
AcDbLine
10
13.75
20
30.1099999376
11
13.75
21
47.6099998992
0
LINE
5
474
100
AcDbEntity
8
Top-fix-NEMA-et-GT2
6
ByLayer
62
256
370
-1
100
AcDbLine
10
5.25000000002
20
30.1099999376
11
5.25000000002
21
47.6099999345
0
LINE
5
475
100
AcDbEntity
8
Top-fix-NEMA-et-GT2
6
ByLayer
62
256
370
-1
100
AcDbLine
10
6.25000000002
20
30.1099999376
11
6.25000000002
21
47.6099999304
0
LINE
5
476
100
AcDbEntity
8
Top-fix-NEMA-et-GT2
6
ByLayer
62
256
370
-1
100
AcDbLine
10
5.25000000002
20
47.6099999345
11
6.25000000002
21
47.6099999304
0
LINE
5
477
100
AcDbEntity
8
Top-fix-NEMA-et-GT2
6
ByLayer
62
256
370
-1
100
AcDbLine
10
5.25000000002
20
30.1099999376
11
6.25000000002
21
30.1099999376
0
MTEXT
5
478
100
AcDbEntity
8
Top-fix-NEMA-et-GT2
6
ByLayer
62
256
370
-1
100
AcDbMText
10
12.2033073817
20
40.1964520258
30
0
40
1
41
3.66666666667
71
1
72
5
1
Poulie\PGT2
7
standard
210
0
220
0
230
1
50
0
73
1
44
0.96
0
LINE
5
479
100
AcDbEntity
8
Top-fix-NEMA-et-GT2
6
ByLayer
62
256
370
-1
100
AcDbLine
10
23.25
20
60.0099999008
11
67.25
21
60.0099999008
0
LINE
5
47A
100
AcDbEntity
8
Top-fix-NEMA-et-GT2
6
ByLayer
62
256
370
-1
100
AcDbLine
10
23.25
20
17.7099999008
11
23.25
21
60.0099999008
0
LINE
5
47B
100
AcDbEntity
8
Top-fix-NEMA-et-GT2
6
ByLayer
62
256
370
-1
100
AcDbLine
10
67.25
20
17.7099999008
11
67.25
21
60.0099999008
0
LINE
5
47C
100
AcDbEntity
8
Top-fix-NEMA-et-GT2
6
ByLayer
62
256
370
-1
100
AcDbLine
10
23.25
20
17.7099999008
11
67.25
21
17.7099999008
0
LINE
5
47D
100
AcDbEntity
8
Top-fix-NEMA-et-GT2
6
ByLayer
62
256
370
-1
100
AcDbLine
10
3.25000000002
20
36.3599999008
11
3.25000000002
21
41.3599999008
0
MTEXT
5
47E
100
AcDbEntity
8
Top-fix-NEMA-et-GT2
6
ByLayer
62
256
370
-1
100
AcDbMText
10
41.0547874398
20
38.8599999008
30
0
40
1
41
10.0555555556
71
1
72
5
1
Motor NEMA 17
7
standard
210
0
220
0
230
1
50
0
73
1
44
0.96
0
LINE
5
47F
100
AcDbEntity
8
Top-fix-NEMA-et-GT2
6
ByLayer
62
256
370
-1
100
AcDbLine
10
3.25000000002
20
41.3599999008
11
5.25000000002
21
41.3599999008
0
LINE
5
480
100
AcDbEntity
8
Top-fix-NEMA-et-GT2
6
ByLayer
62
256
370
-1
100
AcDbLine
10
3.25000000002
20
36.3599999008
11
5.25000000002
21
36.3599999008
0
LINE
5
481
100
AcDbEntity
8
Top-fix-NEMA-et-GT2
6
ByLayer
62
256
370
-1
100
AcDbLine
10
13.75
20
47.6099998992
11
18.125
21
47.609999881
0
LINE
5
482
100
AcDbEntity
8
Top-fix-NEMA-et-GT2
6
ByLayer
62
256
370
-1
100
AcDbLine
10
13.75
20
30.1099999376
11
18.125
21
30.1099999376
0
LINE
5
483
100
AcDbEntity
8
Top-fix-NEMA-et-GT2
6
DOT2
62
256
370
-1
100
AcDbLine
10
22.25
20
30.1099999376
11
22.25
21
47.6099998639
0
LINE
5
484
100
AcDbEntity
8
Top-fix-NEMA-et-GT2
6
DOT2
62
256
370
-1
100
AcDbLine
10
22.25
20
41.3599999008
11
23.25
21
41.3599999008
0
LINE
5
485
100
AcDbEntity
8
Top-fix-NEMA-et-GT2
6
DOT2
62
256
370
-1
100
AcDbLine
10
22.25
20
36.3599999008
11
23.25
21
36.3599999008
0
LINE
5
486
100
AcDbEntity
8
Top-fix-NEMA-et-GT2
6
DOT2
62
256
370
-1
100
AcDbLine
10
18.125
20
47.609999881
11
22.25
21
47.6099998639
0
LINE
5
487
100
AcDbEntity
8
Top-fix-NEMA-et-GT2
6
DOT2
62
256
370
-1
100
AcDbLine
10
18.125
20
30.1099999376
11
22.25
21
30.1099999376
0
CIRCLE
5
488
100
AcDbEntity
8
Top-fix-NEMA-et-GT2-vues-ortho
6
ByLayer
62
256
370
-1
100
AcDbCircle
10
-56.4
20
38.8599999008
40
8.75
0
CIRCLE
5
489
100
AcDbEntity
8
Top-fix-NEMA-et-GT2-vues-ortho
6
ByLayer
62
256
370
-1
100
AcDbCircle
10
-56.4
20
38.8599999008
40
2.5
0
CIRCLE
5
48A
100
AcDbEntity
8
Top-fix-NEMA-et-GT2-vues-ortho
6
DOT2
62
256
370
-1
100
AcDbCircle
10
-40.9
20
54.3599999008
40
1.5
0
CIRCLE
5
48B
100
AcDbEntity
8
Top-fix-NEMA-et-GT2-vues-ortho
6
DOT2
62
256
370
-1
100
AcDbCircle
10
-71.9
20
54.3599999008
40
1.5
0
CIRCLE
5
48C
100
AcDbEntity
8
Top-fix-NEMA-et-GT2-vues-ortho
6
DOT2
62
256
370
-1
100
AcDbCircle
10
-71.9
20
23.3599999008
40
1.5
0
CIRCLE
5
48D
100
AcDbEntity
8
Top-fix-NEMA-et-GT2-vues-ortho
6
DOT2
62
256
370
-1
100
AcDbCircle
10
-40.9
20
23.3599999008
40
1.5
0
LINE
5
48E
100
AcDbEntity
8
Top-fix-NEMA-et-GT2-vues-ortho
6
DOT2
62
256
370
-1
100
AcDbLine
10
-77.55
20
23.3599999008
11
-71.9
21
17.7099999008
0
LINE
5
48F
100
AcDbEntity
8
Top-fix-NEMA-et-GT2-vues-ortho
6
DOT2
62
256
370
-1
100
AcDbLine
10
-40.9
20
17.7099999008
11
-35.25
21
23.3599999008
0
LINE
5
490
100
AcDbEntity
8
Top-fix-NEMA-et-GT2-vues-ortho
6
DOT2
62
256
370
-1
100
AcDbLine
10
-35.25
20
54.3599999008
11
-40.9
21
60.0099999008
0
LINE
5
491
100
AcDbEntity
8
Top-fix-NEMA-et-GT2-vues-ortho
6
DOT2
62
256
370
-1
100
AcDbLine
10
-77.55
20
54.3599999008
11
-77.55
21
23.3599999008
0
LINE
5
492
100
AcDbEntity
8
Top-fix-NEMA-et-GT2-vues-ortho
6
DOT2
62
256
370
-1
100
AcDbLine
10
-71.9
20
17.7099999008
11
-40.9
21
17.7099999008
0
LINE
5
493
100
AcDbEntity
8
Top-fix-NEMA-et-GT2-vues-ortho
6
DOT2
62
256
370
-1
100
AcDbLine
10
-71.9
20
60.0099999008
11
-40.9
21
60.0099999008
0
LINE
5
494
100
AcDbEntity
8
Top-fix-NEMA-et-GT2-vues-ortho
6
DOT2
62
256
370
-1
100
AcDbLine
10
-35.25
20
54.3599999008
11
-35.25
21
23.3599999008
0
LINE
5
495
100
AcDbEntity
8
Top-fix-NEMA-et-GT2-vues-ortho
6
DOT2
62
256
370
-1
100
AcDbLine
10
-71.9
20
60.0099999008
11
-77.675
21
54.2349999008
0
LINE
5
496
100
AcDbEntity
8
Top-fix
6
ByLayer
62
256
370
-1
100
AcDbLine
10
25.125
20
13.375
11
15.875
21
-5.125
0
LINE
5
497
100
AcDbEntity
8
Top-fix
6
ByLayer
62
256
370
-1
100
AcDbLine
10
25.125
20
13.375
11
25.125
21
17.4599999008
0
LINE
5
498
100
AcDbEntity
8
Top-fix
6
ByLayer
62
256
370
-1
100
AcDbLine
10
23.1250001461
20
17.4599999008
11
25.125
21
17.4599999008
0
LINE
5
499
100
AcDbEntity
8
Top-fix
6
ByLayer
62
256
370
-1
100
AcDbLine
10
23.1250001461
20
17.4599999008
11
23.1250001461
21
60.2599999008
0
LINE
5
49A
100
AcDbEntity
8
Top-fix
6
ByLayer
62
256
370
-1
100
AcDbLine
10
15.1250001461
20
60.2599999008
11
18.1250001461
21
60.2599999008
0
LINE
5
49B
100
AcDbEntity
8
Top-fix
6
ByLayer
62
256
370
-1
100
AcDbLine
10
15.1250001461
20
60.2599999008
11
15.1250001461
21
68.2599999008
0
LINE
5
49C
100
AcDbEntity
8
Top-fix
6
ByLayer
62
256
370
-1
100
AcDbLine
10
23.1250001461
20
60.2599999008
11
23.1250001461
21
68.2599999008
0
LINE
5
49D
100
AcDbEntity
8
Top-fix
6
ByLayer
62
256
370
-1
100
AcDbLine
10
15.1250001461
20
68.2599999008
11
23.1250001461
21
68.2599999008
0
CIRCLE
5
49E
100
AcDbEntity
8
Top-fix
6
ByLayer
62
256
370
-1
100
AcDbCircle
10
19.1250001461
20
64.2599999008
40
2
0
LINE
5
49F
100
AcDbEntity
8
Top-fix
6
ByLayer
62
256
370
-1
100
AcDbLine
10
18.1250001461
20
25.125
11
18.1250001461
21
60.2599999008
0
LINE
5
4A0
100
AcDbEntity
8
Top-fix-vues-orthogonales
6
ByLayer
62
256
370
-1
100
AcDbLine
10
-68.9
20
26.3599999008
11
-43.9
21
26.3599999008
0
LINE
5
4A1
100
AcDbEntity
8
Top-fix-vues-orthogonales
6
ByLayer
62
256
370
-1
100
AcDbLine
10
-68.9
20
51.3599999008
11
-68.9
21
26.3599999008
0
LINE
5
4A2
100
AcDbEntity
8
Top-fix-vues-orthogonales
6
ByLayer
62
256
370
-1
100
AcDbLine
10
-43.9
20
26.3599999008
11
-43.9
21
51.3599999008
0
LINE
5
4A3
100
AcDbEntity
8
Top-fix-vues-orthogonales
6
ByLayer
62
256
370
-1
100
AcDbLine
10
-43.9
20
51.3599999008
11
-68.9
21
51.3599999008
0
CIRCLE
5
4A4
100
AcDbEntity
8
Top-fix-vues-orthogonales
6
ByLayer
62
256
370
-1
100
AcDbCircle
10
-71.9
20
54.3599999008
40
1.5
0
CIRCLE
5
4A5
100
AcDbEntity
8
Top-fix-vues-orthogonales
6
ByLayer
62
256
370
-1
100
AcDbCircle
10
-40.9
20
54.3599999008
40
1.5
0
CIRCLE
5
4A6
100
AcDbEntity
8
Top-fix-vues-orthogonales
6
ByLayer
62
256
370
-1
100
AcDbCircle
10
-40.9
20
23.3599999008
40
1.5
0
LINE
5
4A7
100
AcDbEntity
8
Top-fix-vues-orthogonales
6
ByLayer
62
256
370
-1
100
AcDbLine
10
-71.9
20
60.0099999008
11
-77.55
21
54.3599999008
0
LINE
5
4A8
100
AcDbEntity
8
Top-fix-vues-orthogonales
6
ByLayer
62
256
370
-1
100
AcDbLine
10
-35.125
20
60.0099999008
11
-71.9
21
60.0099999008
0
LINE
5
4A9
100
AcDbEntity
8
Top-fix-vues-orthogonales
6
ByLayer
62
256
370
-1
100
AcDbLine
10
-35.125
20
60.0099999008
11
-30.125
21
60.0099999008
0
LINE
5
4AA
100
AcDbEntity
8
Top-fix-vues-orthogonales
6
ByLayer
62
256
370
-1
100
AcDbLine
10
-35.125
20
68.0099999008
11
-30.125
21
68.0099999008
0
LINE
5
4AB
100
AcDbEntity
8
Top-fix-vues-orthogonales
6
ByLayer
62
256
370
-1
100
AcDbLine
10
-30.125
20
68.0099999008
11
-30.125
21
-5.125
0
LINE
5
4AC
100
AcDbEntity
8
Top-fix-vues-orthogonales
6
ByLayer
62
256
370
-1
100
AcDbLine
10
-77.675
20
54.2349999008
11
-77.675
21
-5.125
0
LINE
5
4AD
100
AcDbEntity
8
Top-fix-vues-orthogonales
6
ByLayer
62
256
370
-1
100
AcDbLine
10
-77.675
20
-5.125
11
-30.125
21
-5.125
0
ARC
5
4AE
100
AcDbEntity
8
Top-fix-vues-orthogonales
6
ByLayer
62
256
370
-1
100
AcDbCircle
10
-40.9
20
23.3599999008
40
4
100
AcDbArc
50
153.816335135
51
26.1836648653
0
LINE
5
4AF
100
AcDbEntity
8
Top-fix-vues-orthogonales
6
ByLayer
62
256
370
-1
100
AcDbLine
10
-44.4895368294
20
25.125
11
-77.675
21
25.125
0
LINE
5
4B0
100
AcDbEntity
8
Top-fix-vues-orthogonales
6
ByLayer
62
256
370
-1
100
AcDbLine
10
-30.125
20
13.375
11
-77.675
21
13.375
0
LINE
5
4B1
100
AcDbEntity
8
Top-fix-vues-orthogonales
6
ByLayer
62
256
370
-1
100
AcDbLine
10
-30.125
20
25.125
11
-37.3104631706
21
25.125
0
LINE
5
4B2
100
AcDbEntity
8
Top-fix-vues-orthogonales
6
ByLayer
62
256
370
-1
100
AcDbLine
10
-35.125
20
13.375
11
-35.125
21
-5.125
0
LINE
5
4B3
100
AcDbEntity
8
Top-fix-vues-orthogonales
6
ByLayer
62
256
370
-1
100
AcDbLine
10
-35.125
20
68.0099999008
11
-35.125
21
60.0099999008
0
LINE
5
4B4
100
AcDbEntity
8
Top-fix-vues-orthogonales
6
ByLayer
62
256
370
-1
100
AcDbLine
10
-111.925
20
-5.125
11
-123.675
21
-5.125
0
LINE
5
4B5
100
AcDbEntity
8
Top-fix-vues-orthogonales
6
ByLayer
62
256
370
-1
100
AcDbLine
10
-102.675
20
25.125
11
-102.675
21
13.375
0
LINE
5
4B6
100
AcDbEntity
8
Top-fix-vues-orthogonales
6
ByLayer
62
256
370
-1
100
AcDbLine
10
-125.925000146
20
25.125
11
-102.675
21
25.125
0
LINE
5
4B7
100
AcDbEntity
8
Top-fix-vues-orthogonales
6
ByLayer
62
256
370
-1
100
AcDbLine
10
-132.925
20
13.375
11
-123.675
21
-5.125
0
LINE
5
4B8
100
AcDbEntity
8
Top-fix-vues-orthogonales
6
ByLayer
62
256
370
-1
100
AcDbLine
10
-102.675
20
13.375
11
-111.925
21
-5.125
0
LINE
5
4B9
100
AcDbEntity
8
Top-fix-vues-orthogonales
6
ByLayer
62
256
370
-1
100
AcDbLine
10
-127.925
20
20.125
11
-107.675
21
20.125
0
LINE
5
4BA
100
AcDbEntity
8
Top-fix-vues-orthogonales
6
ByLayer
62
256
370
-1
100
AcDbLine
10
-116.925
20
18.375
11
-107.675
21
18.375
0
LINE
5
4BB
100
AcDbEntity
8
Top-fix-vues-orthogonales
6
ByLayer
62
256
370
-1
100
AcDbLine
10
-127.925
20
18.375
11
-118.675
21
18.375
0
LINE
5
4BC
100
AcDbEntity
8
Top-fix-vues-orthogonales
6
ByLayer
62
256
370
-1
100
AcDbLine
10
-116.925
20
-0.125
11
-116.925
21
18.375
0
LINE
5
4BD
100
AcDbEntity
8
Top-fix-vues-orthogonales
6
ByLayer
62
256
370
-1
100
AcDbLine
10
-118.675
20
-0.125
11
-118.675
21
18.375
0
LINE
5
4BE
100
AcDbEntity
8
Top-fix-vues-orthogonales
6
ByLayer
62
256
370
-1
100
AcDbLine
10
-132.925
20
13.375
11
-123.675
21
13.375
0
LINE
5
4BF
100
AcDbEntity
8
Top-fix-vues-orthogonales
6
ByLayer
62
256
370
-1
100
AcDbLine
10
-123.675
20
-5.125
11
-123.675
21
13.375
0
LINE
5
4C0
100
AcDbEntity
8
Top-fix-vues-orthogonales
6
ByLayer
62
256
370
-1
100
AcDbLine
10
-111.925
20
13.375
11
-102.675
21
13.375
0
LINE
5
4C1
100
AcDbEntity
8
Top-fix-vues-orthogonales
6
ByLayer
62
256
370
-1
100
AcDbLine
10
-127.925
20
20.125
11
-127.925
21
18.375
0
LINE
5
4C2
100
AcDbEntity
8
Top-fix-vues-orthogonales
6
ByLayer
62
256
370
-1
100
AcDbLine
10
-107.675
20
20.125
11
-107.675
21
18.375
0
LINE
5
4C3
100
AcDbEntity
8
Top-fix-vues-orthogonales
6
ByLayer
62
256
370
-1
100
AcDbLine
10
-118.675
20
-0.125
11
-116.925
21
-0.125
0
LINE
5
4C4
100
AcDbEntity
8
Top-fix-vues-orthogonales
6
ByLayer
62
256
370
-1
100
AcDbLine
10
-111.925
20
13.375
11
-111.925
21
-5.125
0
CIRCLE
5
4C5
100
AcDbEntity
8
Top-fix-vues-orthogonales
6
ByLayer
62
256
370
-1
100
AcDbCircle
10
-126.53130823
20
7.29582039325
40
2
0
CIRCLE
5
4C6
100
AcDbEntity
8
Top-fix-vues-orthogonales
6
ByLayer
62
256
370
-1
100
AcDbCircle
10
-109.06869177
20
7.29582039325
40
2
0
LINE
5
4C7
100
AcDbEntity
8
Top-fix-NEMA-et-GT2-vues-ortho
6
ByLayer
62
256
370
-1
100
AcDbLine
10
-114.050000146
20
31.9999999376
11
-121.550000146
21
31.9999999376
0
LINE
5
4C8
100
AcDbEntity
8
Top-fix-NEMA-et-GT2-vues-ortho
6
ByLayer
62
256
370
-1
100
AcDbLine
10
-114.050000146
20
45.7199999304
11
-121.550000146
21
45.7199998992
0
LINE
5
4C9
100
AcDbEntity
8
Top-fix-NEMA-et-GT2-vues-ortho
6
ByLayer
62
256
370
-1
100
AcDbLine
10
-121.550000146
20
30.1099999376
11
-121.550000146
21
47.6099998992
0
LINE
5
4CA
100
AcDbEntity
8
Top-fix-NEMA-et-GT2-vues-ortho
6
ByLayer
62
256
370
-1
100
AcDbLine
10
-113.050000146
20
30.1099999376
11
-113.050000146
21
47.6099999345
0
LINE
5
4CB
100
AcDbEntity
8
Top-fix-NEMA-et-GT2-vues-ortho
6
ByLayer
62
256
370
-1
100
AcDbLine
10
-114.050000146
20
30.1099999376
11
-114.050000146
21
47.6099999304
0
LINE
5
4CC
100
AcDbEntity
8
Top-fix-NEMA-et-GT2-vues-ortho
6
ByLayer
62
256
370
-1
100
AcDbLine
10
-113.050000146
20
47.6099999345
11
-114.050000146
21
47.6099999304
0
LINE
5
4CD
100
AcDbEntity
8
Top-fix-NEMA-et-GT2-vues-ortho
6
ByLayer
62
256
370
-1
100
AcDbLine
10
-113.050000146
20
30.1099999376
11
-114.050000146
21
30.1099999376
0
LINE
5
4CE
100
AcDbEntity
8
Top-fix-NEMA-et-GT2-vues-ortho
6
ByLayer
62
256
370
-1
100
AcDbLine
10
-131.050000146
20
60.0099999008
11
-175.050000146
21
60.0099999008
0
LINE
5
4CF
100
AcDbEntity
8
Top-fix-NEMA-et-GT2-vues-ortho
6
ByLayer
62
256
370
-1
100
AcDbLine
10
-175.050000146
20
17.7099999008
11
-175.050000146
21
60.0099999008
0
LINE
5
4D0
100
AcDbEntity
8
Top-fix-NEMA-et-GT2-vues-ortho
6
ByLayer
62
256
370
-1
100
AcDbLine
10
-131.050000146
20
17.7099999008
11
-175.050000146
21
17.7099999008
0
LINE
5
4D1
100
AcDbEntity
8
Top-fix-NEMA-et-GT2-vues-ortho
6
ByLayer
62
256
370
-1
100
AcDbLine
10
-111.050000146
20
36.3599999008
11
-111.050000146
21
41.3599999008
0
LINE
5
4D2
100
AcDbEntity
8
Top-fix-NEMA-et-GT2-vues-ortho
6
ByLayer
62
256
370
-1
100
AcDbLine
10
-111.050000146
20
41.3599999008
11
-113.050000146
21
41.3599999008
0
LINE
5
4D3
100
AcDbEntity
8
Top-fix-NEMA-et-GT2-vues-ortho
6
ByLayer
62
256
370
-1
100
AcDbLine
10
-111.050000146
20
36.3599999008
11
-113.050000146
21
36.3599999008
0
MTEXT
5
4D4
100
AcDbEntity
8
Top-fix-NEMA-et-GT2-vues-ortho
6
ByLayer
62
256
370
-1
100
AcDbMText
10
-159.77113538
20
39.7885723102
30
0
40
1
41
10.0555555556
71
1
72
5
1
Motor NEMA 17
7
standard
210
0
220
0
230
1
50
0
73
1
44
0.96
0
LINE
5
4D5
100
AcDbEntity
8
Top-fix-NEMA-et-GT2-vues-ortho
6
ByLayer
62
256
370
-1
100
AcDbLine
10
-121.550000146
20
47.6099998992
11
-125.925000146
21
47.609999881
0
LINE
5
4D6
100
AcDbEntity
8
Top-fix-NEMA-et-GT2-vues-ortho
6
ByLayer
62
256
370
-1
100
AcDbLine
10
-121.550000146
20
30.1099999376
11
-125.925000146
21
30.1099999376
0
LINE
5
4D7
100
AcDbEntity
8
Top-fix-NEMA-et-GT2-vues-ortho
6
DOT2
62
256
370
-1
100
AcDbLine
10
-130.050000146
20
30.1099999376
11
-130.050000146
21
47.6099998639
0
LINE
5
4D8
100
AcDbEntity
8
Top-fix-NEMA-et-GT2-vues-ortho
6
DOT2
62
256
370
-1
100
AcDbLine
10
-130.050000146
20
41.3599999008
11
-131.050000146
21
41.3599999008
0
LINE
5
4D9
100
AcDbEntity
8
Top-fix-NEMA-et-GT2-vues-ortho
6
DOT2
62
256
370
-1
100
AcDbLine
10
-125.925000146
20
47.609999881
11
-130.050000146
21
47.6099998639
0
LINE
5
4DA
100
AcDbEntity
8
Top-fix-NEMA-et-GT2-vues-ortho
6
DOT2
62
256
370
-1
100
AcDbLine
10
-125.925000146
20
30.1099999376
11
-130.050000146
21
30.1099999376
0
LINE
5
4DB
100
AcDbEntity
8
Top-fix-NEMA-et-GT2-vues-ortho
6
DOT2
62
256
370
-1
100
AcDbLine
10
-130.050000146
20
36.3599999008
11
-131.050000146
21
36.3599999008
0
LINE
5
4DC
100
AcDbEntity
8
Top-fix-vues-orthogonales
6
ByLayer
62
256
370
-1
100
AcDbLine
10
-132.925
20
13.375
11
-132.925
21
17.4599999008
0
LINE
5
4DD
100
AcDbEntity
8
Top-fix-vues-orthogonales
6
ByLayer
62
256
370
-1
100
AcDbLine
10
-130.925000146
20
17.4599999008
11
-132.925
21
17.4599999008
0
LINE
5
4DE
100
AcDbEntity
8
Top-fix-vues-orthogonales
6
ByLayer
62
256
370
-1
100
AcDbLine
10
-125.925000146
20
25.125
11
-125.925000146
21
60.2599999008
0
LINE
5
4DF
100
AcDbEntity
8
Top-fix-vues-orthogonales
6
ByLayer
62
256
370
-1
100
AcDbLine
10
-122.925000146
20
60.2599999008
11
-122.925000146
21
68.2599999008
0
LINE
5
4E0
100
AcDbEntity
8
Top-fix-vues-orthogonales
6
ByLayer
62
256
370
-1
100
AcDbLine
10
-122.925000146
20
68.2599999008
11
-130.925000146
21
68.2599999008
0
LINE
5
4E1
100
AcDbEntity
8
Top-fix-vues-orthogonales
6
ByLayer
62
256
370
-1
100
AcDbLine
10
-125.925000146
20
60.2599999008
11
-130.925000146
21
60.2599999008
0
LINE
5
4E2
100
AcDbEntity
8
Top-fix-vues-orthogonales
6
ByLayer
62
256
370
-1
100
AcDbLine
10
-122.925000146
20
60.2599999008
11
-125.925000146
21
60.2599999008
0
CIRCLE
5
4E3
100
AcDbEntity
8
Top-fix-vues-orthogonales
6
ByLayer
62
256
370
-1
100
AcDbCircle
10
-126.925000146
20
64.2599999008
40
2
0
LINE
5
4E4
100
AcDbEntity
8
Top-fix-vues-orthogonales
6
ByLayer
62
256
370
-1
100
AcDbLine
10
-130.925000146
20
17.4599999008
11
-130.925000146
21
68.2599999008
0
POINT
5
4E5
100
AcDbEntity
8
Top-fix-mesures-ortho
6
ByLayer
62
256
370
-1
100
AcDbPoint
10
76.1116938222
20
-12.2846944415
0
POINT
5
4E6
100
AcDbEntity
8
Top-fix-mesures-ortho
6
ByLayer
62
256
370
-1
100
AcDbPoint
10
76.378752397
20
-18.4270416622
0
DIMENSION
5
4E7
100
AcDbEntity
8
Top-fix-mesures-ortho
6
ByLayer
62
256
370
-1
100
AcDbDimension
2
*D58
10
-123.675
20
18.375
30
0
11
-124.800000073
21
18.375
31
0
70
32
71
5
3
Standard
53
0
210
0
220
0
230
1
100
AcDbAlignedDimension
13
-125.925000146
23
25.125
33
0
14
-123.675
24
-5.125
34
0
100
AcDbRotatedDimension
0
DIMENSION
5
4E8
100
AcDbEntity
8
Top-fix-mesures-ortho
6
ByLayer
62
256
370
-1
100
AcDbDimension
2
*D59
10
-77.675
20
-5.125
30
0
11
-77.675
21
24.6174999504
31
0
70
32
71
5
3
Standard
53
0
210
0
220
0
230
1
100
AcDbAlignedDimension
13
-40.9
23
54.3599999008
33
0
14
-35.125
24
-5.125
34
0
50
90
100
AcDbRotatedDimension
0
DIMENSION
5
4E9
100
AcDbEntity
8
Top-fix-mesures-ortho
6
ByLayer
62
256
370
-1
100
AcDbDimension
2
*D60
10
-77.55
20
25.125
30
0
11
-74.725
21
25.125
31
0
70
32
71
5
3
Standard
53
0
210
0
220
0
230
1
100
AcDbAlignedDimension
13
-71.9
23
54.3599999008
33
0
14
-77.55
24
54.3599999008
34
0
100
AcDbRotatedDimension
0
ENDSEC
0
SECTION
2
OBJECTS
0
DICTIONARY
5
C
330
0
100
AcDbDictionary
281
1
3
ACAD_GROUP
350
D
0
DICTIONARY
5
D
330
C
100
AcDbDictionary
281
1
0
ENDSEC
0
EOF
