solid OpenSCAD_Model
  facet normal -0.485494 -0.87424 0
    outer loop
      vertex 1.209 -5.5 9
      vertex 1.209 -5.5 0
      vertex 3.197 -6.604 0
    endloop
  endfacet
  facet normal -0.485494 -0.87424 0
    outer loop
      vertex 3.197 -6.604 9
      vertex 1.209 -5.5 9
      vertex 3.197 -6.604 0
    endloop
  endfacet
  facet normal 0 0 -1
    outer loop
      vertex 1.209 -5.5 0
      vertex 18.988 -5.5 0
      vertex 3.197 -6.604 0
    endloop
  endfacet
  facet normal 0 0 -1
    outer loop
      vertex 3.197 -6.604 0
      vertex 18.988 -5.5 0
      vertex 16.954 -6.638 0
    endloop
  endfacet
  facet normal 0 0 -1
    outer loop
      vertex 3.197 -6.604 0
      vertex 16.954 -6.638 0
      vertex 14.866 -7.673 0
    endloop
  endfacet
  facet normal 0 0 -1
    outer loop
      vertex 3.197 -6.604 0
      vertex 14.866 -7.673 0
      vertex 12.73 -8.604 0
    endloop
  endfacet
  facet normal 0 0 -1
    outer loop
      vertex 3.197 -6.604 0
      vertex 12.73 -8.604 0
      vertex 10.55 -9.428 0
    endloop
  endfacet
  facet normal 0 0 -1
    outer loop
      vertex 9.45 -9.322 0
      vertex 10.55 -9.428 0
      vertex 10.55 -11.27 0
    endloop
  endfacet
  facet normal 0 0 -1
    outer loop
      vertex 3.197 -6.604 0
      vertex 10.55 -9.428 0
      vertex 9.45 -9.322 0
    endloop
  endfacet
  facet normal 0 0 -1
    outer loop
      vertex 3.197 -6.604 0
      vertex 9.45 -9.322 0
      vertex 7.323 -8.518 0
    endloop
  endfacet
  facet normal 0 0 -1
    outer loop
      vertex 3.197 -6.604 0
      vertex 7.323 -8.518 0
      vertex 5.237 -7.611 0
    endloop
  endfacet
  facet normal 0 0 -1
    outer loop
      vertex 9.45 -9.322 0
      vertex 10.55 -11.27 0
      vertex 9.45 -11.27 0
    endloop
  endfacet
  facet normal 0 1 0
    outer loop
      vertex 1.209 -5.5 0
      vertex 1.209 -5.5 9
      vertex 18.988 -5.5 0
    endloop
  endfacet
  facet normal 0 1 0
    outer loop
      vertex 18.988 -5.5 0
      vertex 1.209 -5.5 9
      vertex 18.988 -5.5 9
    endloop
  endfacet
  facet normal 0 0 1
    outer loop
      vertex 18.988 -5.5 9
      vertex 1.209 -5.5 9
      vertex 3.197 -6.604 9
    endloop
  endfacet
  facet normal 0 0 1
    outer loop
      vertex 7.323 -8.518 9
      vertex 18.988 -5.5 9
      vertex 5.237 -7.611 9
    endloop
  endfacet
  facet normal 0 0 1
    outer loop
      vertex 5.237 -7.611 9
      vertex 18.988 -5.5 9
      vertex 3.197 -6.604 9
    endloop
  endfacet
  facet normal 0 0 1
    outer loop
      vertex 9.45 -9.322 9
      vertex 18.988 -5.5 9
      vertex 7.323 -8.518 9
    endloop
  endfacet
  facet normal 0 0 1
    outer loop
      vertex 9.5 -9.34 9
      vertex 18.988 -5.5 9
      vertex 9.45 -9.322 9
    endloop
  endfacet
  facet normal 0 0 1
    outer loop
      vertex 9.45 -11.27 9
      vertex 9.5 -9.34 9
      vertex 9.45 -9.322 9
    endloop
  endfacet
  facet normal 0 0 1
    outer loop
      vertex 10.5 -9.446 9
      vertex 18.988 -5.5 9
      vertex 9.5 -9.34 9
    endloop
  endfacet
  facet normal 0 0 1
    outer loop
      vertex 10.55 -9.428 9
      vertex 18.988 -5.5 9
      vertex 10.5 -9.446 9
    endloop
  endfacet
  facet normal 0 0 1
    outer loop
      vertex 12.73 -8.604 9
      vertex 18.988 -5.5 9
      vertex 10.55 -9.428 9
    endloop
  endfacet
  facet normal 0 0 1
    outer loop
      vertex 14.866 -7.673 9
      vertex 18.988 -5.5 9
      vertex 12.73 -8.604 9
    endloop
  endfacet
  facet normal 0 0 1
    outer loop
      vertex 16.954 -6.638 9
      vertex 18.988 -5.5 9
      vertex 14.866 -7.673 9
    endloop
  endfacet
  facet normal 0 0 1
    outer loop
      vertex 10.5 -9.446 9
      vertex 10.5 -11.27 9
      vertex 10.55 -9.428 9
    endloop
  endfacet
  facet normal 0 0 1
    outer loop
      vertex 10.55 -11.27 9
      vertex 10.55 -9.428 9
      vertex 10.5 -11.27 9
    endloop
  endfacet
  facet normal 0 0 1
    outer loop
      vertex 9.5 -11.27 9
      vertex 9.5 -9.34 9
      vertex 9.45 -11.27 9
    endloop
  endfacet
  facet normal -0.442636 -0.896701 0
    outer loop
      vertex 3.197 -6.604 9
      vertex 3.197 -6.604 0
      vertex 5.237 -7.611 0
    endloop
  endfacet
  facet normal -0.442636 -0.896701 0
    outer loop
      vertex 5.237 -7.611 9
      vertex 3.197 -6.604 9
      vertex 5.237 -7.611 0
    endloop
  endfacet
  facet normal -0.398742 -0.917063 0
    outer loop
      vertex 5.237 -7.611 9
      vertex 5.237 -7.611 0
      vertex 7.323 -8.518 0
    endloop
  endfacet
  facet normal -0.398742 -0.917063 0
    outer loop
      vertex 7.323 -8.518 9
      vertex 5.237 -7.611 9
      vertex 7.323 -8.518 0
    endloop
  endfacet
  facet normal -0.35358 -0.935404 0
    outer loop
      vertex 7.323 -8.518 9
      vertex 7.323 -8.518 0
      vertex 9.45 -9.322 0
    endloop
  endfacet
  facet normal -0.35358 -0.935404 0
    outer loop
      vertex 9.45 -9.322 9
      vertex 7.323 -8.518 9
      vertex 9.45 -9.322 0
    endloop
  endfacet
  facet normal -1 0 0
    outer loop
      vertex 9.45 -11.27 0
      vertex 9.45 -11.27 9
      vertex 9.45 -9.322 0
    endloop
  endfacet
  facet normal -1 0 0
    outer loop
      vertex 9.45 -9.322 0
      vertex 9.45 -11.27 9
      vertex 9.45 -9.322 9
    endloop
  endfacet
  facet normal 0 -1 0
    outer loop
      vertex 9.45 -11.27 9
      vertex 9.45 -11.27 0
      vertex 10.55 -11.27 0
    endloop
  endfacet
  facet normal 0 -1 0
    outer loop
      vertex 9.5 -11.27 8.99
      vertex 9.45 -11.27 9
      vertex 10.55 -11.27 0
    endloop
  endfacet
  facet normal 0 -1 0
    outer loop
      vertex 10.55 -11.27 9
      vertex 10.5 -11.27 9
      vertex 10.55 -11.27 0
    endloop
  endfacet
  facet normal 0 -1 0
    outer loop
      vertex 10.5 -11.27 9
      vertex 10.5 -11.27 8.99
      vertex 10.55 -11.27 0
    endloop
  endfacet
  facet normal 0 -1 0
    outer loop
      vertex 10.5 -11.27 8.99
      vertex 9.5 -11.27 8.99
      vertex 10.55 -11.27 0
    endloop
  endfacet
  facet normal 0 -1 0
    outer loop
      vertex 9.5 -11.27 8.99
      vertex 9.5 -11.27 9
      vertex 9.45 -11.27 9
    endloop
  endfacet
  facet normal 1 0 0
    outer loop
      vertex 10.55 -11.27 9
      vertex 10.55 -11.27 0
      vertex 10.55 -9.428 0
    endloop
  endfacet
  facet normal 1 0 0
    outer loop
      vertex 10.55 -9.428 9
      vertex 10.55 -11.27 9
      vertex 10.55 -9.428 0
    endloop
  endfacet
  facet normal 0.353567 -0.935409 0
    outer loop
      vertex 10.55 -9.428 9
      vertex 10.55 -9.428 0
      vertex 12.73 -8.604 0
    endloop
  endfacet
  facet normal 0.353567 -0.935409 0
    outer loop
      vertex 12.73 -8.604 9
      vertex 10.55 -9.428 9
      vertex 12.73 -8.604 0
    endloop
  endfacet
  facet normal 0.399558 -0.916708 0
    outer loop
      vertex 12.73 -8.604 9
      vertex 12.73 -8.604 0
      vertex 14.866 -7.673 0
    endloop
  endfacet
  facet normal 0.399558 -0.916708 0
    outer loop
      vertex 14.866 -7.673 9
      vertex 12.73 -8.604 9
      vertex 14.866 -7.673 0
    endloop
  endfacet
  facet normal 0.444121 -0.895967 0
    outer loop
      vertex 14.866 -7.673 9
      vertex 14.866 -7.673 0
      vertex 16.954 -6.638 0
    endloop
  endfacet
  facet normal 0.444121 -0.895967 0
    outer loop
      vertex 16.954 -6.638 9
      vertex 14.866 -7.673 9
      vertex 16.954 -6.638 0
    endloop
  endfacet
  facet normal 0.488264 -0.872696 0
    outer loop
      vertex 16.954 -6.638 9
      vertex 16.954 -6.638 0
      vertex 18.988 -5.5 0
    endloop
  endfacet
  facet normal 0.488264 -0.872696 0
    outer loop
      vertex 18.988 -5.5 9
      vertex 16.954 -6.638 9
      vertex 18.988 -5.5 0
    endloop
  endfacet
  facet normal 1 0 0
    outer loop
      vertex 10.5 -16.797 8.99
      vertex 10.5 -16.797 0
      vertex 10.5 -13.327 0
    endloop
  endfacet
  facet normal 1 0 0
    outer loop
      vertex 10.5 -11.27 9
      vertex 10.5 -16.797 8.99
      vertex 10.5 -13.327 8.99
    endloop
  endfacet
  facet normal 1 0 0
    outer loop
      vertex 10.5 -13.327 8.99
      vertex 10.5 -16.797 8.99
      vertex 10.5 -13.327 0
    endloop
  endfacet
  facet normal 1 0 0
    outer loop
      vertex 10.5 -11.27 9
      vertex 10.5 -13.327 8.99
      vertex 10.5 -11.27 8.99
    endloop
  endfacet
  facet normal 1 0 0
    outer loop
      vertex 10.5 -9.446 16.99
      vertex 10.5 -16.797 8.99
      vertex 10.5 -11.27 9
    endloop
  endfacet
  facet normal 1 0 0
    outer loop
      vertex 10.5 -9.446 16.99
      vertex 10.5 -11.27 9
      vertex 10.5 -9.446 9
    endloop
  endfacet
  facet normal 1 0 0
    outer loop
      vertex 10.5 -16.797 16.99
      vertex 10.5 -16.797 8.99
      vertex 10.5 -9.446 16.99
    endloop
  endfacet
  facet normal 0.105409 0.994429 0
    outer loop
      vertex 9.5 -9.34 9
      vertex 9.5 -9.34 16.99
      vertex 10.5 -9.446 9
    endloop
  endfacet
  facet normal 0.105409 0.994429 0
    outer loop
      vertex 10.5 -9.446 9
      vertex 9.5 -9.34 16.99
      vertex 10.5 -9.446 16.99
    endloop
  endfacet
  facet normal -1 0 0
    outer loop
      vertex 9.5 -16.797 9
      vertex 9.5 -16.797 16.99
      vertex 9.5 -13.3428 9
    endloop
  endfacet
  facet normal -1 0 0
    outer loop
      vertex 9.5 -13.3428 9
      vertex 9.5 -16.797 16.99
      vertex 9.5 -9.34 16.99
    endloop
  endfacet
  facet normal -1 0 0
    outer loop
      vertex 9.5 -11.27 9
      vertex 9.5 -9.34 16.99
      vertex 9.5 -9.34 9
    endloop
  endfacet
  facet normal -1 0 0
    outer loop
      vertex 9.5 -13.3428 9
      vertex 9.5 -9.34 16.99
      vertex 9.5 -11.27 9
    endloop
  endfacet
  facet normal -1 0 0
    outer loop
      vertex 9.5 -11.27 9
      vertex 9.5 -11.27 8.99
      vertex 9.5 -13.3428 9
    endloop
  endfacet
  facet normal -1 0 0
    outer loop
      vertex 9.5 -13.3428 9
      vertex 9.5 -11.27 8.99
      vertex 9.5 -13.3428 8.99
    endloop
  endfacet
  facet normal 0 0 -1
    outer loop
      vertex 9.5 -13.3428 8.99
      vertex 9.5 -11.27 8.99
      vertex 9.975 -13.493 8.99
    endloop
  endfacet
  facet normal 0 0 -1
    outer loop
      vertex 9.975 -13.493 8.99
      vertex 9.5 -11.27 8.99
      vertex 10.5 -11.27 8.99
    endloop
  endfacet
  facet normal 0 0 -1
    outer loop
      vertex 9.975 -13.493 8.99
      vertex 10.5 -11.27 8.99
      vertex 10.5 -13.327 8.99
    endloop
  endfacet
  facet normal 0 0 -1
    outer loop
      vertex 10 -16.944 8.99
      vertex 9.5 -16.797 8.99
      vertex 10.5 -16.797 8.99
    endloop
  endfacet
  facet normal 0.282062 -0.959396 0
    outer loop
      vertex 10 -16.944 16.99
      vertex 10 -16.944 8.99
      vertex 10.5 -16.797 8.99
    endloop
  endfacet
  facet normal 0.282062 -0.959396 0
    outer loop
      vertex 10.5 -16.797 16.99
      vertex 10 -16.944 16.99
      vertex 10.5 -16.797 8.99
    endloop
  endfacet
  facet normal 0 -1 0
    outer loop
      vertex 9.45 -16.797 9
      vertex 9.45 -16.797 0
      vertex 10.5 -16.797 0
    endloop
  endfacet
  facet normal 0 -1 0
    outer loop
      vertex 9.5 -16.797 8.99
      vertex 9.45 -16.797 9
      vertex 10.5 -16.797 0
    endloop
  endfacet
  facet normal 0 -1 0
    outer loop
      vertex 10.5 -16.797 8.99
      vertex 9.5 -16.797 8.99
      vertex 10.5 -16.797 0
    endloop
  endfacet
  facet normal 0 -1 0
    outer loop
      vertex 9.5 -16.797 8.99
      vertex 9.5 -16.797 9
      vertex 9.45 -16.797 9
    endloop
  endfacet
  facet normal 0 0 1
    outer loop
      vertex 9.5 -9.34 16.99
      vertex 9.5 -16.797 16.99
      vertex 10 -16.944 16.99
    endloop
  endfacet
  facet normal 0 0 1
    outer loop
      vertex 10.5 -9.446 16.99
      vertex 9.5 -9.34 16.99
      vertex 10.5 -16.797 16.99
    endloop
  endfacet
  facet normal 0 0 1
    outer loop
      vertex 10.5 -16.797 16.99
      vertex 9.5 -9.34 16.99
      vertex 10 -16.944 16.99
    endloop
  endfacet
  facet normal -0.301479 0.953473 0
    outer loop
      vertex 9.975 -13.493 0
      vertex 9.975 -13.493 8.99
      vertex 10.5 -13.327 0
    endloop
  endfacet
  facet normal -0.301479 0.953473 0
    outer loop
      vertex 10.5 -13.327 0
      vertex 9.975 -13.493 8.99
      vertex 10.5 -13.327 8.99
    endloop
  endfacet
  facet normal 0 0 -1
    outer loop
      vertex 9.45 -16.797 0
      vertex 9.45 -13.327 0
      vertex 10.5 -16.797 0
    endloop
  endfacet
  facet normal 0 0 -1
    outer loop
      vertex 10.5 -16.797 0
      vertex 9.45 -13.327 0
      vertex 9.975 -13.493 0
    endloop
  endfacet
  facet normal 0 0 -1
    outer loop
      vertex 10.5 -16.797 0
      vertex 9.975 -13.493 0
      vertex 10.5 -13.327 0
    endloop
  endfacet
  facet normal 0 0 1
    outer loop
      vertex 9.45 -13.327 9
      vertex 9.45 -16.797 9
      vertex 9.5 -16.797 9
    endloop
  endfacet
  facet normal 0 0 1
    outer loop
      vertex 9.5 -13.3428 9
      vertex 9.45 -13.327 9
      vertex 9.5 -16.797 9
    endloop
  endfacet
  facet normal 0.301479 0.953473 0
    outer loop
      vertex 9.45 -13.327 0
      vertex 9.45 -13.327 9
      vertex 9.975 -13.493 0
    endloop
  endfacet
  facet normal 0.301479 0.953473 0
    outer loop
      vertex 9.5 -13.3428 8.99
      vertex 9.45 -13.327 9
      vertex 9.5 -13.3428 9
    endloop
  endfacet
  facet normal 0.301479 0.953473 0
    outer loop
      vertex 9.975 -13.493 0
      vertex 9.45 -13.327 9
      vertex 9.5 -13.3428 8.99
    endloop
  endfacet
  facet normal 0.301479 0.953473 0
    outer loop
      vertex 9.975 -13.493 8.99
      vertex 9.975 -13.493 0
      vertex 9.5 -13.3428 8.99
    endloop
  endfacet
  facet normal -0.282062 -0.959396 0
    outer loop
      vertex 9.5 -16.797 9
      vertex 9.5 -16.797 8.99
      vertex 10 -16.944 8.99
    endloop
  endfacet
  facet normal -0.282062 -0.959396 0
    outer loop
      vertex 9.5 -16.797 16.99
      vertex 9.5 -16.797 9
      vertex 10 -16.944 16.99
    endloop
  endfacet
  facet normal -0.282062 -0.959396 0
    outer loop
      vertex 10 -16.944 16.99
      vertex 9.5 -16.797 9
      vertex 10 -16.944 8.99
    endloop
  endfacet
  facet normal -1 0 0
    outer loop
      vertex 9.45 -16.797 0
      vertex 9.45 -16.797 9
      vertex 9.45 -13.327 0
    endloop
  endfacet
  facet normal -1 0 0
    outer loop
      vertex 9.45 -13.327 0
      vertex 9.45 -16.797 9
      vertex 9.45 -13.327 9
    endloop
  endfacet
endsolid OpenSCAD_Model
