solid OpenSCAD_Model
  facet normal -1 0 0
    outer loop
      vertex 0 0 0
      vertex 0 0 2
      vertex 0 6.5 0
    endloop
  endfacet
  facet normal -1 0 0
    outer loop
      vertex 0 6.5 0
      vertex 0 0 2
      vertex 0 6.5 2
    endloop
  endfacet
  facet normal 0 -1 0
    outer loop
      vertex 0 0 2
      vertex 0 0 0
      vertex 24.6 0 0
    endloop
  endfacet
  facet normal 0 -1 0
    outer loop
      vertex 13.15 0 2
      vertex 11.65 0 2
      vertex 24.6 0 0
    endloop
  endfacet
  facet normal 0 -1 0
    outer loop
      vertex 15.15 0 2
      vertex 13.15 0 2
      vertex 24.6 0 0
    endloop
  endfacet
  facet normal 0 -1 0
    outer loop
      vertex 24.6 0 2
      vertex 15.15 0 2
      vertex 24.6 0 0
    endloop
  endfacet
  facet normal 0 -1 0
    outer loop
      vertex 15.15 0 16.99
      vertex 13.15 0 2
      vertex 15.15 0 2
    endloop
  endfacet
  facet normal 0 -1 0
    outer loop
      vertex 11.65 0 2
      vertex 9.65 0 2
      vertex 24.6 0 0
    endloop
  endfacet
  facet normal 0 -1 0
    outer loop
      vertex 9.65 0 2
      vertex 0 0 2
      vertex 24.6 0 0
    endloop
  endfacet
  facet normal 0 -1 0
    outer loop
      vertex 11.65 0 2
      vertex 11.65 0 16.99
      vertex 9.65 0 2
    endloop
  endfacet
  facet normal 0 -1 0
    outer loop
      vertex 9.65 0 16.99
      vertex 9.65 0 2
      vertex 11.65 0 16.99
    endloop
  endfacet
  facet normal 0 -1 0
    outer loop
      vertex 13.15 0 16.99
      vertex 13.15 0 2
      vertex 15.15 0 16.99
    endloop
  endfacet
  facet normal 0 0 -1
    outer loop
      vertex 3.60374 4.51649 0
      vertex 0 6.5 0
      vertex 24.6 0 0
    endloop
  endfacet
  facet normal 0 0 -1
    outer loop
      vertex 21.8942 4.74704 0
      vertex 0 6.5 0
      vertex 24.6 6.5 0
    endloop
  endfacet
  facet normal 0 0 -1
    outer loop
      vertex 0 0 0
      vertex 0 6.5 0
      vertex 1.3 3.25 0
    endloop
  endfacet
  facet normal 0 0 -1
    outer loop
      vertex 0 0 0
      vertex 1.3 3.25 0
      vertex 1.31183 3.062 0
    endloop
  endfacet
  facet normal 0 0 -1
    outer loop
      vertex 0 0 0
      vertex 1.31183 3.062 0
      vertex 1.34712 2.87696 0
    endloop
  endfacet
  facet normal 0 0 -1
    outer loop
      vertex 0 0 0
      vertex 1.34712 2.87696 0
      vertex 1.40533 2.69781 0
    endloop
  endfacet
  facet normal 0 0 -1
    outer loop
      vertex 0 0 0
      vertex 1.40533 2.69781 0
      vertex 1.48554 2.52737 0
    endloop
  endfacet
  facet normal 0 0 -1
    outer loop
      vertex 0 0 0
      vertex 1.48554 2.52737 0
      vertex 1.58647 2.36832 0
    endloop
  endfacet
  facet normal 0 0 -1
    outer loop
      vertex 0 0 0
      vertex 1.58647 2.36832 0
      vertex 1.70655 2.22318 0
    endloop
  endfacet
  facet normal 0 0 -1
    outer loop
      vertex 0 0 0
      vertex 1.70655 2.22318 0
      vertex 1.84386 2.09423 0
    endloop
  endfacet
  facet normal 0 0 -1
    outer loop
      vertex 0 0 0
      vertex 1.84386 2.09423 0
      vertex 1.99626 1.98351 0
    endloop
  endfacet
  facet normal 0 0 -1
    outer loop
      vertex 0 0 0
      vertex 1.99626 1.98351 0
      vertex 2.16133 1.89276 0
    endloop
  endfacet
  facet normal 0 0 -1
    outer loop
      vertex 0 0 0
      vertex 2.16133 1.89276 0
      vertex 2.33647 1.82342 0
    endloop
  endfacet
  facet normal 0 0 -1
    outer loop
      vertex 0 0 0
      vertex 2.33647 1.82342 0
      vertex 2.51893 1.77657 0
    endloop
  endfacet
  facet normal 0 0 -1
    outer loop
      vertex 0 0 0
      vertex 2.51893 1.77657 0
      vertex 2.70581 1.75296 0
    endloop
  endfacet
  facet normal 0 0 -1
    outer loop
      vertex 0 0 0
      vertex 2.70581 1.75296 0
      vertex 24.6 0 0
    endloop
  endfacet
  facet normal 0 0 -1
    outer loop
      vertex 3.08107 1.77657 0
      vertex 24.6 0 0
      vertex 2.89419 1.75296 0
    endloop
  endfacet
  facet normal 0 0 -1
    outer loop
      vertex 3.26352 1.82342 0
      vertex 24.6 0 0
      vertex 3.08107 1.77657 0
    endloop
  endfacet
  facet normal 0 0 -1
    outer loop
      vertex 3.43867 1.89276 0
      vertex 24.6 0 0
      vertex 3.26352 1.82342 0
    endloop
  endfacet
  facet normal 0 0 -1
    outer loop
      vertex 3.60374 1.98351 0
      vertex 24.6 0 0
      vertex 3.43867 1.89276 0
    endloop
  endfacet
  facet normal 0 0 -1
    outer loop
      vertex 3.75614 2.09423 0
      vertex 24.6 0 0
      vertex 3.60374 1.98351 0
    endloop
  endfacet
  facet normal 0 0 -1
    outer loop
      vertex 3.89345 2.22318 0
      vertex 24.6 0 0
      vertex 3.75614 2.09423 0
    endloop
  endfacet
  facet normal 0 0 -1
    outer loop
      vertex 4.01352 2.36832 0
      vertex 24.6 0 0
      vertex 3.89345 2.22318 0
    endloop
  endfacet
  facet normal 0 0 -1
    outer loop
      vertex 4.11446 2.52737 0
      vertex 24.6 0 0
      vertex 4.01352 2.36832 0
    endloop
  endfacet
  facet normal 0 0 -1
    outer loop
      vertex 4.19466 2.69781 0
      vertex 24.6 0 0
      vertex 4.11446 2.52737 0
    endloop
  endfacet
  facet normal 0 0 -1
    outer loop
      vertex 4.25287 2.87696 0
      vertex 24.6 0 0
      vertex 4.19466 2.69781 0
    endloop
  endfacet
  facet normal 0 0 -1
    outer loop
      vertex 21.3365 1.82342 0
      vertex 24.6 0 0
      vertex 21.1613 1.89276 0
    endloop
  endfacet
  facet normal 0 0 -1
    outer loop
      vertex 3.26352 4.67658 0
      vertex 0 6.5 0
      vertex 3.43867 4.60724 0
    endloop
  endfacet
  facet normal 0 0 -1
    outer loop
      vertex 4.25287 2.87696 0
      vertex 4.28817 3.062 0
      vertex 24.6 0 0
    endloop
  endfacet
  facet normal 0 0 -1
    outer loop
      vertex 2.16133 4.60724 0
      vertex 0 6.5 0
      vertex 2.33647 4.67658 0
    endloop
  endfacet
  facet normal 0 0 -1
    outer loop
      vertex 4.28817 3.062 0
      vertex 4.3 3.25 0
      vertex 24.6 0 0
    endloop
  endfacet
  facet normal 0 0 -1
    outer loop
      vertex 4.3 3.25 0
      vertex 4.28817 3.438 0
      vertex 24.6 0 0
    endloop
  endfacet
  facet normal 0 0 -1
    outer loop
      vertex 2.33647 4.67658 0
      vertex 0 6.5 0
      vertex 2.51893 4.72343 0
    endloop
  endfacet
  facet normal 0 0 -1
    outer loop
      vertex 4.28817 3.438 0
      vertex 4.25287 3.62303 0
      vertex 24.6 0 0
    endloop
  endfacet
  facet normal 0 0 -1
    outer loop
      vertex 2.51893 4.72343 0
      vertex 0 6.5 0
      vertex 2.70581 4.74704 0
    endloop
  endfacet
  facet normal 0 0 -1
    outer loop
      vertex 4.25287 3.62303 0
      vertex 4.19466 3.80219 0
      vertex 24.6 0 0
    endloop
  endfacet
  facet normal 0 0 -1
    outer loop
      vertex 4.19466 3.80219 0
      vertex 4.11446 3.97263 0
      vertex 24.6 0 0
    endloop
  endfacet
  facet normal 0 0 -1
    outer loop
      vertex 2.70581 4.74704 0
      vertex 0 6.5 0
      vertex 2.89419 4.74704 0
    endloop
  endfacet
  facet normal 0 0 -1
    outer loop
      vertex 4.11446 3.97263 0
      vertex 4.01352 4.13168 0
      vertex 24.6 0 0
    endloop
  endfacet
  facet normal 0 0 -1
    outer loop
      vertex 2.89419 4.74704 0
      vertex 0 6.5 0
      vertex 3.08107 4.72343 0
    endloop
  endfacet
  facet normal 0 0 -1
    outer loop
      vertex 4.01352 4.13168 0
      vertex 3.89345 4.27682 0
      vertex 24.6 0 0
    endloop
  endfacet
  facet normal 0 0 -1
    outer loop
      vertex 3.08107 4.72343 0
      vertex 0 6.5 0
      vertex 3.26352 4.67658 0
    endloop
  endfacet
  facet normal 0 0 -1
    outer loop
      vertex 3.89345 4.27682 0
      vertex 3.75614 4.40577 0
      vertex 24.6 0 0
    endloop
  endfacet
  facet normal 0 0 -1
    outer loop
      vertex 3.43867 4.60724 0
      vertex 0 6.5 0
      vertex 3.60374 4.51649 0
    endloop
  endfacet
  facet normal 0 0 -1
    outer loop
      vertex 3.75614 4.40577 0
      vertex 3.60374 4.51649 0
      vertex 24.6 0 0
    endloop
  endfacet
  facet normal 0 0 -1
    outer loop
      vertex 1.99626 4.51649 0
      vertex 0 6.5 0
      vertex 2.16133 4.60724 0
    endloop
  endfacet
  facet normal 0 0 -1
    outer loop
      vertex 1.84386 4.40577 0
      vertex 0 6.5 0
      vertex 1.99626 4.51649 0
    endloop
  endfacet
  facet normal 0 0 -1
    outer loop
      vertex 1.70655 4.27682 0
      vertex 0 6.5 0
      vertex 1.84386 4.40577 0
    endloop
  endfacet
  facet normal 0 0 -1
    outer loop
      vertex 1.58647 4.13168 0
      vertex 0 6.5 0
      vertex 1.70655 4.27682 0
    endloop
  endfacet
  facet normal 0 0 -1
    outer loop
      vertex 1.48554 3.97263 0
      vertex 0 6.5 0
      vertex 1.58647 4.13168 0
    endloop
  endfacet
  facet normal 0 0 -1
    outer loop
      vertex 1.40533 3.80219 0
      vertex 0 6.5 0
      vertex 1.48554 3.97263 0
    endloop
  endfacet
  facet normal 0 0 -1
    outer loop
      vertex 1.34712 3.62303 0
      vertex 0 6.5 0
      vertex 1.40533 3.80219 0
    endloop
  endfacet
  facet normal 0 0 -1
    outer loop
      vertex 1.31183 3.438 0
      vertex 0 6.5 0
      vertex 1.34712 3.62303 0
    endloop
  endfacet
  facet normal 0 0 -1
    outer loop
      vertex 1.3 3.25 0
      vertex 0 6.5 0
      vertex 1.31183 3.438 0
    endloop
  endfacet
  facet normal 0 0 -1
    outer loop
      vertex 20.3118 3.062 0
      vertex 0 6.5 0
      vertex 20.3 3.25 0
    endloop
  endfacet
  facet normal 0 0 -1
    outer loop
      vertex 20.3471 2.87696 0
      vertex 0 6.5 0
      vertex 20.3118 3.062 0
    endloop
  endfacet
  facet normal 0 0 -1
    outer loop
      vertex 20.4053 2.69781 0
      vertex 0 6.5 0
      vertex 20.3471 2.87696 0
    endloop
  endfacet
  facet normal 0 0 -1
    outer loop
      vertex 20.4855 2.52737 0
      vertex 0 6.5 0
      vertex 20.4053 2.69781 0
    endloop
  endfacet
  facet normal 0 0 -1
    outer loop
      vertex 20.5865 2.36832 0
      vertex 0 6.5 0
      vertex 20.4855 2.52737 0
    endloop
  endfacet
  facet normal 0 0 -1
    outer loop
      vertex 20.7065 2.22318 0
      vertex 0 6.5 0
      vertex 20.5865 2.36832 0
    endloop
  endfacet
  facet normal 0 0 -1
    outer loop
      vertex 20.8439 2.09423 0
      vertex 0 6.5 0
      vertex 20.7065 2.22318 0
    endloop
  endfacet
  facet normal 0 0 -1
    outer loop
      vertex 20.9963 1.98351 0
      vertex 0 6.5 0
      vertex 20.8439 2.09423 0
    endloop
  endfacet
  facet normal 0 0 -1
    outer loop
      vertex 24.6 0 0
      vertex 0 6.5 0
      vertex 20.9963 1.98351 0
    endloop
  endfacet
  facet normal 0 0 -1
    outer loop
      vertex 24.6 0 0
      vertex 20.9963 1.98351 0
      vertex 21.1613 1.89276 0
    endloop
  endfacet
  facet normal 0 0 -1
    outer loop
      vertex 21.5189 1.77657 0
      vertex 24.6 0 0
      vertex 21.3365 1.82342 0
    endloop
  endfacet
  facet normal 0 0 -1
    outer loop
      vertex 21.7058 1.75296 0
      vertex 24.6 0 0
      vertex 21.5189 1.77657 0
    endloop
  endfacet
  facet normal 0 0 -1
    outer loop
      vertex 21.8942 1.75296 0
      vertex 24.6 0 0
      vertex 21.7058 1.75296 0
    endloop
  endfacet
  facet normal 0 0 -1
    outer loop
      vertex 22.0811 1.77657 0
      vertex 24.6 0 0
      vertex 21.8942 1.75296 0
    endloop
  endfacet
  facet normal 0 0 -1
    outer loop
      vertex 22.2635 1.82342 0
      vertex 24.6 0 0
      vertex 22.0811 1.77657 0
    endloop
  endfacet
  facet normal 0 0 -1
    outer loop
      vertex 23.2882 3.062 0
      vertex 24.6 6.5 0
      vertex 23.2529 2.87696 0
    endloop
  endfacet
  facet normal 0 0 -1
    outer loop
      vertex 24.6 0 0
      vertex 22.2635 1.82342 0
      vertex 22.4387 1.89276 0
    endloop
  endfacet
  facet normal 0 0 -1
    outer loop
      vertex 24.6 0 0
      vertex 22.4387 1.89276 0
      vertex 22.6037 1.98351 0
    endloop
  endfacet
  facet normal 0 0 -1
    outer loop
      vertex 24.6 0 0
      vertex 22.6037 1.98351 0
      vertex 22.7561 2.09423 0
    endloop
  endfacet
  facet normal 0 0 -1
    outer loop
      vertex 24.6 0 0
      vertex 22.7561 2.09423 0
      vertex 22.8935 2.22318 0
    endloop
  endfacet
  facet normal 0 0 -1
    outer loop
      vertex 24.6 0 0
      vertex 22.8935 2.22318 0
      vertex 23.0135 2.36832 0
    endloop
  endfacet
  facet normal 0 0 -1
    outer loop
      vertex 24.6 0 0
      vertex 23.0135 2.36832 0
      vertex 23.1145 2.52737 0
    endloop
  endfacet
  facet normal 0 0 -1
    outer loop
      vertex 24.6 0 0
      vertex 23.1145 2.52737 0
      vertex 23.1947 2.69781 0
    endloop
  endfacet
  facet normal 0 0 -1
    outer loop
      vertex 24.6 0 0
      vertex 23.1947 2.69781 0
      vertex 24.6 6.5 0
    endloop
  endfacet
  facet normal 0 0 -1
    outer loop
      vertex 23.1947 2.69781 0
      vertex 23.2529 2.87696 0
      vertex 24.6 6.5 0
    endloop
  endfacet
  facet normal 0 0 -1
    outer loop
      vertex 23.3 3.25 0
      vertex 24.6 6.5 0
      vertex 23.2882 3.062 0
    endloop
  endfacet
  facet normal 0 0 -1
    outer loop
      vertex 23.2882 3.438 0
      vertex 24.6 6.5 0
      vertex 23.3 3.25 0
    endloop
  endfacet
  facet normal 0 0 -1
    outer loop
      vertex 23.2529 3.62303 0
      vertex 24.6 6.5 0
      vertex 23.2882 3.438 0
    endloop
  endfacet
  facet normal 0 0 -1
    outer loop
      vertex 23.1947 3.80219 0
      vertex 24.6 6.5 0
      vertex 23.2529 3.62303 0
    endloop
  endfacet
  facet normal 0 0 -1
    outer loop
      vertex 22.0811 4.72343 0
      vertex 24.6 6.5 0
      vertex 22.2635 4.67658 0
    endloop
  endfacet
  facet normal 0 0 -1
    outer loop
      vertex 23.1947 3.80219 0
      vertex 23.1145 3.97263 0
      vertex 24.6 6.5 0
    endloop
  endfacet
  facet normal 0 0 -1
    outer loop
      vertex 23.1145 3.97263 0
      vertex 23.0135 4.13168 0
      vertex 24.6 6.5 0
    endloop
  endfacet
  facet normal 0 0 -1
    outer loop
      vertex 23.0135 4.13168 0
      vertex 22.8935 4.27682 0
      vertex 24.6 6.5 0
    endloop
  endfacet
  facet normal 0 0 -1
    outer loop
      vertex 22.8935 4.27682 0
      vertex 22.7561 4.40577 0
      vertex 24.6 6.5 0
    endloop
  endfacet
  facet normal 0 0 -1
    outer loop
      vertex 22.7561 4.40577 0
      vertex 22.6037 4.51649 0
      vertex 24.6 6.5 0
    endloop
  endfacet
  facet normal 0 0 -1
    outer loop
      vertex 22.6037 4.51649 0
      vertex 22.4387 4.60724 0
      vertex 24.6 6.5 0
    endloop
  endfacet
  facet normal 0 0 -1
    outer loop
      vertex 22.4387 4.60724 0
      vertex 22.2635 4.67658 0
      vertex 24.6 6.5 0
    endloop
  endfacet
  facet normal 0 0 -1
    outer loop
      vertex 21.7058 4.74704 0
      vertex 0 6.5 0
      vertex 21.8942 4.74704 0
    endloop
  endfacet
  facet normal 0 0 -1
    outer loop
      vertex 22.0811 4.72343 0
      vertex 21.8942 4.74704 0
      vertex 24.6 6.5 0
    endloop
  endfacet
  facet normal 0 0 -1
    outer loop
      vertex 21.5189 4.72343 0
      vertex 0 6.5 0
      vertex 21.7058 4.74704 0
    endloop
  endfacet
  facet normal 0 0 -1
    outer loop
      vertex 21.3365 4.67658 0
      vertex 0 6.5 0
      vertex 21.5189 4.72343 0
    endloop
  endfacet
  facet normal 0 0 -1
    outer loop
      vertex 21.1613 4.60724 0
      vertex 0 6.5 0
      vertex 21.3365 4.67658 0
    endloop
  endfacet
  facet normal 0 0 -1
    outer loop
      vertex 20.9963 4.51649 0
      vertex 0 6.5 0
      vertex 21.1613 4.60724 0
    endloop
  endfacet
  facet normal 0 0 -1
    outer loop
      vertex 20.8439 4.40577 0
      vertex 0 6.5 0
      vertex 20.9963 4.51649 0
    endloop
  endfacet
  facet normal 0 0 -1
    outer loop
      vertex 20.7065 4.27682 0
      vertex 0 6.5 0
      vertex 20.8439 4.40577 0
    endloop
  endfacet
  facet normal 0 0 -1
    outer loop
      vertex 20.5865 4.13168 0
      vertex 0 6.5 0
      vertex 20.7065 4.27682 0
    endloop
  endfacet
  facet normal 0 0 -1
    outer loop
      vertex 20.4855 3.97263 0
      vertex 0 6.5 0
      vertex 20.5865 4.13168 0
    endloop
  endfacet
  facet normal 0 0 -1
    outer loop
      vertex 20.4053 3.80219 0
      vertex 0 6.5 0
      vertex 20.4855 3.97263 0
    endloop
  endfacet
  facet normal 0 0 -1
    outer loop
      vertex 20.3471 3.62303 0
      vertex 0 6.5 0
      vertex 20.4053 3.80219 0
    endloop
  endfacet
  facet normal 0 0 -1
    outer loop
      vertex 20.3118 3.438 0
      vertex 0 6.5 0
      vertex 20.3471 3.62303 0
    endloop
  endfacet
  facet normal 0 0 -1
    outer loop
      vertex 20.3 3.25 0
      vertex 0 6.5 0
      vertex 20.3118 3.438 0
    endloop
  endfacet
  facet normal 0 0 -1
    outer loop
      vertex 2.89419 1.75296 0
      vertex 24.6 0 0
      vertex 2.70581 1.75296 0
    endloop
  endfacet
  facet normal 0 1 0
    outer loop
      vertex 0 6.5 0
      vertex 0 6.5 2
      vertex 24.6 6.5 0
    endloop
  endfacet
  facet normal 0 1 0
    outer loop
      vertex 24.6 6.5 0
      vertex 0 6.5 2
      vertex 9.65 6.5 2
    endloop
  endfacet
  facet normal 0 1 0
    outer loop
      vertex 11.65 6.5 2
      vertex 9.65 6.5 2
      vertex 9.65 6.5 16.99
    endloop
  endfacet
  facet normal 0 1 0
    outer loop
      vertex 24.6 6.5 0
      vertex 9.65 6.5 2
      vertex 11.65 6.5 2
    endloop
  endfacet
  facet normal 0 1 0
    outer loop
      vertex 24.6 6.5 2
      vertex 24.6 6.5 0
      vertex 15.15 6.5 2
    endloop
  endfacet
  facet normal 0 1 0
    outer loop
      vertex 24.6 6.5 0
      vertex 11.65 6.5 2
      vertex 13.15 6.5 2
    endloop
  endfacet
  facet normal 0 1 0
    outer loop
      vertex 13.15 6.5 16.99
      vertex 15.15 6.5 2
      vertex 13.15 6.5 2
    endloop
  endfacet
  facet normal 0 1 0
    outer loop
      vertex 15.15 6.5 2
      vertex 13.15 6.5 16.99
      vertex 15.15 6.5 16.99
    endloop
  endfacet
  facet normal 0 1 0
    outer loop
      vertex 24.6 6.5 0
      vertex 13.15 6.5 2
      vertex 15.15 6.5 2
    endloop
  endfacet
  facet normal 0 1 0
    outer loop
      vertex 11.65 6.5 2
      vertex 9.65 6.5 16.99
      vertex 11.65 6.5 16.99
    endloop
  endfacet
  facet normal 0 0 1
    outer loop
      vertex 3.60374 1.98351 2
      vertex 0 0 2
      vertex 9.65 0 2
    endloop
  endfacet
  facet normal 0 0 1
    outer loop
      vertex 3.43867 1.89276 2
      vertex 3.26352 1.82342 2
      vertex 0 0 2
    endloop
  endfacet
  facet normal 0 0 1
    outer loop
      vertex 0 6.5 2
      vertex 0 0 2
      vertex 1.31183 3.062 2
    endloop
  endfacet
  facet normal 0 0 1
    outer loop
      vertex 3.89345 2.22318 2
      vertex 3.75614 2.09423 2
      vertex 9.65 0 2
    endloop
  endfacet
  facet normal 0 0 1
    outer loop
      vertex 0 6.5 2
      vertex 1.31183 3.062 2
      vertex 1.3 3.25 2
    endloop
  endfacet
  facet normal 0 0 1
    outer loop
      vertex 0 6.5 2
      vertex 1.3 3.25 2
      vertex 1.31183 3.438 2
    endloop
  endfacet
  facet normal 0 0 1
    outer loop
      vertex 0 6.5 2
      vertex 1.31183 3.438 2
      vertex 1.34712 3.62303 2
    endloop
  endfacet
  facet normal 0 0 1
    outer loop
      vertex 4.11446 2.52737 2
      vertex 4.01352 2.36832 2
      vertex 9.65 0 2
    endloop
  endfacet
  facet normal 0 0 1
    outer loop
      vertex 0 6.5 2
      vertex 1.34712 3.62303 2
      vertex 1.40533 3.80219 2
    endloop
  endfacet
  facet normal 0 0 1
    outer loop
      vertex 4.01352 2.36832 2
      vertex 3.89345 2.22318 2
      vertex 9.65 0 2
    endloop
  endfacet
  facet normal 0 0 1
    outer loop
      vertex 0 6.5 2
      vertex 1.40533 3.80219 2
      vertex 1.48554 3.97263 2
    endloop
  endfacet
  facet normal 0 0 1
    outer loop
      vertex 0 6.5 2
      vertex 1.48554 3.97263 2
      vertex 1.58647 4.13168 2
    endloop
  endfacet
  facet normal 0 0 1
    outer loop
      vertex 4.25287 2.87696 2
      vertex 4.19466 2.69781 2
      vertex 9.65 0 2
    endloop
  endfacet
  facet normal 0 0 1
    outer loop
      vertex 0 6.5 2
      vertex 1.58647 4.13168 2
      vertex 1.70655 4.27682 2
    endloop
  endfacet
  facet normal 0 0 1
    outer loop
      vertex 4.19466 2.69781 2
      vertex 4.11446 2.52737 2
      vertex 9.65 0 2
    endloop
  endfacet
  facet normal 0 0 1
    outer loop
      vertex 0 6.5 2
      vertex 1.70655 4.27682 2
      vertex 1.84386 4.40577 2
    endloop
  endfacet
  facet normal 0 0 1
    outer loop
      vertex 0 6.5 2
      vertex 1.84386 4.40577 2
      vertex 1.99626 4.51649 2
    endloop
  endfacet
  facet normal 0 0 1
    outer loop
      vertex 4.3 3.25 2
      vertex 4.28817 3.062 2
      vertex 9.65 0 2
    endloop
  endfacet
  facet normal 0 0 1
    outer loop
      vertex 0 6.5 2
      vertex 1.99626 4.51649 2
      vertex 2.16133 4.60724 2
    endloop
  endfacet
  facet normal 0 0 1
    outer loop
      vertex 4.28817 3.062 2
      vertex 4.25287 2.87696 2
      vertex 9.65 0 2
    endloop
  endfacet
  facet normal 0 0 1
    outer loop
      vertex 0 6.5 2
      vertex 2.16133 4.60724 2
      vertex 2.33647 4.67658 2
    endloop
  endfacet
  facet normal 0 0 1
    outer loop
      vertex 0 6.5 2
      vertex 2.33647 4.67658 2
      vertex 2.51893 4.72343 2
    endloop
  endfacet
  facet normal 0 0 1
    outer loop
      vertex 4.25287 3.62303 2
      vertex 4.28817 3.438 2
      vertex 9.65 0 2
    endloop
  endfacet
  facet normal 0 0 1
    outer loop
      vertex 9.65 6.5 2
      vertex 0 6.5 2
      vertex 2.70581 4.74704 2
    endloop
  endfacet
  facet normal 0 0 1
    outer loop
      vertex 4.19466 3.80219 2
      vertex 4.25287 3.62303 2
      vertex 9.65 0 2
    endloop
  endfacet
  facet normal 0 0 1
    outer loop
      vertex 9.65 6.5 2
      vertex 2.70581 4.74704 2
      vertex 2.89419 4.74704 2
    endloop
  endfacet
  facet normal 0 0 1
    outer loop
      vertex 4.11446 3.97263 2
      vertex 4.19466 3.80219 2
      vertex 9.65 0 2
    endloop
  endfacet
  facet normal 0 0 1
    outer loop
      vertex 9.65 6.5 2
      vertex 2.89419 4.74704 2
      vertex 3.08107 4.72343 2
    endloop
  endfacet
  facet normal 0 0 1
    outer loop
      vertex 4.28817 3.438 2
      vertex 4.3 3.25 2
      vertex 9.65 0 2
    endloop
  endfacet
  facet normal 0 0 1
    outer loop
      vertex 9.65 6.5 2
      vertex 3.08107 4.72343 2
      vertex 3.26352 4.67658 2
    endloop
  endfacet
  facet normal 0 0 1
    outer loop
      vertex 9.65 6.5 2
      vertex 3.26352 4.67658 2
      vertex 3.43867 4.60724 2
    endloop
  endfacet
  facet normal 0 0 1
    outer loop
      vertex 3.89345 4.27682 2
      vertex 4.01352 4.13168 2
      vertex 9.65 0 2
    endloop
  endfacet
  facet normal 0 0 1
    outer loop
      vertex 9.65 6.5 2
      vertex 3.43867 4.60724 2
      vertex 3.60374 4.51649 2
    endloop
  endfacet
  facet normal 0 0 1
    outer loop
      vertex 9.65 6.5 2
      vertex 3.75614 4.40577 2
      vertex 9.65 0 2
    endloop
  endfacet
  facet normal 0 0 1
    outer loop
      vertex 9.65 6.5 2
      vertex 3.60374 4.51649 2
      vertex 3.75614 4.40577 2
    endloop
  endfacet
  facet normal 0 0 1
    outer loop
      vertex 3.75614 4.40577 2
      vertex 3.89345 4.27682 2
      vertex 9.65 0 2
    endloop
  endfacet
  facet normal 0 0 1
    outer loop
      vertex 4.01352 4.13168 2
      vertex 4.11446 3.97263 2
      vertex 9.65 0 2
    endloop
  endfacet
  facet normal 0 0 1
    outer loop
      vertex 3.75614 2.09423 2
      vertex 3.60374 1.98351 2
      vertex 9.65 0 2
    endloop
  endfacet
  facet normal 0 0 1
    outer loop
      vertex 3.43867 1.89276 2
      vertex 0 0 2
      vertex 3.60374 1.98351 2
    endloop
  endfacet
  facet normal 0 0 1
    outer loop
      vertex 3.08107 1.77657 2
      vertex 0 0 2
      vertex 3.26352 1.82342 2
    endloop
  endfacet
  facet normal 0 0 1
    outer loop
      vertex 2.89419 1.75296 2
      vertex 0 0 2
      vertex 3.08107 1.77657 2
    endloop
  endfacet
  facet normal 0 0 1
    outer loop
      vertex 2.70581 1.75296 2
      vertex 0 0 2
      vertex 2.89419 1.75296 2
    endloop
  endfacet
  facet normal 0 0 1
    outer loop
      vertex 2.51893 1.77657 2
      vertex 0 0 2
      vertex 2.70581 1.75296 2
    endloop
  endfacet
  facet normal 0 0 1
    outer loop
      vertex 2.33647 1.82342 2
      vertex 0 0 2
      vertex 2.51893 1.77657 2
    endloop
  endfacet
  facet normal 0 0 1
    outer loop
      vertex 2.16133 1.89276 2
      vertex 0 0 2
      vertex 2.33647 1.82342 2
    endloop
  endfacet
  facet normal 0 0 1
    outer loop
      vertex 1.99626 1.98351 2
      vertex 0 0 2
      vertex 2.16133 1.89276 2
    endloop
  endfacet
  facet normal 0 0 1
    outer loop
      vertex 1.84386 2.09423 2
      vertex 0 0 2
      vertex 1.99626 1.98351 2
    endloop
  endfacet
  facet normal 0 0 1
    outer loop
      vertex 1.70655 2.22318 2
      vertex 0 0 2
      vertex 1.84386 2.09423 2
    endloop
  endfacet
  facet normal 0 0 1
    outer loop
      vertex 1.58647 2.36832 2
      vertex 0 0 2
      vertex 1.70655 2.22318 2
    endloop
  endfacet
  facet normal 0 0 1
    outer loop
      vertex 1.48554 2.52737 2
      vertex 0 0 2
      vertex 1.58647 2.36832 2
    endloop
  endfacet
  facet normal 0 0 1
    outer loop
      vertex 1.40533 2.69781 2
      vertex 0 0 2
      vertex 1.48554 2.52737 2
    endloop
  endfacet
  facet normal 0 0 1
    outer loop
      vertex 1.34712 2.87696 2
      vertex 0 0 2
      vertex 1.40533 2.69781 2
    endloop
  endfacet
  facet normal 0 0 1
    outer loop
      vertex 1.31183 3.062 2
      vertex 0 0 2
      vertex 1.34712 2.87696 2
    endloop
  endfacet
  facet normal 0 0 1
    outer loop
      vertex 2.51893 4.72343 2
      vertex 2.70581 4.74704 2
      vertex 0 6.5 2
    endloop
  endfacet
  facet normal -1 0 0
    outer loop
      vertex 9.65 0 2
      vertex 9.65 0 16.99
      vertex 9.65 6.5 2
    endloop
  endfacet
  facet normal -1 0 0
    outer loop
      vertex 9.65 6.5 2
      vertex 9.65 0 16.99
      vertex 9.65 6.5 16.99
    endloop
  endfacet
  facet normal 0 0 1
    outer loop
      vertex 9.65 6.5 16.99
      vertex 9.65 0 16.99
      vertex 11.65 0 16.99
    endloop
  endfacet
  facet normal 0 0 1
    outer loop
      vertex 11.65 6.5 16.99
      vertex 9.65 6.5 16.99
      vertex 11.65 0 16.99
    endloop
  endfacet
  facet normal 1 0 0
    outer loop
      vertex 11.65 0 16.99
      vertex 11.65 0 2
      vertex 11.65 6.5 2
    endloop
  endfacet
  facet normal 1 0 0
    outer loop
      vertex 11.65 6.5 16.99
      vertex 11.65 0 16.99
      vertex 11.65 6.5 2
    endloop
  endfacet
  facet normal 0 0 1
    outer loop
      vertex 11.65 6.5 2
      vertex 11.65 0 2
      vertex 13.15 0 2
    endloop
  endfacet
  facet normal 0 0 1
    outer loop
      vertex 13.15 6.5 2
      vertex 11.65 6.5 2
      vertex 13.15 0 2
    endloop
  endfacet
  facet normal -1 0 0
    outer loop
      vertex 13.15 0 2
      vertex 13.15 0 16.99
      vertex 13.15 6.5 2
    endloop
  endfacet
  facet normal -1 0 0
    outer loop
      vertex 13.15 6.5 2
      vertex 13.15 0 16.99
      vertex 13.15 6.5 16.99
    endloop
  endfacet
  facet normal 0 0 1
    outer loop
      vertex 13.15 6.5 16.99
      vertex 13.15 0 16.99
      vertex 15.15 0 16.99
    endloop
  endfacet
  facet normal 0 0 1
    outer loop
      vertex 15.15 6.5 16.99
      vertex 13.15 6.5 16.99
      vertex 15.15 0 16.99
    endloop
  endfacet
  facet normal 1 0 0
    outer loop
      vertex 15.15 0 16.99
      vertex 15.15 0 2
      vertex 15.15 6.5 2
    endloop
  endfacet
  facet normal 1 0 0
    outer loop
      vertex 15.15 6.5 16.99
      vertex 15.15 0 16.99
      vertex 15.15 6.5 2
    endloop
  endfacet
  facet normal 0 0 1
    outer loop
      vertex 21.8942 1.75296 2
      vertex 15.15 0 2
      vertex 24.6 0 2
    endloop
  endfacet
  facet normal 0 0 1
    outer loop
      vertex 21.1613 4.60724 2
      vertex 21.3365 4.67658 2
      vertex 24.6 6.5 2
    endloop
  endfacet
  facet normal 0 0 1
    outer loop
      vertex 22.0811 1.77657 2
      vertex 21.8942 1.75296 2
      vertex 24.6 0 2
    endloop
  endfacet
  facet normal 0 0 1
    outer loop
      vertex 20.3 3.25 2
      vertex 15.15 6.5 2
      vertex 20.3118 3.062 2
    endloop
  endfacet
  facet normal 0 0 1
    outer loop
      vertex 20.3118 3.438 2
      vertex 15.15 6.5 2
      vertex 20.3 3.25 2
    endloop
  endfacet
  facet normal 0 0 1
    outer loop
      vertex 22.2635 4.67658 2
      vertex 22.4387 4.60724 2
      vertex 24.6 6.5 2
    endloop
  endfacet
  facet normal 0 0 1
    outer loop
      vertex 20.3471 3.62303 2
      vertex 15.15 6.5 2
      vertex 20.3118 3.438 2
    endloop
  endfacet
  facet normal 0 0 1
    outer loop
      vertex 20.4053 3.80219 2
      vertex 15.15 6.5 2
      vertex 20.3471 3.62303 2
    endloop
  endfacet
  facet normal 0 0 1
    outer loop
      vertex 20.4855 3.97263 2
      vertex 15.15 6.5 2
      vertex 20.4053 3.80219 2
    endloop
  endfacet
  facet normal 0 0 1
    outer loop
      vertex 21.8942 4.74704 2
      vertex 22.0811 4.72343 2
      vertex 24.6 6.5 2
    endloop
  endfacet
  facet normal 0 0 1
    outer loop
      vertex 20.5865 4.13168 2
      vertex 15.15 6.5 2
      vertex 20.4855 3.97263 2
    endloop
  endfacet
  facet normal 0 0 1
    outer loop
      vertex 20.7065 4.27682 2
      vertex 15.15 6.5 2
      vertex 20.5865 4.13168 2
    endloop
  endfacet
  facet normal 0 0 1
    outer loop
      vertex 20.8439 4.40577 2
      vertex 15.15 6.5 2
      vertex 20.7065 4.27682 2
    endloop
  endfacet
  facet normal 0 0 1
    outer loop
      vertex 20.9963 4.51649 2
      vertex 15.15 6.5 2
      vertex 20.8439 4.40577 2
    endloop
  endfacet
  facet normal 0 0 1
    outer loop
      vertex 24.6 6.5 2
      vertex 15.15 6.5 2
      vertex 20.9963 4.51649 2
    endloop
  endfacet
  facet normal 0 0 1
    outer loop
      vertex 21.3365 4.67658 2
      vertex 21.5189 4.72343 2
      vertex 24.6 6.5 2
    endloop
  endfacet
  facet normal 0 0 1
    outer loop
      vertex 24.6 6.5 2
      vertex 20.9963 4.51649 2
      vertex 21.1613 4.60724 2
    endloop
  endfacet
  facet normal 0 0 1
    outer loop
      vertex 21.5189 4.72343 2
      vertex 21.7058 4.74704 2
      vertex 24.6 6.5 2
    endloop
  endfacet
  facet normal 0 0 1
    outer loop
      vertex 22.0811 4.72343 2
      vertex 22.2635 4.67658 2
      vertex 24.6 6.5 2
    endloop
  endfacet
  facet normal 0 0 1
    outer loop
      vertex 23.2882 3.438 2
      vertex 23.3 3.25 2
      vertex 24.6 0 2
    endloop
  endfacet
  facet normal 0 0 1
    outer loop
      vertex 23.2529 3.62303 2
      vertex 23.2882 3.438 2
      vertex 24.6 0 2
    endloop
  endfacet
  facet normal 0 0 1
    outer loop
      vertex 22.2635 1.82342 2
      vertex 22.0811 1.77657 2
      vertex 24.6 0 2
    endloop
  endfacet
  facet normal 0 0 1
    outer loop
      vertex 23.2529 2.87696 2
      vertex 23.1947 2.69781 2
      vertex 24.6 0 2
    endloop
  endfacet
  facet normal 0 0 1
    outer loop
      vertex 24.6 6.5 2
      vertex 22.4387 4.60724 2
      vertex 22.6037 4.51649 2
    endloop
  endfacet
  facet normal 0 0 1
    outer loop
      vertex 23.2882 3.062 2
      vertex 23.2529 2.87696 2
      vertex 24.6 0 2
    endloop
  endfacet
  facet normal 0 0 1
    outer loop
      vertex 24.6 6.5 2
      vertex 22.6037 4.51649 2
      vertex 22.7561 4.40577 2
    endloop
  endfacet
  facet normal 0 0 1
    outer loop
      vertex 23.3 3.25 2
      vertex 23.2882 3.062 2
      vertex 24.6 0 2
    endloop
  endfacet
  facet normal 0 0 1
    outer loop
      vertex 24.6 6.5 2
      vertex 22.7561 4.40577 2
      vertex 22.8935 4.27682 2
    endloop
  endfacet
  facet normal 0 0 1
    outer loop
      vertex 20.4855 2.52737 2
      vertex 20.4053 2.69781 2
      vertex 15.15 6.5 2
    endloop
  endfacet
  facet normal 0 0 1
    outer loop
      vertex 24.6 6.5 2
      vertex 22.8935 4.27682 2
      vertex 23.0135 4.13168 2
    endloop
  endfacet
  facet normal 0 0 1
    outer loop
      vertex 24.6 6.5 2
      vertex 23.0135 4.13168 2
      vertex 23.1145 3.97263 2
    endloop
  endfacet
  facet normal 0 0 1
    outer loop
      vertex 24.6 6.5 2
      vertex 23.1947 3.80219 2
      vertex 24.6 0 2
    endloop
  endfacet
  facet normal 0 0 1
    outer loop
      vertex 24.6 6.5 2
      vertex 23.1145 3.97263 2
      vertex 23.1947 3.80219 2
    endloop
  endfacet
  facet normal 0 0 1
    outer loop
      vertex 23.1947 3.80219 2
      vertex 23.2529 3.62303 2
      vertex 24.6 0 2
    endloop
  endfacet
  facet normal 0 0 1
    outer loop
      vertex 23.1947 2.69781 2
      vertex 23.1145 2.52737 2
      vertex 24.6 0 2
    endloop
  endfacet
  facet normal 0 0 1
    outer loop
      vertex 23.1145 2.52737 2
      vertex 23.0135 2.36832 2
      vertex 24.6 0 2
    endloop
  endfacet
  facet normal 0 0 1
    outer loop
      vertex 23.0135 2.36832 2
      vertex 22.8935 2.22318 2
      vertex 24.6 0 2
    endloop
  endfacet
  facet normal 0 0 1
    outer loop
      vertex 22.8935 2.22318 2
      vertex 22.7561 2.09423 2
      vertex 24.6 0 2
    endloop
  endfacet
  facet normal 0 0 1
    outer loop
      vertex 22.7561 2.09423 2
      vertex 22.6037 1.98351 2
      vertex 24.6 0 2
    endloop
  endfacet
  facet normal 0 0 1
    outer loop
      vertex 22.6037 1.98351 2
      vertex 22.4387 1.89276 2
      vertex 24.6 0 2
    endloop
  endfacet
  facet normal 0 0 1
    outer loop
      vertex 22.4387 1.89276 2
      vertex 22.2635 1.82342 2
      vertex 24.6 0 2
    endloop
  endfacet
  facet normal 0 0 1
    outer loop
      vertex 21.7058 1.75296 2
      vertex 15.15 0 2
      vertex 21.8942 1.75296 2
    endloop
  endfacet
  facet normal 0 0 1
    outer loop
      vertex 21.5189 1.77657 2
      vertex 15.15 0 2
      vertex 21.7058 1.75296 2
    endloop
  endfacet
  facet normal 0 0 1
    outer loop
      vertex 20.4053 2.69781 2
      vertex 20.3471 2.87696 2
      vertex 15.15 6.5 2
    endloop
  endfacet
  facet normal 0 0 1
    outer loop
      vertex 21.3365 1.82342 2
      vertex 15.15 0 2
      vertex 21.5189 1.77657 2
    endloop
  endfacet
  facet normal 0 0 1
    outer loop
      vertex 21.1613 1.89276 2
      vertex 15.15 0 2
      vertex 21.3365 1.82342 2
    endloop
  endfacet
  facet normal 0 0 1
    outer loop
      vertex 20.9963 1.98351 2
      vertex 15.15 0 2
      vertex 21.1613 1.89276 2
    endloop
  endfacet
  facet normal 0 0 1
    outer loop
      vertex 20.8439 2.09423 2
      vertex 15.15 0 2
      vertex 20.9963 1.98351 2
    endloop
  endfacet
  facet normal 0 0 1
    outer loop
      vertex 20.7065 2.22318 2
      vertex 20.5865 2.36832 2
      vertex 15.15 6.5 2
    endloop
  endfacet
  facet normal 0 0 1
    outer loop
      vertex 15.15 6.5 2
      vertex 15.15 0 2
      vertex 20.8439 2.09423 2
    endloop
  endfacet
  facet normal 0 0 1
    outer loop
      vertex 20.5865 2.36832 2
      vertex 20.4855 2.52737 2
      vertex 15.15 6.5 2
    endloop
  endfacet
  facet normal 0 0 1
    outer loop
      vertex 21.7058 4.74704 2
      vertex 21.8942 4.74704 2
      vertex 24.6 6.5 2
    endloop
  endfacet
  facet normal 0 0 1
    outer loop
      vertex 20.8439 2.09423 2
      vertex 20.7065 2.22318 2
      vertex 15.15 6.5 2
    endloop
  endfacet
  facet normal 0 0 1
    outer loop
      vertex 20.3471 2.87696 2
      vertex 20.3118 3.062 2
      vertex 15.15 6.5 2
    endloop
  endfacet
  facet normal 1 0 0
    outer loop
      vertex 24.6 0 2
      vertex 24.6 0 0
      vertex 24.6 6.5 0
    endloop
  endfacet
  facet normal 1 0 0
    outer loop
      vertex 24.6 6.5 2
      vertex 24.6 0 2
      vertex 24.6 6.5 0
    endloop
  endfacet
  facet normal 0.998027 -0.0627907 0
    outer loop
      vertex 1.31183 3.438 0
      vertex 1.31183 3.438 2
      vertex 1.3 3.25 2
    endloop
  endfacet
  facet normal 0.998027 -0.0627907 0
    outer loop
      vertex 1.3 3.25 0
      vertex 1.31183 3.438 0
      vertex 1.3 3.25 2
    endloop
  endfacet
  facet normal 0.998027 0.0627907 0
    outer loop
      vertex 1.3 3.25 2
      vertex 1.31183 3.062 2
      vertex 1.31183 3.062 0
    endloop
  endfacet
  facet normal 0.998027 0.0627907 0
    outer loop
      vertex 1.3 3.25 0
      vertex 1.3 3.25 2
      vertex 1.31183 3.062 0
    endloop
  endfacet
  facet normal 0.982288 -0.18738 0
    outer loop
      vertex 1.34712 3.62303 0
      vertex 1.34712 3.62303 2
      vertex 1.31183 3.438 2
    endloop
  endfacet
  facet normal 0.982288 -0.18738 0
    outer loop
      vertex 1.31183 3.438 0
      vertex 1.34712 3.62303 0
      vertex 1.31183 3.438 2
    endloop
  endfacet
  facet normal 0.951057 -0.309017 0
    outer loop
      vertex 1.40533 3.80219 0
      vertex 1.40533 3.80219 2
      vertex 1.34712 3.62303 2
    endloop
  endfacet
  facet normal 0.951057 -0.309017 0
    outer loop
      vertex 1.34712 3.62303 0
      vertex 1.40533 3.80219 0
      vertex 1.34712 3.62303 2
    endloop
  endfacet
  facet normal 0.904827 -0.42578 0
    outer loop
      vertex 1.48554 3.97263 0
      vertex 1.48554 3.97263 2
      vertex 1.40533 3.80219 2
    endloop
  endfacet
  facet normal 0.904827 -0.42578 0
    outer loop
      vertex 1.40533 3.80219 0
      vertex 1.48554 3.97263 0
      vertex 1.40533 3.80219 2
    endloop
  endfacet
  facet normal 0.844326 -0.535829 0
    outer loop
      vertex 1.58647 4.13168 0
      vertex 1.58647 4.13168 2
      vertex 1.48554 3.97263 2
    endloop
  endfacet
  facet normal 0.844326 -0.535829 0
    outer loop
      vertex 1.48554 3.97263 0
      vertex 1.58647 4.13168 0
      vertex 1.48554 3.97263 2
    endloop
  endfacet
  facet normal 0.770515 -0.637422 0
    outer loop
      vertex 1.70655 4.27682 0
      vertex 1.70655 4.27682 2
      vertex 1.58647 4.13168 2
    endloop
  endfacet
  facet normal 0.770515 -0.637422 0
    outer loop
      vertex 1.58647 4.13168 0
      vertex 1.70655 4.27682 0
      vertex 1.58647 4.13168 2
    endloop
  endfacet
  facet normal 0.684546 -0.728969 0
    outer loop
      vertex 1.84386 4.40577 0
      vertex 1.84386 4.40577 2
      vertex 1.70655 4.27682 2
    endloop
  endfacet
  facet normal 0.684546 -0.728969 0
    outer loop
      vertex 1.70655 4.27682 0
      vertex 1.84386 4.40577 0
      vertex 1.70655 4.27682 2
    endloop
  endfacet
  facet normal 0.587785 -0.809017 0
    outer loop
      vertex 1.99626 4.51649 0
      vertex 1.99626 4.51649 2
      vertex 1.84386 4.40577 2
    endloop
  endfacet
  facet normal 0.587785 -0.809017 0
    outer loop
      vertex 1.84386 4.40577 0
      vertex 1.99626 4.51649 0
      vertex 1.84386 4.40577 2
    endloop
  endfacet
  facet normal 0.481756 -0.876306 0
    outer loop
      vertex 2.16133 4.60724 0
      vertex 2.16133 4.60724 2
      vertex 1.99626 4.51649 2
    endloop
  endfacet
  facet normal 0.481756 -0.876306 0
    outer loop
      vertex 1.99626 4.51649 0
      vertex 2.16133 4.60724 0
      vertex 1.99626 4.51649 2
    endloop
  endfacet
  facet normal 0.368123 -0.929777 0
    outer loop
      vertex 2.33647 4.67658 0
      vertex 2.33647 4.67658 2
      vertex 2.16133 4.60724 2
    endloop
  endfacet
  facet normal 0.368123 -0.929777 0
    outer loop
      vertex 2.16133 4.60724 0
      vertex 2.33647 4.67658 0
      vertex 2.16133 4.60724 2
    endloop
  endfacet
  facet normal 0.24869 -0.968583 0
    outer loop
      vertex 2.51893 4.72343 0
      vertex 2.51893 4.72343 2
      vertex 2.33647 4.67658 2
    endloop
  endfacet
  facet normal 0.24869 -0.968583 0
    outer loop
      vertex 2.33647 4.67658 0
      vertex 2.51893 4.72343 0
      vertex 2.33647 4.67658 2
    endloop
  endfacet
  facet normal 0.125332 -0.992115 0
    outer loop
      vertex 2.70581 4.74704 0
      vertex 2.70581 4.74704 2
      vertex 2.51893 4.72343 2
    endloop
  endfacet
  facet normal 0.125332 -0.992115 0
    outer loop
      vertex 2.51893 4.72343 0
      vertex 2.70581 4.74704 0
      vertex 2.51893 4.72343 2
    endloop
  endfacet
  facet normal 0 -1 0
    outer loop
      vertex 2.89419 4.74704 0
      vertex 2.89419 4.74704 2
      vertex 2.70581 4.74704 2
    endloop
  endfacet
  facet normal 0 -1 0
    outer loop
      vertex 2.70581 4.74704 0
      vertex 2.89419 4.74704 0
      vertex 2.70581 4.74704 2
    endloop
  endfacet
  facet normal -0.125332 -0.992115 0
    outer loop
      vertex 3.08107 4.72343 0
      vertex 3.08107 4.72343 2
      vertex 2.89419 4.74704 2
    endloop
  endfacet
  facet normal -0.125332 -0.992115 0
    outer loop
      vertex 2.89419 4.74704 0
      vertex 3.08107 4.72343 0
      vertex 2.89419 4.74704 2
    endloop
  endfacet
  facet normal -0.24869 -0.968583 0
    outer loop
      vertex 3.26352 4.67658 0
      vertex 3.26352 4.67658 2
      vertex 3.08107 4.72343 2
    endloop
  endfacet
  facet normal -0.24869 -0.968583 0
    outer loop
      vertex 3.08107 4.72343 0
      vertex 3.26352 4.67658 0
      vertex 3.08107 4.72343 2
    endloop
  endfacet
  facet normal -0.368123 -0.929777 0
    outer loop
      vertex 3.43867 4.60724 0
      vertex 3.43867 4.60724 2
      vertex 3.26352 4.67658 2
    endloop
  endfacet
  facet normal -0.368123 -0.929777 0
    outer loop
      vertex 3.26352 4.67658 0
      vertex 3.43867 4.60724 0
      vertex 3.26352 4.67658 2
    endloop
  endfacet
  facet normal -0.481756 -0.876306 0
    outer loop
      vertex 3.60374 4.51649 0
      vertex 3.60374 4.51649 2
      vertex 3.43867 4.60724 2
    endloop
  endfacet
  facet normal -0.481756 -0.876306 0
    outer loop
      vertex 3.43867 4.60724 0
      vertex 3.60374 4.51649 0
      vertex 3.43867 4.60724 2
    endloop
  endfacet
  facet normal -0.587785 -0.809017 0
    outer loop
      vertex 3.75614 4.40577 0
      vertex 3.75614 4.40577 2
      vertex 3.60374 4.51649 2
    endloop
  endfacet
  facet normal -0.587785 -0.809017 0
    outer loop
      vertex 3.60374 4.51649 0
      vertex 3.75614 4.40577 0
      vertex 3.60374 4.51649 2
    endloop
  endfacet
  facet normal -0.684546 -0.728969 0
    outer loop
      vertex 3.89345 4.27682 0
      vertex 3.89345 4.27682 2
      vertex 3.75614 4.40577 2
    endloop
  endfacet
  facet normal -0.684546 -0.728969 0
    outer loop
      vertex 3.75614 4.40577 0
      vertex 3.89345 4.27682 0
      vertex 3.75614 4.40577 2
    endloop
  endfacet
  facet normal -0.770515 -0.637422 0
    outer loop
      vertex 4.01352 4.13168 2
      vertex 3.89345 4.27682 2
      vertex 4.01352 4.13168 0
    endloop
  endfacet
  facet normal -0.770515 -0.637422 0
    outer loop
      vertex 4.01352 4.13168 0
      vertex 3.89345 4.27682 2
      vertex 3.89345 4.27682 0
    endloop
  endfacet
  facet normal -0.844326 -0.535829 0
    outer loop
      vertex 4.11446 3.97263 2
      vertex 4.01352 4.13168 2
      vertex 4.11446 3.97263 0
    endloop
  endfacet
  facet normal -0.844326 -0.535829 0
    outer loop
      vertex 4.11446 3.97263 0
      vertex 4.01352 4.13168 2
      vertex 4.01352 4.13168 0
    endloop
  endfacet
  facet normal -0.904827 -0.42578 0
    outer loop
      vertex 4.19466 3.80219 2
      vertex 4.11446 3.97263 2
      vertex 4.19466 3.80219 0
    endloop
  endfacet
  facet normal -0.904827 -0.42578 0
    outer loop
      vertex 4.19466 3.80219 0
      vertex 4.11446 3.97263 2
      vertex 4.11446 3.97263 0
    endloop
  endfacet
  facet normal -0.951057 -0.309017 0
    outer loop
      vertex 4.25287 3.62303 2
      vertex 4.19466 3.80219 2
      vertex 4.25287 3.62303 0
    endloop
  endfacet
  facet normal -0.951057 -0.309017 0
    outer loop
      vertex 4.25287 3.62303 0
      vertex 4.19466 3.80219 2
      vertex 4.19466 3.80219 0
    endloop
  endfacet
  facet normal -0.982288 -0.18738 0
    outer loop
      vertex 4.28817 3.438 2
      vertex 4.25287 3.62303 2
      vertex 4.28817 3.438 0
    endloop
  endfacet
  facet normal -0.982288 -0.18738 0
    outer loop
      vertex 4.28817 3.438 0
      vertex 4.25287 3.62303 2
      vertex 4.25287 3.62303 0
    endloop
  endfacet
  facet normal -0.998027 -0.0627907 0
    outer loop
      vertex 4.3 3.25 2
      vertex 4.28817 3.438 2
      vertex 4.3 3.25 0
    endloop
  endfacet
  facet normal -0.998027 -0.0627907 0
    outer loop
      vertex 4.3 3.25 0
      vertex 4.28817 3.438 2
      vertex 4.28817 3.438 0
    endloop
  endfacet
  facet normal -0.998027 0.0627907 0
    outer loop
      vertex 4.3 3.25 2
      vertex 4.3 3.25 0
      vertex 4.28817 3.062 2
    endloop
  endfacet
  facet normal -0.998027 0.0627907 0
    outer loop
      vertex 4.28817 3.062 2
      vertex 4.3 3.25 0
      vertex 4.28817 3.062 0
    endloop
  endfacet
  facet normal -0.982288 0.18738 0
    outer loop
      vertex 4.28817 3.062 2
      vertex 4.28817 3.062 0
      vertex 4.25287 2.87696 2
    endloop
  endfacet
  facet normal -0.982288 0.18738 0
    outer loop
      vertex 4.25287 2.87696 2
      vertex 4.28817 3.062 0
      vertex 4.25287 2.87696 0
    endloop
  endfacet
  facet normal -0.951057 0.309017 0
    outer loop
      vertex 4.25287 2.87696 2
      vertex 4.25287 2.87696 0
      vertex 4.19466 2.69781 2
    endloop
  endfacet
  facet normal -0.951057 0.309017 0
    outer loop
      vertex 4.19466 2.69781 2
      vertex 4.25287 2.87696 0
      vertex 4.19466 2.69781 0
    endloop
  endfacet
  facet normal -0.904827 0.42578 0
    outer loop
      vertex 4.19466 2.69781 2
      vertex 4.19466 2.69781 0
      vertex 4.11446 2.52737 2
    endloop
  endfacet
  facet normal -0.904827 0.42578 0
    outer loop
      vertex 4.11446 2.52737 2
      vertex 4.19466 2.69781 0
      vertex 4.11446 2.52737 0
    endloop
  endfacet
  facet normal -0.844326 0.535829 0
    outer loop
      vertex 4.11446 2.52737 2
      vertex 4.11446 2.52737 0
      vertex 4.01352 2.36832 2
    endloop
  endfacet
  facet normal -0.844326 0.535829 0
    outer loop
      vertex 4.01352 2.36832 2
      vertex 4.11446 2.52737 0
      vertex 4.01352 2.36832 0
    endloop
  endfacet
  facet normal -0.770515 0.637422 0
    outer loop
      vertex 4.01352 2.36832 2
      vertex 4.01352 2.36832 0
      vertex 3.89345 2.22318 2
    endloop
  endfacet
  facet normal -0.770515 0.637422 0
    outer loop
      vertex 3.89345 2.22318 2
      vertex 4.01352 2.36832 0
      vertex 3.89345 2.22318 0
    endloop
  endfacet
  facet normal -0.684546 0.728969 0
    outer loop
      vertex 3.89345 2.22318 2
      vertex 3.89345 2.22318 0
      vertex 3.75614 2.09423 2
    endloop
  endfacet
  facet normal -0.684546 0.728969 0
    outer loop
      vertex 3.75614 2.09423 2
      vertex 3.89345 2.22318 0
      vertex 3.75614 2.09423 0
    endloop
  endfacet
  facet normal -0.587785 0.809017 0
    outer loop
      vertex 3.75614 2.09423 2
      vertex 3.75614 2.09423 0
      vertex 3.60374 1.98351 2
    endloop
  endfacet
  facet normal -0.587785 0.809017 0
    outer loop
      vertex 3.60374 1.98351 2
      vertex 3.75614 2.09423 0
      vertex 3.60374 1.98351 0
    endloop
  endfacet
  facet normal -0.481756 0.876306 0
    outer loop
      vertex 3.60374 1.98351 2
      vertex 3.60374 1.98351 0
      vertex 3.43867 1.89276 2
    endloop
  endfacet
  facet normal -0.481756 0.876306 0
    outer loop
      vertex 3.43867 1.89276 2
      vertex 3.60374 1.98351 0
      vertex 3.43867 1.89276 0
    endloop
  endfacet
  facet normal -0.368123 0.929777 0
    outer loop
      vertex 3.43867 1.89276 2
      vertex 3.43867 1.89276 0
      vertex 3.26352 1.82342 2
    endloop
  endfacet
  facet normal -0.368123 0.929777 0
    outer loop
      vertex 3.26352 1.82342 2
      vertex 3.43867 1.89276 0
      vertex 3.26352 1.82342 0
    endloop
  endfacet
  facet normal -0.24869 0.968583 0
    outer loop
      vertex 3.26352 1.82342 2
      vertex 3.26352 1.82342 0
      vertex 3.08107 1.77657 2
    endloop
  endfacet
  facet normal -0.24869 0.968583 0
    outer loop
      vertex 3.08107 1.77657 2
      vertex 3.26352 1.82342 0
      vertex 3.08107 1.77657 0
    endloop
  endfacet
  facet normal -0.125332 0.992115 0
    outer loop
      vertex 3.08107 1.77657 2
      vertex 3.08107 1.77657 0
      vertex 2.89419 1.75296 2
    endloop
  endfacet
  facet normal -0.125332 0.992115 0
    outer loop
      vertex 2.89419 1.75296 2
      vertex 3.08107 1.77657 0
      vertex 2.89419 1.75296 0
    endloop
  endfacet
  facet normal 0 1 0
    outer loop
      vertex 2.89419 1.75296 2
      vertex 2.89419 1.75296 0
      vertex 2.70581 1.75296 2
    endloop
  endfacet
  facet normal 0 1 0
    outer loop
      vertex 2.70581 1.75296 2
      vertex 2.89419 1.75296 0
      vertex 2.70581 1.75296 0
    endloop
  endfacet
  facet normal 0.125332 0.992115 0
    outer loop
      vertex 2.70581 1.75296 2
      vertex 2.70581 1.75296 0
      vertex 2.51893 1.77657 2
    endloop
  endfacet
  facet normal 0.125332 0.992115 0
    outer loop
      vertex 2.51893 1.77657 2
      vertex 2.70581 1.75296 0
      vertex 2.51893 1.77657 0
    endloop
  endfacet
  facet normal 0.24869 0.968583 0
    outer loop
      vertex 2.51893 1.77657 2
      vertex 2.51893 1.77657 0
      vertex 2.33647 1.82342 2
    endloop
  endfacet
  facet normal 0.24869 0.968583 0
    outer loop
      vertex 2.33647 1.82342 2
      vertex 2.51893 1.77657 0
      vertex 2.33647 1.82342 0
    endloop
  endfacet
  facet normal 0.368123 0.929777 0
    outer loop
      vertex 2.33647 1.82342 2
      vertex 2.33647 1.82342 0
      vertex 2.16133 1.89276 2
    endloop
  endfacet
  facet normal 0.368123 0.929777 0
    outer loop
      vertex 2.16133 1.89276 2
      vertex 2.33647 1.82342 0
      vertex 2.16133 1.89276 0
    endloop
  endfacet
  facet normal 0.481756 0.876306 0
    outer loop
      vertex 2.16133 1.89276 2
      vertex 2.16133 1.89276 0
      vertex 1.99626 1.98351 2
    endloop
  endfacet
  facet normal 0.481756 0.876306 0
    outer loop
      vertex 1.99626 1.98351 2
      vertex 2.16133 1.89276 0
      vertex 1.99626 1.98351 0
    endloop
  endfacet
  facet normal 0.587785 0.809017 0
    outer loop
      vertex 1.99626 1.98351 2
      vertex 1.99626 1.98351 0
      vertex 1.84386 2.09423 2
    endloop
  endfacet
  facet normal 0.587785 0.809017 0
    outer loop
      vertex 1.84386 2.09423 2
      vertex 1.99626 1.98351 0
      vertex 1.84386 2.09423 0
    endloop
  endfacet
  facet normal 0.684546 0.728969 0
    outer loop
      vertex 1.84386 2.09423 2
      vertex 1.84386 2.09423 0
      vertex 1.70655 2.22318 2
    endloop
  endfacet
  facet normal 0.684546 0.728969 0
    outer loop
      vertex 1.70655 2.22318 2
      vertex 1.84386 2.09423 0
      vertex 1.70655 2.22318 0
    endloop
  endfacet
  facet normal 0.770515 0.637422 0
    outer loop
      vertex 1.58647 2.36832 2
      vertex 1.70655 2.22318 2
      vertex 1.70655 2.22318 0
    endloop
  endfacet
  facet normal 0.770515 0.637422 0
    outer loop
      vertex 1.58647 2.36832 0
      vertex 1.58647 2.36832 2
      vertex 1.70655 2.22318 0
    endloop
  endfacet
  facet normal 0.844326 0.535829 0
    outer loop
      vertex 1.48554 2.52737 2
      vertex 1.58647 2.36832 2
      vertex 1.58647 2.36832 0
    endloop
  endfacet
  facet normal 0.844326 0.535829 0
    outer loop
      vertex 1.48554 2.52737 0
      vertex 1.48554 2.52737 2
      vertex 1.58647 2.36832 0
    endloop
  endfacet
  facet normal 0.904827 0.42578 0
    outer loop
      vertex 1.40533 2.69781 2
      vertex 1.48554 2.52737 2
      vertex 1.48554 2.52737 0
    endloop
  endfacet
  facet normal 0.904827 0.42578 0
    outer loop
      vertex 1.40533 2.69781 0
      vertex 1.40533 2.69781 2
      vertex 1.48554 2.52737 0
    endloop
  endfacet
  facet normal 0.951057 0.309017 0
    outer loop
      vertex 1.34712 2.87696 2
      vertex 1.40533 2.69781 2
      vertex 1.40533 2.69781 0
    endloop
  endfacet
  facet normal 0.951057 0.309017 0
    outer loop
      vertex 1.34712 2.87696 0
      vertex 1.34712 2.87696 2
      vertex 1.40533 2.69781 0
    endloop
  endfacet
  facet normal 0.982288 0.18738 0
    outer loop
      vertex 1.31183 3.062 2
      vertex 1.34712 2.87696 2
      vertex 1.34712 2.87696 0
    endloop
  endfacet
  facet normal 0.982288 0.18738 0
    outer loop
      vertex 1.31183 3.062 0
      vertex 1.31183 3.062 2
      vertex 1.34712 2.87696 0
    endloop
  endfacet
  facet normal 0.998027 -0.0627907 0
    outer loop
      vertex 20.3118 3.438 0
      vertex 20.3118 3.438 2
      vertex 20.3 3.25 2
    endloop
  endfacet
  facet normal 0.998027 -0.0627907 0
    outer loop
      vertex 20.3 3.25 0
      vertex 20.3118 3.438 0
      vertex 20.3 3.25 2
    endloop
  endfacet
  facet normal 0.998027 0.0627907 0
    outer loop
      vertex 20.3 3.25 2
      vertex 20.3118 3.062 2
      vertex 20.3118 3.062 0
    endloop
  endfacet
  facet normal 0.998027 0.0627907 0
    outer loop
      vertex 20.3 3.25 0
      vertex 20.3 3.25 2
      vertex 20.3118 3.062 0
    endloop
  endfacet
  facet normal 0.982288 -0.18738 0
    outer loop
      vertex 20.3471 3.62303 0
      vertex 20.3471 3.62303 2
      vertex 20.3118 3.438 2
    endloop
  endfacet
  facet normal 0.982288 -0.18738 0
    outer loop
      vertex 20.3118 3.438 0
      vertex 20.3471 3.62303 0
      vertex 20.3118 3.438 2
    endloop
  endfacet
  facet normal 0.951057 -0.309017 0
    outer loop
      vertex 20.4053 3.80219 0
      vertex 20.4053 3.80219 2
      vertex 20.3471 3.62303 2
    endloop
  endfacet
  facet normal 0.951057 -0.309017 0
    outer loop
      vertex 20.3471 3.62303 0
      vertex 20.4053 3.80219 0
      vertex 20.3471 3.62303 2
    endloop
  endfacet
  facet normal 0.904827 -0.42578 0
    outer loop
      vertex 20.4855 3.97263 0
      vertex 20.4855 3.97263 2
      vertex 20.4053 3.80219 2
    endloop
  endfacet
  facet normal 0.904827 -0.42578 0
    outer loop
      vertex 20.4053 3.80219 0
      vertex 20.4855 3.97263 0
      vertex 20.4053 3.80219 2
    endloop
  endfacet
  facet normal 0.844326 -0.535829 0
    outer loop
      vertex 20.5865 4.13168 0
      vertex 20.5865 4.13168 2
      vertex 20.4855 3.97263 2
    endloop
  endfacet
  facet normal 0.844326 -0.535829 0
    outer loop
      vertex 20.4855 3.97263 0
      vertex 20.5865 4.13168 0
      vertex 20.4855 3.97263 2
    endloop
  endfacet
  facet normal 0.770515 -0.637422 0
    outer loop
      vertex 20.7065 4.27682 0
      vertex 20.7065 4.27682 2
      vertex 20.5865 4.13168 2
    endloop
  endfacet
  facet normal 0.770515 -0.637422 0
    outer loop
      vertex 20.5865 4.13168 0
      vertex 20.7065 4.27682 0
      vertex 20.5865 4.13168 2
    endloop
  endfacet
  facet normal 0.684546 -0.728969 0
    outer loop
      vertex 20.8439 4.40577 0
      vertex 20.8439 4.40577 2
      vertex 20.7065 4.27682 2
    endloop
  endfacet
  facet normal 0.684546 -0.728969 0
    outer loop
      vertex 20.7065 4.27682 0
      vertex 20.8439 4.40577 0
      vertex 20.7065 4.27682 2
    endloop
  endfacet
  facet normal 0.587785 -0.809017 0
    outer loop
      vertex 20.9963 4.51649 0
      vertex 20.9963 4.51649 2
      vertex 20.8439 4.40577 2
    endloop
  endfacet
  facet normal 0.587785 -0.809017 0
    outer loop
      vertex 20.8439 4.40577 0
      vertex 20.9963 4.51649 0
      vertex 20.8439 4.40577 2
    endloop
  endfacet
  facet normal 0.481756 -0.876306 0
    outer loop
      vertex 21.1613 4.60724 0
      vertex 21.1613 4.60724 2
      vertex 20.9963 4.51649 2
    endloop
  endfacet
  facet normal 0.481756 -0.876306 0
    outer loop
      vertex 20.9963 4.51649 0
      vertex 21.1613 4.60724 0
      vertex 20.9963 4.51649 2
    endloop
  endfacet
  facet normal 0.368123 -0.929777 0
    outer loop
      vertex 21.3365 4.67658 0
      vertex 21.3365 4.67658 2
      vertex 21.1613 4.60724 2
    endloop
  endfacet
  facet normal 0.368123 -0.929777 0
    outer loop
      vertex 21.1613 4.60724 0
      vertex 21.3365 4.67658 0
      vertex 21.1613 4.60724 2
    endloop
  endfacet
  facet normal 0.24869 -0.968583 0
    outer loop
      vertex 21.5189 4.72343 0
      vertex 21.5189 4.72343 2
      vertex 21.3365 4.67658 2
    endloop
  endfacet
  facet normal 0.24869 -0.968583 0
    outer loop
      vertex 21.3365 4.67658 0
      vertex 21.5189 4.72343 0
      vertex 21.3365 4.67658 2
    endloop
  endfacet
  facet normal 0.125332 -0.992115 0
    outer loop
      vertex 21.7058 4.74704 0
      vertex 21.7058 4.74704 2
      vertex 21.5189 4.72343 2
    endloop
  endfacet
  facet normal 0.125332 -0.992115 0
    outer loop
      vertex 21.5189 4.72343 0
      vertex 21.7058 4.74704 0
      vertex 21.5189 4.72343 2
    endloop
  endfacet
  facet normal 0 -1 0
    outer loop
      vertex 21.8942 4.74704 0
      vertex 21.8942 4.74704 2
      vertex 21.7058 4.74704 2
    endloop
  endfacet
  facet normal 0 -1 0
    outer loop
      vertex 21.7058 4.74704 0
      vertex 21.8942 4.74704 0
      vertex 21.7058 4.74704 2
    endloop
  endfacet
  facet normal -0.125332 -0.992115 0
    outer loop
      vertex 22.0811 4.72343 0
      vertex 22.0811 4.72343 2
      vertex 21.8942 4.74704 2
    endloop
  endfacet
  facet normal -0.125332 -0.992115 0
    outer loop
      vertex 21.8942 4.74704 0
      vertex 22.0811 4.72343 0
      vertex 21.8942 4.74704 2
    endloop
  endfacet
  facet normal -0.24869 -0.968583 0
    outer loop
      vertex 22.2635 4.67658 0
      vertex 22.2635 4.67658 2
      vertex 22.0811 4.72343 2
    endloop
  endfacet
  facet normal -0.24869 -0.968583 0
    outer loop
      vertex 22.0811 4.72343 0
      vertex 22.2635 4.67658 0
      vertex 22.0811 4.72343 2
    endloop
  endfacet
  facet normal -0.368123 -0.929777 0
    outer loop
      vertex 22.4387 4.60724 0
      vertex 22.4387 4.60724 2
      vertex 22.2635 4.67658 2
    endloop
  endfacet
  facet normal -0.368123 -0.929777 0
    outer loop
      vertex 22.2635 4.67658 0
      vertex 22.4387 4.60724 0
      vertex 22.2635 4.67658 2
    endloop
  endfacet
  facet normal -0.481756 -0.876306 0
    outer loop
      vertex 22.6037 4.51649 0
      vertex 22.6037 4.51649 2
      vertex 22.4387 4.60724 2
    endloop
  endfacet
  facet normal -0.481756 -0.876306 0
    outer loop
      vertex 22.4387 4.60724 0
      vertex 22.6037 4.51649 0
      vertex 22.4387 4.60724 2
    endloop
  endfacet
  facet normal -0.587785 -0.809017 0
    outer loop
      vertex 22.7561 4.40577 0
      vertex 22.7561 4.40577 2
      vertex 22.6037 4.51649 2
    endloop
  endfacet
  facet normal -0.587785 -0.809017 0
    outer loop
      vertex 22.6037 4.51649 0
      vertex 22.7561 4.40577 0
      vertex 22.6037 4.51649 2
    endloop
  endfacet
  facet normal -0.684546 -0.728969 0
    outer loop
      vertex 22.8935 4.27682 0
      vertex 22.8935 4.27682 2
      vertex 22.7561 4.40577 2
    endloop
  endfacet
  facet normal -0.684546 -0.728969 0
    outer loop
      vertex 22.7561 4.40577 0
      vertex 22.8935 4.27682 0
      vertex 22.7561 4.40577 2
    endloop
  endfacet
  facet normal -0.770515 -0.637422 0
    outer loop
      vertex 23.0135 4.13168 2
      vertex 22.8935 4.27682 2
      vertex 23.0135 4.13168 0
    endloop
  endfacet
  facet normal -0.770515 -0.637422 0
    outer loop
      vertex 23.0135 4.13168 0
      vertex 22.8935 4.27682 2
      vertex 22.8935 4.27682 0
    endloop
  endfacet
  facet normal -0.844326 -0.535829 0
    outer loop
      vertex 23.1145 3.97263 2
      vertex 23.0135 4.13168 2
      vertex 23.1145 3.97263 0
    endloop
  endfacet
  facet normal -0.844326 -0.535829 0
    outer loop
      vertex 23.1145 3.97263 0
      vertex 23.0135 4.13168 2
      vertex 23.0135 4.13168 0
    endloop
  endfacet
  facet normal -0.904827 -0.42578 0
    outer loop
      vertex 23.1947 3.80219 2
      vertex 23.1145 3.97263 2
      vertex 23.1947 3.80219 0
    endloop
  endfacet
  facet normal -0.904827 -0.42578 0
    outer loop
      vertex 23.1947 3.80219 0
      vertex 23.1145 3.97263 2
      vertex 23.1145 3.97263 0
    endloop
  endfacet
  facet normal -0.951057 -0.309017 0
    outer loop
      vertex 23.2529 3.62303 2
      vertex 23.1947 3.80219 2
      vertex 23.2529 3.62303 0
    endloop
  endfacet
  facet normal -0.951057 -0.309017 0
    outer loop
      vertex 23.2529 3.62303 0
      vertex 23.1947 3.80219 2
      vertex 23.1947 3.80219 0
    endloop
  endfacet
  facet normal -0.982288 -0.18738 0
    outer loop
      vertex 23.2882 3.438 2
      vertex 23.2529 3.62303 2
      vertex 23.2882 3.438 0
    endloop
  endfacet
  facet normal -0.982288 -0.18738 0
    outer loop
      vertex 23.2882 3.438 0
      vertex 23.2529 3.62303 2
      vertex 23.2529 3.62303 0
    endloop
  endfacet
  facet normal -0.998027 -0.0627907 0
    outer loop
      vertex 23.3 3.25 2
      vertex 23.2882 3.438 2
      vertex 23.3 3.25 0
    endloop
  endfacet
  facet normal -0.998027 -0.0627907 0
    outer loop
      vertex 23.3 3.25 0
      vertex 23.2882 3.438 2
      vertex 23.2882 3.438 0
    endloop
  endfacet
  facet normal -0.998027 0.0627907 0
    outer loop
      vertex 23.3 3.25 2
      vertex 23.3 3.25 0
      vertex 23.2882 3.062 2
    endloop
  endfacet
  facet normal -0.998027 0.0627907 0
    outer loop
      vertex 23.2882 3.062 2
      vertex 23.3 3.25 0
      vertex 23.2882 3.062 0
    endloop
  endfacet
  facet normal -0.982288 0.18738 0
    outer loop
      vertex 23.2882 3.062 2
      vertex 23.2882 3.062 0
      vertex 23.2529 2.87696 2
    endloop
  endfacet
  facet normal -0.982288 0.18738 0
    outer loop
      vertex 23.2529 2.87696 2
      vertex 23.2882 3.062 0
      vertex 23.2529 2.87696 0
    endloop
  endfacet
  facet normal -0.951057 0.309017 0
    outer loop
      vertex 23.2529 2.87696 2
      vertex 23.2529 2.87696 0
      vertex 23.1947 2.69781 2
    endloop
  endfacet
  facet normal -0.951057 0.309017 0
    outer loop
      vertex 23.1947 2.69781 2
      vertex 23.2529 2.87696 0
      vertex 23.1947 2.69781 0
    endloop
  endfacet
  facet normal -0.904827 0.42578 0
    outer loop
      vertex 23.1947 2.69781 2
      vertex 23.1947 2.69781 0
      vertex 23.1145 2.52737 2
    endloop
  endfacet
  facet normal -0.904827 0.42578 0
    outer loop
      vertex 23.1145 2.52737 2
      vertex 23.1947 2.69781 0
      vertex 23.1145 2.52737 0
    endloop
  endfacet
  facet normal -0.844326 0.535829 0
    outer loop
      vertex 23.1145 2.52737 2
      vertex 23.1145 2.52737 0
      vertex 23.0135 2.36832 2
    endloop
  endfacet
  facet normal -0.844326 0.535829 0
    outer loop
      vertex 23.0135 2.36832 2
      vertex 23.1145 2.52737 0
      vertex 23.0135 2.36832 0
    endloop
  endfacet
  facet normal -0.770515 0.637422 0
    outer loop
      vertex 23.0135 2.36832 2
      vertex 23.0135 2.36832 0
      vertex 22.8935 2.22318 2
    endloop
  endfacet
  facet normal -0.770515 0.637422 0
    outer loop
      vertex 22.8935 2.22318 2
      vertex 23.0135 2.36832 0
      vertex 22.8935 2.22318 0
    endloop
  endfacet
  facet normal -0.684546 0.728969 0
    outer loop
      vertex 22.8935 2.22318 2
      vertex 22.8935 2.22318 0
      vertex 22.7561 2.09423 2
    endloop
  endfacet
  facet normal -0.684546 0.728969 0
    outer loop
      vertex 22.7561 2.09423 2
      vertex 22.8935 2.22318 0
      vertex 22.7561 2.09423 0
    endloop
  endfacet
  facet normal -0.587785 0.809017 0
    outer loop
      vertex 22.7561 2.09423 2
      vertex 22.7561 2.09423 0
      vertex 22.6037 1.98351 2
    endloop
  endfacet
  facet normal -0.587785 0.809017 0
    outer loop
      vertex 22.6037 1.98351 2
      vertex 22.7561 2.09423 0
      vertex 22.6037 1.98351 0
    endloop
  endfacet
  facet normal -0.481756 0.876306 0
    outer loop
      vertex 22.6037 1.98351 2
      vertex 22.6037 1.98351 0
      vertex 22.4387 1.89276 2
    endloop
  endfacet
  facet normal -0.481756 0.876306 0
    outer loop
      vertex 22.4387 1.89276 2
      vertex 22.6037 1.98351 0
      vertex 22.4387 1.89276 0
    endloop
  endfacet
  facet normal -0.368123 0.929777 0
    outer loop
      vertex 22.4387 1.89276 2
      vertex 22.4387 1.89276 0
      vertex 22.2635 1.82342 2
    endloop
  endfacet
  facet normal -0.368123 0.929777 0
    outer loop
      vertex 22.2635 1.82342 2
      vertex 22.4387 1.89276 0
      vertex 22.2635 1.82342 0
    endloop
  endfacet
  facet normal -0.24869 0.968583 0
    outer loop
      vertex 22.2635 1.82342 2
      vertex 22.2635 1.82342 0
      vertex 22.0811 1.77657 2
    endloop
  endfacet
  facet normal -0.24869 0.968583 0
    outer loop
      vertex 22.0811 1.77657 2
      vertex 22.2635 1.82342 0
      vertex 22.0811 1.77657 0
    endloop
  endfacet
  facet normal -0.125332 0.992115 0
    outer loop
      vertex 22.0811 1.77657 2
      vertex 22.0811 1.77657 0
      vertex 21.8942 1.75296 2
    endloop
  endfacet
  facet normal -0.125332 0.992115 0
    outer loop
      vertex 21.8942 1.75296 2
      vertex 22.0811 1.77657 0
      vertex 21.8942 1.75296 0
    endloop
  endfacet
  facet normal 0 1 0
    outer loop
      vertex 21.8942 1.75296 2
      vertex 21.8942 1.75296 0
      vertex 21.7058 1.75296 2
    endloop
  endfacet
  facet normal 0 1 0
    outer loop
      vertex 21.7058 1.75296 2
      vertex 21.8942 1.75296 0
      vertex 21.7058 1.75296 0
    endloop
  endfacet
  facet normal 0.125332 0.992115 0
    outer loop
      vertex 21.7058 1.75296 2
      vertex 21.7058 1.75296 0
      vertex 21.5189 1.77657 2
    endloop
  endfacet
  facet normal 0.125332 0.992115 0
    outer loop
      vertex 21.5189 1.77657 2
      vertex 21.7058 1.75296 0
      vertex 21.5189 1.77657 0
    endloop
  endfacet
  facet normal 0.24869 0.968583 0
    outer loop
      vertex 21.5189 1.77657 2
      vertex 21.5189 1.77657 0
      vertex 21.3365 1.82342 2
    endloop
  endfacet
  facet normal 0.24869 0.968583 0
    outer loop
      vertex 21.3365 1.82342 2
      vertex 21.5189 1.77657 0
      vertex 21.3365 1.82342 0
    endloop
  endfacet
  facet normal 0.368123 0.929777 0
    outer loop
      vertex 21.3365 1.82342 2
      vertex 21.3365 1.82342 0
      vertex 21.1613 1.89276 2
    endloop
  endfacet
  facet normal 0.368123 0.929777 0
    outer loop
      vertex 21.1613 1.89276 2
      vertex 21.3365 1.82342 0
      vertex 21.1613 1.89276 0
    endloop
  endfacet
  facet normal 0.481756 0.876306 0
    outer loop
      vertex 21.1613 1.89276 2
      vertex 21.1613 1.89276 0
      vertex 20.9963 1.98351 2
    endloop
  endfacet
  facet normal 0.481756 0.876306 0
    outer loop
      vertex 20.9963 1.98351 2
      vertex 21.1613 1.89276 0
      vertex 20.9963 1.98351 0
    endloop
  endfacet
  facet normal 0.587785 0.809017 0
    outer loop
      vertex 20.9963 1.98351 2
      vertex 20.9963 1.98351 0
      vertex 20.8439 2.09423 2
    endloop
  endfacet
  facet normal 0.587785 0.809017 0
    outer loop
      vertex 20.8439 2.09423 2
      vertex 20.9963 1.98351 0
      vertex 20.8439 2.09423 0
    endloop
  endfacet
  facet normal 0.684546 0.728969 0
    outer loop
      vertex 20.8439 2.09423 2
      vertex 20.8439 2.09423 0
      vertex 20.7065 2.22318 2
    endloop
  endfacet
  facet normal 0.684546 0.728969 0
    outer loop
      vertex 20.7065 2.22318 2
      vertex 20.8439 2.09423 0
      vertex 20.7065 2.22318 0
    endloop
  endfacet
  facet normal 0.770515 0.637422 0
    outer loop
      vertex 20.5865 2.36832 2
      vertex 20.7065 2.22318 2
      vertex 20.7065 2.22318 0
    endloop
  endfacet
  facet normal 0.770515 0.637422 0
    outer loop
      vertex 20.5865 2.36832 0
      vertex 20.5865 2.36832 2
      vertex 20.7065 2.22318 0
    endloop
  endfacet
  facet normal 0.844326 0.535829 0
    outer loop
      vertex 20.4855 2.52737 2
      vertex 20.5865 2.36832 2
      vertex 20.5865 2.36832 0
    endloop
  endfacet
  facet normal 0.844326 0.535829 0
    outer loop
      vertex 20.4855 2.52737 0
      vertex 20.4855 2.52737 2
      vertex 20.5865 2.36832 0
    endloop
  endfacet
  facet normal 0.904827 0.42578 0
    outer loop
      vertex 20.4053 2.69781 2
      vertex 20.4855 2.52737 2
      vertex 20.4855 2.52737 0
    endloop
  endfacet
  facet normal 0.904827 0.42578 0
    outer loop
      vertex 20.4053 2.69781 0
      vertex 20.4053 2.69781 2
      vertex 20.4855 2.52737 0
    endloop
  endfacet
  facet normal 0.951057 0.309017 0
    outer loop
      vertex 20.3471 2.87696 2
      vertex 20.4053 2.69781 2
      vertex 20.4053 2.69781 0
    endloop
  endfacet
  facet normal 0.951057 0.309017 0
    outer loop
      vertex 20.3471 2.87696 0
      vertex 20.3471 2.87696 2
      vertex 20.4053 2.69781 0
    endloop
  endfacet
  facet normal 0.982288 0.18738 0
    outer loop
      vertex 20.3118 3.062 2
      vertex 20.3471 2.87696 2
      vertex 20.3471 2.87696 0
    endloop
  endfacet
  facet normal 0.982288 0.18738 0
    outer loop
      vertex 20.3118 3.062 0
      vertex 20.3118 3.062 2
      vertex 20.3471 2.87696 0
    endloop
  endfacet
endsolid OpenSCAD_Model
