999
dxflib 2.2.0.0
  0
SECTION
  2
HEADER
  9
$ACADVER
  1
AC1015
  9
$HANDSEED
  5
FFFF
  9
$SNAPSTYLE
 70
0
  9
$DIMAUNIT
 70
0
  9
$EXTMAX
 10
-10000000000.0
 20
-10000000000.0
 30
0.0
  9
$ORTHOMODE
 70
0
  9
$INSBASE
 10
0.0
 20
0.0
 30
0.0
  9
$DIMEXE
 40
1.25
  9
$AUPREC
 70
2
  9
$PSVPSCALE
 40
1.1000000000000001
  9
$SPLINESEGS
 70
8
  9
$GRIDMODE
 70
1
  9
$DIMEXO
 40
0.625
  9
$AUNITS
 70
0
  9
$LIMMIN
 10
0.0
 20
0.0
  9
$PINSBASE
 10
8.1042916701200003
 20
8.3012572540100003
 30
0.0
  9
$PLIMMIN
 10
0.0
 20
0.0
  9
$DIMGAP
 40
0.625
  9
$LUPREC
 70
4
  9
$DIMTSZ
 40
0.0
  9
$GRIDUNIT
 10
0.0
 20
0.0
  9
$CLAYER
  8
top2
  9
$LIMMAX
 10
420.0
 20
297.0
  9
$LUNITS
 70
2
  9
$LTSCALE
 40
1.0
  9
$INSUNITS
 70
0
  9
$DIMLUNIT
 70
2
  9
$DIMTXT
 40
10.0
  9
$PLIMMAX
 10
1189.0
 20
841.0
  9
$DIMADEC
 70
2
  9
$DIMSCALE
 40
1.0
  9
$TEXTSTYLE
  7
STANDARD
  9
$DWGCODEPAGE
  3
ANSI_1252
  9
$EXTMIN
 10
10000000000.0
 20
10000000000.0
 30
0.0
  9
$DIMSTYLE
  2
STANDARD
  9
$DIMASZ
 40
2.5
  9
$DIMLFAC
 40
1.0
  9
$DIMTIH
 70
0
  0
ENDSEC
  0
SECTION
  2
TABLES
  0
TABLE
  2
VPORT
  5
8
100
AcDbSymbolTable
 70
1
  0
VPORT
  5
30
100
AcDbSymbolTableRecord
100
AcDbViewportTableRecord
  2
*Active
 70
0
 10
0.0
 20
0.0
 11
1.0
 21
1.0
 12
286.3055555555554861
 22
148.5
 13
0.0
 23
0.0
 14
10.0
 24
10.0
 15
10.0
 25
10.0
 16
0.0
 26
0.0
 36
1.0
 17
0.0
 27
0.0
 37
0.0
 40
297.0
 41
1.92798353909465
 42
50.0
 43
0.0
 44
0.0
 50
0.0
 51
0.0
 71
0
 72
100
 73
1
 74
3
 75
1
 76
1
 77
0
 78
0
281
0
 65
1
110
0.0
120
0.0
130
0.0
111
1.0
121
0.0
131
0.0
112
0.0
122
1.0
132
0.0
 79
0
146
0.0
  0
ENDTAB
  0
TABLE
  2
LTYPE
  5
5
100
AcDbSymbolTable
 70
21
  0
LTYPE
  5
14
100
AcDbSymbolTableRecord
100
AcDbLinetypeTableRecord
  2
ByBlock
 70
0
  3

 72
65
 73
0
 40
0.0
  0
LTYPE
  5
15
100
AcDbSymbolTableRecord
100
AcDbLinetypeTableRecord
  2
ByLayer
 70
0
  3

 72
65
 73
0
 40
0.0
  0
LTYPE
  5
16
100
AcDbSymbolTableRecord
100
AcDbLinetypeTableRecord
  2
CONTINUOUS
 70
0
  3
Solid line
 72
65
 73
0
 40
0.0
  0
LTYPE
  5
31
100
AcDbSymbolTableRecord
100
AcDbLinetypeTableRecord
  2
DOT
 70
0
  3
Dot . . . . . . . . . . . . . . . . . . . . . .
 72
65
 73
2
 40
6.3499999999999996
 49
0.0
 74
0
 49
-6.3499999999999996
 74
0
  0
LTYPE
  5
32
100
AcDbSymbolTableRecord
100
AcDbLinetypeTableRecord
  2
DOT2
 70
0
  3
Dot (.5x) .....................................
 72
65
 73
2
 40
3.1749999999999998
 49
0.0
 74
0
 49
-3.1749999999999998
 74
0
  0
LTYPE
  5
33
100
AcDbSymbolTableRecord
100
AcDbLinetypeTableRecord
  2
DOTX2
 70
0
  3
Dot (2x) .  .  .  .  .  .  .  .  .  .  .  .  .
 72
65
 73
2
 40
12.6999999999999993
 49
0.0
 74
0
 49
-12.6999999999999993
 74
0
  0
LTYPE
  5
34
100
AcDbSymbolTableRecord
100
AcDbLinetypeTableRecord
  2
DASHED
 70
0
  3
Dashed __ __ __ __ __ __ __ __ __ __ __ __ __ _
 72
65
 73
2
 40
19.0500000000000007
 49
12.6999999999999993
 74
0
 49
-6.3499999999999996
 74
0
  0
LTYPE
  5
35
100
AcDbSymbolTableRecord
100
AcDbLinetypeTableRecord
  2
DASHED2
 70
0
  3
Dashed (.5x) _ _ _ _ _ _ _ _ _ _ _ _ _ _ _ _ _
 72
65
 73
2
 40
9.5250000000000004
 49
6.3499999999999996
 74
0
 49
-3.1749999999999998
 74
0
  0
LTYPE
  5
36
100
AcDbSymbolTableRecord
100
AcDbLinetypeTableRecord
  2
DASHEDX2
 70
0
  3
Dashed (2x) ____  ____  ____  ____  ____  ___
 72
65
 73
2
 40
38.1000000000000014
 49
25.3999999999999986
 74
0
 49
-12.6999999999999993
 74
0
  0
LTYPE
  5
37
100
AcDbSymbolTableRecord
100
AcDbLinetypeTableRecord
  2
DASHDOT
 70
0
  3
Dash dot __ . __ . __ . __ . __ . __ . __ . __
 72
65
 73
4
 40
25.3999999999999986
 49
12.6999999999999993
 74
0
 49
-6.3499999999999996
 74
0
 49
0.0
 74
0
 49
-6.3499999999999996
 74
0
  0
LTYPE
  5
38
100
AcDbSymbolTableRecord
100
AcDbLinetypeTableRecord
  2
DASHDOT2
 70
0
  3
Dash dot (.5x) _._._._._._._._._._._._._._._.
 72
65
 73
4
 40
12.6999999999999993
 49
6.3499999999999996
 74
0
 49
-3.1749999999999998
 74
0
 49
0.0
 74
0
 49
-3.1749999999999998
 74
0
  0
LTYPE
  5
39
100
AcDbSymbolTableRecord
100
AcDbLinetypeTableRecord
  2
DASHDOTX2
 70
0
  3
Dash dot (2x) ____  .  ____  .  ____  .  ___
 72
65
 73
4
 40
50.7999999999999972
 49
25.3999999999999986
 74
0
 49
-12.6999999999999993
 74
0
 49
0.0
 74
0
 49
-12.6999999999999993
 74
0
  0
LTYPE
  5
3A
100
AcDbSymbolTableRecord
100
AcDbLinetypeTableRecord
  2
DIVIDE
 70
0
  3
Divide ____ . . ____ . . ____ . . ____ . . ____
 72
65
 73
6
 40
31.75
 49
12.6999999999999993
 74
0
 49
-6.3499999999999996
 74
0
 49
0.0
 74
0
 49
-6.3499999999999996
 74
0
 49
0.0
 74
0
 49
-6.3499999999999996
 74
0
  0
LTYPE
  5
3B
100
AcDbSymbolTableRecord
100
AcDbLinetypeTableRecord
  2
DIVIDE2
 70
0
  3
Divide (.5x) __..__..__..__..__..__..__..__.._
 72
65
 73
6
 40
15.875
 49
6.3499999999999996
 74
0
 49
-3.1749999999999998
 74
0
 49
0.0
 74
0
 49
-3.1749999999999998
 74
0
 49
0.0
 74
0
 49
-3.1749999999999998
 74
0
  0
LTYPE
  5
3C
100
AcDbSymbolTableRecord
100
AcDbLinetypeTableRecord
  2
DIVIDEX2
 70
0
  3
Divide (2x) ________  .  .  ________  .  .  _
 72
65
 73
6
 40
63.5
 49
25.3999999999999986
 74
0
 49
-12.6999999999999993
 74
0
 49
0.0
 74
0
 49
-12.6999999999999993
 74
0
 49
0.0
 74
0
 49
-12.6999999999999993
 74
0
  0
LTYPE
  5
3D
100
AcDbSymbolTableRecord
100
AcDbLinetypeTableRecord
  2
CENTER
 70
0
  3
Center ____ _ ____ _ ____ _ ____ _ ____ _ ____
 72
65
 73
4
 40
50.7999999999999972
 49
31.75
 74
0
 49
-6.3499999999999996
 74
0
 49
6.3499999999999996
 74
0
 49
-6.3499999999999996
 74
0
  0
LTYPE
  5
3E
100
AcDbSymbolTableRecord
100
AcDbLinetypeTableRecord
  2
CENTER2
 70
0
  3
Center (.5x) ___ _ ___ _ ___ _ ___ _ ___ _ ___
 72
65
 73
4
 40
28.5749999999999993
 49
19.0500000000000007
 74
0
 49
-3.1749999999999998
 74
0
 49
3.1749999999999998
 74
0
 49
-3.1749999999999998
 74
0
  0
LTYPE
  5
3F
100
AcDbSymbolTableRecord
100
AcDbLinetypeTableRecord
  2
CENTERX2
 70
0
  3
Center (2x) ________  __  ________  __  _____
 72
65
 73
4
 40
101.5999999999999943
 49
63.5
 74
0
 49
-12.6999999999999993
 74
0
 49
12.6999999999999993
 74
0
 49
-12.6999999999999993
 74
0
  0
LTYPE
  5
40
100
AcDbSymbolTableRecord
100
AcDbLinetypeTableRecord
  2
BORDER
 70
0
  3
Border __ __ . __ __ . __ __ . __ __ . __ __ .
 72
65
 73
6
 40
44.4500000000000028
 49
12.6999999999999993
 74
0
 49
-6.3499999999999996
 74
0
 49
12.6999999999999993
 74
0
 49
-6.3499999999999996
 74
0
 49
0.0
 74
0
 49
-6.3499999999999996
 74
0
  0
LTYPE
  5
41
100
AcDbSymbolTableRecord
100
AcDbLinetypeTableRecord
  2
BORDER2
 70
0
  3
Border (.5x) __.__.__.__.__.__.__.__.__.__.__.
 72
65
 73
6
 40
22.2250000000000014
 49
6.3499999999999996
 74
0
 49
-3.1749999999999998
 74
0
 49
6.3499999999999996
 74
0
 49
-3.1749999999999998
 74
0
 49
0.0
 74
0
 49
-3.1749999999999998
 74
0
  0
LTYPE
  5
42
100
AcDbSymbolTableRecord
100
AcDbLinetypeTableRecord
  2
BORDERX2
 70
0
  3
Border (2x) ____  ____  .  ____  ____  .  ___
 72
65
 73
6
 40
88.9000000000000057
 49
25.3999999999999986
 74
0
 49
-12.6999999999999993
 74
0
 49
25.3999999999999986
 74
0
 49
-12.6999999999999993
 74
0
 49
0.0
 74
0
 49
-12.6999999999999993
 74
0
  0
ENDTAB
  0
TABLE
  2
LAYER
  5
2
100
AcDbSymbolTable
 70
8
  0
LAYER
  5
10
100
AcDbSymbolTableRecord
100
AcDbLayerTableRecord
  2
0
 70
0
 62
7
  6
CONTINUOUS
290
1
370
0
390
F
  0
LAYER
  5
43
100
AcDbSymbolTableRecord
100
AcDbLayerTableRecord
  2
Profils-T
 70
1
 62
7
  6
CONTINUOUS
290
1
370
0
390
F
  0
LAYER
  5
44
100
AcDbSymbolTableRecord
100
AcDbLayerTableRecord
  2
cotes
 70
1
 62
8
  6
CONTINUOUS
290
1
370
0
390
F
  0
LAYER
  5
45
100
AcDbSymbolTableRecord
100
AcDbLayerTableRecord
  2
foot2
 70
0
 62
7
  6
CONTINUOUS
290
1
370
0
390
F
  0
LAYER
  5
46
100
AcDbSymbolTableRecord
100
AcDbLayerTableRecord
  2
plateau
 70
0
 62
7
  6
CONTINUOUS
290
1
370
0
390
F
  0
LAYER
  5
47
100
AcDbSymbolTableRecord
100
AcDbLayerTableRecord
  2
plateau-haut
 70
0
 62
7
  6
CONTINUOUS
290
1
370
0
390
F
  0
LAYER
  5
48
100
AcDbSymbolTableRecord
100
AcDbLayerTableRecord
  2
top2
 70
0
 62
7
  6
CONTINUOUS
290
1
370
0
390
F
  0
LAYER
  5
49
100
AcDbSymbolTableRecord
100
AcDbLayerTableRecord
  2
Top-fix-vues-orthogonales
 70
0
 62
7
  6
CONTINUOUS
290
1
370
0
390
F
  0
ENDTAB
  0
TABLE
  2
STYLE
  5
3
100
AcDbSymbolTable
 70
1
  0
STYLE
  5
11
100
AcDbSymbolTableRecord
100
AcDbTextStyleTableRecord
  2
Standard
 70
0
 40
0.0
 41
0.75
 50
0.0
 71
0
 42
2.5
  3
txt
  4

  0
ENDTAB
  0
TABLE
  2
VIEW
  5
6
100
AcDbSymbolTable
 70
0
  0
ENDTAB
  0
TABLE
  2
UCS
  5
7
100
AcDbSymbolTable
 70
0
  0
ENDTAB
  0
TABLE
  2
APPID
  5
9
100
AcDbSymbolTable
 70
1
  0
APPID
  5
12
100
AcDbSymbolTableRecord
100
AcDbRegAppTableRecord
  2
ACAD
 70
0
  0
ENDTAB
  0
TABLE
  2
DIMSTYLE
  5
A
100
AcDbSymbolTable
 70
1
100
AcDbDimStyleTable
 71
0
  0
DIMSTYLE
105
27
100
AcDbSymbolTableRecord
100
AcDbDimStyleTableRecord
  2
Standard
 41
2.5
 42
0.625
 43
3.75
 44
1.25
 70
0
 73
0
 74
0
 77
1
 78
8
140
10.0
141
2.5
143
0.03937007874016
147
0.625
171
3
172
1
271
2
272
2
274
3
278
44
283
0
284
8
340
11
  0
ENDTAB
  0
TABLE
  2
BLOCK_RECORD
  5
1
100
AcDbSymbolTable
 70
1
  0
BLOCK_RECORD
  5
1F
100
AcDbSymbolTableRecord
100
AcDbBlockTableRecord
  2
*Model_Space
340
22
  0
BLOCK_RECORD
  5
1B
100
AcDbSymbolTableRecord
100
AcDbBlockTableRecord
  2
*Paper_Space
340
1E
  0
BLOCK_RECORD
  5
23
100
AcDbSymbolTableRecord
100
AcDbBlockTableRecord
  2
*Paper_Space0
340
26
  0
BLOCK_RECORD
  5
4A
100
AcDbSymbolTableRecord
100
AcDbBlockTableRecord
  2
*D1
340
0
  0
BLOCK_RECORD
  5
4B
100
AcDbSymbolTableRecord
100
AcDbBlockTableRecord
  2
*D2
340
0
  0
BLOCK_RECORD
  5
4C
100
AcDbSymbolTableRecord
100
AcDbBlockTableRecord
  2
a3
340
0
  0
BLOCK_RECORD
  5
4D
100
AcDbSymbolTableRecord
100
AcDbBlockTableRecord
  2
a3-0
340
0
  0
BLOCK_RECORD
  5
4E
100
AcDbSymbolTableRecord
100
AcDbBlockTableRecord
  2
foot-cotes
340
0
  0
BLOCK_RECORD
  5
4F
100
AcDbSymbolTableRecord
100
AcDbBlockTableRecord
  2
all-test-0
340
0
  0
BLOCK_RECORD
  5
50
100
AcDbSymbolTableRecord
100
AcDbBlockTableRecord
  2
a3-1
340
0
  0
BLOCK_RECORD
  5
51
100
AcDbSymbolTableRecord
100
AcDbBlockTableRecord
  2
a3-0-0
340
0
  0
BLOCK_RECORD
  5
52
100
AcDbSymbolTableRecord
100
AcDbBlockTableRecord
  2
foot-cotes-0
340
0
  0
BLOCK_RECORD
  5
53
100
AcDbSymbolTableRecord
100
AcDbBlockTableRecord
  2
all-test-1
340
0
  0
ENDTAB
  0
ENDSEC
  0
SECTION
  2
BLOCKS
  0
BLOCK
  5
20
100
AcDbEntity
  8
0
100
AcDbBlockBegin
  2
*Model_Space
 70
0
 10
0.0
 20
0.0
 30
0.0
  3
*Model_Space
  1

  0
ENDBLK
  5
21
100
AcDbEntity
  8
0
100
AcDbBlockEnd
  0
BLOCK
  5
1C
100
AcDbEntity
 67
1
  8
0
100
AcDbBlockBegin
  2
*Paper_Space
 70
0
 10
0.0
 20
0.0
 30
0.0
  3
*Paper_Space
  1

  0
ENDBLK
  5
1D
100
AcDbEntity
 67
1
  8
0
100
AcDbBlockEnd
  0
BLOCK
  5
24
100
AcDbEntity
  8
0
100
AcDbBlockBegin
  2
*Paper_Space0
 70
0
 10
0.0
 20
0.0
 30
0.0
  3
*Paper_Space0
  1

  0
ENDBLK
  5
25
100
AcDbEntity
  8
0
100
AcDbBlockEnd
  0
BLOCK
  5
54
100
AcDbEntity
  8
0
100
AcDbBlockBegin
  2
*D1
 70
0
 10
0.0
 20
0.0
 30
0.0
  3
*D1
  1

  0
LINE
  5
55
100
AcDbEntity
100
AcDbLine
  8
cotes
 62
7
370
0
  6
CONTINUOUS
 10
0.625
 20
0.0000000000000231
 30
0.0
 11
1.25
 21
0.0000000000000231
 31
0.0
  0
LINE
  5
56
100
AcDbEntity
100
AcDbLine
  8
cotes
 62
7
370
0
  6
CONTINUOUS
 10
350.625
 20
606.2177826490000143
 30
0.0
 11
351.25
 21
606.2177826490000143
 31
0.0
  0
LINE
  5
57
100
AcDbEntity
100
AcDbLine
  8
cotes
 62
7
370
0
  6
CONTINUOUS
 10
0.0000000000000568
 20
0.0000000000000231
 30
0.0
 11
350.0
 21
606.2177826490000143
 31
0.0
  0
MTEXT
  5
58
100
AcDbEntity
100
AcDbMText
  8
cotes
 62
7
370
0
  6
CONTINUOUS
 10
170.1286071039999968
 20
305.9213913250000019
 30
0.0
 40
10.0
 41
20.0
 71
5
 72
0
  1
700
  7
standard
 50
3437.7467707849395993
 73
1
 44
1.0
  0
ENDBLK
  5
59
100
AcDbEntity
  8
0
100
AcDbBlockEnd
  0
BLOCK
  5
5A
100
AcDbEntity
  8
0
100
AcDbBlockBegin
  2
*D2
 70
0
 10
0.0
 20
0.0
 30
0.0
  3
*D2
  1

  0
LINE
  5
5B
100
AcDbEntity
100
AcDbLine
  8
cotes
 62
7
370
0
  6
CONTINUOUS
 10
350.0
 20
202.0725942159999988
 30
0.0
 11
779.1451779669999951
 21
202.0725942159999988
 31
0.0
  0
MTEXT
  5
5C
100
AcDbEntity
100
AcDbMText
  8
cotes
 62
7
370
0
  6
CONTINUOUS
 10
564.5725889840000491
 20
207.6975942159999988
 30
0.0
 40
10.0
 41
54.4444444443999984
 71
5
 72
0
  1
429.1452
  7
standard
 50
0.0
 73
1
 44
1.0
  0
LINE
  5
5D
100
AcDbEntity
100
AcDbLine
  8
cotes
 62
7
370
0
  6
CONTINUOUS
 10
350.0
 20
202.6975942159999988
 30
0.0
 11
350.0
 21
203.3225942159999988
 31
0.0
  0
LINE
  5
5E
100
AcDbEntity
100
AcDbLine
  8
cotes
 62
7
370
0
  6
CONTINUOUS
 10
779.1451779669999951
 20
202.6975942159999988
 30
0.0
 11
779.1451779669999951
 21
203.3225942159999988
 31
0.0
  0
ENDBLK
  5
5F
100
AcDbEntity
  8
0
100
AcDbBlockEnd
  0
BLOCK
  5
60
100
AcDbEntity
  8
0
100
AcDbBlockBegin
  2
a3
 70
0
 10
0.0
 20
0.0
 30
0.0
  3
a3
  1

  0
ENDBLK
  5
61
100
AcDbEntity
  8
0
100
AcDbBlockEnd
  0
BLOCK
  5
62
100
AcDbEntity
  8
0
100
AcDbBlockBegin
  2
a3-0
 70
0
 10
0.0
 20
0.0
 30
0.0
  3
a3-0
  1

  0
ENDBLK
  5
63
100
AcDbEntity
  8
0
100
AcDbBlockEnd
  0
BLOCK
  5
64
100
AcDbEntity
  8
0
100
AcDbBlockBegin
  2
foot-cotes
 70
0
 10
0.0
 20
0.0
 30
0.0
  3
foot-cotes
  1

  0
ENDBLK
  5
65
100
AcDbEntity
  8
0
100
AcDbBlockEnd
  0
BLOCK
  5
66
100
AcDbEntity
  8
0
100
AcDbBlockBegin
  2
all-test-0
 70
0
 10
0.0
 20
0.0
 30
0.0
  3
all-test-0
  1

  0
LINE
  5
67
100
AcDbEntity
100
AcDbLine
  8
foot2
 62
256
370
-1
  6
ByLayer
 10
-32.1550681670999978
 20
-10.3745536971999996
 30
0.0
 11
-41.4050681670999978
 21
-28.8745536971999996
 31
0.0
  0
LINE
  5
68
100
AcDbEntity
100
AcDbLine
  8
foot2
 62
256
370
-1
  6
ByLayer
 10
-41.4050681670999978
 20
-28.8745536971999996
 30
0.0
 11
-53.1550681670999978
 21
-28.8745536971999996
 31
0.0
  0
LINE
  5
69
100
AcDbEntity
100
AcDbLine
  8
foot2
 62
256
370
-1
  6
ByLayer
 10
-53.1550681670999978
 20
-28.8745536971999996
 30
0.0
 11
-62.4050681670999978
 21
-10.3745536971999996
 31
0.0
  0
LINE
  5
6A
100
AcDbEntity
100
AcDbLine
  8
foot2
 62
256
370
-1
  6
ByLayer
 10
-62.4050681670999978
 20
-10.3745536971999996
 30
0.0
 11
-62.4050681670999978
 21
1.3754463027699999
 31
0.0
  0
LINE
  5
6B
100
AcDbEntity
100
AcDbLine
  8
foot2
 62
256
370
-1
  6
ByLayer
 10
-32.1550681670999978
 20
1.3754463027699999
 30
0.0
 11
-32.1550681670999978
 21
-10.3745536971999996
 31
0.0
  0
LINE
  5
6C
100
AcDbEntity
100
AcDbLine
  8
foot2
 62
256
370
-1
  6
ByLayer
 10
-57.4800681671000007
 20
-3.5495536972299999
 30
0.0
 11
-57.4800681671000007
 21
-5.4495536972299998
 31
0.0
  0
LINE
  5
6D
100
AcDbEntity
100
AcDbLine
  8
foot2
 62
256
370
-1
  6
ByLayer
 10
-48.2300681671000007
 20
-5.4495536972299998
 30
0.0
 11
-57.4800681671000007
 21
-5.4495536972299998
 31
0.0
  0
LINE
  5
6E
100
AcDbEntity
100
AcDbLine
  8
foot2
 62
256
370
-1
  6
ByLayer
 10
-48.2300681671000007
 20
-23.9495536971999989
 30
0.0
 11
-48.2300681671000007
 21
-5.4495536972299998
 31
0.0
  0
LINE
  5
6F
100
AcDbEntity
100
AcDbLine
  8
foot2
 62
256
370
-1
  6
ByLayer
 10
-48.2300681671000007
 20
-23.9495536971999989
 30
0.0
 11
-46.3300681671000021
 21
-23.9495536971999989
 31
0.0
  0
LINE
  5
70
100
AcDbEntity
100
AcDbLine
  8
foot2
 62
256
370
-1
  6
ByLayer
 10
-46.3300681671000021
 20
-23.9495536971999989
 30
0.0
 11
-46.3300681671000021
 21
-5.4495536972299998
 31
0.0
  0
LINE
  5
71
100
AcDbEntity
100
AcDbLine
  8
foot2
 62
256
370
-1
  6
ByLayer
 10
-37.0800681671000021
 20
-3.5495536972299999
 30
0.0
 11
-57.4800681671000007
 21
-3.5495536972299999
 31
0.0
  0
LINE
  5
72
100
AcDbEntity
100
AcDbLine
  8
foot2
 62
256
370
-1
  6
ByLayer
 10
-37.0800681671000021
 20
-5.4495536972299998
 30
0.0
 11
-37.0800681671000021
 21
-3.5495536972299999
 31
0.0
  0
LINE
  5
73
100
AcDbEntity
100
AcDbLine
  8
foot2
 62
256
370
-1
  6
ByLayer
 10
-37.0800681671000021
 20
-5.4495536972299998
 30
0.0
 11
-46.3300681671000021
 21
-5.4495536972299998
 31
0.0
  0
LINE
  5
74
100
AcDbEntity
100
AcDbLine
  8
foot2
 62
256
370
-1
  6
ByLayer
 10
-43.7800681046999998
 20
23.2504462258000011
 30
0.0
 11
-43.7800681379999972
 21
15.2504462257999993
 31
0.0
  0
LINE
  5
75
100
AcDbEntity
100
AcDbLine
  8
foot2
 62
256
370
-1
  6
ByLayer
 10
-50.7800681046999998
 20
23.250446255
 30
0.0
 11
-50.7800681379999972
 21
15.250446255
 31
0.0
  0
LINE
  5
76
100
AcDbEntity
100
AcDbLine
  8
foot2
 62
256
370
-1
  6
ByLayer
 10
-42.780068100500003
 20
24.250446221699999
 30
0.0
 11
-43.7800681046999998
 21
23.2504462258000011
 31
0.0
  0
LINE
  5
77
100
AcDbEntity
100
AcDbLine
  8
foot2
 62
256
370
-1
  6
ByLayer
 10
-43.7800681379999972
 20
15.2504462257999993
 30
0.0
 11
-42.7800681420999993
 21
14.2504462217000007
 31
0.0
  0
LINE
  5
78
100
AcDbEntity
100
AcDbLine
  8
foot2
 62
256
370
-1
  6
ByLayer
 10
-50.7800681046999998
 20
23.250446255
 30
0.0
 11
-51.780068100500003
 21
24.2504462590999985
 31
0.0
  0
LINE
  5
79
100
AcDbEntity
100
AcDbLine
  8
foot2
 62
256
370
-1
  6
ByLayer
 10
-50.7800681379999972
 20
15.250446255
 30
0.0
 11
-51.7800681422000011
 21
14.2504462591000003
 31
0.0
  0
LINE
  5
7A
100
AcDbEntity
100
AcDbLine
  8
foot2
 62
256
370
-1
  6
ByLayer
 10
-54.7800680714000023
 20
31.2504462716000013
 30
0.0
 11
-51.7800680714000023
 21
31.2504462590999985
 31
0.0
  0
LINE
  5
7B
100
AcDbEntity
100
AcDbLine
  8
foot2
 62
256
370
-1
  6
ByLayer
 10
-42.7800680714000023
 20
31.250446221699999
 30
0.0
 11
-39.7800680714000023
 21
31.2504462091999997
 31
0.0
  0
LINE
  5
7C
100
AcDbEntity
100
AcDbLine
  8
foot2
 62
256
370
-1
  6
ByLayer
 10
-42.7800680714000023
 20
31.250446221699999
 30
0.0
 11
-42.7800681956999966
 21
1.3754463027699999
 31
0.0
  0
LINE
  5
7D
100
AcDbEntity
100
AcDbLine
  8
foot2
 62
256
370
-1
  6
ByLayer
 10
-51.7800680714000023
 20
31.2504462590999985
 30
0.0
 11
-51.7800681957999984
 21
1.3754463027699999
 31
0.0
  0
LINE
  5
7E
100
AcDbEntity
100
AcDbLine
  8
foot2
 62
256
370
-1
  6
ByLayer
 10
-51.7800681957999984
 20
1.3754463027699999
 30
0.0
 11
-42.7800681956999966
 21
1.3754463027699999
 31
0.0
  0
LINE
  5
7F
100
AcDbEntity
100
AcDbLine
  8
foot2
 62
256
370
-1
  6
ByLayer
 10
-39.7800681956999966
 20
1.3754463027699999
 30
0.0
 11
-32.1550681670999978
 21
1.3754463027699999
 31
0.0
  0
LINE
  5
80
100
AcDbEntity
100
AcDbLine
  8
foot2
 62
256
370
-1
  6
ByLayer
 10
-62.4050681670999978
 20
1.3754463027699999
 30
0.0
 11
-54.7800681957999984
 21
1.3754463027699999
 31
0.0
  0
LINE
  5
81
100
AcDbEntity
100
AcDbLine
  8
foot2
 62
256
370
-1
  6
ByLayer
 10
-53.2300681671000007
 20
-28.8745536971999996
 30
0.0
 11
-53.2300681671000007
 21
-10.4495536972000007
 31
0.0
  0
LINE
  5
82
100
AcDbEntity
100
AcDbLine
  8
foot2
 62
256
370
-1
  6
ByLayer
 10
-53.2300681671000007
 20
-10.4495536972000007
 30
0.0
 11
-62.4050681670999978
 21
-10.4495536972000007
 31
0.0
  0
LINE
  5
83
100
AcDbEntity
100
AcDbLine
  8
foot2
 62
256
370
-1
  6
ByLayer
 10
-32.1550681670999978
 20
-10.4495536972000007
 30
0.0
 11
-41.3300681671000021
 21
-10.4495536972000007
 31
0.0
  0
LINE
  5
84
100
AcDbEntity
100
AcDbLine
  8
foot2
 62
256
370
-1
  6
ByLayer
 10
-41.3300681671000021
 20
-28.8745536971999996
 30
0.0
 11
-41.3300681671000021
 21
-10.4495536972000007
 31
0.0
  0
LINE
  5
85
100
AcDbEntity
100
AcDbLine
  8
foot2
 62
256
370
-1
  6
ByLayer
 10
-51.7800680714000023
 20
31.2504462590999985
 30
0.0
 11
-42.7800680714000023
 21
31.250446221699999
 31
0.0
  0
LINE
  5
86
100
AcDbEntity
100
AcDbLine
  8
foot2
 62
256
370
-1
  6
ByLayer
 10
-54.7800680463999967
 20
37.2504462715999978
 30
0.0
 11
-54.7800681957999984
 21
1.3754463027699999
 31
0.0
  0
LINE
  5
87
100
AcDbEntity
100
AcDbLine
  8
foot2
 62
256
370
-1
  6
ByLayer
 10
-39.7800680463999967
 20
37.2504462091999997
 30
0.0
 11
-54.7800680463999967
 21
37.2504462715999978
 31
0.0
  0
LINE
  5
88
100
AcDbEntity
100
AcDbLine
  8
foot2
 62
256
370
-1
  6
ByLayer
 10
-39.7800680463999967
 20
37.2504462091999997
 30
0.0
 11
-39.7800681956999966
 21
1.37544629027
 31
0.0
  0
CIRCLE
  5
89
100
AcDbEntity
100
AcDbCircle
  8
foot2
 62
256
370
-1
  6
ByLayer
 10
-47.2800680588999995
 20
34.2504462404000023
 30
0.0
 40
2.0
  0
POINT
  5
8A
100
AcDbEntity
100
AcDbPoint
  8
foot2
 62
256
370
-1
  6
ByLayer
 10
-57.2800681670999978
 20
-23.7495536971999996
 30
0.0
  0
ENDBLK
  5
8B
100
AcDbEntity
  8
0
100
AcDbBlockEnd
  0
BLOCK
  5
8C
100
AcDbEntity
  8
0
100
AcDbBlockBegin
  2
a3-1
 70
0
 10
0.0
 20
0.0
 30
0.0
  3
a3-1
  1

  0
ENDBLK
  5
8D
100
AcDbEntity
  8
0
100
AcDbBlockEnd
  0
BLOCK
  5
8E
100
AcDbEntity
  8
0
100
AcDbBlockBegin
  2
a3-0-0
 70
0
 10
0.0
 20
0.0
 30
0.0
  3
a3-0-0
  1

  0
ENDBLK
  5
8F
100
AcDbEntity
  8
0
100
AcDbBlockEnd
  0
BLOCK
  5
90
100
AcDbEntity
  8
0
100
AcDbBlockBegin
  2
foot-cotes-0
 70
0
 10
0.0
 20
0.0
 30
0.0
  3
foot-cotes-0
  1

  0
ENDBLK
  5
91
100
AcDbEntity
  8
0
100
AcDbBlockEnd
  0
BLOCK
  5
92
100
AcDbEntity
  8
0
100
AcDbBlockBegin
  2
all-test-1
 70
0
 10
0.0
 20
0.0
 30
0.0
  3
all-test-1
  1

  0
LINE
  5
93
100
AcDbEntity
100
AcDbLine
  8
Top-fix-vues-orthogonales
 62
256
370
-1
  6
ByLayer
 10
-111.9249999999999972
 20
-5.125
 30
0.0
 11
-123.6749999999999972
 21
-5.125
 31
0.0
  0
LINE
  5
94
100
AcDbEntity
100
AcDbLine
  8
Top-fix-vues-orthogonales
 62
256
370
-1
  6
ByLayer
 10
-102.6749999999999972
 20
25.125
 30
0.0
 11
-102.6749999999999972
 21
13.375
 31
0.0
  0
LINE
  5
95
100
AcDbEntity
100
AcDbLine
  8
Top-fix-vues-orthogonales
 62
256
370
-1
  6
ByLayer
 10
-125.9250001460000021
 20
25.125
 30
0.0
 11
-102.6749999999999972
 21
25.125
 31
0.0
  0
LINE
  5
96
100
AcDbEntity
100
AcDbLine
  8
Top-fix-vues-orthogonales
 62
256
370
-1
  6
ByLayer
 10
-132.9250000000000114
 20
13.375
 30
0.0
 11
-123.6749999999999972
 21
-5.125
 31
0.0
  0
LINE
  5
97
100
AcDbEntity
100
AcDbLine
  8
Top-fix-vues-orthogonales
 62
256
370
-1
  6
ByLayer
 10
-102.6749999999999972
 20
13.375
 30
0.0
 11
-111.9249999999999972
 21
-5.125
 31
0.0
  0
LINE
  5
98
100
AcDbEntity
100
AcDbLine
  8
Top-fix-vues-orthogonales
 62
256
370
-1
  6
ByLayer
 10
-127.9249999999999972
 20
20.125
 30
0.0
 11
-107.6749999999999972
 21
20.125
 31
0.0
  0
LINE
  5
99
100
AcDbEntity
100
AcDbLine
  8
Top-fix-vues-orthogonales
 62
256
370
-1
  6
ByLayer
 10
-116.9249999999999972
 20
18.375
 30
0.0
 11
-107.6749999999999972
 21
18.375
 31
0.0
  0
LINE
  5
9A
100
AcDbEntity
100
AcDbLine
  8
Top-fix-vues-orthogonales
 62
256
370
-1
  6
ByLayer
 10
-127.9249999999999972
 20
18.375
 30
0.0
 11
-118.6749999999999972
 21
18.375
 31
0.0
  0
LINE
  5
9B
100
AcDbEntity
100
AcDbLine
  8
Top-fix-vues-orthogonales
 62
256
370
-1
  6
ByLayer
 10
-116.9249999999999972
 20
-0.125
 30
0.0
 11
-116.9249999999999972
 21
18.375
 31
0.0
  0
LINE
  5
9C
100
AcDbEntity
100
AcDbLine
  8
Top-fix-vues-orthogonales
 62
256
370
-1
  6
ByLayer
 10
-118.6749999999999972
 20
-0.125
 30
0.0
 11
-118.6749999999999972
 21
18.375
 31
0.0
  0
LINE
  5
9D
100
AcDbEntity
100
AcDbLine
  8
Top-fix-vues-orthogonales
 62
256
370
-1
  6
ByLayer
 10
-132.9250000000000114
 20
13.375
 30
0.0
 11
-123.6749999999999972
 21
13.375
 31
0.0
  0
LINE
  5
9E
100
AcDbEntity
100
AcDbLine
  8
Top-fix-vues-orthogonales
 62
256
370
-1
  6
ByLayer
 10
-123.6749999999999972
 20
-5.125
 30
0.0
 11
-123.6749999999999972
 21
13.375
 31
0.0
  0
LINE
  5
9F
100
AcDbEntity
100
AcDbLine
  8
Top-fix-vues-orthogonales
 62
256
370
-1
  6
ByLayer
 10
-111.9249999999999972
 20
13.375
 30
0.0
 11
-102.6749999999999972
 21
13.375
 31
0.0
  0
LINE
  5
A0
100
AcDbEntity
100
AcDbLine
  8
Top-fix-vues-orthogonales
 62
256
370
-1
  6
ByLayer
 10
-127.9249999999999972
 20
20.125
 30
0.0
 11
-127.9249999999999972
 21
18.375
 31
0.0
  0
LINE
  5
A1
100
AcDbEntity
100
AcDbLine
  8
Top-fix-vues-orthogonales
 62
256
370
-1
  6
ByLayer
 10
-107.6749999999999972
 20
20.125
 30
0.0
 11
-107.6749999999999972
 21
18.375
 31
0.0
  0
LINE
  5
A2
100
AcDbEntity
100
AcDbLine
  8
Top-fix-vues-orthogonales
 62
256
370
-1
  6
ByLayer
 10
-118.6749999999999972
 20
-0.125
 30
0.0
 11
-116.9249999999999972
 21
-0.125
 31
0.0
  0
LINE
  5
A3
100
AcDbEntity
100
AcDbLine
  8
Top-fix-vues-orthogonales
 62
256
370
-1
  6
ByLayer
 10
-111.9249999999999972
 20
13.375
 30
0.0
 11
-111.9249999999999972
 21
-5.125
 31
0.0
  0
CIRCLE
  5
A4
100
AcDbEntity
100
AcDbCircle
  8
Top-fix-vues-orthogonales
 62
256
370
-1
  6
ByLayer
 10
-126.5313082299999934
 20
7.2958203932499996
 30
0.0
 40
2.0
  0
CIRCLE
  5
A5
100
AcDbEntity
100
AcDbCircle
  8
Top-fix-vues-orthogonales
 62
256
370
-1
  6
ByLayer
 10
-109.0686917700000009
 20
7.2958203932499996
 30
0.0
 40
2.0
  0
LINE
  5
A6
100
AcDbEntity
100
AcDbLine
  8
Top-fix-vues-orthogonales
 62
256
370
-1
  6
ByLayer
 10
-132.9250000000000114
 20
13.375
 30
0.0
 11
-132.9250000000000114
 21
17.4599999007999998
 31
0.0
  0
LINE
  5
A7
100
AcDbEntity
100
AcDbLine
  8
Top-fix-vues-orthogonales
 62
256
370
-1
  6
ByLayer
 10
-130.9250001460000021
 20
17.4599999007999998
 30
0.0
 11
-132.9250000000000114
 21
17.4599999007999998
 31
0.0
  0
LINE
  5
A8
100
AcDbEntity
100
AcDbLine
  8
Top-fix-vues-orthogonales
 62
256
370
-1
  6
ByLayer
 10
-125.9250001460000021
 20
25.125
 30
0.0
 11
-125.9250001460000021
 21
60.2599999007999969
 31
0.0
  0
LINE
  5
A9
100
AcDbEntity
100
AcDbLine
  8
Top-fix-vues-orthogonales
 62
256
370
-1
  6
ByLayer
 10
-122.9250001460000021
 20
60.2599999007999969
 30
0.0
 11
-122.9250001460000021
 21
68.2599999007999969
 31
0.0
  0
LINE
  5
AA
100
AcDbEntity
100
AcDbLine
  8
Top-fix-vues-orthogonales
 62
256
370
-1
  6
ByLayer
 10
-122.9250001460000021
 20
68.2599999007999969
 30
0.0
 11
-130.9250001460000021
 21
68.2599999007999969
 31
0.0
  0
LINE
  5
AB
100
AcDbEntity
100
AcDbLine
  8
Top-fix-vues-orthogonales
 62
256
370
-1
  6
ByLayer
 10
-125.9250001460000021
 20
60.2599999007999969
 30
0.0
 11
-130.9250001460000021
 21
60.2599999007999969
 31
0.0
  0
LINE
  5
AC
100
AcDbEntity
100
AcDbLine
  8
Top-fix-vues-orthogonales
 62
256
370
-1
  6
ByLayer
 10
-122.9250001460000021
 20
60.2599999007999969
 30
0.0
 11
-125.9250001460000021
 21
60.2599999007999969
 31
0.0
  0
CIRCLE
  5
AD
100
AcDbEntity
100
AcDbCircle
  8
Top-fix-vues-orthogonales
 62
256
370
-1
  6
ByLayer
 10
-126.9250001460000021
 20
64.2599999007999969
 30
0.0
 40
2.0
  0
LINE
  5
AE
100
AcDbEntity
100
AcDbLine
  8
Top-fix-vues-orthogonales
 62
256
370
-1
  6
ByLayer
 10
-130.9250001460000021
 20
17.4599999007999998
 30
0.0
 11
-130.9250001460000021
 21
68.2599999007999969
 31
0.0
  0
ENDBLK
  5
AF
100
AcDbEntity
  8
0
100
AcDbBlockEnd
  0
ENDSEC
  0
SECTION
  2
ENTITIES
  0
HATCH
  5
B0
  8
Profils-T
 62
256
370
-1
  6
ByLayer
100
AcDbEntity
100
AcDbHatch
 10
0.0
 20
0.0
 30
0.0
210
0.0
220
0.0
230
1.0
  2
SOLID
 70
1
 71
0
 91
1
 92
1
 93
8
 72
1
 10
716.9455080760000101
 20
-10.6495190528000006
 11
717.6955080760000101
 21
-9.3504809471599994
 72
1
 10
717.6955080760000101
 20
-9.3504809471599994
 11
701.6740381060000118
 21
-0.100480947162
 72
1
 10
701.6740381060000118
 20
-0.100480947162
 11
706.2990381060000118
 21
7.9102540378399997
 72
1
 10
706.2990381060000118
 20
7.9102540378399997
 11
705.0
 21
8.6602540378399997
 72
1
 10
705.0
 20
8.6602540378399997
 11
695.0
 21
-8.6602540378399997
 72
1
 10
695.0
 20
-8.6602540378399997
 11
696.2990381060000118
 21
-9.4102540378399997
 72
1
 10
696.2990381060000118
 20
-9.4102540378399997
 11
700.9240381060000118
 21
-1.3995190528400001
 72
1
 10
700.9240381060000118
 20
-1.3995190528400001
 11
716.9455080760000101
 21
-10.6495190528000006
 97
0
 75
0
 76
1
 98
0
  0
HATCH
  5
B1
  8
Profils-T
 62
256
370
-1
  6
ByLayer
100
AcDbEntity
100
AcDbHatch
 10
0.0
 20
0.0
 30
0.0
210
0.0
220
0.0
230
1.0
  2
SOLID
 70
1
 71
0
 91
1
 92
1
 93
8
 72
1
 10
-16.9455080757000012
 20
-10.6495190528000006
 11
-17.6955080757000012
 21
-9.3504809471599994
 72
1
 10
-17.6955080757000012
 20
-9.3504809471599994
 11
-1.67403810568
 21
-0.100480947162
 72
1
 10
-1.67403810568
 20
-0.100480947162
 11
-6.2990381056800002
 21
7.9102540378399997
 72
1
 10
-6.2990381056800002
 20
7.9102540378399997
 11
-5.0
 21
8.6602540378399997
 72
1
 10
-5.0
 20
8.6602540378399997
 11
5.0
 21
-8.6602540378399997
 72
1
 10
5.0
 20
-8.6602540378399997
 11
3.7009618943199998
 21
-9.4102540378399997
 72
1
 10
3.7009618943199998
 20
-9.4102540378399997
 11
-0.924038105677
 21
-1.3995190528400001
 72
1
 10
-0.924038105677
 20
-1.3995190528400001
 11
-16.9455080757000012
 21
-10.6495190528000006
 97
0
 75
0
 76
1
 98
0
  0
HATCH
  5
B2
  8
Profils-T
 62
256
370
-1
  6
ByLayer
100
AcDbEntity
100
AcDbHatch
 10
0.0
 20
0.0
 30
0.0
210
0.0
220
0.0
230
1.0
  2
SOLID
 70
1
 71
0
 91
1
 92
1
 93
8
 72
1
 10
350.75
 20
626.2177826490000143
 11
349.25
 21
626.2177826490000143
 72
1
 10
349.25
 20
626.2177826490000143
 11
349.25
 21
607.7177826490000143
 72
1
 10
349.25
 20
607.7177826490000143
 11
340.0
 21
607.7177826490000143
 72
1
 10
340.0
 20
607.7177826490000143
 11
340.0
 21
606.2177826490000143
 72
1
 10
340.0
 20
606.2177826490000143
 11
360.0
 21
606.2177826490000143
 72
1
 10
360.0
 20
606.2177826490000143
 11
360.0
 21
607.7177826490000143
 72
1
 10
360.0
 20
607.7177826490000143
 11
350.75
 21
607.7177826490000143
 72
1
 10
350.75
 20
607.7177826490000143
 11
350.75
 21
626.2177826490000143
 97
0
 75
0
 76
1
 98
0
  0
LINE
  5
B3
100
AcDbEntity
100
AcDbLine
  8
Profils-T
 62
256
370
-1
  6
ByLayer
 10
716.9455080760000101
 20
-10.6495190528000006
 30
0.0
 11
717.6955080760000101
 21
-9.3504809471599994
 31
0.0
  0
LINE
  5
B4
100
AcDbEntity
100
AcDbLine
  8
Profils-T
 62
256
370
-1
  6
ByLayer
 10
695.0
 20
-8.6602540378399997
 30
0.0
 11
696.2990381060000118
 21
-9.4102540378399997
 31
0.0
  0
LINE
  5
B5
100
AcDbEntity
100
AcDbLine
  8
Profils-T
 62
256
370
-1
  6
ByLayer
 10
695.0
 20
-8.6602540378399997
 30
0.0
 11
705.0
 21
8.6602540378399997
 31
0.0
  0
LINE
  5
B6
100
AcDbEntity
100
AcDbLine
  8
Profils-T
 62
256
370
-1
  6
ByLayer
 10
705.0
 20
8.6602540378399997
 30
0.0
 11
706.2990381060000118
 21
7.9102540378399997
 31
0.0
  0
LINE
  5
B7
100
AcDbEntity
100
AcDbLine
  8
Profils-T
 62
256
370
-1
  6
ByLayer
 10
701.6740381060000118
 20
-0.100480947162
 30
0.0
 11
706.2990381060000118
 21
7.9102540378399997
 31
0.0
  0
LINE
  5
B8
100
AcDbEntity
100
AcDbLine
  8
Profils-T
 62
256
370
-1
  6
ByLayer
 10
701.6740381060000118
 20
-0.100480947162
 30
0.0
 11
717.6955080760000101
 21
-9.3504809471599994
 31
0.0
  0
LINE
  5
B9
100
AcDbEntity
100
AcDbLine
  8
Profils-T
 62
256
370
-1
  6
ByLayer
 10
696.2990381060000118
 20
-9.4102540378399997
 30
0.0
 11
700.9240381060000118
 21
-1.3995190528400001
 31
0.0
  0
LINE
  5
BA
100
AcDbEntity
100
AcDbLine
  8
Profils-T
 62
256
370
-1
  6
ByLayer
 10
700.9240381060000118
 20
-1.3995190528400001
 30
0.0
 11
716.9455080760000101
 21
-10.6495190528000006
 31
0.0
  0
LINE
  5
BB
100
AcDbEntity
100
AcDbLine
  8
Profils-T
 62
256
370
-1
  6
ByLayer
 10
-16.9455080757000012
 20
-10.6495190528000006
 30
0.0
 11
-17.6955080757000012
 21
-9.3504809471599994
 31
0.0
  0
LINE
  5
BC
100
AcDbEntity
100
AcDbLine
  8
Profils-T
 62
256
370
-1
  6
ByLayer
 10
5.0
 20
-8.6602540378399997
 30
0.0
 11
3.7009618943199998
 21
-9.4102540378399997
 31
0.0
  0
LINE
  5
BD
100
AcDbEntity
100
AcDbLine
  8
Profils-T
 62
256
370
-1
  6
ByLayer
 10
5.0
 20
-8.6602540378399997
 30
0.0
 11
-5.0
 21
8.6602540378399997
 31
0.0
  0
LINE
  5
BE
100
AcDbEntity
100
AcDbLine
  8
Profils-T
 62
256
370
-1
  6
ByLayer
 10
-5.0
 20
8.6602540378399997
 30
0.0
 11
-6.2990381056800002
 21
7.9102540378399997
 31
0.0
  0
LINE
  5
BF
100
AcDbEntity
100
AcDbLine
  8
Profils-T
 62
256
370
-1
  6
ByLayer
 10
-1.67403810568
 20
-0.100480947162
 30
0.0
 11
-6.2990381056800002
 21
7.9102540378399997
 31
0.0
  0
LINE
  5
C0
100
AcDbEntity
100
AcDbLine
  8
Profils-T
 62
256
370
-1
  6
ByLayer
 10
-1.67403810568
 20
-0.100480947162
 30
0.0
 11
-17.6955080757000012
 21
-9.3504809471599994
 31
0.0
  0
LINE
  5
C1
100
AcDbEntity
100
AcDbLine
  8
Profils-T
 62
256
370
-1
  6
ByLayer
 10
3.7009618943199998
 20
-9.4102540378399997
 30
0.0
 11
-0.924038105677
 21
-1.3995190528400001
 31
0.0
  0
LINE
  5
C2
100
AcDbEntity
100
AcDbLine
  8
Profils-T
 62
256
370
-1
  6
ByLayer
 10
-0.924038105677
 20
-1.3995190528400001
 30
0.0
 11
-16.9455080757000012
 21
-10.6495190528000006
 31
0.0
  0
LINE
  5
C3
100
AcDbEntity
100
AcDbLine
  8
Profils-T
 62
256
370
-1
  6
ByLayer
 10
350.75
 20
626.2177826490000143
 30
0.0
 11
349.25
 21
626.2177826490000143
 31
0.0
  0
LINE
  5
C4
100
AcDbEntity
100
AcDbLine
  8
Profils-T
 62
256
370
-1
  6
ByLayer
 10
360.0
 20
606.2177826490000143
 30
0.0
 11
360.0
 21
607.7177826490000143
 31
0.0
  0
LINE
  5
C5
100
AcDbEntity
100
AcDbLine
  8
Profils-T
 62
256
370
-1
  6
ByLayer
 10
360.0
 20
606.2177826490000143
 30
0.0
 11
340.0
 21
606.2177826490000143
 31
0.0
  0
LINE
  5
C6
100
AcDbEntity
100
AcDbLine
  8
Profils-T
 62
256
370
-1
  6
ByLayer
 10
340.0
 20
606.2177826490000143
 30
0.0
 11
340.0
 21
607.7177826490000143
 31
0.0
  0
LINE
  5
C7
100
AcDbEntity
100
AcDbLine
  8
Profils-T
 62
256
370
-1
  6
ByLayer
 10
349.25
 20
607.7177826490000143
 30
0.0
 11
340.0
 21
607.7177826490000143
 31
0.0
  0
LINE
  5
C8
100
AcDbEntity
100
AcDbLine
  8
Profils-T
 62
256
370
-1
  6
ByLayer
 10
349.25
 20
607.7177826490000143
 30
0.0
 11
349.25
 21
626.2177826490000143
 31
0.0
  0
LINE
  5
C9
100
AcDbEntity
100
AcDbLine
  8
Profils-T
 62
256
370
-1
  6
ByLayer
 10
360.0
 20
607.7177826490000143
 30
0.0
 11
350.75
 21
607.7177826490000143
 31
0.0
  0
LINE
  5
CA
100
AcDbEntity
100
AcDbLine
  8
Profils-T
 62
256
370
-1
  6
ByLayer
 10
350.75
 20
607.7177826490000143
 30
0.0
 11
350.75
 21
626.2177826490000143
 31
0.0
  0
DIMENSION
  5
CB
100
AcDbEntity
  8
cotes
 62
256
370
-1
  6
ByLayer
100
AcDbDimension
 10
350.0
 20
606.2177826490000143
 30
0.0
 11
170.1286071039999968
 21
305.9213913250000019
 31
0.0
 70
1
 71
5
 72
1
 41
1.0
 42
0.0
  1

  3
Standard
100
AcDbAlignedDimension
 13
0.0000000000000568
 23
0.0000000000000231
 33
0.0
 14
350.0
 24
606.2177826490000143
 34
0.0
  0
DIMENSION
  5
CC
100
AcDbEntity
  8
cotes
 62
256
370
-1
  6
ByLayer
100
AcDbDimension
 10
779.1451779669999951
 20
202.0725942159999988
 30
0.0
 11
564.5725889840000491
 21
207.6975942159999988
 31
0.0
 70
0
 71
5
 72
1
 41
1.0
 42
0.0
  1

  3
Standard
100
AcDbAlignedDimension
 13
350.0
 23
202.0725942159999988
 33
0.0
 14
779.1451779669999951
 24
202.0725942159999988
 34
0.0
 50
0.0
100
AcDbRotatedDimension
  0
LINE
  5
CD
100
AcDbEntity
100
AcDbLine
  8
plateau
 62
256
370
-1
  6
ByLayer
 10
0.0
 20
0.0
 30
0.0
 11
750.0
 21
0.0
 31
0.0
  0
LINE
  5
CE
100
AcDbEntity
100
AcDbLine
  8
plateau
 62
256
370
-1
  6
ByLayer
 10
375.0
 20
649.5190528379999932
 30
0.0
 11
750.0
 21
0.0
 31
0.0
  0
LINE
  5
CF
100
AcDbEntity
100
AcDbLine
  8
plateau
 62
256
370
-1
  6
ByLayer
 10
375.0
 20
649.5190528379999932
 30
0.0
 11
0.0
 21
0.0
 31
0.0
  0
INSERT
  5
D0
100
AcDbEntity
100
AcDbBlockReference
  8
plateau
 62
256
370
-1
  6
ByLayer
  2
all-test-0
 10
731.3134289829999943
 20
65.3830169740000002
 30
0.0
 50
59.9999999999999929
  0
INSERT
  5
D1
100
AcDbEntity
100
AcDbBlockReference
  8
plateau
 62
256
370
-1
  6
ByLayer
  2
all-test-0
 10
65.9666391840000017
 20
-16.5084632768000006
 30
0.0
 50
300.0
  0
INSERT
  5
D2
100
AcDbEntity
100
AcDbBlockReference
  8
plateau
 62
256
370
-1
  6
ByLayer
  2
all-test-0
 10
327.7199318329999755
 20
600.644499140999983
 30
0.0
 50
180.0
  0
LINE
  5
D3
100
AcDbEntity
100
AcDbLine
  8
plateau-haut
 62
256
370
-1
  6
ByLayer
 10
319.3408666990000029
 20
751.1932476460000316
 30
0.0
 11
1069.340866700000106
 21
751.1932476460000316
 31
0.0
  0
LINE
  5
D4
100
AcDbEntity
100
AcDbLine
  8
plateau-haut
 62
256
370
-1
  6
ByLayer
 10
694.3408666990000029
 20
101.6741948070000063
 30
0.0
 11
1069.340866700000106
 21
751.1932476460000316
 31
0.0
  0
LINE
  5
D5
100
AcDbEntity
100
AcDbLine
  8
plateau-haut
 62
256
370
-1
  6
ByLayer
 10
694.3408666990000029
 20
101.6741948070000063
 30
0.0
 11
319.3408666990000029
 21
751.1932476460000316
 31
0.0
  0
INSERT
  5
D6
100
AcDbEntity
100
AcDbBlockReference
  8
top2
 62
256
370
-1
  6
ByLayer
  2
all-test-1
 10
812.1408666989999574
 20
126.7991948070000063
 30
0.0
  0
MTEXT
  5
D7
100
AcDbEntity
100
AcDbMText
  8
top2
 62
256
370
-1
  6
ByLayer
 10
0.0
 20
750.7253280280000354
 30
0.0
 40
6.0
 41
273.3333333329999846
 71
1
 72
0
  3
Reprap Jeanne\P-----------------------------------------------------------\PGuide pour la d\U+00e9coupe des plateaux et le placement \Pdes supports\P\Pgithub https://github.com/gnieark/reprapJeanne\Phackespace Jeanned'hack: https://wiki.jeannedhack.o
  1
rg/\P\PBy \P* Gnieark https://blog-du-grouik.tinad.fr\P* TranKILLoman\P* Thimoth\P\Pscale 1:1 AO
  7
standard
 50
0.0
 73
1
 44
1.0
  0
LINE
  5
D8
100
AcDbEntity
100
AcDbLine
  8
top2
 62
256
370
-1
  6
ByLayer
 10
694.3408666999999923
 20
751.1932476460000316
 30
0.0
 11
1069.340866700000106
 21
751.1932476460000316
 31
0.0
  0
INSERT
  5
D9
100
AcDbEntity
100
AcDbBlockReference
  8
top2
 62
256
370
-1
  6
ByLayer
  2
all-test-1
 10
988.6819784299999583
 20
840.6485402119999435
 30
0.0
 50
119.9999999999999858
  0
INSERT
  5
DA
100
AcDbEntity
100
AcDbBlockReference
  8
top2
 62
256
370
-1
  6
ByLayer
  2
all-test-1
 10
282.1997549690000255
 20
636.6129550800000061
 30
0.0
 50
239.9999999999999716
  0
DIMENSION
  5
DB
100
AcDbEntity
  8
Top-fix-vues-orthogonales
 62
256
370
-1
  6
ByLayer
100
AcDbDimension
 10
0.0000000000000007
 20
12.0263657677139388
 30
0.0
 11
375.0
 21
17.6513657677139406
 31
0.0
 70
0
 71
5
 72
1
 41
1.0
 42
0.0
  1

  3
Standard
100
AcDbAlignedDimension
 13
750.0
 23
0.0
 33
0.0
 14
0.0
 24
0.0
 34
0.0
 50
0.0
100
AcDbRotatedDimension
  0
DIMENSION
  5
DC
100
AcDbEntity
  8
Top-fix-vues-orthogonales
 62
256
370
-1
  6
ByLayer
100
AcDbDimension
 10
746.3080552919341244
 20
101.6741948069999921
 30
0.0
 11
740.6830552919341244
 21
117.8846050036250404
 31
0.0
 70
0
 71
5
 72
1
 41
1.0
 42
0.0
  1

  3
Standard
100
AcDbAlignedDimension
 13
703.0721749289999707
 23
134.0950152002500602
 33
0.0
 14
694.3408666990000029
 24
101.6741948070000063
 34
0.0
 50
90.0
100
AcDbRotatedDimension
  0
LINE
  5
DD
100
AcDbEntity
100
AcDbLine
  8
Top-fix-vues-orthogonales
 62
256
370
-1
  6
ByLayer
 10
703.0721749289999707
 20
134.0950152002500602
 30
0.0
 11
722.0675234586519764
 21
134.0950152002500602
 31
0.0
  0
DIMENSION
  5
DE
100
AcDbEntity
  8
Top-fix-vues-orthogonales
 62
256
370
-1
  6
ByLayer
100
AcDbDimension
 10
733.3162581436687333
 20
79.1717420646126726
 30
0.0
 11
737.8039499380943198
 21
98.1946522612411457
 31
0.0
 70
1
 71
5
 72
1
 41
1.0
 42
0.0
  1

  3
Standard
100
AcDbAlignedDimension
 13
713.0590360804220609
 23
134.0950152002500602
 33
0.0
 14
694.3408666990000029
 24
101.6741948070000063
 34
0.0
  0
DIMENSION
  5
DF
100
AcDbEntity
  8
Top-fix-vues-orthogonales
 62
256
370
-1
  6
ByLayer
100
AcDbDimension
 10
713.0590360804220609
 20
151.924194807000049
 30
0.0
 11
708.0656055047110158
 21
157.549194807000049
 31
0.0
 70
0
 71
5
 72
1
 41
1.0
 42
0.0
  1

  3
Standard
100
AcDbAlignedDimension
 13
703.0721749289999707
 23
134.0950152002500602
 33
0.0
 14
713.0590360804220609
 24
134.0950152002500602
 34
0.0
 50
0.0
100
AcDbRotatedDimension
  0
ENDSEC
  0
SECTION
  2
OBJECTS
  0
DICTIONARY
  5
C
100
AcDbDictionary
280
0
281
1
  3
ACAD_GROUP
350
D
  3
ACAD_LAYOUT
350
1A
  3
ACAD_MLINESTYLE
350
17
  3
ACAD_PLOTSETTINGS
350
19
  3
ACAD_PLOTSTYLENAME
350
E
  3
AcDbVariableDictionary
350
E0
  0
DICTIONARY
  5
D
100
AcDbDictionary
280
0
281
1
  0
ACDBDICTIONARYWDFLT
  5
E
100
AcDbDictionary
281
1
  3
Normal
350
F
100
AcDbDictionaryWithDefault
340
F
  0
ACDBPLACEHOLDER
  5
F
  0
DICTIONARY
  5
17
100
AcDbDictionary
280
0
281
1
  3
Standard
350
18
  0
MLINESTYLE
  5
18
100
AcDbMlineStyle
  2
STANDARD
 70
0
  3

 62
256
 51
90.0
 52
90.0
 71
2
 49
0.5
 62
256
  6
BYLAYER
 49
-0.5
 62
256
  6
BYLAYER
  0
DICTIONARY
  5
19
100
AcDbDictionary
280
0
281
1
  0
DICTIONARY
  5
1A
100
AcDbDictionary
281
1
  3
Layout1
350
1E
  3
Layout2
350
26
  3
Model
350
22
  0
LAYOUT
  5
1E
100
AcDbPlotSettings
  1

  2
C:\Program Files\AutoCAD 2002\plotters\DWF ePlot (optimized for plotting).pc3
  4

  6

 40
0.0
 41
0.0
 42
0.0
 43
0.0
 44
0.0
 45
0.0
 46
0.0
 47
0.0
 48
0.0
 49
0.0
140
0.0
141
0.0
142
1.0
143
1.0
 70
688
 72
0
 73
0
 74
5
  7

 75
16
147
1.0
148
0.0
149
0.0
100
AcDbLayout
  1
Layout1
 70
1
 71
1
 10
0.0
 20
0.0
 11
420.0
 21
297.0
 12
0.0
 22
0.0
 32
0.0
 14
100000000000000000000.0
 24
100000000000000000000.0
 34
100000000000000000000.0
 15
-100000000000000000000.0
 25
-100000000000000000000.0
 35
-100000000000000000000.0
146
0.0
 13
0.0
 23
0.0
 33
0.0
 16
1.0
 26
0.0
 36
0.0
 17
0.0
 27
1.0
 37
0.0
 76
0
330
1B
  0
LAYOUT
  5
22
100
AcDbPlotSettings
  1

  2
C:\Program Files\AutoCAD 2002\plotters\DWF ePlot (optimized for plotting).pc3
  4

  6

 40
0.0
 41
0.0
 42
0.0
 43
0.0
 44
0.0
 45
0.0
 46
0.0
 47
0.0
 48
0.0
 49
0.0
140
0.0
141
0.0
142
1.0
143
1.0
 70
1712
 72
0
 73
0
 74
0
  7

 75
0
147
1.0
148
0.0
149
0.0
100
AcDbLayout
  1
Model
 70
1
 71
0
 10
0.0
 20
0.0
 11
12.0
 21
9.0
 12
0.0
 22
0.0
 32
0.0
 14
0.0
 24
0.0
 34
0.0
 15
0.0
 25
0.0
 35
0.0
146
0.0
 13
0.0
 23
0.0
 33
0.0
 16
1.0
 26
0.0
 36
0.0
 17
0.0
 27
1.0
 37
0.0
 76
0
330
1F
  0
LAYOUT
  5
26
100
AcDbPlotSettings
  1

  2
C:\Program Files\AutoCAD 2002\plotters\DWF ePlot (optimized for plotting).pc3
  4

  6

 40
0.0
 41
0.0
 42
0.0
 43
0.0
 44
0.0
 45
0.0
 46
0.0
 47
0.0
 48
0.0
 49
0.0
140
0.0
141
0.0
142
1.0
143
1.0
 70
688
 72
0
 73
0
 74
5
  7

 75
16
147
1.0
148
0.0
149
0.0
100
AcDbLayout
  1
Layout2
 70
1
 71
2
 10
0.0
 20
0.0
 11
12.0
 21
9.0
 12
0.0
 22
0.0
 32
0.0
 14
0.0
 24
0.0
 34
0.0
 15
0.0
 25
0.0
 35
0.0
146
0.0
 13
0.0
 23
0.0
 33
0.0
 16
1.0
 26
0.0
 36
0.0
 17
0.0
 27
1.0
 37
0.0
 76
0
330
23
  0
DICTIONARY
  5
E0
100
AcDbDictionary
281
1
  3
DIMASSOC
350
E2
  3
HIDETEXT
350
E1
  0
DICTIONARYVAR
  5
E1
100
DictionaryVariables
280
0
  1
2
  0
DICTIONARYVAR
  5
E2
100
DictionaryVariables
280
0
  1
1
  0
ENDSEC
  0
EOF
